  0
SECTION
  2
HEADER
  9
$ACADVER
  1
AC1018
  9
$ACADMAINTVER
 70
     0
  9
$DWGCODEPAGE
  3
ANSI_936
  9
$INSBASE
 10
0.0
 20
0.0
 30
0.0
  9
$EXTMIN
 10
0.0
 20
-97.63607878278982
 30
0.0
  9
$EXTMAX
 10
208.3461336774078
 20
40.31829609719999
 30
0.0
  9
$LIMMIN
 10
0.0
 20
0.0
  9
$LIMMAX
 10
11.6929133858
 20
8.267716535399999
  9
$ORTHOMODE
 70
     1
  9
$REGENMODE
 70
     1
  9
$FILLMODE
 70
     1
  9
$QTEXTMODE
 70
     0
  9
$MIRRTEXT
 70
     1
  9
$LTSCALE
 40
0.6431102362
  9
$ATTMODE
 70
     1
  9
$TEXTSIZE
 40
0.0
  9
$TRACEWID
 40
0.05
  9
$TEXTSTYLE
  7
STANDARD
  9
$CLAYER
  8
0
  9
$CELTYPE
  6
BYLAYER
  9
$CECOLOR
 62
   256
  9
$CELTSCALE
 40
1.0
  9
$DISPSILH
 70
     0
  9
$DIMSCALE
 40
1.0
  9
$DIMASZ
 40
0.1875
  9
$DIMEXO
 40
0.0730807087
  9
$DIMDLI
 40
0.4443307087
  9
$DIMRND
 40
0.0
  9
$DIMDLE
 40
0.0
  9
$DIMEXE
 40
0.2104724409
  9
$DIMTP
 40
0.0
  9
$DIMTM
 40
0.0
  9
$DIMTXT
 40
2.0
  9
$DIMCEN
 40
0.1052362205
  9
$DIMTSZ
 40
0.0
  9
$DIMTOL
 70
     0
  9
$DIMLIM
 70
     0
  9
$DIMTIH
 70
     1
  9
$DIMTOH
 70
     1
  9
$DIMSE1
 70
     0
  9
$DIMSE2
 70
     0
  9
$DIMTAD
 70
     0
  9
$DIMZIN
 70
     0
  9
$DIMBLK
  1

  9
$DIMASO
 70
     1
  9
$DIMSHO
 70
     1
  9
$DIMPOST
  1

  9
$DIMAPOST
  1

  9
$DIMALT
 70
     0
  9
$DIMALTD
 70
     2
  9
$DIMALTF
 40
25.4
  9
$DIMLFAC
 40
1.0
  9
$DIMTOFL
 70
     0
  9
$DIMTVP
 40
0.0
  9
$DIMTIX
 70
     0
  9
$DIMSOXD
 70
     0
  9
$DIMSAH
 70
     0
  9
$DIMBLK1
  1

  9
$DIMBLK2
  1

  9
$DIMSTYLE
  2
STANDARD
  9
$DIMCLRD
 70
     3
  9
$DIMCLRE
 70
     4
  9
$DIMCLRT
 70
     1
  9
$DIMTFAC
 40
1.0
  9
$DIMGAP
 40
0.09
  9
$DIMJUST
 70
     0
  9
$DIMSD1
 70
     0
  9
$DIMSD2
 70
     0
  9
$DIMTOLJ
 70
     1
  9
$DIMTZIN
 70
     0
  9
$DIMALTZ
 70
     0
  9
$DIMALTTZ
 70
     0
  9
$DIMUPT
 70
     0
  9
$DIMDEC
 70
     2
  9
$DIMTDEC
 70
     2
  9
$DIMALTU
 70
     2
  9
$DIMALTTD
 70
     2
  9
$DIMTXSTY
  7
STANDARD
  9
$DIMAUNIT
 70
     0
  9
$DIMADEC
 70
     0
  9
$DIMALTRND
 40
0.0
  9
$DIMAZIN
 70
     0
  9
$DIMDSEP
 70
    46
  9
$DIMATFIT
 70
     3
  9
$DIMFRAC
 70
     0
  9
$DIMLDRBLK
  1

  9
$DIMLUNIT
 70
     2
  9
$DIMLWD
 70
    -2
  9
$DIMLWE
 70
    -2
  9
$DIMTMOVE
 70
     0
  9
$LUNITS
 70
     2
  9
$LUPREC
 70
     4
  9
$SKETCHINC
 40
0.1
  9
$FILLETRAD
 40
0.0
  9
$AUNITS
 70
     0
  9
$AUPREC
 70
     0
  9
$MENU
  1
acad
  9
$ELEVATION
 40
0.0
  9
$PELEVATION
 40
0.0
  9
$THICKNESS
 40
0.0
  9
$LIMCHECK
 70
     0
  9
$CHAMFERA
 40
0.0
  9
$CHAMFERB
 40
0.0
  9
$CHAMFERC
 40
0.0
  9
$CHAMFERD
 40
0.0
  9
$SKPOLY
 70
     0
  9
$TDCREATE
 40
2444972.333333334
  9
$TDUCREATE
 40
2444972.000000000
  9
$TDUPDATE
 40
2458085.673632083
  9
$TDUUPDATE
 40
2458085.340298750
  9
$TDINDWG
 40
0.0034291898
  9
$TDUSRTIMER
 40
0.0034291898
  9
$USRTIMER
 70
     1
  9
$ANGBASE
 50
0.0
  9
$ANGDIR
 70
     0
  9
$PDMODE
 70
     0
  9
$PDSIZE
 40
0.0
  9
$PLINEWID
 40
0.0
  9
$SPLFRAME
 70
     0
  9
$SPLINETYPE
 70
     6
  9
$SPLINESEGS
 70
     8
  9
$HANDSEED
  5
190
  9
$SURFTAB1
 70
     6
  9
$SURFTAB2
 70
     6
  9
$SURFTYPE
 70
     6
  9
$SURFU
 70
     6
  9
$SURFV
 70
     6
  9
$UCSBASE
  2

  9
$UCSNAME
  2

  9
$UCSORG
 10
0.0
 20
0.0
 30
0.0
  9
$UCSXDIR
 10
1.0
 20
0.0
 30
0.0
  9
$UCSYDIR
 10
0.0
 20
1.0
 30
0.0
  9
$UCSORTHOREF
  2

  9
$UCSORTHOVIEW
 70
     0
  9
$UCSORGTOP
 10
0.0
 20
0.0
 30
0.0
  9
$UCSORGBOTTOM
 10
0.0
 20
0.0
 30
0.0
  9
$UCSORGLEFT
 10
0.0
 20
0.0
 30
0.0
  9
$UCSORGRIGHT
 10
0.0
 20
0.0
 30
0.0
  9
$UCSORGFRONT
 10
0.0
 20
0.0
 30
0.0
  9
$UCSORGBACK
 10
0.0
 20
0.0
 30
0.0
  9
$PUCSBASE
  2

  9
$PUCSNAME
  2

  9
$PUCSORG
 10
0.0
 20
0.0
 30
0.0
  9
$PUCSXDIR
 10
1.0
 20
0.0
 30
0.0
  9
$PUCSYDIR
 10
0.0
 20
1.0
 30
0.0
  9
$PUCSORTHOREF
  2

  9
$PUCSORTHOVIEW
 70
     0
  9
$PUCSORGTOP
 10
0.0
 20
0.0
 30
0.0
  9
$PUCSORGBOTTOM
 10
0.0
 20
0.0
 30
0.0
  9
$PUCSORGLEFT
 10
0.0
 20
0.0
 30
0.0
  9
$PUCSORGRIGHT
 10
0.0
 20
0.0
 30
0.0
  9
$PUCSORGFRONT
 10
0.0
 20
0.0
 30
0.0
  9
$PUCSORGBACK
 10
0.0
 20
0.0
 30
0.0
  9
$USERI1
 70
     0
  9
$USERI2
 70
     0
  9
$USERI3
 70
     0
  9
$USERI4
 70
     0
  9
$USERI5
 70
     0
  9
$USERR1
 40
0.0
  9
$USERR2
 40
0.0
  9
$USERR3
 40
0.0
  9
$USERR4
 40
0.0
  9
$USERR5
 40
0.0
  9
$WORLDVIEW
 70
     1
  9
$SHADEDGE
 70
     3
  9
$SHADEDIF
 70
    70
  9
$TILEMODE
 70
     1
  9
$MAXACTVP
 70
    16
  9
$PINSBASE
 10
0.0
 20
0.0
 30
0.0
  9
$PLIMCHECK
 70
     0
  9
$PEXTMIN
 10
1.000000000000000E+20
 20
1.000000000000000E+20
 30
1.000000000000000E+20
  9
$PEXTMAX
 10
-1.000000000000000E+20
 20
-1.000000000000000E+20
 30
-1.000000000000000E+20
  9
$PLIMMIN
 10
0.0
 20
0.0
  9
$PLIMMAX
 10
12.0
 20
9.0
  9
$UNITMODE
 70
     0
  9
$VISRETAIN
 70
     0
  9
$PLINEGEN
 70
     1
  9
$PSLTSCALE
 70
     0
  9
$TREEDEPTH
 70
  3020
  9
$CMLSTYLE
  2
STANDARD
  9
$CMLJUST
 70
     0
  9
$CMLSCALE
 40
1.0
  9
$PROXYGRAPHICS
 70
     1
  9
$MEASUREMENT
 70
     0
  9
$CELWEIGHT
370
    -1
  9
$ENDCAPS
280
     0
  9
$JOINSTYLE
280
     0
  9
$LWDISPLAY
290
     0
  9
$INSUNITS
 70
     0
  9
$HYPERLINKBASE
  1

  9
$STYLESHEET
  1

  9
$XEDIT
290
     1
  9
$CEPSNTYPE
380
     0
  9
$PSTYLEMODE
290
     1
  9
$FINGERPRINTGUID
  2
{91A6A334-5872-4F5C-AED8-65C81B85CE05}
  9
$VERSIONGUID
  2
{F577B4BD-0AB0-4464-ABCC-93E59A88A652}
  9
$EXTNAMES
290
     1
  9
$PSVPSCALE
 40
0.0
  9
$OLESTARTUP
290
     0
  9
$SORTENTS
280
   127
  9
$INDEXCTL
280
     0
  9
$HIDETEXT
280
     0
  9
$XCLIPFRAME
290
     0
  9
$HALOGAP
280
     0
  9
$OBSCOLOR
 70
   257
  9
$OBSLTYPE
280
     0
  9
$INTERSECTIONDISPLAY
280
     0
  9
$INTERSECTIONCOLOR
 70
   257
  9
$DIMASSOC
280
     1
  9
$PROJECTNAME
  1

  0
ENDSEC
  0
SECTION
  2
CLASSES
  0
CLASS
  1
IMAGE
  2
AcDbRasterImage
  3
ISM
 90
      127
 91
        0
280
     0
281
     1
  0
CLASS
  1
DICTIONARYVAR
  2
AcDbDictionaryVar
  3
ObjectDBX Classes
 90
        0
 91
        0
280
     0
281
     0
  0
CLASS
  1
RASTERVARIABLES
  2
AcDbRasterVariables
  3
ISM
 90
        0
 91
        0
280
     0
281
     0
  0
CLASS
  1
IMAGEDEF
  2
AcDbRasterImageDef
  3
ISM
 90
        0
 91
        0
280
     0
281
     0
  0
CLASS
  1
IMAGEDEF_REACTOR
  2
AcDbRasterImageDefReactor
  3
ISM
 90
        1
 91
        0
280
     0
281
     0
  0
CLASS
  1
IDBUFFER
  2
AcDbIdBuffer
  3
ObjectDBX Classes
 90
        0
 91
        0
280
     0
281
     0
  0
CLASS
  1
SPATIAL_FILTER
  2
AcDbSpatialFilter
  3
ObjectDBX Classes
 90
        0
 91
        0
280
     0
281
     0
  0
CLASS
  1
SORTENTSTABLE
  2
AcDbSortentsTable
  3
ObjectDBX Classes
 90
        0
 91
        0
280
     0
281
     0
  0
CLASS
  1
LAYER_INDEX
  2
AcDbLayerIndex
  3
ObjectDBX Classes
 90
        0
 91
        0
280
     0
281
     0
  0
CLASS
  1
SPATIAL_INDEX
  2
AcDbSpatialIndex
  3
ObjectDBX Classes
 90
        0
 91
        0
280
     0
281
     0
  0
CLASS
  1
OBJECT_PTR
  2
CAseDLPNTableRecord
  3
ASE-LPNTableRecord
 90
        1
 91
        0
280
     0
281
     0
  0
CLASS
  1
PLOTSETTINGS
  2
AcDbPlotSettings
  3
ObjectDBX Classes
 90
        0
 91
        0
280
     0
281
     0
  0
CLASS
  1
ACDBDICTIONARYWDFLT
  2
AcDbDictionaryWithDefault
  3
ObjectDBX Classes
 90
        0
 91
        1
280
     0
281
     0
  0
CLASS
  1
WIPEOUT
  2
AcDbWipeout
  3
"WipeOut|Product Desc: Object Enabler for WipeOut entity^I^I^I^I^I^I|Company: Autodesk, Inc.^I^I^I^I^I^I|WEB Address: www.autodesk.com"
 90
      127
 91
        0
280
     0
281
     1
  0
CLASS
  1
WIPEOUTVARIABLES
  2
AcDbWipeoutVariables
  3
"WipeOut|Product Desc:     WipeOut Dbx Application|Company:          Autodesk, Inc.|WEB Address:      www.autodesk.com"
 90
        0
 91
        0
280
     0
281
     0
  0
CLASS
  1
RTEXT
  2
RText
  3
RText|AutoCAD Express Tool|expresstools@autodesk.com
 90
        0
 91
        0
280
     0
281
     1
  0
CLASS
  1
ARCALIGNEDTEXT
  2
AcDbArcAlignedText
  3
ATEXT|AutoCAD Express Tool|expresstools@autodesk.com
 90
        0
 91
        0
280
     0
281
     1
  0
ENDSEC
  0
SECTION
  2
TABLES
  0
TABLE
  2
VPORT
  5
6
330
0
100
AcDbSymbolTable
 70
     6
  0
VPORT
  5
18F
330
6
100
AcDbSymbolTableRecord
100
AcDbViewportTableRecord
  2
*Active
 70
     0
 10
0.0
 20
0.0
 11
1.0
 21
1.0
 12
80.87530683172497
 22
-32.7644823849255
 13
0.0
 23
0.0
 14
1.0
 24
1.0
 15
0.0
 25
0.0
 16
0.0
 26
0.0
 36
1.0
 17
0.0
 27
0.0
 37
0.0
 40
184.0379815849706
 41
2.070336391437308
 42
50.0
 43
0.0
 44
0.0
 50
0.0
 51
0.0
 71
     0
 72
   100
 73
     1
 74
     1
 75
     0
 76
     0
 77
     0
 78
     0
281
     0
 65
     1
110
0.0
120
0.0
130
0.0
111
1.0
121
0.0
131
0.0
112
0.0
122
1.0
132
0.0
 79
     0
146
0.0
  0
ENDTAB
  0
TABLE
  2
LTYPE
  5
3
330
0
100
AcDbSymbolTable
 70
     6
  0
LTYPE
  5
C
330
3
100
AcDbSymbolTableRecord
100
AcDbLinetypeTableRecord
  2
BYBLOCK
 70
     0
  3

 72
    65
 73
     0
 40
0.0
  0
LTYPE
  5
D
330
3
100
AcDbSymbolTableRecord
100
AcDbLinetypeTableRecord
  2
BYLAYER
 70
     0
  3

 72
    65
 73
     0
 40
0.0
  0
LTYPE
  5
E
330
3
100
AcDbSymbolTableRecord
100
AcDbLinetypeTableRecord
  2
CONTINUOUS
 70
     0
  3
Solid line
 72
    65
 73
     0
 40
0.0
  0
LTYPE
  5
F
330
3
100
AcDbSymbolTableRecord
100
AcDbLinetypeTableRecord
  2
CENTER
 70
     0
  3
____ _ ____ _ ____ _ ____ _ ____ _ ____ _ ____
 72
    65
 73
     4
 40
0.6
 49
0.375
 74
     0
 49
-0.075
 74
     0
 49
0.075
 74
     0
 49
-0.075
 74
     0
  0
LTYPE
  5
10
330
3
100
AcDbSymbolTableRecord
100
AcDbLinetypeTableRecord
  2
HIDDEN
 70
     0
  3
- - - - - - - - - - - - - - - - - - - -
 72
    65
 73
     2
 40
0.2
 49
0.1
 74
     0
 49
-0.1
 74
     0
  0
LTYPE
  5
11
330
3
100
AcDbSymbolTableRecord
100
AcDbLinetypeTableRecord
  2
PHANTOM
 70
     0
  3
_____ _ _ _____ _ _ _____ _ _ _____
 72
    65
 73
     6
 40
0.8
 49
0.45
 74
     0
 49
-0.05
 74
     0
 49
0.1
 74
     0
 49
-0.05
 74
     0
 49
0.1
 74
     0
 49
-0.05
 74
     0
  0
LTYPE
  5
12
330
3
100
AcDbSymbolTableRecord
100
AcDbLinetypeTableRecord
  2
DOT
 70
     0
  3
. . . . . . . . . . . . . . . . . . . .
 72
    65
 73
     2
 40
0.2
 49
0.1
 74
     0
 49
-0.1
 74
     0
  0
LTYPE
  5
13
330
3
100
AcDbSymbolTableRecord
100
AcDbLinetypeTableRecord
  2
DASHED
 70
     0
  3
- - - - - - - - - - - - - - - - - - - -
 72
    65
 73
     2
 40
0.2
 49
0.1
 74
     0
 49
-0.1
 74
     0
  0
ENDTAB
  0
TABLE
  2
LAYER
  5
1
330
0
100
AcDbSymbolTable
 70
     5
  0
LAYER
  5
14
330
1
100
AcDbSymbolTableRecord
100
AcDbLayerTableRecord
  2
0
 70
     0
 62
     7
  6
CONTINUOUS
370
    -3
390
DC
  0
LAYER
  5
15
330
1
100
AcDbSymbolTableRecord
100
AcDbLayerTableRecord
  2
DEFAULT_1
 70
     0
 62
     7
  6
CENTER
370
    -3
390
DC
  0
LAYER
  5
16
330
1
100
AcDbSymbolTableRecord
100
AcDbLayerTableRecord
  2
DEFAULT_2
 70
     0
 62
     8
  6
HIDDEN
370
    -3
390
DC
  0
LAYER
  5
17
330
1
100
AcDbSymbolTableRecord
100
AcDbLayerTableRecord
  2
DEFAULT_3
 70
     0
 62
     7
  6
PHANTOM
370
    -3
390
DC
  0
LAYER
  5
E6
330
1
100
AcDbSymbolTableRecord
100
AcDbLayerTableRecord
  2
Defpoints
 70
     0
 62
     7
  6
CONTINUOUS
290
     0
370
    -3
390
DC
  0
ENDTAB
  0
TABLE
  2
STYLE
  5
2
330
0
100
AcDbSymbolTable
 70
     1
  0
STYLE
  5
1A
330
2
100
AcDbSymbolTableRecord
100
AcDbTextStyleTableRecord
  2
STANDARD
 70
     0
 40
0.0
 41
1.0
 50
0.0
 71
     0
 42
0.0
  3
txt
  4

  0
ENDTAB
  0
TABLE
  2
VIEW
  5
4
330
0
100
AcDbSymbolTable
 70
     0
  0
ENDTAB
  0
TABLE
  2
UCS
  5
5
330
0
100
AcDbSymbolTable
 70
     0
  0
ENDTAB
  0
TABLE
  2
APPID
  5
7
330
0
100
AcDbSymbolTable
 70
     2
  0
APPID
  5
19
330
7
100
AcDbSymbolTableRecord
100
AcDbRegAppTableRecord
  2
ACAD
 70
     0
  0
APPID
  5
162
330
7
100
AcDbSymbolTableRecord
100
AcDbRegAppTableRecord
  2
DCO15
 70
     0
  0
ENDTAB
  0
TABLE
  2
DIMSTYLE
  5
8
330
0
100
AcDbSymbolTable
 70
     1
100
AcDbDimStyleTable
 71
     1
340
22
  0
DIMSTYLE
105
22
102
{ACAD_REACTORS
330
E5
330
F4
330
102
330
11A
330
128
330
136
330
144
330
152
330
168
330
176
330
184
102
}
330
8
100
AcDbSymbolTableRecord
100
AcDbDimStyleTableRecord
  2
STANDARD
 70
     0
 47
0.01
 48
0.01
140
0.15625
289
     0
340
1A
  0
ENDTAB
  0
TABLE
  2
BLOCK_RECORD
  5
1D
330
0
100
AcDbSymbolTable
 70
    11
  0
BLOCK_RECORD
  5
1B
330
1D
100
AcDbSymbolTableRecord
100
AcDbBlockTableRecord
  2
*MODEL_SPACE
340
E1
  0
BLOCK_RECORD
  5
1C
330
1D
100
AcDbSymbolTableRecord
100
AcDbBlockTableRecord
  2
*PAPER_SPACE
340
E2
  0
BLOCK_RECORD
  5
E7
330
1D
100
AcDbSymbolTableRecord
100
AcDbBlockTableRecord
  2
*D0
340
0
  0
BLOCK_RECORD
  5
F5
330
1D
100
AcDbSymbolTableRecord
100
AcDbBlockTableRecord
  2
*D1
340
0
  0
BLOCK_RECORD
  5
103
330
1D
100
AcDbSymbolTableRecord
100
AcDbBlockTableRecord
  2
*D2
340
0
  0
BLOCK_RECORD
  5
11B
330
1D
100
AcDbSymbolTableRecord
100
AcDbBlockTableRecord
  2
*D3
340
0
  0
BLOCK_RECORD
  5
129
330
1D
100
AcDbSymbolTableRecord
100
AcDbBlockTableRecord
  2
*D4
340
0
  0
BLOCK_RECORD
  5
137
330
1D
100
AcDbSymbolTableRecord
100
AcDbBlockTableRecord
  2
*D5
340
0
  0
BLOCK_RECORD
  5
145
330
1D
100
AcDbSymbolTableRecord
100
AcDbBlockTableRecord
  2
*D6
340
0
  0
BLOCK_RECORD
  5
153
330
1D
100
AcDbSymbolTableRecord
100
AcDbBlockTableRecord
  2
*D7
340
0
  0
BLOCK_RECORD
  5
169
330
1D
100
AcDbSymbolTableRecord
100
AcDbBlockTableRecord
  2
*D8
340
0
  0
BLOCK_RECORD
  5
177
330
1D
100
AcDbSymbolTableRecord
100
AcDbBlockTableRecord
  2
*D9
340
0
  0
BLOCK_RECORD
  5
185
330
1D
100
AcDbSymbolTableRecord
100
AcDbBlockTableRecord
  2
*D10
340
0
  0
ENDTAB
  0
ENDSEC
  0
SECTION
  2
BLOCKS
  0
BLOCK
  5
1E
330
1B
100
AcDbEntity
  8
0
100
AcDbBlockBegin
  2
*MODEL_SPACE
 70
     0
 10
0.0
 20
0.0
 30
0.0
  3
*MODEL_SPACE
  1

  0
ENDBLK
  5
1F
330
1B
100
AcDbEntity
  8
0
100
AcDbBlockEnd
  0
BLOCK
  5
20
330
1C
100
AcDbEntity
 67
     1
  8
0
100
AcDbBlockBegin
  2
*PAPER_SPACE
 70
     0
 10
0.0
 20
0.0
 30
0.0
  3
*PAPER_SPACE
  1

  0
ENDBLK
  5
21
330
1C
100
AcDbEntity
 67
     1
  8
0
100
AcDbBlockEnd
  0
BLOCK
  5
F2
330
E7
100
AcDbEntity
  8
0
100
AcDbBlockBegin
  2
*D0
 70
     1
 10
0.0
 20
0.0
 30
0.0
  3
*D0
  1

  0
LINE
  5
E8
330
E7
100
AcDbEntity
  8
0
 62
     4
370
    -2
100
AcDbLine
 10
180.3507558311
 20
-18.5192881868
 30
0.0
 11
205.0566061183077
 21
-18.51928818680001
 31
0.0
  0
LINE
  5
E9
330
E7
100
AcDbEntity
  8
0
 62
     4
370
    -2
100
AcDbLine
 10
180.3507558311
 20
-88.51928818679999
 30
0.0
 11
205.0566061183077
 21
-88.51928818679999
 31
0.0
  0
LINE
  5
EA
330
E7
100
AcDbEntity
  8
0
 62
     3
370
    -2
100
AcDbLine
 10
204.8461336774077
 20
-18.70678818680001
 30
0.0
 11
204.8461336774077
 21
-52.42928818679999
 31
0.0
  0
LINE
  5
EB
330
E7
100
AcDbEntity
  8
0
 62
     3
370
    -2
100
AcDbLine
 10
204.8461336774077
 20
-88.3317881868
 30
0.0
 11
204.8461336774077
 21
-54.6092881868
 31
0.0
  0
SOLID
  5
EC
330
E7
100
AcDbEntity
  8
0
 62
     3
100
AcDbTrace
 10
204.8148836774077
 20
-18.70678818680001
 30
0.0
 11
204.8773836774077
 21
-18.70678818680001
 31
0.0
 12
204.8461336774077
 22
-18.51928818680001
 32
0.0
 13
204.8461336774077
 23
-18.51928818680001
 33
0.0
  0
SOLID
  5
ED
330
E7
100
AcDbEntity
  8
0
 62
     3
100
AcDbTrace
 10
204.8148836774077
 20
-88.3317881868
 30
0.0
 11
204.8773836774077
 21
-88.3317881868
 31
0.0
 12
204.8461336774077
 22
-88.51928818679999
 32
0.0
 13
204.8461336774077
 23
-88.51928818679999
 33
0.0
  0
MTEXT
  5
EE
330
E7
100
AcDbEntity
  8
0
 62
     1
100
AcDbMText
 10
204.8461336774077
 20
-53.51928818679997
 30
0.0
 40
2.0
 41
0.0
 71
     5
 72
     1
  1
\A1;70.00
 73
     1
 44
1.0
  0
POINT
  5
EF
330
E7
100
AcDbEntity
  8
Defpoints
 62
     0
100
AcDbPoint
 10
180.2776751224
 20
-18.5192881868
 30
0.0
  0
POINT
  5
F0
330
E7
100
AcDbEntity
  8
Defpoints
 62
     0
100
AcDbPoint
 10
180.2776751224
 20
-88.51928818679999
 30
0.0
  0
POINT
  5
F1
330
E7
100
AcDbEntity
  8
Defpoints
 62
     0
100
AcDbPoint
 10
204.8461336774077
 20
-88.51928818679999
 30
0.0
  0
ENDBLK
  5
F3
330
E7
100
AcDbEntity
  8
0
100
AcDbBlockEnd
  0
BLOCK
  5
100
330
F5
100
AcDbEntity
  8
0
100
AcDbBlockBegin
  2
*D1
 70
     1
 10
0.0
 20
0.0
 30
0.0
  3
*D1
  1

  0
LINE
  5
F6
330
F5
100
AcDbEntity
  8
0
 62
     4
370
    -2
100
AcDbLine
 10
180.2776751224
 20
-18.4462074781
 30
0.0
 11
180.2776751224
 21
-5.703892092889125
 31
0.0
  0
LINE
  5
F7
330
F5
100
AcDbEntity
  8
0
 62
     4
370
    -2
100
AcDbLine
 10
55.17767512239998
 20
-18.4462074781
 30
0.0
 11
55.17767512239998
 21
-5.703892092889125
 31
0.0
  0
LINE
  5
F8
330
F5
100
AcDbEntity
  8
0
 62
     3
370
    -2
100
AcDbLine
 10
180.0901751224
 20
-5.914364533789125
 30
0.0
 11
121.9843417890666
 21
-5.914364533789125
 31
0.0
  0
LINE
  5
F9
330
F5
100
AcDbEntity
  8
0
 62
     3
370
    -2
100
AcDbLine
 10
55.36517512239999
 20
-5.914364533789125
 30
0.0
 11
113.4710084557333
 21
-5.914364533789125
 31
0.0
  0
SOLID
  5
FA
330
F5
100
AcDbEntity
  8
0
 62
     3
100
AcDbTrace
 10
180.0901751224
 20
-5.883114533789125
 30
0.0
 11
180.0901751224
 21
-5.945614533789125
 31
0.0
 12
180.2776751224
 22
-5.914364533789125
 32
0.0
 13
180.2776751224
 23
-5.914364533789125
 33
0.0
  0
SOLID
  5
FB
330
F5
100
AcDbEntity
  8
0
 62
     3
100
AcDbTrace
 10
55.36517512239999
 20
-5.883114533789125
 30
0.0
 11
55.36517512239999
 21
-5.945614533789125
 31
0.0
 12
55.17767512239998
 22
-5.914364533789125
 32
0.0
 13
55.17767512239998
 23
-5.914364533789125
 33
0.0
  0
MTEXT
  5
FC
330
F5
100
AcDbEntity
  8
0
 62
     1
100
AcDbMText
 10
117.7276751224
 20
-5.914364533789125
 30
0.0
 40
2.0
 41
0.0
 71
     5
 72
     1
  1
\A1;125.10
 73
     1
 44
1.0
  0
POINT
  5
FD
330
F5
100
AcDbEntity
  8
Defpoints
 62
     0
100
AcDbPoint
 10
180.2776751224
 20
-18.5192881868
 30
0.0
  0
POINT
  5
FE
330
F5
100
AcDbEntity
  8
Defpoints
 62
     0
100
AcDbPoint
 10
55.17767512239998
 20
-18.5192881868
 30
0.0
  0
POINT
  5
FF
330
F5
100
AcDbEntity
  8
Defpoints
 62
     0
100
AcDbPoint
 10
55.17767512239998
 20
-5.914364533789125
 30
0.0
  0
ENDBLK
  5
101
330
F5
100
AcDbEntity
  8
0
100
AcDbBlockEnd
  0
BLOCK
  5
10E
330
103
100
AcDbEntity
  8
0
100
AcDbBlockBegin
  2
*D2
 70
     1
 10
0.0
 20
0.0
 30
0.0
  3
*D2
  1

  0
LINE
  5
110
330
103
100
AcDbEntity
  8
0
 62
     4
370
    -2
100
AcDbLine
 10
61.1776751224
 20
-24.4462074781
 30
0.0
 11
61.1776751224
 21
-15.16093706984207
 31
0.0
  0
LINE
  5
111
330
103
100
AcDbEntity
  8
0
 62
     4
370
    -2
100
AcDbLine
 10
55.17767512239998
 20
-24.479593254817
 30
0.0
 11
55.17767512239998
 21
-15.16093706984207
 31
0.0
  0
LINE
  5
112
330
103
100
AcDbEntity
  8
0
 62
     3
370
    -2
100
AcDbLine
 10
61.3651751224
 20
-15.37140951074207
 30
0.0
 11
61.5526751224
 21
-15.37140951074207
 31
0.0
  0
LINE
  5
113
330
103
100
AcDbEntity
  8
0
 62
     3
370
    -2
100
AcDbLine
 10
54.99017512239999
 20
-15.37140951074207
 30
0.0
 11
54.80267512239999
 21
-15.37140951074207
 31
0.0
  0
SOLID
  5
114
330
103
100
AcDbEntity
  8
0
 62
     3
100
AcDbTrace
 10
61.3651751224
 20
-15.34015951074207
 30
0.0
 11
61.3651751224
 21
-15.40265951074207
 31
0.0
 12
61.1776751224
 22
-15.37140951074207
 32
0.0
 13
61.1776751224
 23
-15.37140951074207
 33
0.0
  0
SOLID
  5
115
330
103
100
AcDbEntity
  8
0
 62
     3
100
AcDbTrace
 10
54.99017512239999
 20
-15.34015951074207
 30
0.0
 11
54.99017512239999
 21
-15.40265951074207
 31
0.0
 12
55.17767512239998
 22
-15.37140951074207
 32
0.0
 13
55.17767512239998
 23
-15.37140951074207
 33
0.0
  0
MTEXT
  5
116
330
103
100
AcDbEntity
  8
0
 62
     1
100
AcDbMText
 10
58.87038621434033
 20
-15.37140951074207
 30
0.0
 40
2.0
 41
0.0
 71
     5
 72
     1
  1
\A1;6.00
 73
     1
 44
1.0
  0
POINT
  5
117
330
103
100
AcDbEntity
  8
Defpoints
 62
     0
100
AcDbPoint
 10
61.1776751224
 20
-24.5192881868
 30
0.0
  0
POINT
  5
118
330
103
100
AcDbEntity
  8
Defpoints
 62
     0
100
AcDbPoint
 10
55.17767512239998
 20
-24.552673963517
 30
0.0
  0
POINT
  5
119
330
103
100
AcDbEntity
  8
Defpoints
 62
     0
100
AcDbPoint
 10
55.17767512239998
 20
-15.37140951074207
 30
0.0
  0
ENDBLK
  5
10F
330
103
100
AcDbEntity
  8
0
100
AcDbBlockEnd
  0
BLOCK
  5
126
330
11B
100
AcDbEntity
  8
0
100
AcDbBlockBegin
  2
*D3
 70
     1
 10
0.0
 20
0.0
 30
0.0
  3
*D3
  1

  0
LINE
  5
11C
330
11B
100
AcDbEntity
  8
0
 62
     4
370
    -2
100
AcDbLine
 10
174.3507558311
 20
-24.5192881868
 30
0.0
 11
184.358600402631
 21
-24.51928818680001
 31
0.0
  0
LINE
  5
11D
330
11B
100
AcDbEntity
  8
0
 62
     4
370
    -2
100
AcDbLine
 10
180.3507558311
 20
-18.5192881868
 30
0.0
 11
184.358600402631
 21
-18.5192881868
 31
0.0
  0
LINE
  5
11E
330
11B
100
AcDbEntity
  8
0
 62
     3
370
    -2
100
AcDbLine
 10
184.148127961731
 20
-24.3317881868
 30
0.0
 11
184.148127961731
 21
-22.6092881868
 31
0.0
  0
LINE
  5
11F
330
11B
100
AcDbEntity
  8
0
 62
     3
370
    -2
100
AcDbLine
 10
184.148127961731
 20
-18.7067881868
 30
0.0
 11
184.148127961731
 21
-20.4292881868
 31
0.0
  0
SOLID
  5
120
330
11B
100
AcDbEntity
  8
0
 62
     3
100
AcDbTrace
 10
184.116877961731
 20
-24.3317881868
 30
0.0
 11
184.179377961731
 21
-24.3317881868
 31
0.0
 12
184.148127961731
 22
-24.51928818680001
 32
0.0
 13
184.148127961731
 23
-24.51928818680001
 33
0.0
  0
SOLID
  5
121
330
11B
100
AcDbEntity
  8
0
 62
     3
100
AcDbTrace
 10
184.116877961731
 20
-18.7067881868
 30
0.0
 11
184.179377961731
 21
-18.7067881868
 31
0.0
 12
184.148127961731
 22
-18.5192881868
 32
0.0
 13
184.148127961731
 23
-18.5192881868
 33
0.0
  0
MTEXT
  5
122
330
11B
100
AcDbEntity
  8
0
 62
     1
100
AcDbMText
 10
184.148127961731
 20
-21.51928818679997
 30
0.0
 40
2.0
 41
0.0
 71
     5
 72
     1
  1
\A1;6.00
 73
     1
 44
1.0
  0
POINT
  5
123
330
11B
100
AcDbEntity
  8
Defpoints
 62
     0
100
AcDbPoint
 10
174.2776751224
 20
-24.5192881868
 30
0.0
  0
POINT
  5
124
330
11B
100
AcDbEntity
  8
Defpoints
 62
     0
100
AcDbPoint
 10
180.2776751224
 20
-18.5192881868
 30
0.0
  0
POINT
  5
125
330
11B
100
AcDbEntity
  8
Defpoints
 62
     0
100
AcDbPoint
 10
184.148127961731
 20
-18.5192881868
 30
0.0
  0
ENDBLK
  5
127
330
11B
100
AcDbEntity
  8
0
100
AcDbBlockEnd
  0
BLOCK
  5
134
330
129
100
AcDbEntity
  8
0
100
AcDbBlockBegin
  2
*D4
 70
     1
 10
0.0
 20
0.0
 30
0.0
  3
*D4
  1

  0
LINE
  5
12A
330
129
100
AcDbEntity
  8
0
 62
     4
370
    -2
100
AcDbLine
 10
61.1776751224
 20
-24.3731267694
 30
0.0
 11
61.1776751224
 21
-16.16781300850532
 31
0.0
  0
LINE
  5
12B
330
129
100
AcDbEntity
  8
0
 62
     4
370
    -2
100
AcDbLine
 10
126.1776751224
 20
-24.4462074781
 30
0.0
 11
126.1776751224
 21
-16.16781300850532
 31
0.0
  0
LINE
  5
12C
330
129
100
AcDbEntity
  8
0
 62
     3
370
    -2
100
AcDbLine
 10
61.3651751224
 20
-16.37828544940532
 30
0.0
 11
89.92100845573334
 21
-16.37828544940532
 31
0.0
  0
LINE
  5
12D
330
129
100
AcDbEntity
  8
0
 62
     3
370
    -2
100
AcDbLine
 10
125.9901751224
 20
-16.37828544940532
 30
0.0
 11
97.43434178906667
 21
-16.37828544940532
 31
0.0
  0
SOLID
  5
12E
330
129
100
AcDbEntity
  8
0
 62
     3
100
AcDbTrace
 10
61.3651751224
 20
-16.34703544940532
 30
0.0
 11
61.3651751224
 21
-16.40953544940532
 31
0.0
 12
61.1776751224
 22
-16.37828544940532
 32
0.0
 13
61.1776751224
 23
-16.37828544940532
 33
0.0
  0
SOLID
  5
12F
330
129
100
AcDbEntity
  8
0
 62
     3
100
AcDbTrace
 10
125.9901751224
 20
-16.34703544940532
 30
0.0
 11
125.9901751224
 21
-16.40953544940532
 31
0.0
 12
126.1776751224
 22
-16.37828544940532
 32
0.0
 13
126.1776751224
 23
-16.37828544940532
 33
0.0
  0
MTEXT
  5
130
330
129
100
AcDbEntity
  8
0
 62
     1
100
AcDbMText
 10
93.6776751224
 20
-16.37828544940532
 30
0.0
 40
2.0
 41
0.0
 71
     5
 72
     1
  1
\A1;65.00
 73
     1
 44
1.0
  0
POINT
  5
131
330
129
100
AcDbEntity
  8
Defpoints
 62
     0
100
AcDbPoint
 10
61.1776751224
 20
-24.4462074781
 30
0.0
  0
POINT
  5
132
330
129
100
AcDbEntity
  8
Defpoints
 62
     0
100
AcDbPoint
 10
126.1776751224
 20
-24.5192881868
 30
0.0
  0
POINT
  5
133
330
129
100
AcDbEntity
  8
Defpoints
 62
     0
100
AcDbPoint
 10
126.1776751224
 20
-16.37828544940532
 30
0.0
  0
ENDBLK
  5
135
330
129
100
AcDbEntity
  8
0
100
AcDbBlockEnd
  0
BLOCK
  5
142
330
137
100
AcDbEntity
  8
0
100
AcDbBlockBegin
  2
*D5
 70
     1
 10
0.0
 20
0.0
 30
0.0
  3
*D5
  1

  0
LINE
  5
138
330
137
100
AcDbEntity
  8
0
 62
     4
370
    -2
100
AcDbLine
 10
126.1776751224
 20
-24.4462074781
 30
0.0
 11
126.1776751224
 21
-15.96608691191618
 31
0.0
  0
LINE
  5
139
330
137
100
AcDbEntity
  8
0
 62
     4
370
    -2
100
AcDbLine
 10
174.3507558311
 20
-24.4462074781
 30
0.0
 11
174.3507558311
 21
-15.96608691191618
 31
0.0
  0
LINE
  5
13A
330
137
100
AcDbEntity
  8
0
 62
     3
370
    -2
100
AcDbLine
 10
126.3651751224
 20
-16.17655935281618
 30
0.0
 11
146.5075488100833
 21
-16.17655935281618
 31
0.0
  0
LINE
  5
13B
330
137
100
AcDbEntity
  8
0
 62
     3
370
    -2
100
AcDbLine
 10
174.1632558311
 20
-16.17655935281618
 30
0.0
 11
154.0208821434166
 21
-16.17655935281618
 31
0.0
  0
SOLID
  5
13C
330
137
100
AcDbEntity
  8
0
 62
     3
100
AcDbTrace
 10
126.3651751224
 20
-16.14530935281618
 30
0.0
 11
126.3651751224
 21
-16.20780935281618
 31
0.0
 12
126.1776751224
 22
-16.17655935281618
 32
0.0
 13
126.1776751224
 23
-16.17655935281618
 33
0.0
  0
SOLID
  5
13D
330
137
100
AcDbEntity
  8
0
 62
     3
100
AcDbTrace
 10
174.1632558311
 20
-16.14530935281618
 30
0.0
 11
174.1632558311
 21
-16.20780935281618
 31
0.0
 12
174.3507558311
 22
-16.17655935281618
 32
0.0
 13
174.3507558311
 23
-16.17655935281618
 33
0.0
  0
MTEXT
  5
13E
330
137
100
AcDbEntity
  8
0
 62
     1
100
AcDbMText
 10
150.26421547675
 20
-16.17655935281618
 30
0.0
 40
2.0
 41
0.0
 71
     5
 72
     1
  1
\A1;48.17
 73
     1
 44
1.0
  0
POINT
  5
13F
330
137
100
AcDbEntity
  8
Defpoints
 62
     0
100
AcDbPoint
 10
126.1776751224
 20
-24.5192881868
 30
0.0
  0
POINT
  5
140
330
137
100
AcDbEntity
  8
Defpoints
 62
     0
100
AcDbPoint
 10
174.3507558311
 20
-24.5192881868
 30
0.0
  0
POINT
  5
141
330
137
100
AcDbEntity
  8
Defpoints
 62
     0
100
AcDbPoint
 10
174.3507558311
 20
-16.17655935281618
 30
0.0
  0
ENDBLK
  5
143
330
137
100
AcDbEntity
  8
0
100
AcDbBlockEnd
  0
BLOCK
  5
150
330
145
100
AcDbEntity
  8
0
100
AcDbBlockBegin
  2
*D6
 70
     1
 10
0.0
 20
0.0
 30
0.0
  3
*D6
  1

  0
LINE
  5
146
330
145
100
AcDbEntity
  8
0
 62
     4
370
    -2
100
AcDbLine
 10
93.6776751224
 20
-53.59236889549999
 30
0.0
 11
93.6776751224
 21
-96.84655122368983
 31
0.0
  0
LINE
  5
147
330
145
100
AcDbEntity
  8
0
 62
     4
370
    -2
100
AcDbLine
 10
55.17767512239999
 20
-53.59236889549999
 30
0.0
 11
55.17767512239999
 21
-96.84655122368983
 31
0.0
  0
LINE
  5
148
330
145
100
AcDbEntity
  8
0
 62
     3
370
    -2
100
AcDbLine
 10
93.49017512240001
 20
-96.63607878278984
 30
0.0
 11
78.35100845573333
 21
-96.63607878278984
 31
0.0
  0
LINE
  5
149
330
145
100
AcDbEntity
  8
0
 62
     3
370
    -2
100
AcDbLine
 10
55.36517512239999
 20
-96.63607878278984
 30
0.0
 11
70.50434178906667
 21
-96.63607878278984
 31
0.0
  0
SOLID
  5
14A
330
145
100
AcDbEntity
  8
0
 62
     3
100
AcDbTrace
 10
93.49017512240001
 20
-96.60482878278983
 30
0.0
 11
93.49017512240001
 21
-96.66732878278985
 31
0.0
 12
93.6776751224
 22
-96.63607878278984
 32
0.0
 13
93.6776751224
 23
-96.63607878278984
 33
0.0
  0
SOLID
  5
14B
330
145
100
AcDbEntity
  8
0
 62
     3
100
AcDbTrace
 10
55.36517512239999
 20
-96.60482878278983
 30
0.0
 11
55.36517512239999
 21
-96.66732878278985
 31
0.0
 12
55.17767512239999
 22
-96.63607878278984
 32
0.0
 13
55.17767512239999
 23
-96.63607878278984
 33
0.0
  0
MTEXT
  5
14C
330
145
100
AcDbEntity
  8
0
 62
     1
100
AcDbMText
 10
74.4276751224
 20
-96.63607878278984
 30
0.0
 40
2.0
 41
0.0
 71
     5
 72
     1
  1
\A1;38.50
 73
     1
 44
1.0
  0
POINT
  5
14D
330
145
100
AcDbEntity
  8
Defpoints
 62
     0
100
AcDbPoint
 10
93.6776751224
 20
-53.5192881868
 30
0.0
  0
POINT
  5
14E
330
145
100
AcDbEntity
  8
Defpoints
 62
     0
100
AcDbPoint
 10
55.17767512239999
 20
-53.5192881868
 30
0.0
  0
POINT
  5
14F
330
145
100
AcDbEntity
  8
Defpoints
 62
     0
100
AcDbPoint
 10
55.17767512239999
 20
-96.63607878278984
 30
0.0
  0
ENDBLK
  5
151
330
145
100
AcDbEntity
  8
0
100
AcDbBlockEnd
  0
BLOCK
  5
15E
330
153
100
AcDbEntity
  8
0
100
AcDbBlockBegin
  2
*D7
 70
     1
 10
0.0
 20
0.0
 30
0.0
  3
*D7
  1

  0
LINE
  5
154
330
153
100
AcDbEntity
  8
0
 62
     4
370
    -2
100
AcDbLine
 10
93.6045944137
 20
-53.5192881868
 30
0.0
 11
35.98067569704704
 21
-53.51928818679998
 31
0.0
  0
LINE
  5
155
330
153
100
AcDbEntity
  8
0
 62
     4
370
    -2
100
AcDbLine
 10
93.6045944137
 20
-88.51928818679999
 30
0.0
 11
35.98067569704703
 21
-88.51928818679999
 31
0.0
  0
LINE
  5
156
330
153
100
AcDbEntity
  8
0
 62
     3
370
    -2
100
AcDbLine
 10
36.19114813794704
 20
-53.70678818679998
 30
0.0
 11
36.19114813794704
 21
-69.92928818679999
 31
0.0
  0
LINE
  5
157
330
153
100
AcDbEntity
  8
0
 62
     3
370
    -2
100
AcDbLine
 10
36.19114813794703
 20
-88.3317881868
 30
0.0
 11
36.19114813794704
 21
-72.1092881868
 31
0.0
  0
SOLID
  5
158
330
153
100
AcDbEntity
  8
0
 62
     3
100
AcDbTrace
 10
36.15989813794704
 20
-53.70678818679998
 30
0.0
 11
36.22239813794704
 21
-53.70678818679998
 31
0.0
 12
36.19114813794704
 22
-53.51928818679998
 32
0.0
 13
36.19114813794704
 23
-53.51928818679998
 33
0.0
  0
SOLID
  5
159
330
153
100
AcDbEntity
  8
0
 62
     3
100
AcDbTrace
 10
36.15989813794703
 20
-88.3317881868
 30
0.0
 11
36.22239813794703
 21
-88.3317881868
 31
0.0
 12
36.19114813794703
 22
-88.51928818679999
 32
0.0
 13
36.19114813794703
 23
-88.51928818679999
 33
0.0
  0
MTEXT
  5
15A
330
153
100
AcDbEntity
  8
0
 62
     1
100
AcDbMText
 10
36.19114813794705
 20
-71.01928818679998
 30
0.0
 40
2.0
 41
0.0
 71
     5
 72
     1
  1
\A1;35.00
 73
     1
 44
1.0
  0
POINT
  5
15B
330
153
100
AcDbEntity
  8
Defpoints
 62
     0
100
AcDbPoint
 10
93.6776751224
 20
-53.5192881868
 30
0.0
  0
POINT
  5
15C
330
153
100
AcDbEntity
  8
Defpoints
 62
     0
100
AcDbPoint
 10
93.6776751224
 20
-88.51928818679999
 30
0.0
  0
POINT
  5
15D
330
153
100
AcDbEntity
  8
Defpoints
 62
     0
100
AcDbPoint
 10
36.19114813794703
 20
-88.51928818679999
 30
0.0
  0
ENDBLK
  5
15F
330
153
100
AcDbEntity
  8
0
100
AcDbBlockEnd
  0
BLOCK
  5
174
330
169
100
AcDbEntity
  8
0
100
AcDbBlockBegin
  2
*D8
 70
     1
 10
0.0
 20
0.0
 30
0.0
  3
*D8
  1

  0
LINE
  5
16A
330
169
100
AcDbEntity
  8
0
 62
     4
370
    -2
100
AcDbLine
 10
130.3681678522
 20
-77.6671627347
 30
0.0
 11
137.5369510925924
 21
-77.6671627347
 31
0.0
  0
LINE
  5
16B
330
169
100
AcDbEntity
  8
0
 62
     4
370
    -2
100
AcDbLine
 10
117.8007558311
 20
-88.51928818679999
 30
0.0
 11
137.5369510925924
 21
-88.51928818679999
 31
0.0
  0
LINE
  5
16C
330
169
100
AcDbEntity
  8
0
 62
     3
370
    -2
100
AcDbLine
 10
137.3264786516924
 20
-77.85466273469999
 30
0.0
 11
137.3264786516924
 21
-82.00322546075
 31
0.0
  0
LINE
  5
16D
330
169
100
AcDbEntity
  8
0
 62
     3
370
    -2
100
AcDbLine
 10
137.3264786516924
 20
-88.3317881868
 30
0.0
 11
137.3264786516924
 21
-84.18322546075001
 31
0.0
  0
SOLID
  5
16E
330
169
100
AcDbEntity
  8
0
 62
     3
100
AcDbTrace
 10
137.2952286516925
 20
-77.85466273469999
 30
0.0
 11
137.3577286516924
 21
-77.85466273469999
 31
0.0
 12
137.3264786516924
 22
-77.6671627347
 32
0.0
 13
137.3264786516924
 23
-77.6671627347
 33
0.0
  0
SOLID
  5
16F
330
169
100
AcDbEntity
  8
0
 62
     3
100
AcDbTrace
 10
137.2952286516925
 20
-88.3317881868
 30
0.0
 11
137.3577286516924
 21
-88.3317881868
 31
0.0
 12
137.3264786516924
 22
-88.51928818679999
 32
0.0
 13
137.3264786516924
 23
-88.51928818679999
 33
0.0
  0
MTEXT
  5
170
330
169
100
AcDbEntity
  8
0
 62
     1
100
AcDbMText
 10
137.3264786516925
 20
-83.09322546075
 30
0.0
 40
2.0
 41
0.0
 71
     5
 72
     1
  1
\A1;10.85
 73
     1
 44
1.0
  0
POINT
  5
171
330
169
100
AcDbEntity
  8
Defpoints
 62
     0
100
AcDbPoint
 10
130.2950871435
 20
-77.6671627347
 30
0.0
  0
POINT
  5
172
330
169
100
AcDbEntity
  8
Defpoints
 62
     0
100
AcDbPoint
 10
117.7276751224
 20
-88.51928818679999
 30
0.0
  0
POINT
  5
173
330
169
100
AcDbEntity
  8
Defpoints
 62
     0
100
AcDbPoint
 10
137.3264786516924
 20
-88.51928818679999
 30
0.0
  0
ENDBLK
  5
175
330
169
100
AcDbEntity
  8
0
100
AcDbBlockEnd
  0
BLOCK
  5
182
330
177
100
AcDbEntity
  8
0
100
AcDbBlockBegin
  2
*D9
 70
     1
 10
0.0
 20
0.0
 30
0.0
  3
*D9
  1

  0
LINE
  5
178
330
177
100
AcDbEntity
  8
0
 62
     4
370
    -2
100
AcDbLine
 10
130.2950871435
 20
-77.7402434434
 30
0.0
 11
130.2950871435
 21
-95.07830807386108
 31
0.0
  0
LINE
  5
179
330
177
100
AcDbEntity
  8
0
 62
     4
370
    -2
100
AcDbLine
 10
180.3507558311
 20
-88.5923688955
 30
0.0
 11
180.3507558311
 21
-95.0783080738611
 31
0.0
  0
LINE
  5
17A
330
177
100
AcDbEntity
  8
0
 62
     3
370
    -2
100
AcDbLine
 10
130.4825871435
 20
-94.86783563296109
 30
0.0
 11
151.5662548206333
 21
-94.86783563296109
 31
0.0
  0
LINE
  5
17B
330
177
100
AcDbEntity
  8
0
 62
     3
370
    -2
100
AcDbLine
 10
180.1632558311
 20
-94.86783563296109
 30
0.0
 11
159.0795881539666
 21
-94.86783563296109
 31
0.0
  0
SOLID
  5
17C
330
177
100
AcDbEntity
  8
0
 62
     3
100
AcDbTrace
 10
130.4825871435
 20
-94.83658563296108
 30
0.0
 11
130.4825871435
 21
-94.89908563296109
 31
0.0
 12
130.2950871435
 22
-94.86783563296109
 32
0.0
 13
130.2950871435
 23
-94.86783563296109
 33
0.0
  0
SOLID
  5
17D
330
177
100
AcDbEntity
  8
0
 62
     3
100
AcDbTrace
 10
180.1632558311
 20
-94.83658563296108
 30
0.0
 11
180.1632558311
 21
-94.89908563296109
 31
0.0
 12
180.3507558311
 22
-94.86783563296109
 32
0.0
 13
180.3507558311
 23
-94.86783563296109
 33
0.0
  0
MTEXT
  5
17E
330
177
100
AcDbEntity
  8
0
 62
     1
100
AcDbMText
 10
155.3229214873
 20
-94.86783563296109
 30
0.0
 40
2.0
 41
0.0
 71
     5
 72
     1
  1
\A1;50.06
 73
     1
 44
1.0
  0
POINT
  5
17F
330
177
100
AcDbEntity
  8
Defpoints
 62
     0
100
AcDbPoint
 10
130.2950871435
 20
-77.6671627347
 30
0.0
  0
POINT
  5
180
330
177
100
AcDbEntity
  8
Defpoints
 62
     0
100
AcDbPoint
 10
180.3507558311
 20
-88.51928818679999
 30
0.0
  0
POINT
  5
181
330
177
100
AcDbEntity
  8
Defpoints
 62
     0
100
AcDbPoint
 10
180.3507558311
 20
-94.86783563296109
 30
0.0
  0
ENDBLK
  5
183
330
177
100
AcDbEntity
  8
0
100
AcDbBlockEnd
  0
BLOCK
  5
18D
330
185
100
AcDbEntity
  8
0
100
AcDbBlockBegin
  2
*D10
 70
     1
 10
0.0
 20
0.0
 30
0.0
  3
*D10
  1

  0
LINE
  5
186
330
185
100
AcDbEntity
  8
0
 62
     3
370
    -2
100
AcDbLine
 10
117.8250778236815
 20
-79.78179925747231
 30
0.0
 11
126.9059715279958
 21
-78.2418814439357
 31
0.0
  0
MTEXT
  5
187
330
185
100
AcDbEntity
  8
0
 62
     1
100
AcDbMText
 10
113.9017444903482
 20
-79.78179925747231
 30
0.0
 40
2.0
 41
0.0
 71
     5
 72
     1
  1
\A1;\U+22056.50
 73
     1
 44
1.0
  0
SOLID
  5
188
330
185
100
AcDbEntity
  8
0
 62
     3
100
AcDbTrace
 10
126.9007468124573
 20
-78.21107130197657
 30
0.0
 11
126.9111962435343
 21
-78.27269158589484
 31
0.0
 12
127.0908323797506
 22
-78.21053315070466
 32
0.0
 13
127.0908323797506
 23
-78.21053315070466
 33
0.0
  0
LINE
  5
189
330
185
100
AcDbEntity
  8
0
 62
     4
370
    -2
100
AcDbLine
 10
130.189850923
 20
-77.66716273469999
 30
0.0
 11
130.400323364
 21
-77.66716273469999
 31
0.0
  0
LINE
  5
18A
330
185
100
AcDbEntity
  8
0
 62
     4
370
    -2
100
AcDbLine
 10
130.2950871435
 20
-77.77239895520001
 30
0.0
 11
130.2950871435
 21
-77.56192651420001
 31
0.0
  0
POINT
  5
18B
330
185
100
AcDbEntity
  8
Defpoints
 62
     0
100
AcDbPoint
 10
127.0908323797506
 20
-78.21053315070466
 30
0.0
  0
POINT
  5
18C
330
185
100
AcDbEntity
  8
Defpoints
 62
     0
100
AcDbPoint
 10
133.4993419072494
 20
-77.12379231869533
 30
0.0
  0
ENDBLK
  5
18E
330
185
100
AcDbEntity
  8
0
100
AcDbBlockEnd
  0
ENDSEC
  0
SECTION
  2
ENTITIES
  0
LINE
  5
27
330
1B
100
AcDbEntity
  8
0
  6
Continuous
 62
     7
100
AcDbLine
 10
55.17767512239999
 20
-88.51928818679999
 30
0.0
 11
55.17767512239999
 21
-18.5192881868
 31
0.0
  0
LINE
  5
28
330
1B
100
AcDbEntity
  8
0
  6
Continuous
 62
     6
100
AcDbLine
 10
68.1252727297
 20
-35.5192881868
 30
0.0
 11
68.1252727297
 21
-41.5192881868
 31
0.0
  0
LINE
  5
29
330
1B
100
AcDbEntity
  8
0
  6
Continuous
 62
     6
100
AcDbLine
 10
68.1252727297
 20
-50.5192881868
 30
0.0
 11
68.1252727297
 21
-56.5192881868
 31
0.0
  0
LINE
  5
2A
330
1B
100
AcDbEntity
  8
0
  6
Continuous
 62
     6
100
AcDbLine
 10
68.1252727297
 20
-65.5192881868
 30
0.0
 11
68.1252727297
 21
-71.5192881868
 31
0.0
  0
LINE
  5
2B
330
1B
100
AcDbEntity
  8
0
  6
Continuous
 62
     6
100
AcDbLine
 10
74.1252727297
 20
-71.5192881868
 30
0.0
 11
74.1252727297
 21
-65.5192881868
 31
0.0
  0
LINE
  5
2C
330
1B
100
AcDbEntity
  8
0
  6
Continuous
 62
     6
100
AcDbLine
 10
74.1252727297
 20
-56.5192881868
 30
0.0
 11
74.1252727297
 21
-50.5192881868
 31
0.0
  0
LINE
  5
2D
330
1B
100
AcDbEntity
  8
0
  6
Continuous
 62
     6
100
AcDbLine
 10
74.1252727297
 20
-41.5192881868
 30
0.0
 11
74.1252727297
 21
-35.5192881868
 31
0.0
  0
LINE
  5
2E
330
1B
100
AcDbEntity
  8
0
  6
Continuous
 62
     6
100
AcDbLine
 10
83.12527272969999
 20
-35.5192881868
 30
0.0
 11
83.12527272969999
 21
-41.5192881868
 31
0.0
  0
LINE
  5
2F
330
1B
100
AcDbEntity
  8
0
  6
Continuous
 62
     6
100
AcDbLine
 10
83.12527272969999
 20
-50.5192881868
 30
0.0
 11
83.12527272969999
 21
-56.5192881868
 31
0.0
  0
LINE
  5
30
330
1B
100
AcDbEntity
  8
0
  6
Continuous
 62
     6
100
AcDbLine
 10
83.12527272969999
 20
-65.5192881868
 30
0.0
 11
83.12527272969999
 21
-71.5192881868
 31
0.0
  0
LINE
  5
31
330
1B
100
AcDbEntity
  8
0
  6
Continuous
 62
     7
100
AcDbLine
 10
55.17767512239999
 20
-88.51928818679999
 30
0.0
 11
180.2776751224
 21
-88.51928818679999
 31
0.0
  0
LINE
  5
32
330
1B
100
AcDbEntity
  8
0
  6
Continuous
 62
     6
100
AcDbLine
 10
89.12527272970001
 20
-71.5192881868
 30
0.0
 11
89.12527272970001
 21
-65.5192881868
 31
0.0
  0
LINE
  5
33
330
1B
100
AcDbEntity
  8
0
  6
Continuous
 62
     6
100
AcDbLine
 10
89.12527272970001
 20
-56.5192881868
 30
0.0
 11
89.12527272970001
 21
-50.5192881868
 31
0.0
  0
LINE
  5
34
330
1B
100
AcDbEntity
  8
0
  6
Continuous
 62
     6
100
AcDbLine
 10
89.12527272970001
 20
-41.5192881868
 30
0.0
 11
89.12527272970001
 21
-35.5192881868
 31
0.0
  0
LINE
  5
35
330
1B
100
AcDbEntity
  8
0
  6
Continuous
 62
     6
100
AcDbLine
 10
98.12527272970001
 20
-35.5192881868
 30
0.0
 11
98.12527272970001
 21
-41.5192881868
 31
0.0
  0
LINE
  5
36
330
1B
100
AcDbEntity
  8
0
  6
Continuous
 62
     6
100
AcDbLine
 10
98.12527272970001
 20
-50.5192881868
 30
0.0
 11
98.12527272970001
 21
-56.5192881868
 31
0.0
  0
LINE
  5
37
330
1B
100
AcDbEntity
  8
0
  6
Continuous
 62
     6
100
AcDbLine
 10
98.12527272970001
 20
-65.5192881868
 30
0.0
 11
98.12527272970001
 21
-71.5192881868
 31
0.0
  0
LINE
  5
38
330
1B
100
AcDbEntity
  8
0
  6
Continuous
 62
     6
100
AcDbLine
 10
68.1252727297
 20
-71.5192881868
 30
0.0
 11
74.1252727297
 21
-71.5192881868
 31
0.0
  0
LINE
  5
39
330
1B
100
AcDbEntity
  8
0
  6
Continuous
 62
     6
100
AcDbLine
 10
83.12527272969999
 20
-71.5192881868
 30
0.0
 11
89.12527272970001
 21
-71.5192881868
 31
0.0
  0
LINE
  5
3A
330
1B
100
AcDbEntity
  8
0
  6
Continuous
 62
     6
100
AcDbLine
 10
98.12527272970001
 20
-71.5192881868
 30
0.0
 11
104.1252727297
 21
-71.5192881868
 31
0.0
  0
LINE
  5
3B
330
1B
100
AcDbEntity
  8
0
  6
Continuous
 62
     6
100
AcDbLine
 10
113.1252727297
 20
-71.5192881868
 30
0.0
 11
119.1252727297
 21
-71.5192881868
 31
0.0
  0
LINE
  5
3C
330
1B
100
AcDbEntity
  8
0
  6
Continuous
 62
     6
100
AcDbLine
 10
167.0276751224
 20
-68.6292881868
 30
0.0
 11
140.8576751224
 21
-68.6292881868
 31
0.0
  0
LINE
  5
3D
330
1B
100
AcDbEntity
  8
0
  6
Continuous
 62
     6
100
AcDbLine
 10
104.1252727297
 20
-71.5192881868
 30
0.0
 11
104.1252727297
 21
-65.5192881868
 31
0.0
  0
LINE
  5
3E
330
1B
100
AcDbEntity
  8
0
  6
Continuous
 62
     6
100
AcDbLine
 10
104.1252727297
 20
-56.5192881868
 30
0.0
 11
104.1252727297
 21
-50.5192881868
 31
0.0
  0
LINE
  5
3F
330
1B
100
AcDbEntity
  8
0
  6
Continuous
 62
     6
100
AcDbLine
 10
104.1252727297
 20
-41.5192881868
 30
0.0
 11
104.1252727297
 21
-35.5192881868
 31
0.0
  0
LINE
  5
40
330
1B
100
AcDbEntity
  8
0
  6
Continuous
 62
     6
100
AcDbLine
 10
162.5276751224
 20
-66.6292881868
 30
0.0
 11
145.3576751224
 21
-66.6292881868
 31
0.0
  0
LINE
  5
41
330
1B
100
AcDbEntity
  8
0
  6
Continuous
 62
     6
100
AcDbLine
 10
119.1252727297
 20
-65.5192881868
 30
0.0
 11
113.1252727297
 21
-65.5192881868
 31
0.0
  0
LINE
  5
42
330
1B
100
AcDbEntity
  8
0
  6
Continuous
 62
     6
100
AcDbLine
 10
104.1252727297
 20
-65.5192881868
 30
0.0
 11
98.12527272970001
 21
-65.5192881868
 31
0.0
  0
LINE
  5
43
330
1B
100
AcDbEntity
  8
0
  6
Continuous
 62
     6
100
AcDbLine
 10
89.12527272970001
 20
-65.5192881868
 30
0.0
 11
83.12527272969999
 21
-65.5192881868
 31
0.0
  0
LINE
  5
44
330
1B
100
AcDbEntity
  8
0
  6
Continuous
 62
     6
100
AcDbLine
 10
74.1252727297
 20
-65.5192881868
 30
0.0
 11
68.1252727297
 21
-65.5192881868
 31
0.0
  0
LINE
  5
45
330
1B
100
AcDbEntity
  8
0
  6
Continuous
 62
     6
100
AcDbLine
 10
113.1252727297
 20
-35.5192881868
 30
0.0
 11
113.1252727297
 21
-41.5192881868
 31
0.0
  0
LINE
  5
46
330
1B
100
AcDbEntity
  8
0
  6
Continuous
 62
     6
100
AcDbLine
 10
113.1252727297
 20
-50.5192881868
 30
0.0
 11
113.1252727297
 21
-56.5192881868
 31
0.0
  0
LINE
  5
47
330
1B
100
AcDbEntity
  8
0
  6
Continuous
 62
     6
100
AcDbLine
 10
113.1252727297
 20
-65.5192881868
 30
0.0
 11
113.1252727297
 21
-71.5192881868
 31
0.0
  0
LINE
  5
48
330
1B
100
AcDbEntity
  8
0
  6
Continuous
 62
     6
100
AcDbLine
 10
158.2786672123
 20
-65.0453701974
 30
0.0
 11
148.9044643685
 21
-63.5453701974
 31
0.0
  0
LINE
  5
49
330
1B
100
AcDbEntity
  8
0
  6
Continuous
 62
     6
100
AcDbLine
 10
68.1252727297
 20
-56.5192881868
 30
0.0
 11
74.1252727297
 21
-56.5192881868
 31
0.0
  0
LINE
  5
4A
330
1B
100
AcDbEntity
  8
0
  6
Continuous
 62
     6
100
AcDbLine
 10
83.12527272969999
 20
-56.5192881868
 30
0.0
 11
89.12527272970001
 21
-56.5192881868
 31
0.0
  0
LINE
  5
4B
330
1B
100
AcDbEntity
  8
0
  6
Continuous
 62
     6
100
AcDbLine
 10
98.12527272970001
 20
-56.5192881868
 30
0.0
 11
104.1252727297
 21
-56.5192881868
 31
0.0
  0
LINE
  5
4C
330
1B
100
AcDbEntity
  8
0
  6
Continuous
 62
     6
100
AcDbLine
 10
113.1252727297
 20
-56.5192881868
 30
0.0
 11
119.1252727297
 21
-56.5192881868
 31
0.0
  0
LINE
  5
4D
330
1B
100
AcDbEntity
  8
0
  6
Continuous
 62
     6
100
AcDbLine
 10
157.2786672123
 20
-63.8726353297
 30
0.0
 11
154.0986672123
 21
-63.3637920627
 31
0.0
  0
LINE
  5
4E
330
1B
100
AcDbEntity
  8
0
  6
Continuous
 62
     6
100
AcDbLine
 10
153.0986672123
 20
-63.2037784568
 30
0.0
 11
149.9044643685
 21
-62.6926625416
 31
0.0
  0
LINE
  5
4F
330
1B
100
AcDbEntity
  8
0
  6
Continuous
 62
     6
100
AcDbLine
 10
119.1252727297
 20
-71.5192881868
 30
0.0
 11
119.1252727297
 21
-65.5192881868
 31
0.0
  0
LINE
  5
50
330
1B
100
AcDbEntity
  8
0
  6
Continuous
 62
     6
100
AcDbLine
 10
119.1252727297
 20
-56.5192881868
 30
0.0
 11
119.1252727297
 21
-50.5192881868
 31
0.0
  0
LINE
  5
51
330
1B
100
AcDbEntity
  8
0
  6
Continuous
 62
     6
100
AcDbLine
 10
119.1252727297
 20
-41.5192881868
 30
0.0
 11
119.1252727297
 21
-35.5192881868
 31
0.0
  0
LINE
  5
52
330
1B
100
AcDbEntity
  8
0
  6
Continuous
 62
     6
100
AcDbLine
 10
119.1252727297
 20
-50.5192881868
 30
0.0
 11
113.1252727297
 21
-50.5192881868
 31
0.0
  0
LINE
  5
53
330
1B
100
AcDbEntity
  8
0
  6
Continuous
 62
     6
100
AcDbLine
 10
104.1252727297
 20
-50.5192881868
 30
0.0
 11
98.12527272970001
 21
-50.5192881868
 31
0.0
  0
LINE
  5
54
330
1B
100
AcDbEntity
  8
0
  6
Continuous
 62
     6
100
AcDbLine
 10
89.12527272970001
 20
-50.5192881868
 30
0.0
 11
83.12527272969999
 21
-50.5192881868
 31
0.0
  0
LINE
  5
55
330
1B
100
AcDbEntity
  8
0
  6
Continuous
 62
     6
100
AcDbLine
 10
74.1252727297
 20
-50.5192881868
 30
0.0
 11
68.1252727297
 21
-50.5192881868
 31
0.0
  0
LINE
  5
56
330
1B
100
AcDbEntity
  8
0
  6
Continuous
 62
     6
100
AcDbLine
 10
149.9044643685
 20
-57.7181050652
 30
0.0
 11
153.0986672123
 21
-58.2292209804
 31
0.0
  0
LINE
  5
57
330
1B
100
AcDbEntity
  8
0
  6
Continuous
 62
     6
100
AcDbLine
 10
154.0986672123
 20
-58.3892345863
 30
0.0
 11
157.2786672123
 21
-58.8980778533
 31
0.0
  0
LINE
  5
58
330
1B
100
AcDbEntity
  8
0
  6
Continuous
 62
     6
100
AcDbLine
 10
148.9044643685
 20
-56.5453701974
 30
0.0
 11
158.2786672123
 21
-58.04537019739999
 31
0.0
  0
LINE
  5
59
330
1B
100
AcDbEntity
  8
0
  6
Continuous
 62
     6
100
AcDbLine
 10
158.2786672123
 20
-56.0453701974
 30
0.0
 11
148.9044643685
 21
-54.5453701974
 31
0.0
  0
LINE
  5
5A
330
1B
100
AcDbEntity
  8
0
  6
Continuous
 62
     6
100
AcDbLine
 10
157.2786672123
 20
-54.87263532970001
 30
0.0
 11
154.0986672123
 21
-54.3637920627
 31
0.0
  0
LINE
  5
5B
330
1B
100
AcDbEntity
  8
0
  6
Continuous
 62
     6
100
AcDbLine
 10
153.0986672123
 20
-54.2037784568
 30
0.0
 11
149.9044643685
 21
-53.6926625416
 31
0.0
  0
LINE
  5
5C
330
1B
100
AcDbEntity
  8
0
  6
Continuous
 62
     6
100
AcDbLine
 10
149.9044643685
 20
-48.7181050652
 30
0.0
 11
153.0986672123
 21
-49.2292209804
 31
0.0
  0
LINE
  5
5D
330
1B
100
AcDbEntity
  8
0
  6
Continuous
 62
     6
100
AcDbLine
 10
154.0986672123
 20
-49.3892345863
 30
0.0
 11
157.2786672123
 21
-49.8980778533
 31
0.0
  0
LINE
  5
5E
330
1B
100
AcDbEntity
  8
0
  6
Continuous
 62
     6
100
AcDbLine
 10
68.1252727297
 20
-41.5192881868
 30
0.0
 11
74.1252727297
 21
-41.5192881868
 31
0.0
  0
LINE
  5
5F
330
1B
100
AcDbEntity
  8
0
  6
Continuous
 62
     6
100
AcDbLine
 10
83.12527272969999
 20
-41.5192881868
 30
0.0
 11
89.12527272970001
 21
-41.5192881868
 31
0.0
  0
LINE
  5
60
330
1B
100
AcDbEntity
  8
0
  6
Continuous
 62
     6
100
AcDbLine
 10
98.12527272970001
 20
-41.5192881868
 30
0.0
 11
104.1252727297
 21
-41.5192881868
 31
0.0
  0
LINE
  5
61
330
1B
100
AcDbEntity
  8
0
  6
Continuous
 62
     6
100
AcDbLine
 10
113.1252727297
 20
-41.5192881868
 30
0.0
 11
119.1252727297
 21
-41.5192881868
 31
0.0
  0
LINE
  5
62
330
1B
100
AcDbEntity
  8
0
  6
Continuous
 62
     6
100
AcDbLine
 10
145.3576751224
 20
-40.62928818679999
 30
0.0
 11
162.5276751224
 21
-40.62928818679999
 31
0.0
  0
LINE
  5
63
330
1B
100
AcDbEntity
  8
0
  6
Continuous
 62
     6
100
AcDbLine
 10
140.8576751224
 20
-38.6292881868
 30
0.0
 11
167.0276751224
 21
-38.6292881868
 31
0.0
  0
LINE
  5
64
330
1B
100
AcDbEntity
  8
0
  6
Continuous
 62
     6
100
AcDbLine
 10
148.9044643685
 20
-47.54537019739999
 30
0.0
 11
158.2786672123
 21
-49.0453701974
 31
0.0
  0
LINE
  5
65
330
1B
100
AcDbEntity
  8
0
  6
Continuous
 62
     6
100
AcDbLine
 10
158.2775998085
 20
-46.1617927637
 30
0.0
 11
148.9033969646
 21
-44.6617927637
 31
0.0
  0
LINE
  5
66
330
1B
100
AcDbEntity
  8
0
  6
Continuous
 62
     6
100
AcDbLine
 10
148.9044643685
 20
-43.649242301
 30
0.0
 11
158.2786672123
 21
-45.149242301
 31
0.0
  0
LINE
  5
67
330
1B
100
AcDbEntity
  8
0
  6
Continuous
 62
     6
100
AcDbLine
 10
119.1252727297
 20
-35.5192881868
 30
0.0
 11
113.1252727297
 21
-35.5192881868
 31
0.0
  0
LINE
  5
68
330
1B
100
AcDbEntity
  8
0
  6
Continuous
 62
     6
100
AcDbLine
 10
104.1252727297
 20
-35.5192881868
 30
0.0
 11
98.12527272970001
 21
-35.5192881868
 31
0.0
  0
LINE
  5
69
330
1B
100
AcDbEntity
  8
0
  6
Continuous
 62
     6
100
AcDbLine
 10
89.12527272970001
 20
-35.5192881868
 30
0.0
 11
83.12527272969999
 21
-35.5192881868
 31
0.0
  0
LINE
  5
6A
330
1B
100
AcDbEntity
  8
0
  6
Continuous
 62
     6
100
AcDbLine
 10
74.1252727297
 20
-35.5192881868
 30
0.0
 11
68.1252727297
 21
-35.5192881868
 31
0.0
  0
LINE
  5
6B
330
1B
100
AcDbEntity
  8
0
  6
Continuous
 62
     6
100
AcDbLine
 10
140.8576751224
 20
-68.6292881868
 30
0.0
 11
140.8576751224
 21
-38.6292881868
 31
0.0
  0
LINE
  5
6C
330
1B
100
AcDbEntity
  8
0
  6
Continuous
 62
     6
100
AcDbLine
 10
145.3576751224
 20
-66.6292881868
 30
0.0
 11
145.3576751224
 21
-40.62928818679999
 31
0.0
  0
LINE
  5
6D
330
1B
100
AcDbEntity
  8
0
  6
Continuous
 62
     6
100
AcDbLine
 10
148.9044643685
 20
-63.5453701974
 30
0.0
 11
148.9044643685
 21
-56.5453701974
 31
0.0
  0
LINE
  5
6E
330
1B
100
AcDbEntity
  8
0
  6
Continuous
 62
     6
100
AcDbLine
 10
148.9044643685
 20
-54.5453701974
 30
0.0
 11
148.9044643685
 21
-47.54537019739999
 31
0.0
  0
LINE
  5
6F
330
1B
100
AcDbEntity
  8
0
  6
Continuous
 62
     6
100
AcDbLine
 10
149.9044643685
 20
-62.6926625416
 30
0.0
 11
149.9044643685
 21
-57.7181050652
 31
0.0
  0
LINE
  5
70
330
1B
100
AcDbEntity
  8
0
  6
Continuous
 62
     6
100
AcDbLine
 10
149.9044643685
 20
-53.6926625416
 30
0.0
 11
149.9044643685
 21
-48.7181050652
 31
0.0
  0
LINE
  5
71
330
1B
100
AcDbEntity
  8
0
  6
Continuous
 62
     6
100
AcDbLine
 10
148.9033969646
 20
-44.6617927637
 30
0.0
 11
148.9044643685
 21
-43.649242301
 31
0.0
  0
LINE
  5
72
330
1B
100
AcDbEntity
  8
0
  6
Continuous
 62
     6
100
AcDbLine
 10
153.0986672123
 20
-49.2292209804
 30
0.0
 11
153.0986672123
 21
-54.2037784568
 31
0.0
  0
LINE
  5
73
330
1B
100
AcDbEntity
  8
0
  6
Continuous
 62
     6
100
AcDbLine
 10
153.0986672123
 20
-58.2292209804
 30
0.0
 11
153.0986672123
 21
-63.2037784568
 31
0.0
  0
LINE
  5
74
330
1B
100
AcDbEntity
  8
0
  6
Continuous
 62
     6
100
AcDbLine
 10
154.0986672123
 20
-63.3637920627
 30
0.0
 11
154.0986672123
 21
-58.3892345863
 31
0.0
  0
LINE
  5
75
330
1B
100
AcDbEntity
  8
0
  6
Continuous
 62
     6
100
AcDbLine
 10
154.0986672123
 20
-54.3637920627
 30
0.0
 11
154.0986672123
 21
-49.3892345863
 31
0.0
  0
LINE
  5
76
330
1B
100
AcDbEntity
  8
0
  6
Continuous
 62
     7
100
AcDbLine
 10
180.2776751224
 20
-18.5192881868
 30
0.0
 11
55.17767512239999
 21
-18.5192881868
 31
0.0
  0
LINE
  5
77
330
1B
100
AcDbEntity
  8
0
  6
Continuous
 62
     6
100
AcDbLine
 10
157.2786672123
 20
-49.8980778533
 30
0.0
 11
157.2786672123
 21
-54.87263532970001
 31
0.0
  0
LINE
  5
78
330
1B
100
AcDbEntity
  8
0
  6
Continuous
 62
     6
100
AcDbLine
 10
157.2786672123
 20
-58.8980778533
 30
0.0
 11
157.2786672123
 21
-63.8726353297
 31
0.0
  0
LINE
  5
79
330
1B
100
AcDbEntity
  8
0
  6
Continuous
 62
     6
100
AcDbLine
 10
158.2786672123
 20
-49.0453701974
 30
0.0
 11
158.2786672123
 21
-56.0453701974
 31
0.0
  0
LINE
  5
7A
330
1B
100
AcDbEntity
  8
0
  6
Continuous
 62
     6
100
AcDbLine
 10
158.2786672123
 20
-58.04537019739999
 30
0.0
 11
158.2786672123
 21
-65.0453701974
 31
0.0
  0
LINE
  5
7B
330
1B
100
AcDbEntity
  8
0
  6
Continuous
 62
     6
100
AcDbLine
 10
158.2786672123
 20
-45.149242301
 30
0.0
 11
158.2775998085
 21
-46.1617927637
 31
0.0
  0
LINE
  5
7C
330
1B
100
AcDbEntity
  8
0
  6
Continuous
 62
     6
100
AcDbLine
 10
162.5276751224
 20
-40.62928818679999
 30
0.0
 11
162.5276751224
 21
-66.6292881868
 31
0.0
  0
LINE
  5
7D
330
1B
100
AcDbEntity
  8
0
  6
Continuous
 62
     6
100
AcDbLine
 10
167.0276751224
 20
-38.6292881868
 30
0.0
 11
167.0276751224
 21
-68.6292881868
 31
0.0
  0
LINE
  5
7E
330
1B
100
AcDbEntity
  8
0
  6
Continuous
 62
     7
100
AcDbLine
 10
180.2776751224
 20
-88.51928818679999
 30
0.0
 11
180.2776751224
 21
-18.5192881868
 31
0.0
  0
LINE
  5
7F
330
1B
100
AcDbEntity
  8
0
  6
Continuous
 62
     7
100
AcDbLine
 10
55.17767512239999
 20
40.31829609719999
 30
0.0
 11
55.17767512239999
 21
38.71829609720001
 31
0.0
  0
LINE
  5
80
330
1B
100
AcDbEntity
  8
0
  6
Continuous
 62
     6
100
AcDbLine
 10
68.1252727297
 20
38.71829609720001
 30
0.0
 11
68.1252727297
 21
35.21829609720001
 31
0.0
  0
LINE
  5
81
330
1B
100
AcDbEntity
  8
0
  6
Continuous
 62
     6
100
AcDbLine
 10
69.3752727297
 20
35.21829609720001
 30
0.0
 11
69.3752727297
 21
31.6182960972
 31
0.0
  0
LINE
  5
82
330
1B
100
AcDbEntity
  8
0
  6
Continuous
 62
     6
100
AcDbLine
 10
72.8752727297
 20
35.21829609720001
 30
0.0
 11
72.8752727297
 21
31.6182960972
 31
0.0
  0
LINE
  5
83
330
1B
100
AcDbEntity
  8
0
  6
Continuous
 62
     6
100
AcDbLine
 10
74.1252727297
 20
38.71829609720001
 30
0.0
 11
74.1252727297
 21
35.21829609720001
 31
0.0
  0
LINE
  5
84
330
1B
100
AcDbEntity
  8
0
  6
Continuous
 62
     6
100
AcDbLine
 10
83.12527272969999
 20
38.71829609720001
 30
0.0
 11
83.12527272969999
 21
35.21829609720001
 31
0.0
  0
LINE
  5
85
330
1B
100
AcDbEntity
  8
0
  6
Continuous
 62
     6
100
AcDbLine
 10
84.37527272969999
 20
35.21829609720001
 30
0.0
 11
84.37527272969999
 21
31.6182960972
 31
0.0
  0
LINE
  5
86
330
1B
100
AcDbEntity
  8
0
  6
Continuous
 62
     6
100
AcDbLine
 10
87.87527272970001
 20
35.21829609720001
 30
0.0
 11
87.87527272970001
 21
31.6182960972
 31
0.0
  0
LINE
  5
87
330
1B
100
AcDbEntity
  8
0
  6
Continuous
 62
     6
100
AcDbLine
 10
89.12527272970001
 20
38.71829609720001
 30
0.0
 11
89.12527272970001
 21
35.21829609720001
 31
0.0
  0
LINE
  5
88
330
1B
100
AcDbEntity
  8
0
  6
Continuous
 62
     6
100
AcDbLine
 10
98.12527272970001
 20
38.71829609720001
 30
0.0
 11
98.12527272970001
 21
35.21829609720001
 31
0.0
  0
LINE
  5
89
330
1B
100
AcDbEntity
  8
0
  6
Continuous
 62
     6
100
AcDbLine
 10
99.37527272970001
 20
35.21829609720001
 30
0.0
 11
99.37527272970001
 21
31.6182960972
 31
0.0
  0
LINE
  5
8A
330
1B
100
AcDbEntity
  8
0
  6
Continuous
 62
     6
100
AcDbLine
 10
102.8752727297
 20
35.21829609720001
 30
0.0
 11
102.8752727297
 21
31.6182960972
 31
0.0
  0
LINE
  5
8B
330
1B
100
AcDbEntity
  8
0
  6
Continuous
 62
     6
100
AcDbLine
 10
104.1252727297
 20
38.71829609720001
 30
0.0
 11
104.1252727297
 21
35.21829609720001
 31
0.0
  0
LINE
  5
8C
330
1B
100
AcDbEntity
  8
0
  6
Continuous
 62
     6
100
AcDbLine
 10
113.1252727297
 20
38.71829609720001
 30
0.0
 11
113.1252727297
 21
35.21829609720001
 31
0.0
  0
LINE
  5
8D
330
1B
100
AcDbEntity
  8
0
  6
Continuous
 62
     6
100
AcDbLine
 10
114.3752727297
 20
35.21829609720001
 30
0.0
 11
114.3752727297
 21
31.6182960972
 31
0.0
  0
LINE
  5
8E
330
1B
100
AcDbEntity
  8
0
  6
Continuous
 62
     6
100
AcDbLine
 10
117.8752727297
 20
35.21829609720001
 30
0.0
 11
117.8752727297
 21
31.6182960972
 31
0.0
  0
LINE
  5
8F
330
1B
100
AcDbEntity
  8
0
  6
Continuous
 62
     6
100
AcDbLine
 10
119.1252727297
 20
38.71829609720001
 30
0.0
 11
119.1252727297
 21
35.21829609720001
 31
0.0
  0
LINE
  5
90
330
1B
100
AcDbEntity
  8
0
  6
Continuous
 62
     6
100
AcDbLine
 10
69.3752727297
 20
31.6182960972
 30
0.0
 11
72.8752727297
 21
31.6182960972
 31
0.0
  0
LINE
  5
91
330
1B
100
AcDbEntity
  8
0
  6
Continuous
 62
     6
100
AcDbLine
 10
84.37527272969999
 20
31.6182960972
 30
0.0
 11
87.87527272970001
 21
31.6182960972
 31
0.0
  0
LINE
  5
92
330
1B
100
AcDbEntity
  8
0
  6
Continuous
 62
     6
100
AcDbLine
 10
99.37527272970001
 20
31.6182960972
 30
0.0
 11
102.8752727297
 21
31.6182960972
 31
0.0
  0
LINE
  5
93
330
1B
100
AcDbEntity
  8
0
  6
Continuous
 62
     6
100
AcDbLine
 10
114.3752727297
 20
31.6182960972
 30
0.0
 11
117.8752727297
 21
31.6182960972
 31
0.0
  0
LINE
  5
94
330
1B
100
AcDbEntity
  8
0
  6
Continuous
 62
     6
100
AcDbLine
 10
162.5276751224
 20
34.1032972623
 30
0.0
 11
145.3576751224
 21
34.1032972623
 31
0.0
  0
LINE
  5
95
330
1B
100
AcDbEntity
  8
0
  6
Continuous
 62
     6
100
AcDbLine
 10
158.2786672123
 20
34.3032972623
 30
0.0
 11
148.9044643685
 21
34.3032972623
 31
0.0
  0
LINE
  5
96
330
1B
100
AcDbEntity
  8
0
  6
Continuous
 62
     6
100
AcDbLine
 10
167.0276751224
 20
35.2032972623
 30
0.0
 11
140.8576751224
 21
35.2032972623
 31
0.0
  0
LINE
  5
97
330
1B
100
AcDbEntity
  8
0
  6
Continuous
 62
     6
100
AcDbLine
 10
119.1252727297
 20
35.21829609720001
 30
0.0
 11
113.1252727297
 21
35.21829609720001
 31
0.0
  0
LINE
  5
98
330
1B
100
AcDbEntity
  8
0
  6
Continuous
 62
     6
100
AcDbLine
 10
104.1252727297
 20
35.21829609720001
 30
0.0
 11
98.12527272970001
 21
35.21829609720001
 31
0.0
  0
LINE
  5
99
330
1B
100
AcDbEntity
  8
0
  6
Continuous
 62
     6
100
AcDbLine
 10
89.12527272970001
 20
35.21829609720001
 30
0.0
 11
83.12527272969999
 21
35.21829609720001
 31
0.0
  0
LINE
  5
9A
330
1B
100
AcDbEntity
  8
0
  6
Continuous
 62
     6
100
AcDbLine
 10
74.1252727297
 20
35.21829609720001
 30
0.0
 11
68.1252727297
 21
35.21829609720001
 31
0.0
  0
LINE
  5
9B
330
1B
100
AcDbEntity
  8
0
  6
Continuous
 62
     6
100
AcDbLine
 10
167.0276751224
 20
36.3032972623
 30
0.0
 11
140.8576751224
 21
36.3032972623
 31
0.0
  0
LINE
  5
9C
330
1B
100
AcDbEntity
  8
0
  6
Continuous
 62
     7
100
AcDbLine
 10
180.2776751224
 20
38.71829609720001
 30
0.0
 11
55.17767512239999
 21
38.71829609720001
 31
0.0
  0
LINE
  5
9D
330
1B
100
AcDbEntity
  8
0
  6
Continuous
 62
     7
100
AcDbLine
 10
55.17767512239999
 20
40.31829609719999
 30
0.0
 11
180.2776751224
 21
40.31829609719999
 31
0.0
  0
LINE
  5
9E
330
1B
100
AcDbEntity
  8
0
  6
Continuous
 62
     6
100
AcDbLine
 10
140.8576751224
 20
36.3032972623
 30
0.0
 11
140.8576751224
 21
35.2032972623
 31
0.0
  0
LINE
  5
9F
330
1B
100
AcDbEntity
  8
0
  6
Continuous
 62
     6
100
AcDbLine
 10
145.3576751224
 20
35.2032972623
 30
0.0
 11
145.3576751224
 21
34.1032972623
 31
0.0
  0
LINE
  5
A0
330
1B
100
AcDbEntity
  8
0
  6
Continuous
 62
     6
100
AcDbLine
 10
148.9033969646
 20
34.1032972623
 30
0.0
 11
148.9033969646
 21
34.3032972623
 31
0.0
  0
LINE
  5
A1
330
1B
100
AcDbEntity
  8
0
  6
Continuous
 62
     6
100
AcDbLine
 10
149.9044643685
 20
34.1032972623
 30
0.0
 11
149.9044643685
 21
34.3032972623
 31
0.0
  0
LINE
  5
A2
330
1B
100
AcDbEntity
  8
0
  6
Continuous
 62
     6
100
AcDbLine
 10
153.0986672123
 20
34.1032972623
 30
0.0
 11
153.0986672123
 21
34.3032972623
 31
0.0
  0
LINE
  5
A3
330
1B
100
AcDbEntity
  8
0
  6
Continuous
 62
     6
100
AcDbLine
 10
154.0986672123
 20
34.1032972623
 30
0.0
 11
154.0986672123
 21
34.3032972623
 31
0.0
  0
LINE
  5
A4
330
1B
100
AcDbEntity
  8
0
  6
Continuous
 62
     6
100
AcDbLine
 10
157.2786672123
 20
34.1032972623
 30
0.0
 11
157.2786672123
 21
34.3032972623
 31
0.0
  0
LINE
  5
A5
330
1B
100
AcDbEntity
  8
0
  6
Continuous
 62
     6
100
AcDbLine
 10
158.2775998085
 20
34.1032972623
 30
0.0
 11
158.2775998085
 21
34.3032972623
 31
0.0
  0
LINE
  5
A6
330
1B
100
AcDbEntity
  8
0
  6
Continuous
 62
     6
100
AcDbLine
 10
162.5276751224
 20
35.2032972623
 30
0.0
 11
162.5276751224
 21
34.1032972623
 31
0.0
  0
LINE
  5
A7
330
1B
100
AcDbEntity
  8
0
  6
Continuous
 62
     6
100
AcDbLine
 10
167.0276751224
 20
36.3032972623
 30
0.0
 11
167.0276751224
 21
35.2032972623
 31
0.0
  0
LINE
  5
A8
330
1B
100
AcDbEntity
  8
0
  6
Continuous
 62
     7
100
AcDbLine
 10
180.2776751224
 20
40.31829609719999
 30
0.0
 11
180.2776751224
 21
38.71829609720001
 31
0.0
  0
CIRCLE
  5
A9
330
1B
100
AcDbEntity
  8
0
  6
Continuous
 62
     7
100
AcDbCircle
 10
168.2776751224
 20
-44.7392881868
 30
0.0
 40
0.4
  0
CIRCLE
  5
AA
330
1B
100
AcDbEntity
  8
0
  6
Continuous
 62
     7
100
AcDbCircle
 10
168.2776751224
 20
-47.2792881868
 30
0.0
 40
0.4
  0
CIRCLE
  5
AB
330
1B
100
AcDbEntity
  8
0
  6
Continuous
 62
     7
100
AcDbCircle
 10
168.2776751224
 20
-49.8192881868
 30
0.0
 40
0.4
  0
CIRCLE
  5
AC
330
1B
100
AcDbEntity
  8
0
  6
Continuous
 62
     7
100
AcDbCircle
 10
168.2776751224
 20
-52.3592881868
 30
0.0
 40
0.4
  0
CIRCLE
  5
AD
330
1B
100
AcDbEntity
  8
0
  6
Continuous
 62
     7
100
AcDbCircle
 10
168.2776751224
 20
-54.8992881868
 30
0.0
 40
0.4
  0
CIRCLE
  5
AE
330
1B
100
AcDbEntity
  8
0
  6
Continuous
 62
     7
100
AcDbCircle
 10
168.2776751224
 20
-57.4392881868
 30
0.0
 40
0.4
  0
CIRCLE
  5
AF
330
1B
100
AcDbEntity
  8
0
  6
Continuous
 62
     7
100
AcDbCircle
 10
168.2776751224
 20
-59.9792881868
 30
0.0
 40
0.4
  0
CIRCLE
  5
B0
330
1B
100
AcDbEntity
  8
0
  6
Continuous
 62
     7
100
AcDbCircle
 10
168.2776751224
 20
-62.51928818679999
 30
0.0
 40
0.4
  0
CIRCLE
  5
B1
330
1B
100
AcDbEntity
  8
0
  6
Continuous
 62
     7
100
AcDbCircle
 10
139.2776751224
 20
-44.7392881868
 30
0.0
 40
0.4
  0
CIRCLE
  5
B2
330
1B
100
AcDbEntity
  8
0
  6
Continuous
 62
     7
100
AcDbCircle
 10
139.2776751224
 20
-47.2792881868
 30
0.0
 40
0.4
  0
CIRCLE
  5
B3
330
1B
100
AcDbEntity
  8
0
  6
Continuous
 62
     7
100
AcDbCircle
 10
139.2776751224
 20
-49.8192881868
 30
0.0
 40
0.4
  0
CIRCLE
  5
B4
330
1B
100
AcDbEntity
  8
0
  6
Continuous
 62
     7
100
AcDbCircle
 10
139.2776751224
 20
-52.3592881868
 30
0.0
 40
0.4
  0
CIRCLE
  5
B5
330
1B
100
AcDbEntity
  8
0
  6
Continuous
 62
     7
100
AcDbCircle
 10
139.2776751224
 20
-54.8992881868
 30
0.0
 40
0.4
  0
CIRCLE
  5
B6
330
1B
100
AcDbEntity
  8
0
  6
Continuous
 62
     7
100
AcDbCircle
 10
139.2776751224
 20
-57.4392881868
 30
0.0
 40
0.4
  0
CIRCLE
  5
B7
330
1B
100
AcDbEntity
  8
0
  6
Continuous
 62
     7
100
AcDbCircle
 10
139.2776751224
 20
-59.9792881868
 30
0.0
 40
0.4
  0
CIRCLE
  5
B8
330
1B
100
AcDbEntity
  8
0
  6
Continuous
 62
     7
100
AcDbCircle
 10
139.2776751224
 20
-62.51928818679999
 30
0.0
 40
0.4
  0
CIRCLE
  5
B9
330
1B
100
AcDbEntity
  8
0
  6
Continuous
 62
     7
100
AcDbCircle
 10
135.2776751224
 20
-42.7792881868
 30
0.0
 40
0.4
  0
CIRCLE
  5
BA
330
1B
100
AcDbEntity
  8
0
  6
Continuous
 62
     7
100
AcDbCircle
 10
135.2776751224
 20
-45.31928818679999
 30
0.0
 40
0.4
  0
CIRCLE
  5
BB
330
1B
100
AcDbEntity
  8
0
  6
Continuous
 62
     7
100
AcDbCircle
 10
135.2776751224
 20
-47.8592881868
 30
0.0
 40
0.4
  0
CIRCLE
  5
BC
330
1B
100
AcDbEntity
  8
0
  6
Continuous
 62
     7
100
AcDbCircle
 10
135.2776751224
 20
-50.39928818679999
 30
0.0
 40
0.4
  0
CIRCLE
  5
BD
330
1B
100
AcDbEntity
  8
0
  6
Continuous
 62
     7
100
AcDbCircle
 10
135.2776751224
 20
-52.9392881868
 30
0.0
 40
0.4
  0
CIRCLE
  5
BE
330
1B
100
AcDbEntity
  8
0
  6
Continuous
 62
     7
100
AcDbCircle
 10
135.2776751224
 20
-55.47928818679999
 30
0.0
 40
0.4
  0
CIRCLE
  5
BF
330
1B
100
AcDbEntity
  8
0
  6
Continuous
 62
     7
100
AcDbCircle
 10
135.2776751224
 20
-58.0192881868
 30
0.0
 40
0.4
  0
CIRCLE
  5
C0
330
1B
100
AcDbEntity
  8
0
  6
Continuous
 62
     7
100
AcDbCircle
 10
61.1776751224
 20
-24.5192881868
 30
0.0
 40
1.6
  0
CIRCLE
  5
C1
330
1B
100
AcDbEntity
  8
0
  6
Continuous
 62
     7
100
AcDbCircle
 10
61.1776751224
 20
-82.51928818679999
 30
0.0
 40
1.6
  0
CIRCLE
  5
C2
330
1B
100
AcDbEntity
  8
0
  6
Continuous
 62
     7
100
AcDbCircle
 10
126.1776751224
 20
-82.51928818679999
 30
0.0
 40
1.6
  0
CIRCLE
  5
C3
330
1B
100
AcDbEntity
  8
0
  6
Continuous
 62
     7
100
AcDbCircle
 10
126.1776751224
 20
-24.5192881868
 30
0.0
 40
1.6
  0
CIRCLE
  5
C4
330
1B
100
AcDbEntity
  8
0
  6
Continuous
 62
     7
100
AcDbCircle
 10
93.6776751224
 20
-53.5192881868
 30
0.0
 40
1.6
  0
CIRCLE
  5
C5
330
1B
100
AcDbEntity
  8
0
  6
Continuous
 62
     7
100
AcDbCircle
 10
174.2776751224
 20
-82.51928818679999
 30
0.0
 40
1.6
  0
CIRCLE
  5
C6
330
1B
100
AcDbEntity
  8
0
  6
Continuous
 62
     7
100
AcDbCircle
 10
174.2776751224
 20
-24.5192881868
 30
0.0
 40
1.6
  0
CIRCLE
  5
C7
330
1B
100
AcDbEntity
  8
0
  6
Continuous
 62
     7
100
AcDbCircle
 10
130.2950871435
 20
-77.6671627347
 30
0.0
 40
3.25
  0
CIRCLE
  5
C8
330
1B
100
AcDbEntity
  8
0
  6
Continuous
 62
     6
100
AcDbCircle
 10
116.1252727297
 20
-38.5192881868
 30
0.0
 40
1.75
  0
CIRCLE
  5
C9
330
1B
100
AcDbEntity
  8
0
  6
Continuous
 62
     6
100
AcDbCircle
 10
116.1252727297
 20
-53.5192881868
 30
0.0
 40
1.75
  0
CIRCLE
  5
CA
330
1B
100
AcDbEntity
  8
0
  6
Continuous
 62
     6
100
AcDbCircle
 10
116.1252727297
 20
-68.5192881868
 30
0.0
 40
1.75
  0
CIRCLE
  5
CB
330
1B
100
AcDbEntity
  8
0
  6
Continuous
 62
     6
100
AcDbCircle
 10
101.1252727297
 20
-38.5192881868
 30
0.0
 40
1.75
  0
CIRCLE
  5
CC
330
1B
100
AcDbEntity
  8
0
  6
Continuous
 62
     6
100
AcDbCircle
 10
101.1252727297
 20
-53.5192881868
 30
0.0
 40
1.75
  0
CIRCLE
  5
CD
330
1B
100
AcDbEntity
  8
0
  6
Continuous
 62
     6
100
AcDbCircle
 10
101.1252727297
 20
-68.5192881868
 30
0.0
 40
1.75
  0
CIRCLE
  5
CE
330
1B
100
AcDbEntity
  8
0
  6
Continuous
 62
     6
100
AcDbCircle
 10
86.1252727297
 20
-38.5192881868
 30
0.0
 40
1.75
  0
CIRCLE
  5
CF
330
1B
100
AcDbEntity
  8
0
  6
Continuous
 62
     6
100
AcDbCircle
 10
86.1252727297
 20
-53.5192881868
 30
0.0
 40
1.75
  0
CIRCLE
  5
D0
330
1B
100
AcDbEntity
  8
0
  6
Continuous
 62
     6
100
AcDbCircle
 10
86.1252727297
 20
-68.5192881868
 30
0.0
 40
1.75
  0
CIRCLE
  5
D1
330
1B
100
AcDbEntity
  8
0
  6
Continuous
 62
     6
100
AcDbCircle
 10
71.1252727297
 20
-38.5192881868
 30
0.0
 40
1.75
  0
CIRCLE
  5
D2
330
1B
100
AcDbEntity
  8
0
  6
Continuous
 62
     6
100
AcDbCircle
 10
71.1252727297
 20
-53.5192881868
 30
0.0
 40
1.75
  0
CIRCLE
  5
D3
330
1B
100
AcDbEntity
  8
0
  6
Continuous
 62
     6
100
AcDbCircle
 10
71.1252727297
 20
-68.5192881868
 30
0.0
 40
1.75
  0
DIMENSION
  5
E5
330
1B
100
AcDbEntity
  8
0
100
AcDbDimension
  2
*D0
 10
204.8461336774077
 20
-88.51928818679999
 30
0.0
 11
204.8461336774077
 21
-53.51928818679997
 31
0.0
 70
    32
 71
     5
 42
70.0
  3
STANDARD
100
AcDbAlignedDimension
 13
180.2776751224
 23
-18.5192881868
 33
0.0
 14
180.2776751224
 24
-88.51928818679999
 34
0.0
 50
90.0
100
AcDbRotatedDimension
1001
ACAD
1000
DSTYLE
1002
{
1070
    41
1040
0.1875
1070
    42
1040
0.0730807087
1070
    43
1040
0.4443307087
1070
    44
1040
0.2104724409
1070
    47
1040
0.0
1070
    48
1040
0.0
1070
   140
1040
2.0
1070
   141
1040
0.1052362205
1070
   176
1070
     3
1070
   177
1070
     4
1070
   178
1070
     1
1070
   271
1070
     2
1070
   272
1070
     2
1070
   289
1070
     3
1002
}
  0
DIMENSION
  5
F4
330
1B
100
AcDbEntity
  8
0
100
AcDbDimension
  2
*D1
 10
55.17767512239998
 20
-5.914364533789125
 30
0.0
 11
117.7276751224
 21
-5.914364533789125
 31
0.0
 70
    32
 71
     5
 42
125.1
  3
STANDARD
100
AcDbAlignedDimension
 13
180.2776751224
 23
-18.5192881868
 33
0.0
 14
55.17767512239998
 24
-18.5192881868
 34
0.0
100
AcDbRotatedDimension
1001
ACAD
1000
DSTYLE
1002
{
1070
    41
1040
0.1875
1070
    42
1040
0.0730807087
1070
    43
1040
0.4443307087
1070
    44
1040
0.2104724409
1070
    47
1040
0.0
1070
    48
1040
0.0
1070
   140
1040
2.0
1070
   141
1040
0.1052362205
1070
   176
1070
     3
1070
   177
1070
     4
1070
   178
1070
     1
1070
   271
1070
     2
1070
   272
1070
     2
1070
   289
1070
     3
1002
}
  0
DIMENSION
  5
102
330
1B
100
AcDbEntity
  8
0
100
AcDbDimension
  2
*D2
 10
55.17767512239998
 20
-15.37140951074207
 30
0.0
 11
58.87038621434033
 21
-15.37140951074207
 31
0.0
 70
   160
 71
     5
 42
6.000000000000007
  3
STANDARD
100
AcDbAlignedDimension
 13
61.1776751224
 23
-24.5192881868
 33
0.0
 14
55.17767512239998
 24
-24.552673963517
 34
0.0
100
AcDbRotatedDimension
1001
ACAD
1000
DSTYLE
1002
{
1070
    41
1040
0.1875
1070
    42
1040
0.0730807087
1070
    43
1040
0.4443307087
1070
    44
1040
0.2104724409
1070
    47
1040
0.0
1070
    48
1040
0.0
1070
   140
1040
2.0
1070
   141
1040
0.1052362205
1070
   176
1070
     3
1070
   177
1070
     4
1070
   178
1070
     1
1070
   271
1070
     2
1070
   272
1070
     2
1070
   289
1070
     3
1002
}
  0
DIMENSION
  5
11A
330
1B
100
AcDbEntity
  8
0
100
AcDbDimension
  2
*D3
 10
184.148127961731
 20
-18.5192881868
 30
0.0
 11
184.148127961731
 21
-21.51928818679997
 31
0.0
 70
    32
 71
     5
 42
6.0
  3
STANDARD
100
AcDbAlignedDimension
 13
174.2776751224
 23
-24.5192881868
 33
0.0
 14
180.2776751224
 24
-18.5192881868
 34
0.0
 50
90.0
100
AcDbRotatedDimension
1001
ACAD
1000
DSTYLE
1002
{
1070
    41
1040
0.1875
1070
    42
1040
0.0730807087
1070
    43
1040
0.4443307087
1070
    44
1040
0.2104724409
1070
    47
1040
0.0
1070
    48
1040
0.0
1070
   140
1040
2.0
1070
   141
1040
0.1052362205
1070
   176
1070
     3
1070
   177
1070
     4
1070
   178
1070
     1
1070
   271
1070
     2
1070
   272
1070
     2
1070
   289
1070
     3
1002
}
  0
DIMENSION
  5
128
330
1B
100
AcDbEntity
  8
0
100
AcDbDimension
  2
*D4
 10
126.1776751224
 20
-16.37828544940532
 30
0.0
 11
93.6776751224
 21
-16.37828544940532
 31
0.0
 70
    32
 71
     5
 42
65.0
  3
STANDARD
100
AcDbAlignedDimension
 13
61.1776751224
 23
-24.4462074781
 33
0.0
 14
126.1776751224
 24
-24.5192881868
 34
0.0
100
AcDbRotatedDimension
1001
ACAD
1000
DSTYLE
1002
{
1070
    41
1040
0.1875
1070
    42
1040
0.0730807087
1070
    43
1040
0.4443307087
1070
    44
1040
0.2104724409
1070
    47
1040
0.0
1070
    48
1040
0.0
1070
   140
1040
2.0
1070
   141
1040
0.1052362205
1070
   176
1070
     3
1070
   177
1070
     4
1070
   178
1070
     1
1070
   271
1070
     2
1070
   272
1070
     2
1070
   289
1070
     3
1002
}
  0
DIMENSION
  5
136
330
1B
100
AcDbEntity
  8
0
100
AcDbDimension
  2
*D5
 10
174.3507558311
 20
-16.17655935281618
 30
0.0
 11
150.26421547675
 21
-16.17655935281618
 31
0.0
 70
    32
 71
     5
 42
48.1730807087
  3
STANDARD
100
AcDbAlignedDimension
 13
126.1776751224
 23
-24.5192881868
 33
0.0
 14
174.3507558311
 24
-24.5192881868
 34
0.0
100
AcDbRotatedDimension
1001
ACAD
1000
DSTYLE
1002
{
1070
    41
1040
0.1875
1070
    42
1040
0.0730807087
1070
    43
1040
0.4443307087
1070
    44
1040
0.2104724409
1070
    47
1040
0.0
1070
    48
1040
0.0
1070
   140
1040
2.0
1070
   141
1040
0.1052362205
1070
   176
1070
     3
1070
   177
1070
     4
1070
   178
1070
     1
1070
   271
1070
     2
1070
   272
1070
     2
1070
   289
1070
     3
1002
}
  0
DIMENSION
  5
144
330
1B
100
AcDbEntity
  8
0
100
AcDbDimension
  2
*D6
 10
55.17767512239999
 20
-96.63607878278984
 30
0.0
 11
74.4276751224
 21
-96.63607878278984
 31
0.0
 70
    32
 71
     5
 42
38.50000000000001
  3
STANDARD
100
AcDbAlignedDimension
 13
93.6776751224
 23
-53.5192881868
 33
0.0
 14
55.17767512239999
 24
-53.5192881868
 34
0.0
100
AcDbRotatedDimension
1001
ACAD
1000
DSTYLE
1002
{
1070
    41
1040
0.1875
1070
    42
1040
0.0730807087
1070
    43
1040
0.4443307087
1070
    44
1040
0.2104724409
1070
    47
1040
0.0
1070
    48
1040
0.0
1070
   140
1040
2.0
1070
   141
1040
0.1052362205
1070
   176
1070
     3
1070
   177
1070
     4
1070
   178
1070
     1
1070
   271
1070
     2
1070
   272
1070
     2
1070
   289
1070
     3
1002
}
  0
DIMENSION
  5
152
330
1B
100
AcDbEntity
  8
0
100
AcDbDimension
  2
*D7
 10
36.19114813794703
 20
-88.51928818679999
 30
0.0
 11
36.19114813794705
 21
-71.01928818679998
 31
0.0
 70
    32
 71
     5
 42
35.00000000000001
  3
STANDARD
100
AcDbAlignedDimension
 13
93.6776751224
 23
-53.5192881868
 33
0.0
 14
93.6776751224
 24
-88.51928818679999
 34
0.0
 50
90.0
100
AcDbRotatedDimension
1001
ACAD
1000
DSTYLE
1002
{
1070
    41
1040
0.1875
1070
    42
1040
0.0730807087
1070
    43
1040
0.4443307087
1070
    44
1040
0.2104724409
1070
    47
1040
0.0
1070
    48
1040
0.0
1070
   140
1040
2.0
1070
   141
1040
0.1052362205
1070
   176
1070
     3
1070
   177
1070
     4
1070
   178
1070
     1
1070
   271
1070
     2
1070
   272
1070
     2
1070
   289
1070
     3
1002
}
  0
DIMENSION
  5
168
330
1B
100
AcDbEntity
  8
0
100
AcDbDimension
  2
*D8
 10
137.3264786516924
 20
-88.51928818679999
 30
0.0
 11
137.3264786516925
 21
-83.09322546075
 31
0.0
 70
    32
 71
     5
 42
10.8521254521
  3
STANDARD
100
AcDbAlignedDimension
 13
130.2950871435
 23
-77.6671627347
 33
0.0
 14
117.7276751224
 24
-88.51928818679999
 34
0.0
 50
90.0
100
AcDbRotatedDimension
1001
ACAD
1000
DSTYLE
1002
{
1070
    41
1040
0.1875
1070
    42
1040
0.0730807087
1070
    43
1040
0.4443307087
1070
    44
1040
0.2104724409
1070
    47
1040
0.0
1070
    48
1040
0.0
1070
   140
1040
2.0
1070
   141
1040
0.1052362205
1070
   176
1070
     3
1070
   177
1070
     4
1070
   178
1070
     1
1070
   271
1070
     2
1070
   272
1070
     2
1070
   289
1070
     3
1002
}
  0
DIMENSION
  5
176
330
1B
100
AcDbEntity
  8
0
100
AcDbDimension
  2
*D9
 10
180.3507558311
 20
-94.86783563296109
 30
0.0
 11
155.3229214873
 21
-94.86783563296109
 31
0.0
 70
    32
 71
     5
 42
50.05566868759999
  3
STANDARD
100
AcDbAlignedDimension
 13
130.2950871435
 23
-77.6671627347
 33
0.0
 14
180.3507558311
 24
-88.51928818679999
 34
0.0
100
AcDbRotatedDimension
1001
ACAD
1000
DSTYLE
1002
{
1070
    41
1040
0.1875
1070
    42
1040
0.0730807087
1070
    43
1040
0.4443307087
1070
    44
1040
0.2104724409
1070
    47
1040
0.0
1070
    48
1040
0.0
1070
   140
1040
2.0
1070
   141
1040
0.1052362205
1070
   176
1070
     3
1070
   177
1070
     4
1070
   178
1070
     1
1070
   271
1070
     2
1070
   272
1070
     2
1070
   289
1070
     3
1002
}
  0
DIMENSION
  5
184
330
1B
100
AcDbEntity
  8
0
100
AcDbDimension
  2
*D10
 10
133.4993419072494
 20
-77.12379231869533
 30
0.0
 11
117.8250778236815
 21
-79.78179925747233
 31
0.0
 70
   163
 71
     5
 42
6.5
  3
STANDARD
100
AcDbDiametricDimension
 15
127.0908323797506
 25
-78.21053315070466
 35
0.0
 40
0.0
1001
ACAD
1000
DSTYLE
1002
{
1070
    41
1040
0.1875
1070
    42
1040
0.0730807087
1070
    43
1040
0.4443307087
1070
    44
1040
0.2104724409
1070
    47
1040
0.0
1070
    48
1040
0.0
1070
   140
1040
2.0
1070
   141
1040
0.1052362205
1070
   176
1070
     3
1070
   177
1070
     4
1070
   178
1070
     1
1070
   271
1070
     2
1070
   272
1070
     2
1070
   288
1070
     1
1070
   289
1070
     3
1002
}
  0
ENDSEC
  0
SECTION
  2
OBJECTS
  0
DICTIONARY
  5
D4
330
0
100
AcDbDictionary
281
     1
  3
ACAD_COLOR
350
DE
  3
ACAD_GROUP
350
D5
  3
ACAD_LAYOUT
350
DF
  3
ACAD_MATERIAL
350
DD
  3
ACAD_MLINESTYLE
350
D6
  3
ACAD_PLOTSETTINGS
350
E0
  3
ACAD_PLOTSTYLENAME
350
DB
  3
ASE_INDEX_DICTIONARY
350
161
  0
DICTIONARY
  5
DE
102
{ACAD_REACTORS
330
D4
102
}
330
D4
100
AcDbDictionary
281
     1
  0
DICTIONARY
  5
D5
102
{ACAD_REACTORS
330
D4
102
}
330
D4
100
AcDbDictionary
281
     1
  0
DICTIONARY
  5
DF
102
{ACAD_REACTORS
330
D4
102
}
330
D4
100
AcDbDictionary
281
     1
  3
Model
350
E1
  3
1
350
E2
  0
DICTIONARY
  5
DD
102
{ACAD_REACTORS
330
D4
102
}
330
D4
100
AcDbDictionary
281
     1
  0
DICTIONARY
  5
D6
102
{ACAD_REACTORS
330
D4
102
}
330
D4
100
AcDbDictionary
281
     1
  3
STANDARD
350
D7
  0
DICTIONARY
  5
E0
102
{ACAD_REACTORS
330
D4
102
}
330
D4
100
AcDbDictionary
281
     1
  0
ACDBDICTIONARYWDFLT
  5
DB
102
{ACAD_REACTORS
330
D4
102
}
330
D4
100
AcDbDictionary
281
     1
  3
Normal
350
DC
100
AcDbDictionaryWithDefault
340
DC
  0
DICTIONARY
  5
161
102
{ACAD_REACTORS
330
D4
102
}
330
D4
100
AcDbDictionary
281
     1
  3
ASEBlockHierarchyIndexRecord
350
163
1001
DCO15
1040
1925204697.812
  0
LAYOUT
  5
E1
102
{ACAD_REACTORS
330
DF
102
}
330
DF
100
AcDbPlotSettings
  1

  2
Microsoft Office Document Image Writer
  4

  6

 40
0.0
 41
0.0
 42
0.0
 43
0.0
 44
0.0
 45
0.0
 46
0.0
 47
0.0
 48
0.0
 49
0.0
140
0.0
141
0.0
142
1.0
143
1.0
 70
  1712
 72
     0
 73
     0
 74
     0
  7

 75
     0
147
1.0
 76
     0
 77
     2
 78
   300
148
0.0
149
0.0
100
AcDbLayout
  1
Model
 70
     1
 71
     0
 10
0.0
 20
0.0
 11
12.0
 21
9.0
 12
0.0
 22
0.0
 32
0.0
 14
0.0
 24
0.0
 34
0.0
 15
0.0
 25
0.0
 35
0.0
146
0.0
 13
0.0
 23
0.0
 33
0.0
 16
1.0
 26
0.0
 36
0.0
 17
0.0
 27
1.0
 37
0.0
 76
     0
330
1B
  0
LAYOUT
  5
E2
102
{ACAD_REACTORS
330
DF
102
}
330
DF
100
AcDbPlotSettings
  1

  2
Microsoft Office Document Image Writer
  4

  6

 40
0.0
 41
0.0
 42
0.0
 43
0.0
 44
0.0
 45
0.0
 46
0.0
 47
0.0
 48
0.0
 49
0.0
140
0.0
141
0.0
142
1.0
143
1.0
 70
   688
 72
     0
 73
     0
 74
     5
  7

 75
    16
147
1.0
 76
     0
 77
     2
 78
   300
148
0.0
149
0.0
100
AcDbLayout
  1
1
 70
     0
 71
     1
 10
0.0
 20
0.0
 11
12.0
 21
9.0
 12
0.0
 22
0.0
 32
0.0
 14
1.000000000000000E+20
 24
1.000000000000000E+20
 34
1.000000000000000E+20
 15
-1.000000000000000E+20
 25
-1.000000000000000E+20
 35
-1.000000000000000E+20
146
0.0
 13
0.0
 23
0.0
 33
0.0
 16
1.0
 26
0.0
 36
0.0
 17
0.0
 27
1.0
 37
0.0
 76
     0
330
1C
  0
MLINESTYLE
  5
D7
102
{ACAD_REACTORS
330
D6
102
}
330
D6
100
AcDbMlineStyle
  2
STANDARD
 70
     0
  3

 62
     0
 51
90.00000000000019
 52
90.00000000000019
 71
     2
 49
0.5
 62
   256
  6
BYLAYER
 49
-0.5
 62
   256
  6
BYLAYER
  0
ACDBPLACEHOLDER
  5
DC
102
{ACAD_REACTORS
330
DB
102
}
330
DB
  0
XRECORD
  5
163
102
{ACAD_REACTORS
330
161
102
}
330
161
100
AcDbXrecord
280
     1
  0
ENDSEC
  0
EOF
