G04 #@! TF.FileFunction,Copper,L1,Top,Signal*
%FSLAX46Y46*%
G04 Gerber Fmt 4.6, Leading zero omitted, Abs format (unit mm)*
G04 Created by KiCad (PCBNEW 4.0.5-e0-6337~49~ubuntu16.04.1) date Sun Mar 26 23:32:04 2017*
%MOMM*%
%LPD*%
G01*
G04 APERTURE LIST*
%ADD10C,0.100000*%
%ADD11C,5.000000*%
%ADD12R,2.300000X3.500000*%
%ADD13R,3.500000X2.300000*%
%ADD14R,2.650000X2.030000*%
%ADD15R,1.700000X1.700000*%
%ADD16O,1.700000X1.700000*%
%ADD17R,0.400000X1.650000*%
%ADD18O,1.100000X1.500000*%
%ADD19O,1.200000X1.700000*%
%ADD20R,1.430000X2.500000*%
%ADD21R,0.800000X0.900000*%
%ADD22R,2.000000X3.800000*%
%ADD23R,2.000000X1.500000*%
%ADD24R,0.400000X1.500000*%
%ADD25C,4.000000*%
%ADD26R,1.600000X3.500000*%
%ADD27R,1.300000X1.100000*%
%ADD28R,1.100000X1.300000*%
%ADD29R,1.000000X1.000000*%
%ADD30O,1.000000X1.000000*%
%ADD31R,1.900000X1.300000*%
%ADD32R,0.800000X1.700000*%
%ADD33C,2.000000*%
%ADD34C,3.000000*%
%ADD35O,5.500000X8.500000*%
%ADD36C,1.000000*%
%ADD37C,1.700000*%
%ADD38C,0.800000*%
%ADD39C,2.500000*%
%ADD40C,1.000000*%
%ADD41C,0.600000*%
%ADD42C,0.230000*%
%ADD43C,0.300000*%
%ADD44C,0.500000*%
%ADD45C,0.400000*%
%ADD46C,0.254000*%
G04 APERTURE END LIST*
D10*
D11*
X137400000Y-52800000D03*
X137400000Y-126600000D03*
X102000000Y-126600000D03*
D12*
X120000000Y-105900000D03*
X120000000Y-111300000D03*
D13*
X120900000Y-100900000D03*
X126300000Y-100900000D03*
X107200000Y-92000000D03*
X101800000Y-92000000D03*
X111300000Y-92000000D03*
X116700000Y-92000000D03*
D14*
X109010000Y-118200000D03*
X113190000Y-118200000D03*
D15*
X101000000Y-113600000D03*
D16*
X101000000Y-116140000D03*
X101000000Y-118680000D03*
X101000000Y-121220000D03*
D17*
X109300000Y-122100000D03*
X109950000Y-122100000D03*
X110600000Y-122100000D03*
X111250000Y-122100000D03*
X111900000Y-122100000D03*
D18*
X108180000Y-121980000D03*
X113020000Y-121980000D03*
D19*
X107870000Y-124980000D03*
X113330000Y-124980000D03*
D20*
X109640000Y-125220000D03*
X111560000Y-125220000D03*
D15*
X123800000Y-127300000D03*
D16*
X121260000Y-127300000D03*
X118720000Y-127300000D03*
D15*
X129100000Y-127300000D03*
D16*
X131640000Y-127300000D03*
D21*
X101750000Y-97000000D03*
X103650000Y-97000000D03*
X102700000Y-95000000D03*
X108650000Y-97000000D03*
X110550000Y-97000000D03*
X109600000Y-95000000D03*
D22*
X133950000Y-106800000D03*
D23*
X127650000Y-106800000D03*
X127650000Y-109100000D03*
X127650000Y-104500000D03*
D24*
X106900000Y-109170000D03*
X106250000Y-109170000D03*
X105600000Y-109170000D03*
X105600000Y-111830000D03*
X106900000Y-111830000D03*
D25*
X138300000Y-106200000D03*
X138300000Y-101120000D03*
X138300000Y-120300000D03*
X138300000Y-115220000D03*
X129000000Y-52800000D03*
X123920000Y-52800000D03*
X114600000Y-52800000D03*
X109520000Y-52800000D03*
D26*
X134340000Y-101000000D03*
X129460000Y-101000000D03*
D27*
X106200000Y-115250000D03*
X106200000Y-117150000D03*
X104200000Y-115250000D03*
X104200000Y-117150000D03*
X123400000Y-107350000D03*
X123400000Y-105450000D03*
D28*
X114350000Y-114600000D03*
X112450000Y-114600000D03*
D27*
X125400000Y-106350000D03*
X125400000Y-104450000D03*
X117800000Y-101050000D03*
X117800000Y-102950000D03*
X110300000Y-101050000D03*
X110300000Y-102950000D03*
D28*
X119850000Y-122800000D03*
X121750000Y-122800000D03*
D27*
X105750000Y-102450000D03*
X105750000Y-100550000D03*
X119600000Y-117850000D03*
X119600000Y-115950000D03*
X99900000Y-95050000D03*
X99900000Y-96950000D03*
X106800000Y-96950000D03*
X106800000Y-95050000D03*
D29*
X102640000Y-107040000D03*
D30*
X101370000Y-107040000D03*
X102640000Y-105770000D03*
X101370000Y-105770000D03*
X102640000Y-104500000D03*
X101370000Y-104500000D03*
X102640000Y-103230000D03*
X101370000Y-103230000D03*
X102640000Y-101960000D03*
X101370000Y-101960000D03*
D11*
X102000000Y-52800000D03*
D31*
X115610000Y-103450000D03*
X115605000Y-97950000D03*
X112405000Y-97950000D03*
X112405000Y-103450000D03*
D32*
X116400000Y-106720000D03*
X115130000Y-106720000D03*
X113860000Y-106720000D03*
X112590000Y-106720000D03*
X111320000Y-106720000D03*
X110050000Y-106720000D03*
X108780000Y-106720000D03*
X108780000Y-112480000D03*
X110050000Y-112480000D03*
X111320000Y-112480000D03*
X112590000Y-112480000D03*
X113860000Y-112480000D03*
X115130000Y-112480000D03*
X116400000Y-112480000D03*
D28*
X121750000Y-124700000D03*
X119850000Y-124700000D03*
D27*
X104200000Y-119950000D03*
X104200000Y-121850000D03*
X118000000Y-121750000D03*
X118000000Y-123650000D03*
D28*
X121750000Y-120900000D03*
X119850000Y-120900000D03*
D33*
X130290000Y-117600000D03*
X132889840Y-117600000D03*
X125290160Y-117600000D03*
D34*
X102600000Y-87700000D03*
X107600000Y-87700000D03*
X112600000Y-87700000D03*
D35*
X126900000Y-93700000D03*
X135300000Y-90200000D03*
D36*
X130100000Y-104400000D03*
X104900000Y-95400000D03*
X113400000Y-95800000D03*
X106700000Y-107400000D03*
X112700000Y-116000000D03*
X123800000Y-111100000D03*
X114500000Y-116200000D03*
X108800000Y-109900000D03*
X104200000Y-110600000D03*
X116500000Y-115100000D03*
X118000000Y-113700000D03*
D37*
X120000000Y-105900000D02*
X120000000Y-104200000D01*
X120000000Y-104200000D02*
X120900000Y-103300000D01*
X120900000Y-103300000D02*
X120900000Y-100900000D01*
D38*
X123400000Y-107350000D02*
X123400000Y-107800000D01*
X123400000Y-107800000D02*
X124700000Y-109100000D01*
X124700000Y-109100000D02*
X127650000Y-109100000D01*
X120000000Y-105900000D02*
X120300000Y-105900000D01*
X120300000Y-105900000D02*
X121750000Y-107350000D01*
X121750000Y-107350000D02*
X123400000Y-107350000D01*
D39*
X113330000Y-124980000D02*
X107870000Y-124980000D01*
D40*
X109640000Y-125220000D02*
X111560000Y-125220000D01*
X113020000Y-121980000D02*
X114980000Y-121980000D01*
X114980000Y-121980000D02*
X115000000Y-122000000D01*
X108180000Y-121980000D02*
X106120000Y-121980000D01*
X106120000Y-121980000D02*
X106100000Y-122000000D01*
X121260000Y-127300000D02*
X121260000Y-128960000D01*
X121260000Y-128960000D02*
X121300000Y-129000000D01*
X138300000Y-120300000D02*
X134500000Y-120300000D01*
D41*
X138300000Y-115220000D02*
X134580000Y-115220000D01*
D40*
X134580000Y-115220000D02*
X134500000Y-115300000D01*
D41*
X132889840Y-117600000D02*
X132889840Y-119889840D01*
X132889840Y-119889840D02*
X133000000Y-120000000D01*
X130290000Y-117600000D02*
X130290000Y-115190000D01*
X130290000Y-115190000D02*
X130200000Y-115100000D01*
X121260000Y-127300000D02*
X121260000Y-127060000D01*
X121260000Y-127060000D02*
X119850000Y-125650000D01*
X119850000Y-125650000D02*
X119850000Y-124700000D01*
X119850000Y-122800000D02*
X119850000Y-124700000D01*
X121260000Y-127300000D02*
X121260000Y-127260000D01*
X101000000Y-121220000D02*
X101120000Y-121100000D01*
X113330000Y-124980000D02*
X113410000Y-124900000D01*
X113410000Y-124900000D02*
X115600000Y-124900000D01*
X107870000Y-124980000D02*
X107750000Y-125100000D01*
X107750000Y-125100000D02*
X105700000Y-125100000D01*
X112590000Y-112480000D02*
X112600000Y-112470000D01*
X112600000Y-112470000D02*
X112600000Y-110000000D01*
D40*
X130100000Y-104400000D02*
X130000000Y-104500000D01*
X130000000Y-104500000D02*
X127650000Y-104500000D01*
X103650000Y-97000000D02*
X103650000Y-96650000D01*
X103650000Y-96650000D02*
X104900000Y-95400000D01*
X113400000Y-95800000D02*
X112200000Y-97000000D01*
X112200000Y-97000000D02*
X111455000Y-97000000D01*
D38*
X125400000Y-104450000D02*
X127600000Y-104450000D01*
X127600000Y-104450000D02*
X127650000Y-104500000D01*
D41*
X115605000Y-97950000D02*
X117150000Y-97950000D01*
X117800000Y-98600000D02*
X117800000Y-101050000D01*
X117150000Y-97950000D02*
X117800000Y-98600000D01*
X110550000Y-97000000D02*
X110550000Y-100800000D01*
X110550000Y-100800000D02*
X110300000Y-101050000D01*
X110550000Y-97000000D02*
X111455000Y-97000000D01*
X111455000Y-97000000D02*
X112405000Y-97950000D01*
X112405000Y-97950000D02*
X115605000Y-97950000D01*
X111560000Y-125220000D02*
X113090000Y-125220000D01*
X113090000Y-125220000D02*
X113330000Y-124980000D01*
X109640000Y-125220000D02*
X108110000Y-125220000D01*
X108110000Y-125220000D02*
X107870000Y-124980000D01*
D42*
X106250000Y-109170000D02*
X106250000Y-107850000D01*
X106250000Y-107850000D02*
X106700000Y-107400000D01*
D41*
X112450000Y-114600000D02*
X112450000Y-115750000D01*
X112450000Y-115750000D02*
X112700000Y-116000000D01*
D43*
X111900000Y-122100000D02*
X112900000Y-122100000D01*
X112900000Y-122100000D02*
X113020000Y-121980000D01*
X112450000Y-114600000D02*
X112450000Y-112450000D01*
X112450000Y-112450000D02*
X112600000Y-112300000D01*
D38*
X125400000Y-104450000D02*
X124400000Y-104450000D01*
X124400000Y-104450000D02*
X123400000Y-105450000D01*
D43*
X104200000Y-121850000D02*
X102450000Y-121850000D01*
X99600000Y-115000000D02*
X101000000Y-113600000D01*
X99600000Y-122000000D02*
X99600000Y-115000000D01*
X100300000Y-122700000D02*
X99600000Y-122000000D01*
X101600000Y-122700000D02*
X100300000Y-122700000D01*
X102450000Y-121850000D02*
X101600000Y-122700000D01*
D41*
X119850000Y-120900000D02*
X119850000Y-120150000D01*
X119850000Y-120150000D02*
X120600000Y-119400000D01*
X120600000Y-119400000D02*
X122800000Y-119400000D01*
X122800000Y-119400000D02*
X123600000Y-120200000D01*
X123600000Y-120200000D02*
X123600000Y-121800000D01*
X123600000Y-121800000D02*
X129100000Y-127300000D01*
X119850000Y-120900000D02*
X118850000Y-120900000D01*
X118850000Y-120900000D02*
X118000000Y-121750000D01*
D38*
X129800000Y-106800000D02*
X129800000Y-110100000D01*
X128800000Y-111100000D02*
X123800000Y-111100000D01*
X129800000Y-110100000D02*
X128800000Y-111100000D01*
X127650000Y-106800000D02*
X129800000Y-106800000D01*
X129800000Y-106800000D02*
X133950000Y-106800000D01*
X125400000Y-106350000D02*
X127200000Y-106350000D01*
X127200000Y-106350000D02*
X127650000Y-106800000D01*
D40*
X114350000Y-116050000D02*
X114350000Y-114600000D01*
X114500000Y-116200000D02*
X114350000Y-116050000D01*
D43*
X113870000Y-112300000D02*
X113870000Y-114120000D01*
X113870000Y-114120000D02*
X114350000Y-114600000D01*
D44*
X105750000Y-102450000D02*
X105750000Y-104550000D01*
X103260000Y-107040000D02*
X102640000Y-107040000D01*
X105750000Y-104550000D02*
X103260000Y-107040000D01*
D45*
X117800000Y-102950000D02*
X116110000Y-102950000D01*
X116110000Y-102950000D02*
X115130000Y-103930000D01*
X115130000Y-103930000D02*
X115130000Y-106720000D01*
X110300000Y-102950000D02*
X111905000Y-102950000D01*
X111905000Y-102950000D02*
X112405000Y-103450000D01*
X113860000Y-106720000D02*
X113860000Y-104905000D01*
X113860000Y-104905000D02*
X112405000Y-103450000D01*
D38*
X113190000Y-118000000D02*
X115300000Y-118000000D01*
X120000000Y-113300000D02*
X120000000Y-111300000D01*
X115300000Y-118000000D02*
X120000000Y-113300000D01*
D40*
X126300000Y-100900000D02*
X125300000Y-100900000D01*
X125300000Y-100900000D02*
X120900000Y-96500000D01*
X110800000Y-84500000D02*
X107600000Y-87700000D01*
X116300000Y-84500000D02*
X110800000Y-84500000D01*
X120900000Y-89100000D02*
X116300000Y-84500000D01*
X120900000Y-96500000D02*
X120900000Y-89100000D01*
D37*
X129460000Y-101000000D02*
X126400000Y-101000000D01*
X126400000Y-101000000D02*
X126300000Y-100900000D01*
X107600000Y-87700000D02*
X107600000Y-86800000D01*
X107200000Y-92000000D02*
X111300000Y-92000000D01*
X107600000Y-87700000D02*
X107600000Y-91600000D01*
X107600000Y-91600000D02*
X107200000Y-92000000D01*
D41*
X102700000Y-95200000D02*
X102700000Y-92900000D01*
X102700000Y-92900000D02*
X101800000Y-92000000D01*
D37*
X102600000Y-87700000D02*
X102600000Y-91200000D01*
X102600000Y-91200000D02*
X101800000Y-92000000D01*
D41*
X109800000Y-94800000D02*
X110800000Y-94800000D01*
X112600000Y-94800000D02*
X113200000Y-94200000D01*
X113200000Y-94200000D02*
X114500000Y-94200000D01*
X114500000Y-94200000D02*
X116700000Y-92000000D01*
X110800000Y-94800000D02*
X112600000Y-94800000D01*
X109800000Y-94800000D02*
X109600000Y-95000000D01*
D37*
X112600000Y-87700000D02*
X114500000Y-87700000D01*
X114500000Y-87700000D02*
X116700000Y-89900000D01*
X116700000Y-89900000D02*
X116700000Y-92000000D01*
D43*
X109300000Y-122100000D02*
X109300000Y-119900000D01*
X109110000Y-119710000D02*
X109110000Y-117600000D01*
X109300000Y-119900000D02*
X109110000Y-119710000D01*
D44*
X101000000Y-118680000D02*
X102670000Y-118680000D01*
X102670000Y-118680000D02*
X104200000Y-117150000D01*
D45*
X104200000Y-119950000D02*
X105250000Y-119950000D01*
X106200000Y-119000000D02*
X106200000Y-117150000D01*
X105250000Y-119950000D02*
X106200000Y-119000000D01*
D44*
X101000000Y-116140000D02*
X103040000Y-116140000D01*
D42*
X105250000Y-116200000D02*
X106200000Y-117150000D01*
X103100000Y-116200000D02*
X105250000Y-116200000D01*
X103040000Y-116140000D02*
X103100000Y-116200000D01*
D43*
X109950000Y-122100000D02*
X109950000Y-120250000D01*
D42*
X110060000Y-115260000D02*
X110060000Y-112300000D01*
X110900000Y-116100000D02*
X110060000Y-115260000D01*
X110900000Y-119300000D02*
X110900000Y-116100000D01*
X109950000Y-120250000D02*
X110900000Y-119300000D01*
X110600000Y-122100000D02*
X110600000Y-120300000D01*
X111200000Y-115500000D02*
X111200000Y-112430000D01*
X111400000Y-115700000D02*
X111200000Y-115500000D01*
X111400000Y-119500000D02*
X111400000Y-115700000D01*
X110600000Y-120300000D02*
X111400000Y-119500000D01*
X111200000Y-112430000D02*
X111330000Y-112300000D01*
X106900000Y-109170000D02*
X106900000Y-108800000D01*
X106900000Y-108800000D02*
X107700000Y-108000000D01*
X101370000Y-107870000D02*
X101370000Y-107040000D01*
X101900000Y-108400000D02*
X101370000Y-107870000D01*
X104500000Y-108400000D02*
X101900000Y-108400000D01*
X106400000Y-106500000D02*
X104500000Y-108400000D01*
X107200000Y-106500000D02*
X106400000Y-106500000D01*
X107700000Y-107000000D02*
X107200000Y-106500000D01*
X107700000Y-108000000D02*
X107700000Y-107000000D01*
X106900000Y-111830000D02*
X106900000Y-109170000D01*
D44*
X108790000Y-112300000D02*
X107370000Y-112300000D01*
X107370000Y-112300000D02*
X106900000Y-111830000D01*
X106200000Y-115250000D02*
X106200000Y-114100000D01*
X106900000Y-113400000D02*
X106900000Y-111830000D01*
X106200000Y-114100000D02*
X106900000Y-113400000D01*
D43*
X105600000Y-110600000D02*
X104300000Y-110600000D01*
X108790000Y-109890000D02*
X108790000Y-106900000D01*
X108800000Y-109900000D02*
X108790000Y-109890000D01*
X104300000Y-110600000D02*
X104200000Y-110600000D01*
D44*
X101370000Y-105770000D02*
X100630000Y-105770000D01*
X101300000Y-109300000D02*
X105400000Y-109300000D01*
X100000000Y-108000000D02*
X101300000Y-109300000D01*
X100000000Y-106400000D02*
X100000000Y-108000000D01*
X100630000Y-105770000D02*
X100000000Y-106400000D01*
D42*
X105600000Y-111830000D02*
X105600000Y-110600000D01*
X105600000Y-110600000D02*
X105600000Y-109170000D01*
D44*
X104200000Y-115250000D02*
X104200000Y-113230000D01*
X104200000Y-113230000D02*
X105600000Y-111830000D01*
D43*
X105750000Y-100550000D02*
X106450000Y-100550000D01*
X110050000Y-105650000D02*
X110050000Y-106720000D01*
X109600000Y-105200000D02*
X110050000Y-105650000D01*
X108700000Y-105200000D02*
X109600000Y-105200000D01*
X107400000Y-103900000D02*
X108700000Y-105200000D01*
X107400000Y-101500000D02*
X107400000Y-103900000D01*
X106450000Y-100550000D02*
X107400000Y-101500000D01*
D45*
X106250000Y-100550000D02*
X105750000Y-100550000D01*
D44*
X101370000Y-101960000D02*
X101370000Y-101330000D01*
X102150000Y-100550000D02*
X105750000Y-100550000D01*
X101370000Y-101330000D02*
X102150000Y-100550000D01*
D45*
X116700000Y-115200000D02*
X116600000Y-115200000D01*
X116600000Y-115200000D02*
X116500000Y-115100000D01*
X118720000Y-127300000D02*
X118720000Y-125620000D01*
X118720000Y-125620000D02*
X118000000Y-124900000D01*
X118000000Y-124900000D02*
X118000000Y-123650000D01*
X115400000Y-113900000D02*
X116700000Y-115200000D01*
X116700000Y-115200000D02*
X116700000Y-115200000D01*
X115400000Y-113900000D02*
X115400000Y-112750000D01*
X115130000Y-112480000D02*
X115400000Y-112750000D01*
X119600000Y-117850000D02*
X122650000Y-117850000D01*
X129900000Y-125200000D02*
X131640000Y-126940000D01*
X128300000Y-125200000D02*
X129900000Y-125200000D01*
X124500000Y-121400000D02*
X128300000Y-125200000D01*
X124500000Y-119700000D02*
X124500000Y-121400000D01*
X122650000Y-117850000D02*
X124500000Y-119700000D01*
X131640000Y-126940000D02*
X131640000Y-127300000D01*
D37*
X138600000Y-101120000D02*
X134460000Y-101120000D01*
X134460000Y-101120000D02*
X134340000Y-101000000D01*
X138600000Y-101120000D02*
X138220000Y-101120000D01*
D39*
X123920000Y-52800000D02*
X129000000Y-52800000D01*
X109520000Y-52800000D02*
X114600000Y-52800000D01*
D41*
X99900000Y-95050000D02*
X100650000Y-95050000D01*
X101750000Y-96150000D02*
X101750000Y-97000000D01*
X100650000Y-95050000D02*
X101750000Y-96150000D01*
D45*
X116400000Y-106720000D02*
X116400000Y-106800000D01*
X116400000Y-106800000D02*
X118200000Y-108600000D01*
X122200000Y-113350000D02*
X119600000Y-115950000D01*
X122200000Y-109300000D02*
X122200000Y-113350000D01*
X121500000Y-108600000D02*
X122200000Y-109300000D01*
X118200000Y-108600000D02*
X121500000Y-108600000D01*
X116420000Y-106720000D02*
X116400000Y-106720000D01*
D43*
X116410000Y-106900000D02*
X116600000Y-106900000D01*
D42*
X111320000Y-106720000D02*
X111320000Y-105720000D01*
X102150000Y-99200000D02*
X99900000Y-96950000D01*
X106500000Y-99200000D02*
X102150000Y-99200000D01*
X108300000Y-101000000D02*
X106500000Y-99200000D01*
X108300000Y-103800000D02*
X108300000Y-101000000D01*
X109200000Y-104700000D02*
X108300000Y-103800000D01*
X110000000Y-104700000D02*
X109200000Y-104700000D01*
X110500000Y-105200000D02*
X110000000Y-104700000D01*
X110800000Y-105200000D02*
X110500000Y-105200000D01*
X111320000Y-105720000D02*
X110800000Y-105200000D01*
X100000000Y-97000000D02*
X100000000Y-96850000D01*
X111330000Y-106900000D02*
X111330000Y-106330000D01*
X110800000Y-104700000D02*
X110300000Y-104200000D01*
X111300000Y-104700000D02*
X110800000Y-104700000D01*
X112600000Y-106000000D02*
X111300000Y-104700000D01*
X112600000Y-106900000D02*
X112600000Y-106000000D01*
X106900000Y-98800000D02*
X106900000Y-96950000D01*
X108900000Y-100800000D02*
X106900000Y-98800000D01*
X108900000Y-103600000D02*
X108900000Y-100800000D01*
X109500000Y-104200000D02*
X108900000Y-103600000D01*
X110300000Y-104200000D02*
X109500000Y-104200000D01*
D45*
X116400000Y-112480000D02*
X117620000Y-113700000D01*
X117620000Y-113700000D02*
X118000000Y-113700000D01*
D44*
X116400000Y-113000000D02*
X116400000Y-112480000D01*
D43*
X116410000Y-112710000D02*
X116410000Y-112300000D01*
D41*
X106800000Y-95050000D02*
X107450000Y-95050000D01*
X107450000Y-95050000D02*
X108650000Y-96250000D01*
X108650000Y-96250000D02*
X108650000Y-97000000D01*
D45*
X121750000Y-122800000D02*
X121750000Y-120900000D01*
X123800000Y-127300000D02*
X123800000Y-126750000D01*
X123800000Y-126750000D02*
X121750000Y-124700000D01*
X121750000Y-124700000D02*
X121750000Y-122800000D01*
D46*
G36*
X115873000Y-63300000D02*
X115883006Y-63349410D01*
X115910197Y-63389803D01*
X129473000Y-76952606D01*
X129473000Y-93873000D01*
X124527000Y-93873000D01*
X124527000Y-86800000D01*
X124516994Y-86750590D01*
X124489803Y-86710197D01*
X108227000Y-70447394D01*
X108227000Y-53727000D01*
X115873000Y-53727000D01*
X115873000Y-63300000D01*
X115873000Y-63300000D01*
G37*
X115873000Y-63300000D02*
X115883006Y-63349410D01*
X115910197Y-63389803D01*
X129473000Y-76952606D01*
X129473000Y-93873000D01*
X124527000Y-93873000D01*
X124527000Y-86800000D01*
X124516994Y-86750590D01*
X124489803Y-86710197D01*
X108227000Y-70447394D01*
X108227000Y-53727000D01*
X115873000Y-53727000D01*
X115873000Y-63300000D01*
G36*
X136064853Y-102610658D02*
X136805443Y-103352542D01*
X137546512Y-103660261D01*
X136809342Y-103964853D01*
X136067458Y-104705443D01*
X135665458Y-105673567D01*
X135664543Y-106721834D01*
X136064853Y-107690658D01*
X136805443Y-108432542D01*
X137773567Y-108834542D01*
X138821834Y-108835457D01*
X139790658Y-108435147D01*
X140490000Y-107737025D01*
X140490000Y-113684116D01*
X139794557Y-112987458D01*
X138826433Y-112585458D01*
X137778166Y-112584543D01*
X136809342Y-112984853D01*
X136067458Y-113725443D01*
X135665458Y-114693567D01*
X135664543Y-115741834D01*
X136064853Y-116710658D01*
X136805443Y-117452542D01*
X137546512Y-117760261D01*
X136809342Y-118064853D01*
X136067458Y-118805443D01*
X135665458Y-119773567D01*
X135664543Y-120821834D01*
X136064853Y-121790658D01*
X136805443Y-122532542D01*
X137773567Y-122934542D01*
X138821834Y-122935457D01*
X139790658Y-122535147D01*
X140490000Y-121837025D01*
X140490000Y-125868924D01*
X140059273Y-124826485D01*
X139178153Y-123943826D01*
X138026326Y-123465546D01*
X136779146Y-123464457D01*
X135626485Y-123940727D01*
X134743826Y-124821847D01*
X134265546Y-125973674D01*
X134264457Y-127220854D01*
X134740727Y-128373515D01*
X135621847Y-129256174D01*
X136666617Y-129690000D01*
X116310000Y-129690000D01*
X116310000Y-126900000D01*
X116255954Y-126628295D01*
X116102046Y-126397954D01*
X115871705Y-126244046D01*
X115600000Y-126190000D01*
X114117027Y-126190000D01*
X114203277Y-126132370D01*
X114470991Y-125731707D01*
X114565000Y-125259093D01*
X114565000Y-124700907D01*
X114470991Y-124228293D01*
X114203277Y-123827630D01*
X113802614Y-123559916D01*
X113330000Y-123465907D01*
X112857386Y-123559916D01*
X112793270Y-123602757D01*
X112739090Y-123518559D01*
X112550496Y-123389698D01*
X112551441Y-123389090D01*
X112605673Y-123309719D01*
X113020000Y-123392134D01*
X113473480Y-123301931D01*
X113857922Y-123045056D01*
X114114797Y-122660614D01*
X114205000Y-122207134D01*
X114205000Y-121752866D01*
X114114797Y-121299386D01*
X113857922Y-120914944D01*
X113473480Y-120658069D01*
X113020000Y-120567866D01*
X112566520Y-120658069D01*
X112442837Y-120740711D01*
X112351890Y-120678569D01*
X112100000Y-120627560D01*
X111700000Y-120627560D01*
X111570411Y-120651944D01*
X111450000Y-120627560D01*
X111350000Y-120627560D01*
X111350000Y-120610660D01*
X111930330Y-120030330D01*
X112042511Y-119862440D01*
X114515000Y-119862440D01*
X114750317Y-119818162D01*
X114891987Y-119727000D01*
X114900000Y-119727000D01*
X114946159Y-119718315D01*
X114988553Y-119691035D01*
X115016994Y-119649410D01*
X115027000Y-119600000D01*
X115027000Y-119590459D01*
X115111431Y-119466890D01*
X115162440Y-119215000D01*
X115162440Y-119035000D01*
X115299995Y-119035000D01*
X115300000Y-119035001D01*
X115696077Y-118956215D01*
X116031856Y-118731856D01*
X118302560Y-116461152D01*
X118302560Y-116500000D01*
X118346838Y-116735317D01*
X118453759Y-116901477D01*
X118353569Y-117048110D01*
X118302560Y-117300000D01*
X118302560Y-118400000D01*
X118346838Y-118635317D01*
X118485910Y-118851441D01*
X118698110Y-118996431D01*
X118950000Y-119047440D01*
X119630270Y-119047440D01*
X119188855Y-119488855D01*
X119085971Y-119642832D01*
X119064683Y-119646838D01*
X118848559Y-119785910D01*
X118706719Y-119993500D01*
X118575810Y-120019540D01*
X118492191Y-120036173D01*
X118291985Y-120169946D01*
X118188855Y-120238855D01*
X117875150Y-120552560D01*
X117350000Y-120552560D01*
X117114683Y-120596838D01*
X116898559Y-120735910D01*
X116753569Y-120948110D01*
X116702560Y-121200000D01*
X116702560Y-122300000D01*
X116746838Y-122535317D01*
X116853759Y-122701477D01*
X116753569Y-122848110D01*
X116702560Y-123100000D01*
X116702560Y-124200000D01*
X116746838Y-124435317D01*
X116885910Y-124651441D01*
X117098110Y-124796431D01*
X117165000Y-124809977D01*
X117165000Y-124900000D01*
X117228561Y-125219541D01*
X117315731Y-125350000D01*
X117409566Y-125490434D01*
X117885000Y-125965868D01*
X117885000Y-126077159D01*
X117669946Y-126220853D01*
X117348039Y-126702622D01*
X117235000Y-127270907D01*
X117235000Y-127329093D01*
X117348039Y-127897378D01*
X117669946Y-128379147D01*
X118151715Y-128701054D01*
X118720000Y-128814093D01*
X119288285Y-128701054D01*
X119770054Y-128379147D01*
X119990000Y-128049974D01*
X120209946Y-128379147D01*
X120691715Y-128701054D01*
X121260000Y-128814093D01*
X121828285Y-128701054D01*
X122310054Y-128379147D01*
X122337850Y-128337548D01*
X122346838Y-128385317D01*
X122485910Y-128601441D01*
X122698110Y-128746431D01*
X122950000Y-128797440D01*
X124650000Y-128797440D01*
X124885317Y-128753162D01*
X125101441Y-128614090D01*
X125246431Y-128401890D01*
X125297440Y-128150000D01*
X125297440Y-126450000D01*
X125253162Y-126214683D01*
X125114090Y-125998559D01*
X124901890Y-125853569D01*
X124650000Y-125802560D01*
X124033428Y-125802560D01*
X122947440Y-124716572D01*
X122947440Y-124050000D01*
X122903162Y-123814683D01*
X122862519Y-123751522D01*
X122896431Y-123701890D01*
X122947440Y-123450000D01*
X122947440Y-122469730D01*
X127602560Y-127124850D01*
X127602560Y-128150000D01*
X127646838Y-128385317D01*
X127785910Y-128601441D01*
X127998110Y-128746431D01*
X128250000Y-128797440D01*
X129950000Y-128797440D01*
X130185317Y-128753162D01*
X130401441Y-128614090D01*
X130546431Y-128401890D01*
X130560086Y-128334459D01*
X130589946Y-128379147D01*
X131071715Y-128701054D01*
X131640000Y-128814093D01*
X132208285Y-128701054D01*
X132690054Y-128379147D01*
X133011961Y-127897378D01*
X133125000Y-127329093D01*
X133125000Y-127270907D01*
X133011961Y-126702622D01*
X132690054Y-126220853D01*
X132208285Y-125898946D01*
X131673423Y-125792555D01*
X130490434Y-124609566D01*
X130446874Y-124580460D01*
X130219541Y-124428561D01*
X129900000Y-124365000D01*
X128645868Y-124365000D01*
X125335000Y-121054132D01*
X125335000Y-119700000D01*
X125271439Y-119380459D01*
X125174180Y-119234900D01*
X125613955Y-119235284D01*
X126215103Y-118986894D01*
X126675438Y-118527363D01*
X126924876Y-117926648D01*
X126924878Y-117923795D01*
X128654716Y-117923795D01*
X128903106Y-118524943D01*
X129362637Y-118985278D01*
X129963352Y-119234716D01*
X130613795Y-119235284D01*
X131214943Y-118986894D01*
X131590171Y-118612321D01*
X131962477Y-118985278D01*
X132563192Y-119234716D01*
X133213635Y-119235284D01*
X133814783Y-118986894D01*
X134275118Y-118527363D01*
X134524556Y-117926648D01*
X134525124Y-117276205D01*
X134276734Y-116675057D01*
X133817203Y-116214722D01*
X133216488Y-115965284D01*
X132566045Y-115964716D01*
X131964897Y-116213106D01*
X131589669Y-116587679D01*
X131217363Y-116214722D01*
X130616648Y-115965284D01*
X129966205Y-115964716D01*
X129365057Y-116213106D01*
X128904722Y-116672637D01*
X128655284Y-117273352D01*
X128654716Y-117923795D01*
X126924878Y-117923795D01*
X126925444Y-117276205D01*
X126677054Y-116675057D01*
X126217523Y-116214722D01*
X125616808Y-115965284D01*
X124966365Y-115964716D01*
X124365217Y-116213106D01*
X123904882Y-116672637D01*
X123655444Y-117273352D01*
X123655094Y-117674226D01*
X123240434Y-117259566D01*
X123095564Y-117162767D01*
X122969541Y-117078561D01*
X122650000Y-117015000D01*
X120821192Y-117015000D01*
X120746241Y-116898523D01*
X120846431Y-116751890D01*
X120897440Y-116500000D01*
X120897440Y-115833428D01*
X122790434Y-113940434D01*
X122799573Y-113926756D01*
X122971439Y-113669541D01*
X123035000Y-113350000D01*
X123035000Y-111940198D01*
X123156235Y-112061645D01*
X123573244Y-112234803D01*
X124024775Y-112235197D01*
X124267269Y-112135000D01*
X128799995Y-112135000D01*
X128800000Y-112135001D01*
X129196077Y-112056215D01*
X129531856Y-111831856D01*
X130531853Y-110831858D01*
X130531856Y-110831856D01*
X130756215Y-110496077D01*
X130766359Y-110445079D01*
X130835001Y-110100000D01*
X130835000Y-110099995D01*
X130835000Y-107835000D01*
X132302560Y-107835000D01*
X132302560Y-108700000D01*
X132346838Y-108935317D01*
X132485910Y-109151441D01*
X132698110Y-109296431D01*
X132950000Y-109347440D01*
X134950000Y-109347440D01*
X135185317Y-109303162D01*
X135401441Y-109164090D01*
X135546431Y-108951890D01*
X135597440Y-108700000D01*
X135597440Y-104900000D01*
X135553162Y-104664683D01*
X135414090Y-104448559D01*
X135201890Y-104303569D01*
X134950000Y-104252560D01*
X132950000Y-104252560D01*
X132714683Y-104296838D01*
X132498559Y-104435910D01*
X132353569Y-104648110D01*
X132302560Y-104900000D01*
X132302560Y-105765000D01*
X129221192Y-105765000D01*
X129146241Y-105648523D01*
X129246431Y-105501890D01*
X129297440Y-105250000D01*
X129297440Y-103750000D01*
X129253162Y-103514683D01*
X129177718Y-103397440D01*
X130260000Y-103397440D01*
X130495317Y-103353162D01*
X130535974Y-103327000D01*
X133259672Y-103327000D01*
X133288110Y-103346431D01*
X133540000Y-103397440D01*
X135140000Y-103397440D01*
X135375317Y-103353162D01*
X135591441Y-103214090D01*
X135736431Y-103001890D01*
X135787440Y-102750000D01*
X135787440Y-102605000D01*
X136062515Y-102605000D01*
X136064853Y-102610658D01*
X136064853Y-102610658D01*
G37*
X136064853Y-102610658D02*
X136805443Y-103352542D01*
X137546512Y-103660261D01*
X136809342Y-103964853D01*
X136067458Y-104705443D01*
X135665458Y-105673567D01*
X135664543Y-106721834D01*
X136064853Y-107690658D01*
X136805443Y-108432542D01*
X137773567Y-108834542D01*
X138821834Y-108835457D01*
X139790658Y-108435147D01*
X140490000Y-107737025D01*
X140490000Y-113684116D01*
X139794557Y-112987458D01*
X138826433Y-112585458D01*
X137778166Y-112584543D01*
X136809342Y-112984853D01*
X136067458Y-113725443D01*
X135665458Y-114693567D01*
X135664543Y-115741834D01*
X136064853Y-116710658D01*
X136805443Y-117452542D01*
X137546512Y-117760261D01*
X136809342Y-118064853D01*
X136067458Y-118805443D01*
X135665458Y-119773567D01*
X135664543Y-120821834D01*
X136064853Y-121790658D01*
X136805443Y-122532542D01*
X137773567Y-122934542D01*
X138821834Y-122935457D01*
X139790658Y-122535147D01*
X140490000Y-121837025D01*
X140490000Y-125868924D01*
X140059273Y-124826485D01*
X139178153Y-123943826D01*
X138026326Y-123465546D01*
X136779146Y-123464457D01*
X135626485Y-123940727D01*
X134743826Y-124821847D01*
X134265546Y-125973674D01*
X134264457Y-127220854D01*
X134740727Y-128373515D01*
X135621847Y-129256174D01*
X136666617Y-129690000D01*
X116310000Y-129690000D01*
X116310000Y-126900000D01*
X116255954Y-126628295D01*
X116102046Y-126397954D01*
X115871705Y-126244046D01*
X115600000Y-126190000D01*
X114117027Y-126190000D01*
X114203277Y-126132370D01*
X114470991Y-125731707D01*
X114565000Y-125259093D01*
X114565000Y-124700907D01*
X114470991Y-124228293D01*
X114203277Y-123827630D01*
X113802614Y-123559916D01*
X113330000Y-123465907D01*
X112857386Y-123559916D01*
X112793270Y-123602757D01*
X112739090Y-123518559D01*
X112550496Y-123389698D01*
X112551441Y-123389090D01*
X112605673Y-123309719D01*
X113020000Y-123392134D01*
X113473480Y-123301931D01*
X113857922Y-123045056D01*
X114114797Y-122660614D01*
X114205000Y-122207134D01*
X114205000Y-121752866D01*
X114114797Y-121299386D01*
X113857922Y-120914944D01*
X113473480Y-120658069D01*
X113020000Y-120567866D01*
X112566520Y-120658069D01*
X112442837Y-120740711D01*
X112351890Y-120678569D01*
X112100000Y-120627560D01*
X111700000Y-120627560D01*
X111570411Y-120651944D01*
X111450000Y-120627560D01*
X111350000Y-120627560D01*
X111350000Y-120610660D01*
X111930330Y-120030330D01*
X112042511Y-119862440D01*
X114515000Y-119862440D01*
X114750317Y-119818162D01*
X114891987Y-119727000D01*
X114900000Y-119727000D01*
X114946159Y-119718315D01*
X114988553Y-119691035D01*
X115016994Y-119649410D01*
X115027000Y-119600000D01*
X115027000Y-119590459D01*
X115111431Y-119466890D01*
X115162440Y-119215000D01*
X115162440Y-119035000D01*
X115299995Y-119035000D01*
X115300000Y-119035001D01*
X115696077Y-118956215D01*
X116031856Y-118731856D01*
X118302560Y-116461152D01*
X118302560Y-116500000D01*
X118346838Y-116735317D01*
X118453759Y-116901477D01*
X118353569Y-117048110D01*
X118302560Y-117300000D01*
X118302560Y-118400000D01*
X118346838Y-118635317D01*
X118485910Y-118851441D01*
X118698110Y-118996431D01*
X118950000Y-119047440D01*
X119630270Y-119047440D01*
X119188855Y-119488855D01*
X119085971Y-119642832D01*
X119064683Y-119646838D01*
X118848559Y-119785910D01*
X118706719Y-119993500D01*
X118575810Y-120019540D01*
X118492191Y-120036173D01*
X118291985Y-120169946D01*
X118188855Y-120238855D01*
X117875150Y-120552560D01*
X117350000Y-120552560D01*
X117114683Y-120596838D01*
X116898559Y-120735910D01*
X116753569Y-120948110D01*
X116702560Y-121200000D01*
X116702560Y-122300000D01*
X116746838Y-122535317D01*
X116853759Y-122701477D01*
X116753569Y-122848110D01*
X116702560Y-123100000D01*
X116702560Y-124200000D01*
X116746838Y-124435317D01*
X116885910Y-124651441D01*
X117098110Y-124796431D01*
X117165000Y-124809977D01*
X117165000Y-124900000D01*
X117228561Y-125219541D01*
X117315731Y-125350000D01*
X117409566Y-125490434D01*
X117885000Y-125965868D01*
X117885000Y-126077159D01*
X117669946Y-126220853D01*
X117348039Y-126702622D01*
X117235000Y-127270907D01*
X117235000Y-127329093D01*
X117348039Y-127897378D01*
X117669946Y-128379147D01*
X118151715Y-128701054D01*
X118720000Y-128814093D01*
X119288285Y-128701054D01*
X119770054Y-128379147D01*
X119990000Y-128049974D01*
X120209946Y-128379147D01*
X120691715Y-128701054D01*
X121260000Y-128814093D01*
X121828285Y-128701054D01*
X122310054Y-128379147D01*
X122337850Y-128337548D01*
X122346838Y-128385317D01*
X122485910Y-128601441D01*
X122698110Y-128746431D01*
X122950000Y-128797440D01*
X124650000Y-128797440D01*
X124885317Y-128753162D01*
X125101441Y-128614090D01*
X125246431Y-128401890D01*
X125297440Y-128150000D01*
X125297440Y-126450000D01*
X125253162Y-126214683D01*
X125114090Y-125998559D01*
X124901890Y-125853569D01*
X124650000Y-125802560D01*
X124033428Y-125802560D01*
X122947440Y-124716572D01*
X122947440Y-124050000D01*
X122903162Y-123814683D01*
X122862519Y-123751522D01*
X122896431Y-123701890D01*
X122947440Y-123450000D01*
X122947440Y-122469730D01*
X127602560Y-127124850D01*
X127602560Y-128150000D01*
X127646838Y-128385317D01*
X127785910Y-128601441D01*
X127998110Y-128746431D01*
X128250000Y-128797440D01*
X129950000Y-128797440D01*
X130185317Y-128753162D01*
X130401441Y-128614090D01*
X130546431Y-128401890D01*
X130560086Y-128334459D01*
X130589946Y-128379147D01*
X131071715Y-128701054D01*
X131640000Y-128814093D01*
X132208285Y-128701054D01*
X132690054Y-128379147D01*
X133011961Y-127897378D01*
X133125000Y-127329093D01*
X133125000Y-127270907D01*
X133011961Y-126702622D01*
X132690054Y-126220853D01*
X132208285Y-125898946D01*
X131673423Y-125792555D01*
X130490434Y-124609566D01*
X130446874Y-124580460D01*
X130219541Y-124428561D01*
X129900000Y-124365000D01*
X128645868Y-124365000D01*
X125335000Y-121054132D01*
X125335000Y-119700000D01*
X125271439Y-119380459D01*
X125174180Y-119234900D01*
X125613955Y-119235284D01*
X126215103Y-118986894D01*
X126675438Y-118527363D01*
X126924876Y-117926648D01*
X126924878Y-117923795D01*
X128654716Y-117923795D01*
X128903106Y-118524943D01*
X129362637Y-118985278D01*
X129963352Y-119234716D01*
X130613795Y-119235284D01*
X131214943Y-118986894D01*
X131590171Y-118612321D01*
X131962477Y-118985278D01*
X132563192Y-119234716D01*
X133213635Y-119235284D01*
X133814783Y-118986894D01*
X134275118Y-118527363D01*
X134524556Y-117926648D01*
X134525124Y-117276205D01*
X134276734Y-116675057D01*
X133817203Y-116214722D01*
X133216488Y-115965284D01*
X132566045Y-115964716D01*
X131964897Y-116213106D01*
X131589669Y-116587679D01*
X131217363Y-116214722D01*
X130616648Y-115965284D01*
X129966205Y-115964716D01*
X129365057Y-116213106D01*
X128904722Y-116672637D01*
X128655284Y-117273352D01*
X128654716Y-117923795D01*
X126924878Y-117923795D01*
X126925444Y-117276205D01*
X126677054Y-116675057D01*
X126217523Y-116214722D01*
X125616808Y-115965284D01*
X124966365Y-115964716D01*
X124365217Y-116213106D01*
X123904882Y-116672637D01*
X123655444Y-117273352D01*
X123655094Y-117674226D01*
X123240434Y-117259566D01*
X123095564Y-117162767D01*
X122969541Y-117078561D01*
X122650000Y-117015000D01*
X120821192Y-117015000D01*
X120746241Y-116898523D01*
X120846431Y-116751890D01*
X120897440Y-116500000D01*
X120897440Y-115833428D01*
X122790434Y-113940434D01*
X122799573Y-113926756D01*
X122971439Y-113669541D01*
X123035000Y-113350000D01*
X123035000Y-111940198D01*
X123156235Y-112061645D01*
X123573244Y-112234803D01*
X124024775Y-112235197D01*
X124267269Y-112135000D01*
X128799995Y-112135000D01*
X128800000Y-112135001D01*
X129196077Y-112056215D01*
X129531856Y-111831856D01*
X130531853Y-110831858D01*
X130531856Y-110831856D01*
X130756215Y-110496077D01*
X130766359Y-110445079D01*
X130835001Y-110100000D01*
X130835000Y-110099995D01*
X130835000Y-107835000D01*
X132302560Y-107835000D01*
X132302560Y-108700000D01*
X132346838Y-108935317D01*
X132485910Y-109151441D01*
X132698110Y-109296431D01*
X132950000Y-109347440D01*
X134950000Y-109347440D01*
X135185317Y-109303162D01*
X135401441Y-109164090D01*
X135546431Y-108951890D01*
X135597440Y-108700000D01*
X135597440Y-104900000D01*
X135553162Y-104664683D01*
X135414090Y-104448559D01*
X135201890Y-104303569D01*
X134950000Y-104252560D01*
X132950000Y-104252560D01*
X132714683Y-104296838D01*
X132498559Y-104435910D01*
X132353569Y-104648110D01*
X132302560Y-104900000D01*
X132302560Y-105765000D01*
X129221192Y-105765000D01*
X129146241Y-105648523D01*
X129246431Y-105501890D01*
X129297440Y-105250000D01*
X129297440Y-103750000D01*
X129253162Y-103514683D01*
X129177718Y-103397440D01*
X130260000Y-103397440D01*
X130495317Y-103353162D01*
X130535974Y-103327000D01*
X133259672Y-103327000D01*
X133288110Y-103346431D01*
X133540000Y-103397440D01*
X135140000Y-103397440D01*
X135375317Y-103353162D01*
X135591441Y-103214090D01*
X135736431Y-103001890D01*
X135787440Y-102750000D01*
X135787440Y-102605000D01*
X136062515Y-102605000D01*
X136064853Y-102610658D01*
G36*
X107037560Y-119215000D02*
X107081838Y-119450317D01*
X107173000Y-119591987D01*
X107173000Y-119600000D01*
X107181685Y-119646159D01*
X107208965Y-119688553D01*
X107250590Y-119716994D01*
X107300000Y-119727000D01*
X107309541Y-119727000D01*
X107433110Y-119811431D01*
X107685000Y-119862440D01*
X108355322Y-119862440D01*
X108384755Y-120010407D01*
X108515000Y-120205333D01*
X108515000Y-120634502D01*
X108180000Y-120567866D01*
X107726520Y-120658069D01*
X107342078Y-120914944D01*
X107085203Y-121299386D01*
X106995000Y-121752866D01*
X106995000Y-122207134D01*
X107085203Y-122660614D01*
X107342078Y-123045056D01*
X107726520Y-123301931D01*
X108180000Y-123392134D01*
X108593129Y-123309957D01*
X108635910Y-123376441D01*
X108654752Y-123389315D01*
X108473559Y-123505910D01*
X108407181Y-123603058D01*
X108342614Y-123559916D01*
X107870000Y-123465907D01*
X107397386Y-123559916D01*
X106996723Y-123827630D01*
X106729009Y-124228293D01*
X106635000Y-124700907D01*
X106635000Y-125259093D01*
X106729009Y-125731707D01*
X106996723Y-126132370D01*
X107082973Y-126190000D01*
X105600000Y-126190000D01*
X105328295Y-126244046D01*
X105135199Y-126373068D01*
X105135543Y-125979146D01*
X104659273Y-124826485D01*
X103778153Y-123943826D01*
X102626326Y-123465546D01*
X101701859Y-123464739D01*
X101900407Y-123425245D01*
X102155079Y-123255079D01*
X102775157Y-122635000D01*
X102946778Y-122635000D01*
X102946838Y-122635317D01*
X103085910Y-122851441D01*
X103298110Y-122996431D01*
X103550000Y-123047440D01*
X104850000Y-123047440D01*
X105085317Y-123003162D01*
X105301441Y-122864090D01*
X105446431Y-122651890D01*
X105497440Y-122400000D01*
X105497440Y-121300000D01*
X105453162Y-121064683D01*
X105346241Y-120898523D01*
X105446431Y-120751890D01*
X105447689Y-120745677D01*
X105569541Y-120721439D01*
X105840434Y-120540434D01*
X106790434Y-119590434D01*
X106792720Y-119587013D01*
X106971439Y-119319541D01*
X107035000Y-119000000D01*
X107035000Y-118312630D01*
X107037560Y-118312148D01*
X107037560Y-119215000D01*
X107037560Y-119215000D01*
G37*
X107037560Y-119215000D02*
X107081838Y-119450317D01*
X107173000Y-119591987D01*
X107173000Y-119600000D01*
X107181685Y-119646159D01*
X107208965Y-119688553D01*
X107250590Y-119716994D01*
X107300000Y-119727000D01*
X107309541Y-119727000D01*
X107433110Y-119811431D01*
X107685000Y-119862440D01*
X108355322Y-119862440D01*
X108384755Y-120010407D01*
X108515000Y-120205333D01*
X108515000Y-120634502D01*
X108180000Y-120567866D01*
X107726520Y-120658069D01*
X107342078Y-120914944D01*
X107085203Y-121299386D01*
X106995000Y-121752866D01*
X106995000Y-122207134D01*
X107085203Y-122660614D01*
X107342078Y-123045056D01*
X107726520Y-123301931D01*
X108180000Y-123392134D01*
X108593129Y-123309957D01*
X108635910Y-123376441D01*
X108654752Y-123389315D01*
X108473559Y-123505910D01*
X108407181Y-123603058D01*
X108342614Y-123559916D01*
X107870000Y-123465907D01*
X107397386Y-123559916D01*
X106996723Y-123827630D01*
X106729009Y-124228293D01*
X106635000Y-124700907D01*
X106635000Y-125259093D01*
X106729009Y-125731707D01*
X106996723Y-126132370D01*
X107082973Y-126190000D01*
X105600000Y-126190000D01*
X105328295Y-126244046D01*
X105135199Y-126373068D01*
X105135543Y-125979146D01*
X104659273Y-124826485D01*
X103778153Y-123943826D01*
X102626326Y-123465546D01*
X101701859Y-123464739D01*
X101900407Y-123425245D01*
X102155079Y-123255079D01*
X102775157Y-122635000D01*
X102946778Y-122635000D01*
X102946838Y-122635317D01*
X103085910Y-122851441D01*
X103298110Y-122996431D01*
X103550000Y-123047440D01*
X104850000Y-123047440D01*
X105085317Y-123003162D01*
X105301441Y-122864090D01*
X105446431Y-122651890D01*
X105497440Y-122400000D01*
X105497440Y-121300000D01*
X105453162Y-121064683D01*
X105346241Y-120898523D01*
X105446431Y-120751890D01*
X105447689Y-120745677D01*
X105569541Y-120721439D01*
X105840434Y-120540434D01*
X106790434Y-119590434D01*
X106792720Y-119587013D01*
X106971439Y-119319541D01*
X107035000Y-119000000D01*
X107035000Y-118312630D01*
X107037560Y-118312148D01*
X107037560Y-119215000D01*
G36*
X113215000Y-116050000D02*
X113301397Y-116484346D01*
X113336953Y-116537560D01*
X112150000Y-116537560D01*
X112150000Y-115897440D01*
X113000000Y-115897440D01*
X113215000Y-115856985D01*
X113215000Y-116050000D01*
X113215000Y-116050000D01*
G37*
X113215000Y-116050000D02*
X113301397Y-116484346D01*
X113336953Y-116537560D01*
X112150000Y-116537560D01*
X112150000Y-115897440D01*
X113000000Y-115897440D01*
X113215000Y-115856985D01*
X113215000Y-116050000D01*
G36*
X116000000Y-108217440D02*
X116636572Y-108217440D01*
X117609566Y-109190434D01*
X117880459Y-109371439D01*
X118200000Y-109435000D01*
X118225848Y-109435000D01*
X118202560Y-109550000D01*
X118202560Y-112565176D01*
X117775225Y-112564803D01*
X117697703Y-112596835D01*
X117447440Y-112346572D01*
X117447440Y-111630000D01*
X117403162Y-111394683D01*
X117264090Y-111178559D01*
X117051890Y-111033569D01*
X116800000Y-110982560D01*
X116000000Y-110982560D01*
X115764683Y-111026838D01*
X115760845Y-111029307D01*
X115530000Y-110982560D01*
X114730000Y-110982560D01*
X114494683Y-111026838D01*
X114490845Y-111029307D01*
X114260000Y-110982560D01*
X113460000Y-110982560D01*
X113224683Y-111026838D01*
X113220845Y-111029307D01*
X112990000Y-110982560D01*
X112190000Y-110982560D01*
X111954683Y-111026838D01*
X111950845Y-111029307D01*
X111720000Y-110982560D01*
X110920000Y-110982560D01*
X110684683Y-111026838D01*
X110680845Y-111029307D01*
X110450000Y-110982560D01*
X109650000Y-110982560D01*
X109414683Y-111026838D01*
X109410845Y-111029307D01*
X109180000Y-110982560D01*
X109152166Y-110982560D01*
X109442086Y-110862767D01*
X109761645Y-110543765D01*
X109934803Y-110126756D01*
X109935197Y-109675225D01*
X109762767Y-109257914D01*
X109575000Y-109069819D01*
X109575000Y-108202252D01*
X109650000Y-108217440D01*
X110450000Y-108217440D01*
X110685317Y-108173162D01*
X110689155Y-108170693D01*
X110920000Y-108217440D01*
X111720000Y-108217440D01*
X111955317Y-108173162D01*
X111959155Y-108170693D01*
X112190000Y-108217440D01*
X112990000Y-108217440D01*
X113225317Y-108173162D01*
X113229155Y-108170693D01*
X113460000Y-108217440D01*
X114260000Y-108217440D01*
X114495317Y-108173162D01*
X114499155Y-108170693D01*
X114730000Y-108217440D01*
X115530000Y-108217440D01*
X115765317Y-108173162D01*
X115769155Y-108170693D01*
X116000000Y-108217440D01*
X116000000Y-108217440D01*
G37*
X116000000Y-108217440D02*
X116636572Y-108217440D01*
X117609566Y-109190434D01*
X117880459Y-109371439D01*
X118200000Y-109435000D01*
X118225848Y-109435000D01*
X118202560Y-109550000D01*
X118202560Y-112565176D01*
X117775225Y-112564803D01*
X117697703Y-112596835D01*
X117447440Y-112346572D01*
X117447440Y-111630000D01*
X117403162Y-111394683D01*
X117264090Y-111178559D01*
X117051890Y-111033569D01*
X116800000Y-110982560D01*
X116000000Y-110982560D01*
X115764683Y-111026838D01*
X115760845Y-111029307D01*
X115530000Y-110982560D01*
X114730000Y-110982560D01*
X114494683Y-111026838D01*
X114490845Y-111029307D01*
X114260000Y-110982560D01*
X113460000Y-110982560D01*
X113224683Y-111026838D01*
X113220845Y-111029307D01*
X112990000Y-110982560D01*
X112190000Y-110982560D01*
X111954683Y-111026838D01*
X111950845Y-111029307D01*
X111720000Y-110982560D01*
X110920000Y-110982560D01*
X110684683Y-111026838D01*
X110680845Y-111029307D01*
X110450000Y-110982560D01*
X109650000Y-110982560D01*
X109414683Y-111026838D01*
X109410845Y-111029307D01*
X109180000Y-110982560D01*
X109152166Y-110982560D01*
X109442086Y-110862767D01*
X109761645Y-110543765D01*
X109934803Y-110126756D01*
X109935197Y-109675225D01*
X109762767Y-109257914D01*
X109575000Y-109069819D01*
X109575000Y-108202252D01*
X109650000Y-108217440D01*
X110450000Y-108217440D01*
X110685317Y-108173162D01*
X110689155Y-108170693D01*
X110920000Y-108217440D01*
X111720000Y-108217440D01*
X111955317Y-108173162D01*
X111959155Y-108170693D01*
X112190000Y-108217440D01*
X112990000Y-108217440D01*
X113225317Y-108173162D01*
X113229155Y-108170693D01*
X113460000Y-108217440D01*
X114260000Y-108217440D01*
X114495317Y-108173162D01*
X114499155Y-108170693D01*
X114730000Y-108217440D01*
X115530000Y-108217440D01*
X115765317Y-108173162D01*
X115769155Y-108170693D01*
X116000000Y-108217440D01*
G36*
X106950000Y-107310660D02*
X106950000Y-107689340D01*
X106866780Y-107772560D01*
X106700000Y-107772560D01*
X106570411Y-107796944D01*
X106450000Y-107772560D01*
X106188100Y-107772560D01*
X106710660Y-107250000D01*
X106889340Y-107250000D01*
X106950000Y-107310660D01*
X106950000Y-107310660D01*
G37*
X106950000Y-107310660D02*
X106950000Y-107689340D01*
X106866780Y-107772560D01*
X106700000Y-107772560D01*
X106570411Y-107796944D01*
X106450000Y-107772560D01*
X106188100Y-107772560D01*
X106710660Y-107250000D01*
X106889340Y-107250000D01*
X106950000Y-107310660D01*
G36*
X119765000Y-89570132D02*
X119765000Y-96500000D01*
X119851397Y-96934346D01*
X120018879Y-97185000D01*
X120097434Y-97302566D01*
X121897428Y-99102560D01*
X119150000Y-99102560D01*
X118914683Y-99146838D01*
X118698559Y-99285910D01*
X118553569Y-99498110D01*
X118502560Y-99750000D01*
X118502560Y-99863204D01*
X118450000Y-99852560D01*
X117150000Y-99852560D01*
X116914683Y-99896838D01*
X116698559Y-100035910D01*
X116553569Y-100248110D01*
X116502560Y-100500000D01*
X116502560Y-101600000D01*
X116546838Y-101835317D01*
X116653759Y-102001477D01*
X116576192Y-102115000D01*
X116110000Y-102115000D01*
X115921174Y-102152560D01*
X114660000Y-102152560D01*
X114424683Y-102196838D01*
X114208559Y-102335910D01*
X114063569Y-102548110D01*
X114012560Y-102800000D01*
X114012560Y-103876692D01*
X114002440Y-103866572D01*
X114002440Y-102800000D01*
X113958162Y-102564683D01*
X113819090Y-102348559D01*
X113606890Y-102203569D01*
X113355000Y-102152560D01*
X112093826Y-102152560D01*
X111905000Y-102115000D01*
X111521192Y-102115000D01*
X111446241Y-101998523D01*
X111546431Y-101851890D01*
X111597440Y-101600000D01*
X111597440Y-100500000D01*
X111553162Y-100264683D01*
X111414090Y-100048559D01*
X111201890Y-99903569D01*
X110950000Y-99852560D01*
X109650000Y-99852560D01*
X109414683Y-99896838D01*
X109198559Y-100035910D01*
X109197752Y-100037092D01*
X107650000Y-98489340D01*
X107650000Y-98109807D01*
X107685317Y-98103162D01*
X107889163Y-97971991D01*
X107998110Y-98046431D01*
X108250000Y-98097440D01*
X109050000Y-98097440D01*
X109285317Y-98053162D01*
X109501441Y-97914090D01*
X109600633Y-97768917D01*
X109685910Y-97901441D01*
X109898110Y-98046431D01*
X110150000Y-98097440D01*
X110807560Y-98097440D01*
X110807560Y-98600000D01*
X110851838Y-98835317D01*
X110990910Y-99051441D01*
X111203110Y-99196431D01*
X111455000Y-99247440D01*
X113355000Y-99247440D01*
X113590317Y-99203162D01*
X113806441Y-99064090D01*
X113951431Y-98851890D01*
X114002440Y-98600000D01*
X114002440Y-97300000D01*
X114007560Y-97300000D01*
X114007560Y-98600000D01*
X114051838Y-98835317D01*
X114190910Y-99051441D01*
X114403110Y-99196431D01*
X114655000Y-99247440D01*
X116555000Y-99247440D01*
X116790317Y-99203162D01*
X117006441Y-99064090D01*
X117151431Y-98851890D01*
X117202440Y-98600000D01*
X117202440Y-97300000D01*
X117158162Y-97064683D01*
X117019090Y-96848559D01*
X116806890Y-96703569D01*
X116555000Y-96652560D01*
X114655000Y-96652560D01*
X114419683Y-96696838D01*
X114203559Y-96835910D01*
X114058569Y-97048110D01*
X114007560Y-97300000D01*
X114002440Y-97300000D01*
X113958162Y-97064683D01*
X113819090Y-96848559D01*
X113606890Y-96703569D01*
X113355000Y-96652560D01*
X111597440Y-96652560D01*
X111597440Y-96550000D01*
X111553162Y-96314683D01*
X111414090Y-96098559D01*
X111201890Y-95953569D01*
X110950000Y-95902560D01*
X110459319Y-95902560D01*
X110573808Y-95735000D01*
X112600000Y-95735000D01*
X112957809Y-95663827D01*
X113261145Y-95461145D01*
X113587290Y-95135000D01*
X114500000Y-95135000D01*
X114857809Y-95063827D01*
X115161145Y-94861145D01*
X116224850Y-93797440D01*
X118450000Y-93797440D01*
X118685317Y-93753162D01*
X118901441Y-93614090D01*
X119046431Y-93401890D01*
X119097440Y-93150000D01*
X119097440Y-90850000D01*
X119053162Y-90614683D01*
X118914090Y-90398559D01*
X118701890Y-90253569D01*
X118450000Y-90202560D01*
X118185000Y-90202560D01*
X118185000Y-89900005D01*
X118185001Y-89900000D01*
X118071961Y-89331715D01*
X117790821Y-88910959D01*
X117750054Y-88849946D01*
X117750051Y-88849944D01*
X115550054Y-86649946D01*
X115068285Y-86328039D01*
X114500000Y-86214999D01*
X114499995Y-86215000D01*
X114134303Y-86215000D01*
X113810959Y-85891091D01*
X113194224Y-85635000D01*
X115829868Y-85635000D01*
X119765000Y-89570132D01*
X119765000Y-89570132D01*
G37*
X119765000Y-89570132D02*
X119765000Y-96500000D01*
X119851397Y-96934346D01*
X120018879Y-97185000D01*
X120097434Y-97302566D01*
X121897428Y-99102560D01*
X119150000Y-99102560D01*
X118914683Y-99146838D01*
X118698559Y-99285910D01*
X118553569Y-99498110D01*
X118502560Y-99750000D01*
X118502560Y-99863204D01*
X118450000Y-99852560D01*
X117150000Y-99852560D01*
X116914683Y-99896838D01*
X116698559Y-100035910D01*
X116553569Y-100248110D01*
X116502560Y-100500000D01*
X116502560Y-101600000D01*
X116546838Y-101835317D01*
X116653759Y-102001477D01*
X116576192Y-102115000D01*
X116110000Y-102115000D01*
X115921174Y-102152560D01*
X114660000Y-102152560D01*
X114424683Y-102196838D01*
X114208559Y-102335910D01*
X114063569Y-102548110D01*
X114012560Y-102800000D01*
X114012560Y-103876692D01*
X114002440Y-103866572D01*
X114002440Y-102800000D01*
X113958162Y-102564683D01*
X113819090Y-102348559D01*
X113606890Y-102203569D01*
X113355000Y-102152560D01*
X112093826Y-102152560D01*
X111905000Y-102115000D01*
X111521192Y-102115000D01*
X111446241Y-101998523D01*
X111546431Y-101851890D01*
X111597440Y-101600000D01*
X111597440Y-100500000D01*
X111553162Y-100264683D01*
X111414090Y-100048559D01*
X111201890Y-99903569D01*
X110950000Y-99852560D01*
X109650000Y-99852560D01*
X109414683Y-99896838D01*
X109198559Y-100035910D01*
X109197752Y-100037092D01*
X107650000Y-98489340D01*
X107650000Y-98109807D01*
X107685317Y-98103162D01*
X107889163Y-97971991D01*
X107998110Y-98046431D01*
X108250000Y-98097440D01*
X109050000Y-98097440D01*
X109285317Y-98053162D01*
X109501441Y-97914090D01*
X109600633Y-97768917D01*
X109685910Y-97901441D01*
X109898110Y-98046431D01*
X110150000Y-98097440D01*
X110807560Y-98097440D01*
X110807560Y-98600000D01*
X110851838Y-98835317D01*
X110990910Y-99051441D01*
X111203110Y-99196431D01*
X111455000Y-99247440D01*
X113355000Y-99247440D01*
X113590317Y-99203162D01*
X113806441Y-99064090D01*
X113951431Y-98851890D01*
X114002440Y-98600000D01*
X114002440Y-97300000D01*
X114007560Y-97300000D01*
X114007560Y-98600000D01*
X114051838Y-98835317D01*
X114190910Y-99051441D01*
X114403110Y-99196431D01*
X114655000Y-99247440D01*
X116555000Y-99247440D01*
X116790317Y-99203162D01*
X117006441Y-99064090D01*
X117151431Y-98851890D01*
X117202440Y-98600000D01*
X117202440Y-97300000D01*
X117158162Y-97064683D01*
X117019090Y-96848559D01*
X116806890Y-96703569D01*
X116555000Y-96652560D01*
X114655000Y-96652560D01*
X114419683Y-96696838D01*
X114203559Y-96835910D01*
X114058569Y-97048110D01*
X114007560Y-97300000D01*
X114002440Y-97300000D01*
X113958162Y-97064683D01*
X113819090Y-96848559D01*
X113606890Y-96703569D01*
X113355000Y-96652560D01*
X111597440Y-96652560D01*
X111597440Y-96550000D01*
X111553162Y-96314683D01*
X111414090Y-96098559D01*
X111201890Y-95953569D01*
X110950000Y-95902560D01*
X110459319Y-95902560D01*
X110573808Y-95735000D01*
X112600000Y-95735000D01*
X112957809Y-95663827D01*
X113261145Y-95461145D01*
X113587290Y-95135000D01*
X114500000Y-95135000D01*
X114857809Y-95063827D01*
X115161145Y-94861145D01*
X116224850Y-93797440D01*
X118450000Y-93797440D01*
X118685317Y-93753162D01*
X118901441Y-93614090D01*
X119046431Y-93401890D01*
X119097440Y-93150000D01*
X119097440Y-90850000D01*
X119053162Y-90614683D01*
X118914090Y-90398559D01*
X118701890Y-90253569D01*
X118450000Y-90202560D01*
X118185000Y-90202560D01*
X118185000Y-89900005D01*
X118185001Y-89900000D01*
X118071961Y-89331715D01*
X117790821Y-88910959D01*
X117750054Y-88849946D01*
X117750051Y-88849944D01*
X115550054Y-86649946D01*
X115068285Y-86328039D01*
X114500000Y-86214999D01*
X114499995Y-86215000D01*
X114134303Y-86215000D01*
X113810959Y-85891091D01*
X113194224Y-85635000D01*
X115829868Y-85635000D01*
X119765000Y-89570132D01*
G36*
X100226485Y-50140727D02*
X99343826Y-51021847D01*
X98865546Y-52173674D01*
X98864457Y-53420854D01*
X99340727Y-54573515D01*
X100221847Y-55456174D01*
X101373674Y-55934454D01*
X102620854Y-55935543D01*
X103773515Y-55459273D01*
X104656174Y-54578153D01*
X105134454Y-53426326D01*
X105134545Y-53321834D01*
X106884543Y-53321834D01*
X107284853Y-54290658D01*
X107465000Y-54471120D01*
X107465000Y-70500000D01*
X107511672Y-70738946D01*
X107650987Y-70949013D01*
X123765000Y-87063026D01*
X123765000Y-90847464D01*
X123515000Y-92104297D01*
X123515000Y-95295703D01*
X123772668Y-96591086D01*
X124506444Y-97689259D01*
X125604617Y-98423035D01*
X126900000Y-98680703D01*
X128195383Y-98423035D01*
X129293556Y-97689259D01*
X130027332Y-96591086D01*
X130285000Y-95295703D01*
X130285000Y-92104297D01*
X130235000Y-91852930D01*
X130235000Y-76900000D01*
X130188328Y-76661054D01*
X130049013Y-76450987D01*
X116635000Y-63036974D01*
X116635000Y-54491754D01*
X116832542Y-54294557D01*
X117234542Y-53326433D01*
X117234546Y-53321834D01*
X121284543Y-53321834D01*
X121565000Y-54000592D01*
X121565000Y-65100000D01*
X121611672Y-65338946D01*
X121750987Y-65549013D01*
X131965000Y-75763026D01*
X131965000Y-88352930D01*
X131915000Y-88604297D01*
X131915000Y-91795703D01*
X132172668Y-93091086D01*
X132906444Y-94189259D01*
X134004617Y-94923035D01*
X135300000Y-95180703D01*
X136595383Y-94923035D01*
X137693556Y-94189259D01*
X138427332Y-93091086D01*
X138685000Y-91795703D01*
X138685000Y-88604297D01*
X138535000Y-87850197D01*
X138535000Y-65700000D01*
X138488328Y-65461054D01*
X138349013Y-65250987D01*
X130935000Y-57836974D01*
X130935000Y-54591580D01*
X131232542Y-54294557D01*
X131634542Y-53326433D01*
X131635457Y-52278166D01*
X131235147Y-51309342D01*
X130494557Y-50567458D01*
X129526433Y-50165458D01*
X128478166Y-50164543D01*
X127509342Y-50564853D01*
X127158583Y-50915000D01*
X125761493Y-50915000D01*
X125414557Y-50567458D01*
X124446433Y-50165458D01*
X123398166Y-50164543D01*
X122429342Y-50564853D01*
X121687458Y-51305443D01*
X121285458Y-52273567D01*
X121284543Y-53321834D01*
X117234546Y-53321834D01*
X117235457Y-52278166D01*
X116835147Y-51309342D01*
X116094557Y-50567458D01*
X115126433Y-50165458D01*
X114078166Y-50164543D01*
X113109342Y-50564853D01*
X112758583Y-50915000D01*
X111361493Y-50915000D01*
X111014557Y-50567458D01*
X110046433Y-50165458D01*
X108998166Y-50164543D01*
X108029342Y-50564853D01*
X107287458Y-51305443D01*
X106885458Y-52273567D01*
X106884543Y-53321834D01*
X105134545Y-53321834D01*
X105135543Y-52179146D01*
X104659273Y-51026485D01*
X103778153Y-50143826D01*
X102733383Y-49710000D01*
X136668924Y-49710000D01*
X135626485Y-50140727D01*
X134743826Y-51021847D01*
X134265546Y-52173674D01*
X134264457Y-53420854D01*
X134740727Y-54573515D01*
X135621847Y-55456174D01*
X136773674Y-55934454D01*
X138020854Y-55935543D01*
X139173515Y-55459273D01*
X140056174Y-54578153D01*
X140490000Y-53533383D01*
X140490000Y-99584116D01*
X139794557Y-98887458D01*
X138826433Y-98485458D01*
X137778166Y-98484543D01*
X136809342Y-98884853D01*
X136067458Y-99625443D01*
X136063490Y-99635000D01*
X135787440Y-99635000D01*
X135787440Y-99250000D01*
X135743162Y-99014683D01*
X135604090Y-98798559D01*
X135422155Y-98674248D01*
X135418315Y-98653841D01*
X135391035Y-98611447D01*
X135349410Y-98583006D01*
X135300000Y-98573000D01*
X128500000Y-98573000D01*
X128453841Y-98581685D01*
X128411447Y-98608965D01*
X128383006Y-98650590D01*
X128377635Y-98677113D01*
X128208559Y-98785910D01*
X128063569Y-98998110D01*
X128042417Y-99102560D01*
X125107692Y-99102560D01*
X122035000Y-96029868D01*
X122035000Y-89100000D01*
X121948603Y-88665654D01*
X121702566Y-88297434D01*
X117102566Y-83697434D01*
X116734346Y-83451397D01*
X116300000Y-83365000D01*
X110800000Y-83365000D01*
X110365654Y-83451397D01*
X109997434Y-83697434D01*
X108227358Y-85467510D01*
X108168285Y-85428039D01*
X107600000Y-85315000D01*
X107031715Y-85428039D01*
X106549946Y-85749946D01*
X106481778Y-85851967D01*
X106392200Y-85888980D01*
X105791091Y-86489041D01*
X105465372Y-87273459D01*
X105464630Y-88122815D01*
X105788980Y-88907800D01*
X106115000Y-89234389D01*
X106115000Y-90202560D01*
X105450000Y-90202560D01*
X105214683Y-90246838D01*
X104998559Y-90385910D01*
X104853569Y-90598110D01*
X104802560Y-90850000D01*
X104802560Y-93150000D01*
X104846838Y-93385317D01*
X104985910Y-93601441D01*
X105198110Y-93746431D01*
X105450000Y-93797440D01*
X108950000Y-93797440D01*
X109185317Y-93753162D01*
X109248478Y-93712519D01*
X109298110Y-93746431D01*
X109550000Y-93797440D01*
X112280270Y-93797440D01*
X112212710Y-93865000D01*
X109800000Y-93865000D01*
X109611174Y-93902560D01*
X109200000Y-93902560D01*
X108964683Y-93946838D01*
X108748559Y-94085910D01*
X108603569Y-94298110D01*
X108552560Y-94550000D01*
X108552560Y-94830270D01*
X108111145Y-94388855D01*
X108071548Y-94362397D01*
X108053162Y-94264683D01*
X107914090Y-94048559D01*
X107701890Y-93903569D01*
X107450000Y-93852560D01*
X106150000Y-93852560D01*
X105914683Y-93896838D01*
X105698559Y-94035910D01*
X105553569Y-94248110D01*
X105502560Y-94500000D01*
X105502560Y-95600000D01*
X105546838Y-95835317D01*
X105653759Y-96001477D01*
X105553569Y-96148110D01*
X105502560Y-96400000D01*
X105502560Y-97500000D01*
X105546838Y-97735317D01*
X105685910Y-97951441D01*
X105898110Y-98096431D01*
X106150000Y-98147440D01*
X106150000Y-98450000D01*
X102460660Y-98450000D01*
X102108100Y-98097440D01*
X102150000Y-98097440D01*
X102385317Y-98053162D01*
X102601441Y-97914090D01*
X102700633Y-97768917D01*
X102785910Y-97901441D01*
X102998110Y-98046431D01*
X103250000Y-98097440D01*
X104050000Y-98097440D01*
X104285317Y-98053162D01*
X104501441Y-97914090D01*
X104646431Y-97701890D01*
X104697440Y-97450000D01*
X104697440Y-96550000D01*
X104653162Y-96314683D01*
X104514090Y-96098559D01*
X104301890Y-95953569D01*
X104050000Y-95902560D01*
X103559319Y-95902560D01*
X103696431Y-95701890D01*
X103747440Y-95450000D01*
X103747440Y-94550000D01*
X103703162Y-94314683D01*
X103635000Y-94208756D01*
X103635000Y-93781446D01*
X103785317Y-93753162D01*
X104001441Y-93614090D01*
X104146431Y-93401890D01*
X104197440Y-93150000D01*
X104197440Y-90850000D01*
X104153162Y-90614683D01*
X104085000Y-90508756D01*
X104085000Y-89234303D01*
X104408909Y-88910959D01*
X104734628Y-88126541D01*
X104735370Y-87277185D01*
X104411020Y-86492200D01*
X103810959Y-85891091D01*
X103026541Y-85565372D01*
X102177185Y-85564630D01*
X101392200Y-85888980D01*
X100791091Y-86489041D01*
X100465372Y-87273459D01*
X100464630Y-88122815D01*
X100788980Y-88907800D01*
X101115000Y-89234389D01*
X101115000Y-90202560D01*
X100050000Y-90202560D01*
X99814683Y-90246838D01*
X99598559Y-90385910D01*
X99453569Y-90598110D01*
X99402560Y-90850000D01*
X99402560Y-93150000D01*
X99446838Y-93385317D01*
X99585910Y-93601441D01*
X99798110Y-93746431D01*
X100050000Y-93797440D01*
X101765000Y-93797440D01*
X101765000Y-94208203D01*
X101703569Y-94298110D01*
X101652560Y-94550000D01*
X101652560Y-94730270D01*
X101311145Y-94388855D01*
X101157168Y-94285971D01*
X101153162Y-94264683D01*
X101014090Y-94048559D01*
X100801890Y-93903569D01*
X100550000Y-93852560D01*
X99250000Y-93852560D01*
X99014683Y-93896838D01*
X98810000Y-94028548D01*
X98810000Y-49710000D01*
X101268924Y-49710000D01*
X100226485Y-50140727D01*
X100226485Y-50140727D01*
G37*
X100226485Y-50140727D02*
X99343826Y-51021847D01*
X98865546Y-52173674D01*
X98864457Y-53420854D01*
X99340727Y-54573515D01*
X100221847Y-55456174D01*
X101373674Y-55934454D01*
X102620854Y-55935543D01*
X103773515Y-55459273D01*
X104656174Y-54578153D01*
X105134454Y-53426326D01*
X105134545Y-53321834D01*
X106884543Y-53321834D01*
X107284853Y-54290658D01*
X107465000Y-54471120D01*
X107465000Y-70500000D01*
X107511672Y-70738946D01*
X107650987Y-70949013D01*
X123765000Y-87063026D01*
X123765000Y-90847464D01*
X123515000Y-92104297D01*
X123515000Y-95295703D01*
X123772668Y-96591086D01*
X124506444Y-97689259D01*
X125604617Y-98423035D01*
X126900000Y-98680703D01*
X128195383Y-98423035D01*
X129293556Y-97689259D01*
X130027332Y-96591086D01*
X130285000Y-95295703D01*
X130285000Y-92104297D01*
X130235000Y-91852930D01*
X130235000Y-76900000D01*
X130188328Y-76661054D01*
X130049013Y-76450987D01*
X116635000Y-63036974D01*
X116635000Y-54491754D01*
X116832542Y-54294557D01*
X117234542Y-53326433D01*
X117234546Y-53321834D01*
X121284543Y-53321834D01*
X121565000Y-54000592D01*
X121565000Y-65100000D01*
X121611672Y-65338946D01*
X121750987Y-65549013D01*
X131965000Y-75763026D01*
X131965000Y-88352930D01*
X131915000Y-88604297D01*
X131915000Y-91795703D01*
X132172668Y-93091086D01*
X132906444Y-94189259D01*
X134004617Y-94923035D01*
X135300000Y-95180703D01*
X136595383Y-94923035D01*
X137693556Y-94189259D01*
X138427332Y-93091086D01*
X138685000Y-91795703D01*
X138685000Y-88604297D01*
X138535000Y-87850197D01*
X138535000Y-65700000D01*
X138488328Y-65461054D01*
X138349013Y-65250987D01*
X130935000Y-57836974D01*
X130935000Y-54591580D01*
X131232542Y-54294557D01*
X131634542Y-53326433D01*
X131635457Y-52278166D01*
X131235147Y-51309342D01*
X130494557Y-50567458D01*
X129526433Y-50165458D01*
X128478166Y-50164543D01*
X127509342Y-50564853D01*
X127158583Y-50915000D01*
X125761493Y-50915000D01*
X125414557Y-50567458D01*
X124446433Y-50165458D01*
X123398166Y-50164543D01*
X122429342Y-50564853D01*
X121687458Y-51305443D01*
X121285458Y-52273567D01*
X121284543Y-53321834D01*
X117234546Y-53321834D01*
X117235457Y-52278166D01*
X116835147Y-51309342D01*
X116094557Y-50567458D01*
X115126433Y-50165458D01*
X114078166Y-50164543D01*
X113109342Y-50564853D01*
X112758583Y-50915000D01*
X111361493Y-50915000D01*
X111014557Y-50567458D01*
X110046433Y-50165458D01*
X108998166Y-50164543D01*
X108029342Y-50564853D01*
X107287458Y-51305443D01*
X106885458Y-52273567D01*
X106884543Y-53321834D01*
X105134545Y-53321834D01*
X105135543Y-52179146D01*
X104659273Y-51026485D01*
X103778153Y-50143826D01*
X102733383Y-49710000D01*
X136668924Y-49710000D01*
X135626485Y-50140727D01*
X134743826Y-51021847D01*
X134265546Y-52173674D01*
X134264457Y-53420854D01*
X134740727Y-54573515D01*
X135621847Y-55456174D01*
X136773674Y-55934454D01*
X138020854Y-55935543D01*
X139173515Y-55459273D01*
X140056174Y-54578153D01*
X140490000Y-53533383D01*
X140490000Y-99584116D01*
X139794557Y-98887458D01*
X138826433Y-98485458D01*
X137778166Y-98484543D01*
X136809342Y-98884853D01*
X136067458Y-99625443D01*
X136063490Y-99635000D01*
X135787440Y-99635000D01*
X135787440Y-99250000D01*
X135743162Y-99014683D01*
X135604090Y-98798559D01*
X135422155Y-98674248D01*
X135418315Y-98653841D01*
X135391035Y-98611447D01*
X135349410Y-98583006D01*
X135300000Y-98573000D01*
X128500000Y-98573000D01*
X128453841Y-98581685D01*
X128411447Y-98608965D01*
X128383006Y-98650590D01*
X128377635Y-98677113D01*
X128208559Y-98785910D01*
X128063569Y-98998110D01*
X128042417Y-99102560D01*
X125107692Y-99102560D01*
X122035000Y-96029868D01*
X122035000Y-89100000D01*
X121948603Y-88665654D01*
X121702566Y-88297434D01*
X117102566Y-83697434D01*
X116734346Y-83451397D01*
X116300000Y-83365000D01*
X110800000Y-83365000D01*
X110365654Y-83451397D01*
X109997434Y-83697434D01*
X108227358Y-85467510D01*
X108168285Y-85428039D01*
X107600000Y-85315000D01*
X107031715Y-85428039D01*
X106549946Y-85749946D01*
X106481778Y-85851967D01*
X106392200Y-85888980D01*
X105791091Y-86489041D01*
X105465372Y-87273459D01*
X105464630Y-88122815D01*
X105788980Y-88907800D01*
X106115000Y-89234389D01*
X106115000Y-90202560D01*
X105450000Y-90202560D01*
X105214683Y-90246838D01*
X104998559Y-90385910D01*
X104853569Y-90598110D01*
X104802560Y-90850000D01*
X104802560Y-93150000D01*
X104846838Y-93385317D01*
X104985910Y-93601441D01*
X105198110Y-93746431D01*
X105450000Y-93797440D01*
X108950000Y-93797440D01*
X109185317Y-93753162D01*
X109248478Y-93712519D01*
X109298110Y-93746431D01*
X109550000Y-93797440D01*
X112280270Y-93797440D01*
X112212710Y-93865000D01*
X109800000Y-93865000D01*
X109611174Y-93902560D01*
X109200000Y-93902560D01*
X108964683Y-93946838D01*
X108748559Y-94085910D01*
X108603569Y-94298110D01*
X108552560Y-94550000D01*
X108552560Y-94830270D01*
X108111145Y-94388855D01*
X108071548Y-94362397D01*
X108053162Y-94264683D01*
X107914090Y-94048559D01*
X107701890Y-93903569D01*
X107450000Y-93852560D01*
X106150000Y-93852560D01*
X105914683Y-93896838D01*
X105698559Y-94035910D01*
X105553569Y-94248110D01*
X105502560Y-94500000D01*
X105502560Y-95600000D01*
X105546838Y-95835317D01*
X105653759Y-96001477D01*
X105553569Y-96148110D01*
X105502560Y-96400000D01*
X105502560Y-97500000D01*
X105546838Y-97735317D01*
X105685910Y-97951441D01*
X105898110Y-98096431D01*
X106150000Y-98147440D01*
X106150000Y-98450000D01*
X102460660Y-98450000D01*
X102108100Y-98097440D01*
X102150000Y-98097440D01*
X102385317Y-98053162D01*
X102601441Y-97914090D01*
X102700633Y-97768917D01*
X102785910Y-97901441D01*
X102998110Y-98046431D01*
X103250000Y-98097440D01*
X104050000Y-98097440D01*
X104285317Y-98053162D01*
X104501441Y-97914090D01*
X104646431Y-97701890D01*
X104697440Y-97450000D01*
X104697440Y-96550000D01*
X104653162Y-96314683D01*
X104514090Y-96098559D01*
X104301890Y-95953569D01*
X104050000Y-95902560D01*
X103559319Y-95902560D01*
X103696431Y-95701890D01*
X103747440Y-95450000D01*
X103747440Y-94550000D01*
X103703162Y-94314683D01*
X103635000Y-94208756D01*
X103635000Y-93781446D01*
X103785317Y-93753162D01*
X104001441Y-93614090D01*
X104146431Y-93401890D01*
X104197440Y-93150000D01*
X104197440Y-90850000D01*
X104153162Y-90614683D01*
X104085000Y-90508756D01*
X104085000Y-89234303D01*
X104408909Y-88910959D01*
X104734628Y-88126541D01*
X104735370Y-87277185D01*
X104411020Y-86492200D01*
X103810959Y-85891091D01*
X103026541Y-85565372D01*
X102177185Y-85564630D01*
X101392200Y-85888980D01*
X100791091Y-86489041D01*
X100465372Y-87273459D01*
X100464630Y-88122815D01*
X100788980Y-88907800D01*
X101115000Y-89234389D01*
X101115000Y-90202560D01*
X100050000Y-90202560D01*
X99814683Y-90246838D01*
X99598559Y-90385910D01*
X99453569Y-90598110D01*
X99402560Y-90850000D01*
X99402560Y-93150000D01*
X99446838Y-93385317D01*
X99585910Y-93601441D01*
X99798110Y-93746431D01*
X100050000Y-93797440D01*
X101765000Y-93797440D01*
X101765000Y-94208203D01*
X101703569Y-94298110D01*
X101652560Y-94550000D01*
X101652560Y-94730270D01*
X101311145Y-94388855D01*
X101157168Y-94285971D01*
X101153162Y-94264683D01*
X101014090Y-94048559D01*
X100801890Y-93903569D01*
X100550000Y-93852560D01*
X99250000Y-93852560D01*
X99014683Y-93896838D01*
X98810000Y-94028548D01*
X98810000Y-49710000D01*
X101268924Y-49710000D01*
X100226485Y-50140727D01*
G36*
X125795022Y-54495416D02*
X126165743Y-54274647D01*
X126456636Y-53556126D01*
X126754257Y-54274647D01*
X127124978Y-54495416D01*
X128093395Y-53527000D01*
X128452605Y-53527000D01*
X127304584Y-54675022D01*
X127525353Y-55045743D01*
X128497012Y-55439119D01*
X129545247Y-55430713D01*
X130173000Y-55170689D01*
X130173000Y-58100000D01*
X130183006Y-58149410D01*
X130210197Y-58189803D01*
X137773000Y-65752606D01*
X137773000Y-86450457D01*
X137603754Y-86216641D01*
X136478051Y-85524067D01*
X135954594Y-85378896D01*
X135427000Y-85476251D01*
X135427000Y-90073000D01*
X135447000Y-90073000D01*
X135447000Y-90327000D01*
X135427000Y-90327000D01*
X135427000Y-90347000D01*
X135173000Y-90347000D01*
X135173000Y-90327000D01*
X135153000Y-90327000D01*
X135153000Y-90073000D01*
X135173000Y-90073000D01*
X135173000Y-85476251D01*
X134645406Y-85378896D01*
X134121949Y-85524067D01*
X132996246Y-86216641D01*
X132727000Y-86588609D01*
X132727000Y-75500000D01*
X132716994Y-75450590D01*
X132689803Y-75410197D01*
X122327000Y-65047394D01*
X122327000Y-54847002D01*
X122445353Y-55045743D01*
X123417012Y-55439119D01*
X124465247Y-55430713D01*
X125394647Y-55045743D01*
X125615416Y-54675022D01*
X124467395Y-53527000D01*
X124826605Y-53527000D01*
X125795022Y-54495416D01*
X125795022Y-54495416D01*
G37*
X125795022Y-54495416D02*
X126165743Y-54274647D01*
X126456636Y-53556126D01*
X126754257Y-54274647D01*
X127124978Y-54495416D01*
X128093395Y-53527000D01*
X128452605Y-53527000D01*
X127304584Y-54675022D01*
X127525353Y-55045743D01*
X128497012Y-55439119D01*
X129545247Y-55430713D01*
X130173000Y-55170689D01*
X130173000Y-58100000D01*
X130183006Y-58149410D01*
X130210197Y-58189803D01*
X137773000Y-65752606D01*
X137773000Y-86450457D01*
X137603754Y-86216641D01*
X136478051Y-85524067D01*
X135954594Y-85378896D01*
X135427000Y-85476251D01*
X135427000Y-90073000D01*
X135447000Y-90073000D01*
X135447000Y-90327000D01*
X135427000Y-90327000D01*
X135427000Y-90347000D01*
X135173000Y-90347000D01*
X135173000Y-90327000D01*
X135153000Y-90327000D01*
X135153000Y-90073000D01*
X135173000Y-90073000D01*
X135173000Y-85476251D01*
X134645406Y-85378896D01*
X134121949Y-85524067D01*
X132996246Y-86216641D01*
X132727000Y-86588609D01*
X132727000Y-75500000D01*
X132716994Y-75450590D01*
X132689803Y-75410197D01*
X122327000Y-65047394D01*
X122327000Y-54847002D01*
X122445353Y-55045743D01*
X123417012Y-55439119D01*
X124465247Y-55430713D01*
X125394647Y-55045743D01*
X125615416Y-54675022D01*
X124467395Y-53527000D01*
X124826605Y-53527000D01*
X125795022Y-54495416D01*
M02*
