G04 #@! TF.FileFunction,Legend,Top*
%FSLAX46Y46*%
G04 Gerber Fmt 4.6, Leading zero omitted, Abs format (unit mm)*
G04 Created by KiCad (PCBNEW 4.0.5-e0-6337~49~ubuntu16.04.1) date Sun Mar 26 23:32:04 2017*
%MOMM*%
%LPD*%
G01*
G04 APERTURE LIST*
%ADD10C,0.100000*%
%ADD11C,0.300000*%
%ADD12C,0.200000*%
%ADD13C,0.250000*%
%ADD14C,0.120000*%
%ADD15C,0.304800*%
%ADD16C,0.150000*%
G04 APERTURE END LIST*
D10*
D11*
X133550000Y-127978571D02*
X133550000Y-126478571D01*
X133692857Y-127407143D02*
X134121428Y-127978571D01*
X134121428Y-126978571D02*
X133550000Y-127550000D01*
D12*
X140700000Y-110400000D02*
X136000000Y-110400000D01*
X140700000Y-98700000D02*
X140700000Y-110400000D01*
X136000000Y-98700000D02*
X140700000Y-98700000D01*
X136000000Y-110400000D02*
X136000000Y-98700000D01*
X140700000Y-123400000D02*
X136000000Y-123400000D01*
X140700000Y-114600000D02*
X140700000Y-123400000D01*
X140700000Y-111000000D02*
X140700000Y-114600000D01*
X136000000Y-111000000D02*
X140700000Y-111000000D01*
X136000000Y-123400000D02*
X136000000Y-111000000D01*
D11*
X137157143Y-111350000D02*
X137014286Y-111278571D01*
X136800000Y-111278571D01*
X136585715Y-111350000D01*
X136442857Y-111492857D01*
X136371429Y-111635714D01*
X136300000Y-111921429D01*
X136300000Y-112135714D01*
X136371429Y-112421429D01*
X136442857Y-112564286D01*
X136585715Y-112707143D01*
X136800000Y-112778571D01*
X136942857Y-112778571D01*
X137157143Y-112707143D01*
X137228572Y-112635714D01*
X137228572Y-112135714D01*
X136942857Y-112135714D01*
X137871429Y-112778571D02*
X137871429Y-111278571D01*
X138728572Y-112778571D01*
X138728572Y-111278571D01*
X139442858Y-112778571D02*
X139442858Y-111278571D01*
X139800001Y-111278571D01*
X140014286Y-111350000D01*
X140157144Y-111492857D01*
X140228572Y-111635714D01*
X140300001Y-111921429D01*
X140300001Y-112135714D01*
X140228572Y-112421429D01*
X140157144Y-112564286D01*
X140014286Y-112707143D01*
X139800001Y-112778571D01*
X139442858Y-112778571D01*
D13*
X136085715Y-109585714D02*
X137000001Y-109585714D01*
X136542858Y-110042857D02*
X136542858Y-109128571D01*
X138200001Y-110042857D02*
X137514286Y-110042857D01*
X137857144Y-110042857D02*
X137857144Y-108842857D01*
X137742858Y-109014286D01*
X137628572Y-109128571D01*
X137514286Y-109185714D01*
X138657143Y-108957143D02*
X138714286Y-108900000D01*
X138828572Y-108842857D01*
X139114286Y-108842857D01*
X139228572Y-108900000D01*
X139285715Y-108957143D01*
X139342858Y-109071429D01*
X139342858Y-109185714D01*
X139285715Y-109357143D01*
X138600001Y-110042857D01*
X139342858Y-110042857D01*
X139685715Y-108842857D02*
X140085715Y-110042857D01*
X140485715Y-108842857D01*
D11*
X116071429Y-128007143D02*
X116285715Y-128078571D01*
X116642858Y-128078571D01*
X116785715Y-128007143D01*
X116857144Y-127935714D01*
X116928572Y-127792857D01*
X116928572Y-127650000D01*
X116857144Y-127507143D01*
X116785715Y-127435714D01*
X116642858Y-127364286D01*
X116357144Y-127292857D01*
X116214286Y-127221429D01*
X116142858Y-127150000D01*
X116071429Y-127007143D01*
X116071429Y-126864286D01*
X116142858Y-126721429D01*
X116214286Y-126650000D01*
X116357144Y-126578571D01*
X116714286Y-126578571D01*
X116928572Y-126650000D01*
X120628572Y-129407143D02*
X121771429Y-129407143D01*
X125928572Y-127407143D02*
X127071429Y-127407143D01*
X126500000Y-127978571D02*
X126500000Y-126835714D01*
X140333333Y-97466669D02*
X138933333Y-97466669D01*
X140333333Y-96666669D02*
X139533333Y-97266669D01*
X138933333Y-96666669D02*
X139733333Y-97466669D01*
X140333333Y-95466669D02*
X139600000Y-95466669D01*
X139466667Y-95533335D01*
X139400000Y-95666669D01*
X139400000Y-95933335D01*
X139466667Y-96066669D01*
X140266667Y-95466669D02*
X140333333Y-95600002D01*
X140333333Y-95933335D01*
X140266667Y-96066669D01*
X140133333Y-96133335D01*
X140000000Y-96133335D01*
X139866667Y-96066669D01*
X139800000Y-95933335D01*
X139800000Y-95600002D01*
X139733333Y-95466669D01*
X140333333Y-94800002D02*
X139400000Y-94800002D01*
X139533333Y-94800002D02*
X139466667Y-94733335D01*
X139400000Y-94600002D01*
X139400000Y-94400002D01*
X139466667Y-94266668D01*
X139600000Y-94200002D01*
X140333333Y-94200002D01*
X139600000Y-94200002D02*
X139466667Y-94133335D01*
X139400000Y-94000002D01*
X139400000Y-93800002D01*
X139466667Y-93666668D01*
X139600000Y-93600002D01*
X140333333Y-93600002D01*
X139400000Y-93066668D02*
X140333333Y-92800001D01*
X139666667Y-92533335D01*
X140333333Y-92266668D01*
X139400000Y-92000001D01*
X140333333Y-91266668D02*
X140266667Y-91400001D01*
X140200000Y-91466668D01*
X140066667Y-91533334D01*
X139666667Y-91533334D01*
X139533333Y-91466668D01*
X139466667Y-91400001D01*
X139400000Y-91266668D01*
X139400000Y-91066668D01*
X139466667Y-90933334D01*
X139533333Y-90866668D01*
X139666667Y-90800001D01*
X140066667Y-90800001D01*
X140200000Y-90866668D01*
X140266667Y-90933334D01*
X140333333Y-91066668D01*
X140333333Y-91266668D01*
X140333333Y-90200001D02*
X139400000Y-90200001D01*
X139666667Y-90200001D02*
X139533333Y-90133334D01*
X139466667Y-90066667D01*
X139400000Y-89933334D01*
X139400000Y-89800001D01*
X140333333Y-89333334D02*
X138933333Y-89333334D01*
X139800000Y-89200000D02*
X140333333Y-88800000D01*
X139400000Y-88800000D02*
X139933333Y-89333334D01*
X140266667Y-88266667D02*
X140333333Y-88133334D01*
X140333333Y-87866667D01*
X140266667Y-87733334D01*
X140133333Y-87666667D01*
X140066667Y-87666667D01*
X139933333Y-87733334D01*
X139866667Y-87866667D01*
X139866667Y-88066667D01*
X139800000Y-88200001D01*
X139666667Y-88266667D01*
X139600000Y-88266667D01*
X139466667Y-88200001D01*
X139400000Y-88066667D01*
X139400000Y-87866667D01*
X139466667Y-87733334D01*
X140800000Y-85666667D02*
X138800000Y-85666667D01*
X140266667Y-83000001D02*
X140333333Y-83133334D01*
X140333333Y-83400001D01*
X140266667Y-83533334D01*
X140200000Y-83600001D01*
X140066667Y-83666667D01*
X139666667Y-83666667D01*
X139533333Y-83600001D01*
X139466667Y-83533334D01*
X139400000Y-83400001D01*
X139400000Y-83133334D01*
X139466667Y-83000001D01*
X140333333Y-82200001D02*
X140266667Y-82333334D01*
X140200000Y-82400001D01*
X140066667Y-82466667D01*
X139666667Y-82466667D01*
X139533333Y-82400001D01*
X139466667Y-82333334D01*
X139400000Y-82200001D01*
X139400000Y-82000001D01*
X139466667Y-81866667D01*
X139533333Y-81800001D01*
X139666667Y-81733334D01*
X140066667Y-81733334D01*
X140200000Y-81800001D01*
X140266667Y-81866667D01*
X140333333Y-82000001D01*
X140333333Y-82200001D01*
X140333333Y-80533334D02*
X138933333Y-80533334D01*
X140266667Y-80533334D02*
X140333333Y-80666667D01*
X140333333Y-80933334D01*
X140266667Y-81066667D01*
X140200000Y-81133334D01*
X140066667Y-81200000D01*
X139666667Y-81200000D01*
X139533333Y-81133334D01*
X139466667Y-81066667D01*
X139400000Y-80933334D01*
X139400000Y-80666667D01*
X139466667Y-80533334D01*
X140266667Y-79333333D02*
X140333333Y-79466667D01*
X140333333Y-79733333D01*
X140266667Y-79866667D01*
X140133333Y-79933333D01*
X139600000Y-79933333D01*
X139466667Y-79866667D01*
X139400000Y-79733333D01*
X139400000Y-79466667D01*
X139466667Y-79333333D01*
X139600000Y-79266667D01*
X139733333Y-79266667D01*
X139866667Y-79933333D01*
X140266667Y-78733333D02*
X140333333Y-78600000D01*
X140333333Y-78333333D01*
X140266667Y-78200000D01*
X140133333Y-78133333D01*
X140066667Y-78133333D01*
X139933333Y-78200000D01*
X139866667Y-78333333D01*
X139866667Y-78533333D01*
X139800000Y-78666667D01*
X139666667Y-78733333D01*
X139600000Y-78733333D01*
X139466667Y-78666667D01*
X139400000Y-78533333D01*
X139400000Y-78333333D01*
X139466667Y-78200000D01*
X139400000Y-77666667D02*
X140333333Y-77400000D01*
X139666667Y-77133334D01*
X140333333Y-76866667D01*
X139400000Y-76600000D01*
X140333333Y-76066667D02*
X139400000Y-76066667D01*
X138933333Y-76066667D02*
X139000000Y-76133333D01*
X139066667Y-76066667D01*
X139000000Y-76000000D01*
X138933333Y-76066667D01*
X139066667Y-76066667D01*
X139400000Y-75600000D02*
X139400000Y-75066666D01*
X138933333Y-75400000D02*
X140133333Y-75400000D01*
X140266667Y-75333333D01*
X140333333Y-75200000D01*
X140333333Y-75066666D01*
X140266667Y-74000000D02*
X140333333Y-74133333D01*
X140333333Y-74400000D01*
X140266667Y-74533333D01*
X140200000Y-74600000D01*
X140066667Y-74666666D01*
X139666667Y-74666666D01*
X139533333Y-74600000D01*
X139466667Y-74533333D01*
X139400000Y-74400000D01*
X139400000Y-74133333D01*
X139466667Y-74000000D01*
X140333333Y-73400000D02*
X138933333Y-73400000D01*
X140333333Y-72800000D02*
X139600000Y-72800000D01*
X139466667Y-72866666D01*
X139400000Y-73000000D01*
X139400000Y-73200000D01*
X139466667Y-73333333D01*
X139533333Y-73400000D01*
X140800000Y-70733332D02*
X138800000Y-70733332D01*
X140333333Y-67999999D02*
X140333333Y-68666666D01*
X138933333Y-68666666D01*
X140266667Y-66999999D02*
X140333333Y-67133333D01*
X140333333Y-67399999D01*
X140266667Y-67533333D01*
X140133333Y-67599999D01*
X139600000Y-67599999D01*
X139466667Y-67533333D01*
X139400000Y-67399999D01*
X139400000Y-67133333D01*
X139466667Y-66999999D01*
X139600000Y-66933333D01*
X139733333Y-66933333D01*
X139866667Y-67599999D01*
X140333333Y-66133333D02*
X140266667Y-66266666D01*
X140200000Y-66333333D01*
X140066667Y-66399999D01*
X139666667Y-66399999D01*
X139533333Y-66333333D01*
X139466667Y-66266666D01*
X139400000Y-66133333D01*
X139400000Y-65933333D01*
X139466667Y-65799999D01*
X139533333Y-65733333D01*
X139666667Y-65666666D01*
X140066667Y-65666666D01*
X140200000Y-65733333D01*
X140266667Y-65799999D01*
X140333333Y-65933333D01*
X140333333Y-66133333D01*
X139400000Y-65066666D02*
X140333333Y-65066666D01*
X139533333Y-65066666D02*
X139466667Y-64999999D01*
X139400000Y-64866666D01*
X139400000Y-64666666D01*
X139466667Y-64533332D01*
X139600000Y-64466666D01*
X140333333Y-64466666D01*
X140333333Y-63799999D02*
X138933333Y-63799999D01*
X139600000Y-63799999D02*
X139600000Y-62999999D01*
X140333333Y-62999999D02*
X138933333Y-62999999D01*
X140800000Y-60933331D02*
X138800000Y-60933331D01*
X139400000Y-58999998D02*
X140333333Y-58666665D01*
X139400000Y-58333331D01*
X140333333Y-57066664D02*
X140333333Y-57866664D01*
X140333333Y-57466664D02*
X138933333Y-57466664D01*
X139133333Y-57599998D01*
X139266667Y-57733331D01*
X139333333Y-57866664D01*
X140200000Y-56466665D02*
X140266667Y-56399998D01*
X140333333Y-56466665D01*
X140266667Y-56533331D01*
X140200000Y-56466665D01*
X140333333Y-56466665D01*
X140333333Y-55066664D02*
X140333333Y-55866664D01*
X140333333Y-55466664D02*
X138933333Y-55466664D01*
X139133333Y-55599998D01*
X139266667Y-55733331D01*
X139333333Y-55866664D01*
D14*
X139686000Y-52800000D02*
G75*
G03X139686000Y-52800000I-2286000J0D01*
G01*
X139686000Y-126600000D02*
G75*
G03X139686000Y-126600000I-2286000J0D01*
G01*
X104286000Y-126600000D02*
G75*
G03X104286000Y-126600000I-2286000J0D01*
G01*
X122150000Y-104000000D02*
X117850000Y-104000000D01*
X117850000Y-104000000D02*
X117850000Y-111300000D01*
X122150000Y-104000000D02*
X122150000Y-111300000D01*
X119000000Y-98750000D02*
X119000000Y-103050000D01*
X119000000Y-103050000D02*
X126300000Y-103050000D01*
X119000000Y-98750000D02*
X126300000Y-98750000D01*
X109100000Y-94150000D02*
X109100000Y-89850000D01*
X109100000Y-89850000D02*
X101800000Y-89850000D01*
X109100000Y-94150000D02*
X101800000Y-94150000D01*
X109400000Y-89850000D02*
X109400000Y-94150000D01*
X109400000Y-94150000D02*
X116700000Y-94150000D01*
X109400000Y-89850000D02*
X116700000Y-89850000D01*
X112100000Y-119270000D02*
X110100000Y-119270000D01*
X110100000Y-117130000D02*
X112100000Y-117130000D01*
X99610000Y-114870000D02*
X99610000Y-122610000D01*
X99610000Y-122610000D02*
X102390000Y-122610000D01*
X102390000Y-122610000D02*
X102390000Y-114870000D01*
X102390000Y-114870000D02*
X99610000Y-114870000D01*
X99610000Y-113600000D02*
X99610000Y-112210000D01*
X99610000Y-112210000D02*
X101000000Y-112210000D01*
X106600000Y-127800000D02*
X114600000Y-127800000D01*
X106600000Y-120480000D02*
X114600000Y-120480000D01*
X114600000Y-120480000D02*
X114600000Y-127800000D01*
X114600000Y-127180000D02*
X106600000Y-127180000D01*
X106600000Y-127800000D02*
X106600000Y-120480000D01*
X122530000Y-125910000D02*
X117330000Y-125910000D01*
X117330000Y-125910000D02*
X117330000Y-128690000D01*
X117330000Y-128690000D02*
X122530000Y-128690000D01*
X122530000Y-128690000D02*
X122530000Y-125910000D01*
X123800000Y-125910000D02*
X125190000Y-125910000D01*
X125190000Y-125910000D02*
X125190000Y-127300000D01*
X130370000Y-128690000D02*
X133030000Y-128690000D01*
X133030000Y-128690000D02*
X133030000Y-125910000D01*
X133030000Y-125910000D02*
X130370000Y-125910000D01*
X130370000Y-125910000D02*
X130370000Y-128690000D01*
X129100000Y-128690000D02*
X127710000Y-128690000D01*
X127710000Y-128690000D02*
X127710000Y-127300000D01*
X104280000Y-95240000D02*
X103350000Y-95240000D01*
X101120000Y-95240000D02*
X102050000Y-95240000D01*
X101120000Y-95240000D02*
X101120000Y-97400000D01*
X104280000Y-95240000D02*
X104280000Y-96700000D01*
X111180000Y-95240000D02*
X110250000Y-95240000D01*
X108020000Y-95240000D02*
X108950000Y-95240000D01*
X108020000Y-95240000D02*
X108020000Y-97400000D01*
X111180000Y-95240000D02*
X111180000Y-96700000D01*
X132710000Y-110210000D02*
X132710000Y-108950000D01*
X132710000Y-103390000D02*
X132710000Y-104650000D01*
X128950000Y-110210000D02*
X132710000Y-110210000D01*
X126700000Y-103390000D02*
X132710000Y-103390000D01*
X107410000Y-111200000D02*
X107410000Y-109300000D01*
X105090000Y-109800000D02*
X105090000Y-111200000D01*
D15*
X139200000Y-104200000D02*
X139200000Y-103200000D01*
X137300000Y-104200000D02*
X137300000Y-103200000D01*
X139200000Y-118300000D02*
X139200000Y-117300000D01*
X137300000Y-118300000D02*
X137300000Y-117300000D01*
X127000000Y-51900000D02*
X126000000Y-51900000D01*
X127000000Y-53800000D02*
X126000000Y-53800000D01*
X112600000Y-51900000D02*
X111600000Y-51900000D01*
X112600000Y-53800000D02*
X111600000Y-53800000D01*
D14*
X133630000Y-99120000D02*
X130170000Y-99120000D01*
X133630000Y-102880000D02*
X130170000Y-102880000D01*
X105420000Y-116825000D02*
X105420000Y-115625000D01*
X106980000Y-115625000D02*
X106980000Y-116825000D01*
X103420000Y-116825000D02*
X103420000Y-115625000D01*
X104980000Y-115625000D02*
X104980000Y-116825000D01*
X124180000Y-105775000D02*
X124180000Y-106975000D01*
X122620000Y-106975000D02*
X122620000Y-105775000D01*
X112775000Y-113820000D02*
X113975000Y-113820000D01*
X113975000Y-115380000D02*
X112775000Y-115380000D01*
X126180000Y-104775000D02*
X126180000Y-105975000D01*
X124620000Y-105975000D02*
X124620000Y-104775000D01*
X117020000Y-102625000D02*
X117020000Y-101425000D01*
X118580000Y-101425000D02*
X118580000Y-102625000D01*
X109520000Y-102625000D02*
X109520000Y-101425000D01*
X111080000Y-101425000D02*
X111080000Y-102625000D01*
X121425000Y-123580000D02*
X120225000Y-123580000D01*
X120225000Y-122020000D02*
X121425000Y-122020000D01*
X106530000Y-100875000D02*
X106530000Y-102075000D01*
X104970000Y-102075000D02*
X104970000Y-100875000D01*
X120380000Y-116275000D02*
X120380000Y-117475000D01*
X118820000Y-117475000D02*
X118820000Y-116275000D01*
X99120000Y-96625000D02*
X99120000Y-95425000D01*
X100680000Y-95425000D02*
X100680000Y-96625000D01*
X107580000Y-95375000D02*
X107580000Y-96575000D01*
X106020000Y-96575000D02*
X106020000Y-95375000D01*
D11*
X104505000Y-103205000D02*
X104505000Y-98005000D01*
X104505000Y-111005000D02*
X104505000Y-105805000D01*
X99505000Y-111005000D02*
X99505000Y-98005000D01*
X99505000Y-98005000D02*
X104505000Y-98005000D01*
X104505000Y-111005000D02*
X99505000Y-111005000D01*
D14*
X103830000Y-106405000D02*
X103830000Y-101205000D01*
X103830000Y-101205000D02*
X100180000Y-101205000D01*
X100180000Y-101205000D02*
X100180000Y-107795000D01*
X100180000Y-107795000D02*
X102005000Y-107795000D01*
X102005000Y-107795000D02*
X102005000Y-106405000D01*
X102005000Y-106405000D02*
X103830000Y-106405000D01*
X103830000Y-107040000D02*
X103830000Y-107795000D01*
X103830000Y-107795000D02*
X102640000Y-107795000D01*
X104286000Y-52800000D02*
G75*
G03X104286000Y-52800000I-2286000J0D01*
G01*
D16*
X112200000Y-96705000D02*
X115820000Y-96705000D01*
X112000000Y-102535000D02*
X112000000Y-98815000D01*
X112200000Y-104725000D02*
X115980000Y-104725000D01*
X115980000Y-104725000D02*
X115980000Y-104305000D01*
X115980000Y-104305000D02*
X116480000Y-104305000D01*
X115940000Y-98785000D02*
X115940000Y-102595000D01*
X115940000Y-102595000D02*
X116450000Y-102595000D01*
X116450000Y-102595000D02*
X116480000Y-102595000D01*
X117050000Y-107525000D02*
X117025000Y-107525000D01*
X117050000Y-111675000D02*
X116935000Y-111675000D01*
X108150000Y-111675000D02*
X108265000Y-111675000D01*
X108150000Y-107525000D02*
X108265000Y-107525000D01*
X117050000Y-107525000D02*
X117050000Y-111675000D01*
X108150000Y-107525000D02*
X108150000Y-111675000D01*
X117025000Y-107525000D02*
X117025000Y-106150000D01*
D14*
X120175000Y-123920000D02*
X121375000Y-123920000D01*
X121375000Y-125480000D02*
X120175000Y-125480000D01*
X103420000Y-121525000D02*
X103420000Y-120325000D01*
X104980000Y-120325000D02*
X104980000Y-121525000D01*
X117220000Y-123325000D02*
X117220000Y-122125000D01*
X118780000Y-122125000D02*
X118780000Y-123325000D01*
X120175000Y-120120000D02*
X121375000Y-120120000D01*
X121375000Y-121680000D02*
X120175000Y-121680000D01*
D16*
X131571380Y-117610000D02*
G75*
G03X131571380Y-117610000I-2501380J0D01*
G01*
X123190520Y-118600760D02*
X123190520Y-116599240D01*
X124188740Y-117600000D02*
X122189760Y-117600000D01*
X136090240Y-117600000D02*
G75*
G03X136090240Y-117600000I-7000240J0D01*
G01*
D11*
X137850000Y-57700000D02*
X137850000Y-57200000D01*
X99850000Y-57700000D02*
X99850000Y-57200000D01*
X134240000Y-94570000D02*
X134240000Y-97070000D01*
X134240000Y-97070000D02*
X136240000Y-97070000D01*
X136240000Y-97070000D02*
X136240000Y-94570000D01*
X128100000Y-89200000D02*
X128100000Y-87700000D01*
X126100000Y-89200000D02*
X126100000Y-87700000D01*
X114600000Y-87700000D02*
X132100000Y-87700000D01*
X109350000Y-87700000D02*
X110850000Y-87700000D01*
X104350000Y-87700000D02*
X105600000Y-87700000D01*
X99850000Y-87700000D02*
X100850000Y-87700000D01*
X137850000Y-57700000D02*
X137850000Y-86450000D01*
X137850000Y-57200000D02*
X99850000Y-57200000D01*
X99850000Y-57700000D02*
X99850000Y-87700000D01*
D16*
X119361905Y-114452381D02*
X119361905Y-113452381D01*
X119600000Y-113452381D01*
X119742858Y-113500000D01*
X119838096Y-113595238D01*
X119885715Y-113690476D01*
X119933334Y-113880952D01*
X119933334Y-114023810D01*
X119885715Y-114214286D01*
X119838096Y-114309524D01*
X119742858Y-114404762D01*
X119600000Y-114452381D01*
X119361905Y-114452381D01*
X120885715Y-114452381D02*
X120314286Y-114452381D01*
X120600000Y-114452381D02*
X120600000Y-113452381D01*
X120504762Y-113595238D01*
X120409524Y-113690476D01*
X120314286Y-113738095D01*
X121561905Y-98452381D02*
X121561905Y-97452381D01*
X121800000Y-97452381D01*
X121942858Y-97500000D01*
X122038096Y-97595238D01*
X122085715Y-97690476D01*
X122133334Y-97880952D01*
X122133334Y-98023810D01*
X122085715Y-98214286D01*
X122038096Y-98309524D01*
X121942858Y-98404762D01*
X121800000Y-98452381D01*
X121561905Y-98452381D01*
X122514286Y-97547619D02*
X122561905Y-97500000D01*
X122657143Y-97452381D01*
X122895239Y-97452381D01*
X122990477Y-97500000D01*
X123038096Y-97547619D01*
X123085715Y-97642857D01*
X123085715Y-97738095D01*
X123038096Y-97880952D01*
X122466667Y-98452381D01*
X123085715Y-98452381D01*
X99552381Y-91238095D02*
X98552381Y-91238095D01*
X98552381Y-91000000D01*
X98600000Y-90857142D01*
X98695238Y-90761904D01*
X98790476Y-90714285D01*
X98980952Y-90666666D01*
X99123810Y-90666666D01*
X99314286Y-90714285D01*
X99409524Y-90761904D01*
X99504762Y-90857142D01*
X99552381Y-91000000D01*
X99552381Y-91238095D01*
X98552381Y-90333333D02*
X98552381Y-89714285D01*
X98933333Y-90047619D01*
X98933333Y-89904761D01*
X98980952Y-89809523D01*
X99028571Y-89761904D01*
X99123810Y-89714285D01*
X99361905Y-89714285D01*
X99457143Y-89761904D01*
X99504762Y-89809523D01*
X99552381Y-89904761D01*
X99552381Y-90190476D01*
X99504762Y-90285714D01*
X99457143Y-90333333D01*
X119752381Y-92638095D02*
X118752381Y-92638095D01*
X118752381Y-92400000D01*
X118800000Y-92257142D01*
X118895238Y-92161904D01*
X118990476Y-92114285D01*
X119180952Y-92066666D01*
X119323810Y-92066666D01*
X119514286Y-92114285D01*
X119609524Y-92161904D01*
X119704762Y-92257142D01*
X119752381Y-92400000D01*
X119752381Y-92638095D01*
X119085714Y-91209523D02*
X119752381Y-91209523D01*
X118704762Y-91447619D02*
X119419048Y-91685714D01*
X119419048Y-91066666D01*
X115428571Y-118533333D02*
X115428571Y-118866667D01*
X115952381Y-118866667D02*
X114952381Y-118866667D01*
X114952381Y-118390476D01*
X115952381Y-117485714D02*
X115952381Y-118057143D01*
X115952381Y-117771429D02*
X114952381Y-117771429D01*
X115095238Y-117866667D01*
X115190476Y-117961905D01*
X115238095Y-118057143D01*
X103852381Y-113338095D02*
X102852381Y-113338095D01*
X102852381Y-112957142D01*
X102900000Y-112861904D01*
X102947619Y-112814285D01*
X103042857Y-112766666D01*
X103185714Y-112766666D01*
X103280952Y-112814285D01*
X103328571Y-112861904D01*
X103376190Y-112957142D01*
X103376190Y-113338095D01*
X103852381Y-111814285D02*
X103852381Y-112385714D01*
X103852381Y-112100000D02*
X102852381Y-112100000D01*
X102995238Y-112195238D01*
X103090476Y-112290476D01*
X103138095Y-112385714D01*
X106152381Y-125638095D02*
X105152381Y-125638095D01*
X105152381Y-125257142D01*
X105200000Y-125161904D01*
X105247619Y-125114285D01*
X105342857Y-125066666D01*
X105485714Y-125066666D01*
X105580952Y-125114285D01*
X105628571Y-125161904D01*
X105676190Y-125257142D01*
X105676190Y-125638095D01*
X105247619Y-124685714D02*
X105200000Y-124638095D01*
X105152381Y-124542857D01*
X105152381Y-124304761D01*
X105200000Y-124209523D01*
X105247619Y-124161904D01*
X105342857Y-124114285D01*
X105438095Y-124114285D01*
X105580952Y-124161904D01*
X106152381Y-124733333D01*
X106152381Y-124114285D01*
X123461905Y-130052381D02*
X123461905Y-129052381D01*
X123842858Y-129052381D01*
X123938096Y-129100000D01*
X123985715Y-129147619D01*
X124033334Y-129242857D01*
X124033334Y-129385714D01*
X123985715Y-129480952D01*
X123938096Y-129528571D01*
X123842858Y-129576190D01*
X123461905Y-129576190D01*
X124890477Y-129385714D02*
X124890477Y-130052381D01*
X124652381Y-129004762D02*
X124414286Y-129719048D01*
X125033334Y-129719048D01*
X128261905Y-130052381D02*
X128261905Y-129052381D01*
X128642858Y-129052381D01*
X128738096Y-129100000D01*
X128785715Y-129147619D01*
X128833334Y-129242857D01*
X128833334Y-129385714D01*
X128785715Y-129480952D01*
X128738096Y-129528571D01*
X128642858Y-129576190D01*
X128261905Y-129576190D01*
X129738096Y-129052381D02*
X129261905Y-129052381D01*
X129214286Y-129528571D01*
X129261905Y-129480952D01*
X129357143Y-129433333D01*
X129595239Y-129433333D01*
X129690477Y-129480952D01*
X129738096Y-129528571D01*
X129785715Y-129623810D01*
X129785715Y-129861905D01*
X129738096Y-129957143D01*
X129690477Y-130004762D01*
X129595239Y-130052381D01*
X129357143Y-130052381D01*
X129261905Y-130004762D01*
X129214286Y-129957143D01*
X105647619Y-97095238D02*
X105600000Y-97190476D01*
X105504762Y-97285714D01*
X105361905Y-97428571D01*
X105314286Y-97523810D01*
X105314286Y-97619048D01*
X105552381Y-97571429D02*
X105504762Y-97666667D01*
X105409524Y-97761905D01*
X105219048Y-97809524D01*
X104885714Y-97809524D01*
X104695238Y-97761905D01*
X104600000Y-97666667D01*
X104552381Y-97571429D01*
X104552381Y-97380952D01*
X104600000Y-97285714D01*
X104695238Y-97190476D01*
X104885714Y-97142857D01*
X105219048Y-97142857D01*
X105409524Y-97190476D01*
X105504762Y-97285714D01*
X105552381Y-97380952D01*
X105552381Y-97571429D01*
X105552381Y-96190476D02*
X105552381Y-96761905D01*
X105552381Y-96476191D02*
X104552381Y-96476191D01*
X104695238Y-96571429D01*
X104790476Y-96666667D01*
X104838095Y-96761905D01*
X109204762Y-98947619D02*
X109109524Y-98900000D01*
X109014286Y-98804762D01*
X108871429Y-98661905D01*
X108776190Y-98614286D01*
X108680952Y-98614286D01*
X108728571Y-98852381D02*
X108633333Y-98804762D01*
X108538095Y-98709524D01*
X108490476Y-98519048D01*
X108490476Y-98185714D01*
X108538095Y-97995238D01*
X108633333Y-97900000D01*
X108728571Y-97852381D01*
X108919048Y-97852381D01*
X109014286Y-97900000D01*
X109109524Y-97995238D01*
X109157143Y-98185714D01*
X109157143Y-98519048D01*
X109109524Y-98709524D01*
X109014286Y-98804762D01*
X108919048Y-98852381D01*
X108728571Y-98852381D01*
X109538095Y-97947619D02*
X109585714Y-97900000D01*
X109680952Y-97852381D01*
X109919048Y-97852381D01*
X110014286Y-97900000D01*
X110061905Y-97947619D01*
X110109524Y-98042857D01*
X110109524Y-98138095D01*
X110061905Y-98280952D01*
X109490476Y-98852381D01*
X110109524Y-98852381D01*
X133338095Y-109252381D02*
X133338095Y-110061905D01*
X133385714Y-110157143D01*
X133433333Y-110204762D01*
X133528571Y-110252381D01*
X133719048Y-110252381D01*
X133814286Y-110204762D01*
X133861905Y-110157143D01*
X133909524Y-110061905D01*
X133909524Y-109252381D01*
X134909524Y-110252381D02*
X134338095Y-110252381D01*
X134623809Y-110252381D02*
X134623809Y-109252381D01*
X134528571Y-109395238D01*
X134433333Y-109490476D01*
X134338095Y-109538095D01*
X104840476Y-113052381D02*
X105507143Y-113052381D01*
X104840476Y-114052381D01*
X105507143Y-114052381D01*
X105888095Y-114052381D02*
X105888095Y-113052381D01*
X106126190Y-113052381D01*
X106269048Y-113100000D01*
X106364286Y-113195238D01*
X106411905Y-113290476D01*
X106459524Y-113480952D01*
X106459524Y-113623810D01*
X106411905Y-113814286D01*
X106364286Y-113909524D01*
X106269048Y-114004762D01*
X106126190Y-114052381D01*
X105888095Y-114052381D01*
X107411905Y-114052381D02*
X106840476Y-114052381D01*
X107126190Y-114052381D02*
X107126190Y-113052381D01*
X107030952Y-113195238D01*
X106935714Y-113290476D01*
X106840476Y-113338095D01*
X136861905Y-98252381D02*
X136861905Y-97252381D01*
X137242858Y-97252381D01*
X137338096Y-97300000D01*
X137385715Y-97347619D01*
X137433334Y-97442857D01*
X137433334Y-97585714D01*
X137385715Y-97680952D01*
X137338096Y-97728571D01*
X137242858Y-97776190D01*
X136861905Y-97776190D01*
X138290477Y-97252381D02*
X138100000Y-97252381D01*
X138004762Y-97300000D01*
X137957143Y-97347619D01*
X137861905Y-97490476D01*
X137814286Y-97680952D01*
X137814286Y-98061905D01*
X137861905Y-98157143D01*
X137909524Y-98204762D01*
X138004762Y-98252381D01*
X138195239Y-98252381D01*
X138290477Y-98204762D01*
X138338096Y-98157143D01*
X138385715Y-98061905D01*
X138385715Y-97823810D01*
X138338096Y-97728571D01*
X138290477Y-97680952D01*
X138195239Y-97633333D01*
X138004762Y-97633333D01*
X137909524Y-97680952D01*
X137861905Y-97728571D01*
X137814286Y-97823810D01*
X135752381Y-123638095D02*
X134752381Y-123638095D01*
X134752381Y-123257142D01*
X134800000Y-123161904D01*
X134847619Y-123114285D01*
X134942857Y-123066666D01*
X135085714Y-123066666D01*
X135180952Y-123114285D01*
X135228571Y-123161904D01*
X135276190Y-123257142D01*
X135276190Y-123638095D01*
X134752381Y-122733333D02*
X134752381Y-122066666D01*
X135752381Y-122495238D01*
X125761905Y-50552381D02*
X125761905Y-49552381D01*
X126142858Y-49552381D01*
X126238096Y-49600000D01*
X126285715Y-49647619D01*
X126333334Y-49742857D01*
X126333334Y-49885714D01*
X126285715Y-49980952D01*
X126238096Y-50028571D01*
X126142858Y-50076190D01*
X125761905Y-50076190D01*
X126904762Y-49980952D02*
X126809524Y-49933333D01*
X126761905Y-49885714D01*
X126714286Y-49790476D01*
X126714286Y-49742857D01*
X126761905Y-49647619D01*
X126809524Y-49600000D01*
X126904762Y-49552381D01*
X127095239Y-49552381D01*
X127190477Y-49600000D01*
X127238096Y-49647619D01*
X127285715Y-49742857D01*
X127285715Y-49790476D01*
X127238096Y-49885714D01*
X127190477Y-49933333D01*
X127095239Y-49980952D01*
X126904762Y-49980952D01*
X126809524Y-50028571D01*
X126761905Y-50076190D01*
X126714286Y-50171429D01*
X126714286Y-50361905D01*
X126761905Y-50457143D01*
X126809524Y-50504762D01*
X126904762Y-50552381D01*
X127095239Y-50552381D01*
X127190477Y-50504762D01*
X127238096Y-50457143D01*
X127285715Y-50361905D01*
X127285715Y-50171429D01*
X127238096Y-50076190D01*
X127190477Y-50028571D01*
X127095239Y-49980952D01*
X111361905Y-50352381D02*
X111361905Y-49352381D01*
X111742858Y-49352381D01*
X111838096Y-49400000D01*
X111885715Y-49447619D01*
X111933334Y-49542857D01*
X111933334Y-49685714D01*
X111885715Y-49780952D01*
X111838096Y-49828571D01*
X111742858Y-49876190D01*
X111361905Y-49876190D01*
X112409524Y-50352381D02*
X112600000Y-50352381D01*
X112695239Y-50304762D01*
X112742858Y-50257143D01*
X112838096Y-50114286D01*
X112885715Y-49923810D01*
X112885715Y-49542857D01*
X112838096Y-49447619D01*
X112790477Y-49400000D01*
X112695239Y-49352381D01*
X112504762Y-49352381D01*
X112409524Y-49400000D01*
X112361905Y-49447619D01*
X112314286Y-49542857D01*
X112314286Y-49780952D01*
X112361905Y-49876190D01*
X112409524Y-49923810D01*
X112504762Y-49971429D01*
X112695239Y-49971429D01*
X112790477Y-49923810D01*
X112838096Y-49876190D01*
X112885715Y-49780952D01*
X132066667Y-98328571D02*
X131733333Y-98328571D01*
X131733333Y-98852381D02*
X131733333Y-97852381D01*
X132209524Y-97852381D01*
X132542857Y-97947619D02*
X132590476Y-97900000D01*
X132685714Y-97852381D01*
X132923810Y-97852381D01*
X133019048Y-97900000D01*
X133066667Y-97947619D01*
X133114286Y-98042857D01*
X133114286Y-98138095D01*
X133066667Y-98280952D01*
X132495238Y-98852381D01*
X133114286Y-98852381D01*
X106233334Y-119052381D02*
X105900000Y-118576190D01*
X105661905Y-119052381D02*
X105661905Y-118052381D01*
X106042858Y-118052381D01*
X106138096Y-118100000D01*
X106185715Y-118147619D01*
X106233334Y-118242857D01*
X106233334Y-118385714D01*
X106185715Y-118480952D01*
X106138096Y-118528571D01*
X106042858Y-118576190D01*
X105661905Y-118576190D01*
X107185715Y-119052381D02*
X106614286Y-119052381D01*
X106900000Y-119052381D02*
X106900000Y-118052381D01*
X106804762Y-118195238D01*
X106709524Y-118290476D01*
X106614286Y-118338095D01*
X104033334Y-119052381D02*
X103700000Y-118576190D01*
X103461905Y-119052381D02*
X103461905Y-118052381D01*
X103842858Y-118052381D01*
X103938096Y-118100000D01*
X103985715Y-118147619D01*
X104033334Y-118242857D01*
X104033334Y-118385714D01*
X103985715Y-118480952D01*
X103938096Y-118528571D01*
X103842858Y-118576190D01*
X103461905Y-118576190D01*
X104414286Y-118147619D02*
X104461905Y-118100000D01*
X104557143Y-118052381D01*
X104795239Y-118052381D01*
X104890477Y-118100000D01*
X104938096Y-118147619D01*
X104985715Y-118242857D01*
X104985715Y-118338095D01*
X104938096Y-118480952D01*
X104366667Y-119052381D01*
X104985715Y-119052381D01*
X123757143Y-109266666D02*
X123804762Y-109314285D01*
X123852381Y-109457142D01*
X123852381Y-109552380D01*
X123804762Y-109695238D01*
X123709524Y-109790476D01*
X123614286Y-109838095D01*
X123423810Y-109885714D01*
X123280952Y-109885714D01*
X123090476Y-109838095D01*
X122995238Y-109790476D01*
X122900000Y-109695238D01*
X122852381Y-109552380D01*
X122852381Y-109457142D01*
X122900000Y-109314285D01*
X122947619Y-109266666D01*
X123852381Y-108314285D02*
X123852381Y-108885714D01*
X123852381Y-108600000D02*
X122852381Y-108600000D01*
X122995238Y-108695238D01*
X123090476Y-108790476D01*
X123138095Y-108885714D01*
X110633334Y-114957143D02*
X110585715Y-115004762D01*
X110442858Y-115052381D01*
X110347620Y-115052381D01*
X110204762Y-115004762D01*
X110109524Y-114909524D01*
X110061905Y-114814286D01*
X110014286Y-114623810D01*
X110014286Y-114480952D01*
X110061905Y-114290476D01*
X110109524Y-114195238D01*
X110204762Y-114100000D01*
X110347620Y-114052381D01*
X110442858Y-114052381D01*
X110585715Y-114100000D01*
X110633334Y-114147619D01*
X111014286Y-114147619D02*
X111061905Y-114100000D01*
X111157143Y-114052381D01*
X111395239Y-114052381D01*
X111490477Y-114100000D01*
X111538096Y-114147619D01*
X111585715Y-114242857D01*
X111585715Y-114338095D01*
X111538096Y-114480952D01*
X110966667Y-115052381D01*
X111585715Y-115052381D01*
X125857143Y-108366666D02*
X125904762Y-108414285D01*
X125952381Y-108557142D01*
X125952381Y-108652380D01*
X125904762Y-108795238D01*
X125809524Y-108890476D01*
X125714286Y-108938095D01*
X125523810Y-108985714D01*
X125380952Y-108985714D01*
X125190476Y-108938095D01*
X125095238Y-108890476D01*
X125000000Y-108795238D01*
X124952381Y-108652380D01*
X124952381Y-108557142D01*
X125000000Y-108414285D01*
X125047619Y-108366666D01*
X124952381Y-108033333D02*
X124952381Y-107414285D01*
X125333333Y-107747619D01*
X125333333Y-107604761D01*
X125380952Y-107509523D01*
X125428571Y-107461904D01*
X125523810Y-107414285D01*
X125761905Y-107414285D01*
X125857143Y-107461904D01*
X125904762Y-107509523D01*
X125952381Y-107604761D01*
X125952381Y-107890476D01*
X125904762Y-107985714D01*
X125857143Y-108033333D01*
X117633334Y-100057143D02*
X117585715Y-100104762D01*
X117442858Y-100152381D01*
X117347620Y-100152381D01*
X117204762Y-100104762D01*
X117109524Y-100009524D01*
X117061905Y-99914286D01*
X117014286Y-99723810D01*
X117014286Y-99580952D01*
X117061905Y-99390476D01*
X117109524Y-99295238D01*
X117204762Y-99200000D01*
X117347620Y-99152381D01*
X117442858Y-99152381D01*
X117585715Y-99200000D01*
X117633334Y-99247619D01*
X118490477Y-99485714D02*
X118490477Y-100152381D01*
X118252381Y-99104762D02*
X118014286Y-99819048D01*
X118633334Y-99819048D01*
X110133334Y-100057143D02*
X110085715Y-100104762D01*
X109942858Y-100152381D01*
X109847620Y-100152381D01*
X109704762Y-100104762D01*
X109609524Y-100009524D01*
X109561905Y-99914286D01*
X109514286Y-99723810D01*
X109514286Y-99580952D01*
X109561905Y-99390476D01*
X109609524Y-99295238D01*
X109704762Y-99200000D01*
X109847620Y-99152381D01*
X109942858Y-99152381D01*
X110085715Y-99200000D01*
X110133334Y-99247619D01*
X111038096Y-99152381D02*
X110561905Y-99152381D01*
X110514286Y-99628571D01*
X110561905Y-99580952D01*
X110657143Y-99533333D01*
X110895239Y-99533333D01*
X110990477Y-99580952D01*
X111038096Y-99628571D01*
X111085715Y-99723810D01*
X111085715Y-99961905D01*
X111038096Y-100057143D01*
X110990477Y-100104762D01*
X110895239Y-100152381D01*
X110657143Y-100152381D01*
X110561905Y-100104762D01*
X110514286Y-100057143D01*
X123233334Y-123657143D02*
X123185715Y-123704762D01*
X123042858Y-123752381D01*
X122947620Y-123752381D01*
X122804762Y-123704762D01*
X122709524Y-123609524D01*
X122661905Y-123514286D01*
X122614286Y-123323810D01*
X122614286Y-123180952D01*
X122661905Y-122990476D01*
X122709524Y-122895238D01*
X122804762Y-122800000D01*
X122947620Y-122752381D01*
X123042858Y-122752381D01*
X123185715Y-122800000D01*
X123233334Y-122847619D01*
X124090477Y-122752381D02*
X123900000Y-122752381D01*
X123804762Y-122800000D01*
X123757143Y-122847619D01*
X123661905Y-122990476D01*
X123614286Y-123180952D01*
X123614286Y-123561905D01*
X123661905Y-123657143D01*
X123709524Y-123704762D01*
X123804762Y-123752381D01*
X123995239Y-123752381D01*
X124090477Y-123704762D01*
X124138096Y-123657143D01*
X124185715Y-123561905D01*
X124185715Y-123323810D01*
X124138096Y-123228571D01*
X124090477Y-123180952D01*
X123995239Y-123133333D01*
X123804762Y-123133333D01*
X123709524Y-123180952D01*
X123661905Y-123228571D01*
X123614286Y-123323810D01*
X105633334Y-104452381D02*
X105300000Y-103976190D01*
X105061905Y-104452381D02*
X105061905Y-103452381D01*
X105442858Y-103452381D01*
X105538096Y-103500000D01*
X105585715Y-103547619D01*
X105633334Y-103642857D01*
X105633334Y-103785714D01*
X105585715Y-103880952D01*
X105538096Y-103928571D01*
X105442858Y-103976190D01*
X105061905Y-103976190D01*
X105966667Y-103452381D02*
X106585715Y-103452381D01*
X106252381Y-103833333D01*
X106395239Y-103833333D01*
X106490477Y-103880952D01*
X106538096Y-103928571D01*
X106585715Y-104023810D01*
X106585715Y-104261905D01*
X106538096Y-104357143D01*
X106490477Y-104404762D01*
X106395239Y-104452381D01*
X106109524Y-104452381D01*
X106014286Y-104404762D01*
X105966667Y-104357143D01*
X118552381Y-117166666D02*
X118076190Y-117500000D01*
X118552381Y-117738095D02*
X117552381Y-117738095D01*
X117552381Y-117357142D01*
X117600000Y-117261904D01*
X117647619Y-117214285D01*
X117742857Y-117166666D01*
X117885714Y-117166666D01*
X117980952Y-117214285D01*
X118028571Y-117261904D01*
X118076190Y-117357142D01*
X118076190Y-117738095D01*
X117885714Y-116309523D02*
X118552381Y-116309523D01*
X117504762Y-116547619D02*
X118219048Y-116785714D01*
X118219048Y-116166666D01*
X99552381Y-93566666D02*
X99076190Y-93900000D01*
X99552381Y-94138095D02*
X98552381Y-94138095D01*
X98552381Y-93757142D01*
X98600000Y-93661904D01*
X98647619Y-93614285D01*
X98742857Y-93566666D01*
X98885714Y-93566666D01*
X98980952Y-93614285D01*
X99028571Y-93661904D01*
X99076190Y-93757142D01*
X99076190Y-94138095D01*
X98552381Y-92661904D02*
X98552381Y-93138095D01*
X99028571Y-93185714D01*
X98980952Y-93138095D01*
X98933333Y-93042857D01*
X98933333Y-92804761D01*
X98980952Y-92709523D01*
X99028571Y-92661904D01*
X99123810Y-92614285D01*
X99361905Y-92614285D01*
X99457143Y-92661904D01*
X99504762Y-92709523D01*
X99552381Y-92804761D01*
X99552381Y-93042857D01*
X99504762Y-93138095D01*
X99457143Y-93185714D01*
X106433334Y-98852381D02*
X106100000Y-98376190D01*
X105861905Y-98852381D02*
X105861905Y-97852381D01*
X106242858Y-97852381D01*
X106338096Y-97900000D01*
X106385715Y-97947619D01*
X106433334Y-98042857D01*
X106433334Y-98185714D01*
X106385715Y-98280952D01*
X106338096Y-98328571D01*
X106242858Y-98376190D01*
X105861905Y-98376190D01*
X107290477Y-97852381D02*
X107100000Y-97852381D01*
X107004762Y-97900000D01*
X106957143Y-97947619D01*
X106861905Y-98090476D01*
X106814286Y-98280952D01*
X106814286Y-98661905D01*
X106861905Y-98757143D01*
X106909524Y-98804762D01*
X107004762Y-98852381D01*
X107195239Y-98852381D01*
X107290477Y-98804762D01*
X107338096Y-98757143D01*
X107385715Y-98661905D01*
X107385715Y-98423810D01*
X107338096Y-98328571D01*
X107290477Y-98280952D01*
X107195239Y-98233333D01*
X107004762Y-98233333D01*
X106909524Y-98280952D01*
X106861905Y-98328571D01*
X106814286Y-98423810D01*
X105952381Y-107738095D02*
X104952381Y-107738095D01*
X104952381Y-107357142D01*
X105000000Y-107261904D01*
X105047619Y-107214285D01*
X105142857Y-107166666D01*
X105285714Y-107166666D01*
X105380952Y-107214285D01*
X105428571Y-107261904D01*
X105476190Y-107357142D01*
X105476190Y-107738095D01*
X104952381Y-106833333D02*
X104952381Y-106214285D01*
X105333333Y-106547619D01*
X105333333Y-106404761D01*
X105380952Y-106309523D01*
X105428571Y-106261904D01*
X105523810Y-106214285D01*
X105761905Y-106214285D01*
X105857143Y-106261904D01*
X105904762Y-106309523D01*
X105952381Y-106404761D01*
X105952381Y-106690476D01*
X105904762Y-106785714D01*
X105857143Y-106833333D01*
X114823809Y-95876190D02*
X114823809Y-96352381D01*
X114490476Y-95352381D02*
X114823809Y-95876190D01*
X115157143Y-95352381D01*
X116014286Y-96352381D02*
X115442857Y-96352381D01*
X115728571Y-96352381D02*
X115728571Y-95352381D01*
X115633333Y-95495238D01*
X115538095Y-95590476D01*
X115442857Y-95638095D01*
X116038095Y-104552381D02*
X116038095Y-105361905D01*
X116085714Y-105457143D01*
X116133333Y-105504762D01*
X116228571Y-105552381D01*
X116419048Y-105552381D01*
X116514286Y-105504762D01*
X116561905Y-105457143D01*
X116609524Y-105361905D01*
X116609524Y-104552381D01*
X117038095Y-104647619D02*
X117085714Y-104600000D01*
X117180952Y-104552381D01*
X117419048Y-104552381D01*
X117514286Y-104600000D01*
X117561905Y-104647619D01*
X117609524Y-104742857D01*
X117609524Y-104838095D01*
X117561905Y-104980952D01*
X116990476Y-105552381D01*
X117609524Y-105552381D01*
X123233334Y-125157143D02*
X123185715Y-125204762D01*
X123042858Y-125252381D01*
X122947620Y-125252381D01*
X122804762Y-125204762D01*
X122709524Y-125109524D01*
X122661905Y-125014286D01*
X122614286Y-124823810D01*
X122614286Y-124680952D01*
X122661905Y-124490476D01*
X122709524Y-124395238D01*
X122804762Y-124300000D01*
X122947620Y-124252381D01*
X123042858Y-124252381D01*
X123185715Y-124300000D01*
X123233334Y-124347619D01*
X123566667Y-124252381D02*
X124233334Y-124252381D01*
X123804762Y-125252381D01*
X104033334Y-123752381D02*
X103700000Y-123276190D01*
X103461905Y-123752381D02*
X103461905Y-122752381D01*
X103842858Y-122752381D01*
X103938096Y-122800000D01*
X103985715Y-122847619D01*
X104033334Y-122942857D01*
X104033334Y-123085714D01*
X103985715Y-123180952D01*
X103938096Y-123228571D01*
X103842858Y-123276190D01*
X103461905Y-123276190D01*
X104366667Y-122752381D02*
X105033334Y-122752381D01*
X104604762Y-123752381D01*
X117733334Y-120852381D02*
X117400000Y-120376190D01*
X117161905Y-120852381D02*
X117161905Y-119852381D01*
X117542858Y-119852381D01*
X117638096Y-119900000D01*
X117685715Y-119947619D01*
X117733334Y-120042857D01*
X117733334Y-120185714D01*
X117685715Y-120280952D01*
X117638096Y-120328571D01*
X117542858Y-120376190D01*
X117161905Y-120376190D01*
X118304762Y-120280952D02*
X118209524Y-120233333D01*
X118161905Y-120185714D01*
X118114286Y-120090476D01*
X118114286Y-120042857D01*
X118161905Y-119947619D01*
X118209524Y-119900000D01*
X118304762Y-119852381D01*
X118495239Y-119852381D01*
X118590477Y-119900000D01*
X118638096Y-119947619D01*
X118685715Y-120042857D01*
X118685715Y-120090476D01*
X118638096Y-120185714D01*
X118590477Y-120233333D01*
X118495239Y-120280952D01*
X118304762Y-120280952D01*
X118209524Y-120328571D01*
X118161905Y-120376190D01*
X118114286Y-120471429D01*
X118114286Y-120661905D01*
X118161905Y-120757143D01*
X118209524Y-120804762D01*
X118304762Y-120852381D01*
X118495239Y-120852381D01*
X118590477Y-120804762D01*
X118638096Y-120757143D01*
X118685715Y-120661905D01*
X118685715Y-120471429D01*
X118638096Y-120376190D01*
X118590477Y-120328571D01*
X118495239Y-120280952D01*
X120833334Y-119852381D02*
X120500000Y-119376190D01*
X120261905Y-119852381D02*
X120261905Y-118852381D01*
X120642858Y-118852381D01*
X120738096Y-118900000D01*
X120785715Y-118947619D01*
X120833334Y-119042857D01*
X120833334Y-119185714D01*
X120785715Y-119280952D01*
X120738096Y-119328571D01*
X120642858Y-119376190D01*
X120261905Y-119376190D01*
X121309524Y-119852381D02*
X121500000Y-119852381D01*
X121595239Y-119804762D01*
X121642858Y-119757143D01*
X121738096Y-119614286D01*
X121785715Y-119423810D01*
X121785715Y-119042857D01*
X121738096Y-118947619D01*
X121690477Y-118900000D01*
X121595239Y-118852381D01*
X121404762Y-118852381D01*
X121309524Y-118900000D01*
X121261905Y-118947619D01*
X121214286Y-119042857D01*
X121214286Y-119280952D01*
X121261905Y-119376190D01*
X121309524Y-119423810D01*
X121404762Y-119471429D01*
X121595239Y-119471429D01*
X121690477Y-119423810D01*
X121738096Y-119376190D01*
X121785715Y-119280952D01*
X121852381Y-117642857D02*
X121852381Y-118119048D01*
X120852381Y-118119048D01*
X121804762Y-117357143D02*
X121852381Y-117214286D01*
X121852381Y-116976190D01*
X121804762Y-116880952D01*
X121757143Y-116833333D01*
X121661905Y-116785714D01*
X121566667Y-116785714D01*
X121471429Y-116833333D01*
X121423810Y-116880952D01*
X121376190Y-116976190D01*
X121328571Y-117166667D01*
X121280952Y-117261905D01*
X121233333Y-117309524D01*
X121138095Y-117357143D01*
X121042857Y-117357143D01*
X120947619Y-117309524D01*
X120900000Y-117261905D01*
X120852381Y-117166667D01*
X120852381Y-116928571D01*
X120900000Y-116785714D01*
X121852381Y-115833333D02*
X121852381Y-116404762D01*
X121852381Y-116119048D02*
X120852381Y-116119048D01*
X120995238Y-116214286D01*
X121090476Y-116309524D01*
X121138095Y-116404762D01*
X103800000Y-56652381D02*
X103466666Y-56176190D01*
X103228571Y-56652381D02*
X103228571Y-55652381D01*
X103609524Y-55652381D01*
X103704762Y-55700000D01*
X103752381Y-55747619D01*
X103800000Y-55842857D01*
X103800000Y-55985714D01*
X103752381Y-56080952D01*
X103704762Y-56128571D01*
X103609524Y-56176190D01*
X103228571Y-56176190D01*
X104704762Y-56652381D02*
X104228571Y-56652381D01*
X104228571Y-55652381D01*
X105228571Y-56176190D02*
X105228571Y-56652381D01*
X104895238Y-55652381D02*
X105228571Y-56176190D01*
X105561905Y-55652381D01*
X106419048Y-56652381D02*
X105847619Y-56652381D01*
X106133333Y-56652381D02*
X106133333Y-55652381D01*
X106038095Y-55795238D01*
X105942857Y-55890476D01*
X105847619Y-55938095D01*
M02*
