G04 #@! TF.FileFunction,Copper,L2,Bot,Signal*
%FSLAX46Y46*%
G04 Gerber Fmt 4.6, Leading zero omitted, Abs format (unit mm)*
G04 Created by KiCad (PCBNEW 4.0.5-e0-6337~49~ubuntu16.04.1) date Sun Mar 26 23:32:04 2017*
%MOMM*%
%LPD*%
G01*
G04 APERTURE LIST*
%ADD10C,0.100000*%
%ADD11C,5.000000*%
%ADD12R,1.700000X1.700000*%
%ADD13O,1.700000X1.700000*%
%ADD14O,1.100000X1.500000*%
%ADD15O,1.200000X1.700000*%
%ADD16C,4.000000*%
%ADD17R,1.000000X1.000000*%
%ADD18O,1.000000X1.000000*%
%ADD19C,2.000000*%
%ADD20C,3.000000*%
%ADD21O,5.500000X8.500000*%
%ADD22C,1.000000*%
%ADD23C,1.000000*%
%ADD24C,0.600000*%
%ADD25C,0.300000*%
%ADD26C,2.500000*%
%ADD27C,1.700000*%
%ADD28C,0.800000*%
%ADD29C,0.400000*%
%ADD30C,2.000000*%
%ADD31C,0.254000*%
G04 APERTURE END LIST*
D10*
D11*
X137400000Y-52800000D03*
X137400000Y-126600000D03*
X102000000Y-126600000D03*
D12*
X101000000Y-113600000D03*
D13*
X101000000Y-116140000D03*
X101000000Y-118680000D03*
X101000000Y-121220000D03*
D14*
X108180000Y-121980000D03*
X113020000Y-121980000D03*
D15*
X107870000Y-124980000D03*
X113330000Y-124980000D03*
D12*
X123800000Y-127300000D03*
D13*
X121260000Y-127300000D03*
X118720000Y-127300000D03*
D12*
X129100000Y-127300000D03*
D13*
X131640000Y-127300000D03*
D16*
X138300000Y-106200000D03*
X138300000Y-101120000D03*
X138300000Y-120300000D03*
X138300000Y-115220000D03*
X129000000Y-52800000D03*
X123920000Y-52800000D03*
X114600000Y-52800000D03*
X109520000Y-52800000D03*
D17*
X102640000Y-107040000D03*
D18*
X101370000Y-107040000D03*
X102640000Y-105770000D03*
X101370000Y-105770000D03*
X102640000Y-104500000D03*
X101370000Y-104500000D03*
X102640000Y-103230000D03*
X101370000Y-103230000D03*
X102640000Y-101960000D03*
X101370000Y-101960000D03*
D11*
X102000000Y-52800000D03*
D19*
X130290000Y-117600000D03*
X132889840Y-117600000D03*
X125290160Y-117600000D03*
D20*
X102600000Y-87700000D03*
X107600000Y-87700000D03*
X112600000Y-87700000D03*
D21*
X126900000Y-93700000D03*
X135300000Y-90200000D03*
D22*
X130100000Y-104400000D03*
X104900000Y-95400000D03*
X113400000Y-95800000D03*
X106700000Y-107400000D03*
X112700000Y-116000000D03*
X123800000Y-111100000D03*
X114500000Y-116200000D03*
X108800000Y-109900000D03*
X104200000Y-110600000D03*
X116500000Y-115100000D03*
X118000000Y-113700000D03*
D23*
X138300000Y-120300000D02*
X135100000Y-120300000D01*
X135100000Y-120300000D02*
X134900000Y-120500000D01*
D24*
X107870000Y-124980000D02*
X105880000Y-124980000D01*
X105880000Y-124980000D02*
X105800000Y-124900000D01*
X130290000Y-117600000D02*
X130290000Y-120290000D01*
X130290000Y-120290000D02*
X130300000Y-120300000D01*
X130290000Y-117600000D02*
X130290000Y-114610000D01*
X130290000Y-114610000D02*
X130300000Y-114600000D01*
D25*
X116000000Y-113700000D02*
X115900000Y-113700000D01*
X116000000Y-116200000D02*
X116000000Y-117900000D01*
X115400000Y-115600000D02*
X116000000Y-116200000D01*
X115400000Y-114200000D02*
X115400000Y-115600000D01*
X115900000Y-113700000D02*
X115400000Y-114200000D01*
X116000000Y-113700000D02*
X116600000Y-113700000D01*
X121260000Y-124540000D02*
X126900000Y-118900000D01*
X126900000Y-118900000D02*
X126900000Y-116400000D01*
X126900000Y-116400000D02*
X123400000Y-112900000D01*
X123400000Y-112900000D02*
X118700000Y-112900000D01*
X118700000Y-112900000D02*
X118600000Y-112800000D01*
X118600000Y-112800000D02*
X116900000Y-112800000D01*
X116900000Y-112800000D02*
X116000000Y-113700000D01*
X121260000Y-127300000D02*
X121260000Y-124540000D01*
X116600000Y-113700000D02*
X118100000Y-115200000D01*
D24*
X130290000Y-117600000D02*
X132889840Y-117600000D01*
X121260000Y-127300000D02*
X121260000Y-129240000D01*
X115480000Y-124980000D02*
X113330000Y-124980000D01*
X116700000Y-126200000D02*
X115480000Y-124980000D01*
X116700000Y-128900000D02*
X116700000Y-126200000D01*
X117000000Y-129200000D02*
X116700000Y-128900000D01*
X121220000Y-129200000D02*
X117000000Y-129200000D01*
X121260000Y-129240000D02*
X121220000Y-129200000D01*
D26*
X138400000Y-119400000D02*
X138400000Y-114320000D01*
D23*
X130000000Y-105770000D02*
X130000000Y-104500000D01*
X130000000Y-104500000D02*
X130100000Y-104400000D01*
X113400000Y-95800000D02*
X113400000Y-104000000D01*
X113400000Y-104000000D02*
X115170000Y-105770000D01*
X104900000Y-95400000D02*
X105300000Y-95800000D01*
X105300000Y-95800000D02*
X113400000Y-95800000D01*
D27*
X138400000Y-114320000D02*
X136169840Y-114320000D01*
X136169840Y-114320000D02*
X132889840Y-117600000D01*
D28*
X106700000Y-107400000D02*
X106700000Y-105770000D01*
X106700000Y-105770000D02*
X106700000Y-105900000D01*
X106700000Y-105900000D02*
X106700000Y-105770000D01*
D23*
X102640000Y-105770000D02*
X106700000Y-105770000D01*
X106700000Y-105770000D02*
X109300000Y-105770000D01*
X109300000Y-105770000D02*
X115170000Y-105770000D01*
X115170000Y-105770000D02*
X130000000Y-105770000D01*
X130000000Y-105770000D02*
X131370000Y-105770000D01*
X131370000Y-105770000D02*
X138400000Y-112800000D01*
X138400000Y-112800000D02*
X138400000Y-114320000D01*
D24*
X113020000Y-116320000D02*
X113020000Y-121980000D01*
X112700000Y-116000000D02*
X113020000Y-116320000D01*
D28*
X102640000Y-105770000D02*
X102640000Y-104500000D01*
D24*
X101000000Y-121220000D02*
X107420000Y-121220000D01*
X107420000Y-121220000D02*
X108180000Y-121980000D01*
X108180000Y-121980000D02*
X113020000Y-121980000D01*
X113020000Y-121980000D02*
X113330000Y-122290000D01*
X113330000Y-122290000D02*
X113330000Y-124980000D01*
D28*
X123800000Y-111100000D02*
X127900000Y-115200000D01*
X127900000Y-126100000D02*
X129100000Y-127300000D01*
X127900000Y-115200000D02*
X127900000Y-126100000D01*
X116000000Y-111900000D02*
X114300000Y-113600000D01*
X123000000Y-111900000D02*
X116000000Y-111900000D01*
X123800000Y-111100000D02*
X123000000Y-111900000D01*
D23*
X114300000Y-113600000D02*
X114300000Y-116000000D01*
X114300000Y-116000000D02*
X114500000Y-116200000D01*
X101000000Y-113600000D02*
X114300000Y-113600000D01*
D28*
X101000000Y-113600000D02*
X101000000Y-109400000D01*
X102640000Y-107760000D02*
X102640000Y-107040000D01*
X101000000Y-109400000D02*
X102640000Y-107760000D01*
D25*
X104900000Y-109900000D02*
X108800000Y-109900000D01*
X104200000Y-110600000D02*
X104900000Y-109900000D01*
D29*
X118720000Y-117320000D02*
X118720000Y-127300000D01*
X116500000Y-115100000D02*
X118720000Y-117320000D01*
D26*
X138600000Y-101120000D02*
X138600000Y-106200000D01*
D30*
X135300000Y-89700000D02*
X135300000Y-69800000D01*
X129000000Y-63500000D02*
X129000000Y-52800000D01*
X135300000Y-69800000D02*
X129000000Y-63500000D01*
X126900000Y-93700000D02*
X126900000Y-75800000D01*
X114600000Y-63500000D02*
X114600000Y-52800000D01*
X126900000Y-75800000D02*
X114600000Y-63500000D01*
D29*
X121390160Y-113700000D02*
X125290160Y-117600000D01*
X118000000Y-113700000D02*
X121390160Y-113700000D01*
D31*
G36*
X114973000Y-63500000D02*
X114983006Y-63549410D01*
X115009077Y-63588668D01*
X126774528Y-75653241D01*
X127270600Y-92321240D01*
X124926171Y-93446565D01*
X121727000Y-90247394D01*
X121727000Y-84400000D01*
X121716994Y-84350590D01*
X121690149Y-84310545D01*
X108827000Y-71347682D01*
X108827000Y-54252606D01*
X110052606Y-53027000D01*
X114973000Y-53027000D01*
X114973000Y-63500000D01*
X114973000Y-63500000D01*
G37*
X114973000Y-63500000D02*
X114983006Y-63549410D01*
X115009077Y-63588668D01*
X126774528Y-75653241D01*
X127270600Y-92321240D01*
X124926171Y-93446565D01*
X121727000Y-90247394D01*
X121727000Y-84400000D01*
X121716994Y-84350590D01*
X121690149Y-84310545D01*
X108827000Y-71347682D01*
X108827000Y-54252606D01*
X110052606Y-53027000D01*
X114973000Y-53027000D01*
X114973000Y-63500000D01*
G36*
X129273089Y-60604759D02*
X129284940Y-60653760D01*
X129310197Y-60689803D01*
X137873000Y-69252606D01*
X137873000Y-87247394D01*
X135731396Y-89388998D01*
X133434302Y-90154696D01*
X129527000Y-86247394D01*
X129527000Y-74900000D01*
X129516994Y-74850590D01*
X129489803Y-74810197D01*
X123127000Y-68447394D01*
X123127000Y-53667968D01*
X124538452Y-52727000D01*
X128977673Y-52727000D01*
X129273089Y-60604759D01*
X129273089Y-60604759D01*
G37*
X129273089Y-60604759D02*
X129284940Y-60653760D01*
X129310197Y-60689803D01*
X137873000Y-69252606D01*
X137873000Y-87247394D01*
X135731396Y-89388998D01*
X133434302Y-90154696D01*
X129527000Y-86247394D01*
X129527000Y-74900000D01*
X129516994Y-74850590D01*
X129489803Y-74810197D01*
X123127000Y-68447394D01*
X123127000Y-53667968D01*
X124538452Y-52727000D01*
X128977673Y-52727000D01*
X129273089Y-60604759D01*
G36*
X100226485Y-50140727D02*
X99343826Y-51021847D01*
X98865546Y-52173674D01*
X98864457Y-53420854D01*
X99340727Y-54573515D01*
X100221847Y-55456174D01*
X101373674Y-55934454D01*
X102620854Y-55935543D01*
X103773515Y-55459273D01*
X104656174Y-54578153D01*
X105134454Y-53426326D01*
X105134545Y-53321834D01*
X106884543Y-53321834D01*
X107284853Y-54290658D01*
X108025443Y-55032542D01*
X108065000Y-55048967D01*
X108065000Y-71400000D01*
X108110754Y-71636672D01*
X108249257Y-71847276D01*
X120965000Y-84661591D01*
X120965000Y-90300000D01*
X121011672Y-90538946D01*
X121150987Y-90749013D01*
X123515000Y-93113026D01*
X123515000Y-95295703D01*
X123772668Y-96591086D01*
X124506444Y-97689259D01*
X125604617Y-98423035D01*
X126900000Y-98680703D01*
X128195383Y-98423035D01*
X129293556Y-97689259D01*
X130027332Y-96591086D01*
X130285000Y-95295703D01*
X130285000Y-92104297D01*
X130027332Y-90808914D01*
X129293556Y-89710741D01*
X128535000Y-89203890D01*
X128535000Y-75800005D01*
X128535001Y-75800000D01*
X128410543Y-75174312D01*
X128233332Y-74909097D01*
X128056120Y-74643880D01*
X128056117Y-74643878D01*
X116235000Y-62822760D01*
X116235000Y-54891057D01*
X116832542Y-54294557D01*
X117234542Y-53326433D01*
X117234546Y-53321834D01*
X121284543Y-53321834D01*
X121684853Y-54290658D01*
X122365000Y-54971993D01*
X122365000Y-68500000D01*
X122411672Y-68738946D01*
X122550987Y-68949013D01*
X128765000Y-75163026D01*
X128765000Y-86300000D01*
X128811672Y-86538946D01*
X128950987Y-86749013D01*
X131915000Y-89713026D01*
X131915000Y-91795703D01*
X132172668Y-93091086D01*
X132906444Y-94189259D01*
X134004617Y-94923035D01*
X135300000Y-95180703D01*
X136595383Y-94923035D01*
X137693556Y-94189259D01*
X138427332Y-93091086D01*
X138685000Y-91795703D01*
X138685000Y-88604297D01*
X138499852Y-87673494D01*
X138584971Y-87547051D01*
X138635000Y-87300000D01*
X138635000Y-69200000D01*
X138588328Y-68961054D01*
X138449013Y-68750987D01*
X130635000Y-60936974D01*
X130635000Y-54891057D01*
X131232542Y-54294557D01*
X131634542Y-53326433D01*
X131635457Y-52278166D01*
X131235147Y-51309342D01*
X130494557Y-50567458D01*
X129526433Y-50165458D01*
X128478166Y-50164543D01*
X127509342Y-50564853D01*
X126767458Y-51305443D01*
X126493586Y-51965000D01*
X126426059Y-51965000D01*
X126155147Y-51309342D01*
X125414557Y-50567458D01*
X124446433Y-50165458D01*
X123398166Y-50164543D01*
X122429342Y-50564853D01*
X121687458Y-51305443D01*
X121285458Y-52273567D01*
X121284543Y-53321834D01*
X117234546Y-53321834D01*
X117235457Y-52278166D01*
X116835147Y-51309342D01*
X116094557Y-50567458D01*
X115126433Y-50165458D01*
X114078166Y-50164543D01*
X113109342Y-50564853D01*
X112367458Y-51305443D01*
X112059739Y-52046512D01*
X111755147Y-51309342D01*
X111014557Y-50567458D01*
X110046433Y-50165458D01*
X108998166Y-50164543D01*
X108029342Y-50564853D01*
X107287458Y-51305443D01*
X106885458Y-52273567D01*
X106884543Y-53321834D01*
X105134545Y-53321834D01*
X105135543Y-52179146D01*
X104659273Y-51026485D01*
X103778153Y-50143826D01*
X102733383Y-49710000D01*
X136668924Y-49710000D01*
X135626485Y-50140727D01*
X134743826Y-51021847D01*
X134265546Y-52173674D01*
X134264457Y-53420854D01*
X134740727Y-54573515D01*
X135621847Y-55456174D01*
X136773674Y-55934454D01*
X138020854Y-55935543D01*
X139173515Y-55459273D01*
X140056174Y-54578153D01*
X140490000Y-53533383D01*
X140490000Y-99584116D01*
X139794557Y-98887458D01*
X138826433Y-98485458D01*
X137778166Y-98484543D01*
X136809342Y-98884853D01*
X136067458Y-99625443D01*
X135665458Y-100593567D01*
X135664543Y-101641834D01*
X136064853Y-102610658D01*
X136715000Y-103261941D01*
X136715000Y-104059030D01*
X136067458Y-104705443D01*
X135665458Y-105673567D01*
X135664543Y-106721834D01*
X136064853Y-107690658D01*
X136805443Y-108432542D01*
X137773567Y-108834542D01*
X138821834Y-108835457D01*
X139790658Y-108435147D01*
X140490000Y-107737025D01*
X140490000Y-113684116D01*
X139794557Y-112987458D01*
X138826433Y-112585458D01*
X137778166Y-112584543D01*
X136809342Y-112984853D01*
X136067458Y-113725443D01*
X135665458Y-114693567D01*
X135664543Y-115741834D01*
X136064853Y-116710658D01*
X136805443Y-117452542D01*
X137546512Y-117760261D01*
X136809342Y-118064853D01*
X136067458Y-118805443D01*
X135665458Y-119773567D01*
X135664543Y-120821834D01*
X136064853Y-121790658D01*
X136805443Y-122532542D01*
X137773567Y-122934542D01*
X138821834Y-122935457D01*
X139790658Y-122535147D01*
X140490000Y-121837025D01*
X140490000Y-125868924D01*
X140059273Y-124826485D01*
X139178153Y-123943826D01*
X138026326Y-123465546D01*
X136779146Y-123464457D01*
X135626485Y-123940727D01*
X134743826Y-124821847D01*
X134265546Y-125973674D01*
X134264457Y-127220854D01*
X134740727Y-128373515D01*
X135621847Y-129256174D01*
X136666617Y-129690000D01*
X116310000Y-129690000D01*
X116310000Y-126900000D01*
X116255954Y-126628295D01*
X116102046Y-126397954D01*
X115871705Y-126244046D01*
X115600000Y-126190000D01*
X114117027Y-126190000D01*
X114203277Y-126132370D01*
X114470991Y-125731707D01*
X114565000Y-125259093D01*
X114565000Y-124700907D01*
X114470991Y-124228293D01*
X114203277Y-123827630D01*
X113802614Y-123559916D01*
X113330000Y-123465907D01*
X112857386Y-123559916D01*
X112456723Y-123827630D01*
X112189009Y-124228293D01*
X112095000Y-124700907D01*
X112095000Y-125259093D01*
X112189009Y-125731707D01*
X112456723Y-126132370D01*
X112542973Y-126190000D01*
X108657027Y-126190000D01*
X108743277Y-126132370D01*
X109010991Y-125731707D01*
X109105000Y-125259093D01*
X109105000Y-124700907D01*
X109010991Y-124228293D01*
X108743277Y-123827630D01*
X108342614Y-123559916D01*
X107870000Y-123465907D01*
X107397386Y-123559916D01*
X106996723Y-123827630D01*
X106729009Y-124228293D01*
X106635000Y-124700907D01*
X106635000Y-125259093D01*
X106729009Y-125731707D01*
X106996723Y-126132370D01*
X107082973Y-126190000D01*
X105600000Y-126190000D01*
X105328295Y-126244046D01*
X105135199Y-126373068D01*
X105135543Y-125979146D01*
X104659273Y-124826485D01*
X103778153Y-123943826D01*
X102626326Y-123465546D01*
X101379146Y-123464457D01*
X100226485Y-123940727D01*
X99343826Y-124821847D01*
X98865546Y-125973674D01*
X98864457Y-127220854D01*
X99340727Y-128373515D01*
X100221847Y-129256174D01*
X101266617Y-129690000D01*
X98810000Y-129690000D01*
X98810000Y-116140000D01*
X99485907Y-116140000D01*
X99598946Y-116708285D01*
X99920853Y-117190054D01*
X100250026Y-117410000D01*
X99920853Y-117629946D01*
X99598946Y-118111715D01*
X99485907Y-118680000D01*
X99598946Y-119248285D01*
X99920853Y-119730054D01*
X100250026Y-119950000D01*
X99920853Y-120169946D01*
X99598946Y-120651715D01*
X99485907Y-121220000D01*
X99598946Y-121788285D01*
X99920853Y-122270054D01*
X100402622Y-122591961D01*
X100970907Y-122705000D01*
X101029093Y-122705000D01*
X101597378Y-122591961D01*
X102079147Y-122270054D01*
X102401054Y-121788285D01*
X102408099Y-121752866D01*
X106995000Y-121752866D01*
X106995000Y-122207134D01*
X107085203Y-122660614D01*
X107342078Y-123045056D01*
X107726520Y-123301931D01*
X108180000Y-123392134D01*
X108633480Y-123301931D01*
X109017922Y-123045056D01*
X109274797Y-122660614D01*
X109365000Y-122207134D01*
X109365000Y-121752866D01*
X111835000Y-121752866D01*
X111835000Y-122207134D01*
X111925203Y-122660614D01*
X112182078Y-123045056D01*
X112566520Y-123301931D01*
X113020000Y-123392134D01*
X113473480Y-123301931D01*
X113857922Y-123045056D01*
X114114797Y-122660614D01*
X114205000Y-122207134D01*
X114205000Y-121752866D01*
X114114797Y-121299386D01*
X113857922Y-120914944D01*
X113473480Y-120658069D01*
X113020000Y-120567866D01*
X112566520Y-120658069D01*
X112182078Y-120914944D01*
X111925203Y-121299386D01*
X111835000Y-121752866D01*
X109365000Y-121752866D01*
X109274797Y-121299386D01*
X109017922Y-120914944D01*
X108633480Y-120658069D01*
X108180000Y-120567866D01*
X107726520Y-120658069D01*
X107342078Y-120914944D01*
X107085203Y-121299386D01*
X106995000Y-121752866D01*
X102408099Y-121752866D01*
X102514093Y-121220000D01*
X102401054Y-120651715D01*
X102079147Y-120169946D01*
X101749974Y-119950000D01*
X102079147Y-119730054D01*
X102401054Y-119248285D01*
X102514093Y-118680000D01*
X102401054Y-118111715D01*
X102079147Y-117629946D01*
X101749974Y-117410000D01*
X102079147Y-117190054D01*
X102401054Y-116708285D01*
X102514093Y-116140000D01*
X102401054Y-115571715D01*
X102079147Y-115089946D01*
X102037548Y-115062150D01*
X102085317Y-115053162D01*
X102301441Y-114914090D01*
X102423808Y-114735000D01*
X113165000Y-114735000D01*
X113165000Y-116000000D01*
X113251397Y-116434346D01*
X113436023Y-116710658D01*
X113497434Y-116802566D01*
X113697020Y-117002152D01*
X113856235Y-117161645D01*
X114273244Y-117334803D01*
X114724775Y-117335197D01*
X115142086Y-117162767D01*
X115461645Y-116843765D01*
X115634803Y-116426756D01*
X115635197Y-115975225D01*
X115540019Y-115744876D01*
X115856235Y-116061645D01*
X116273244Y-116234803D01*
X116454093Y-116234961D01*
X117885000Y-117665868D01*
X117885000Y-126077159D01*
X117669946Y-126220853D01*
X117348039Y-126702622D01*
X117235000Y-127270907D01*
X117235000Y-127329093D01*
X117348039Y-127897378D01*
X117669946Y-128379147D01*
X118151715Y-128701054D01*
X118720000Y-128814093D01*
X119288285Y-128701054D01*
X119770054Y-128379147D01*
X119990000Y-128049974D01*
X120209946Y-128379147D01*
X120691715Y-128701054D01*
X121260000Y-128814093D01*
X121828285Y-128701054D01*
X122310054Y-128379147D01*
X122337850Y-128337548D01*
X122346838Y-128385317D01*
X122485910Y-128601441D01*
X122698110Y-128746431D01*
X122950000Y-128797440D01*
X124650000Y-128797440D01*
X124885317Y-128753162D01*
X125101441Y-128614090D01*
X125246431Y-128401890D01*
X125297440Y-128150000D01*
X125297440Y-126450000D01*
X125253162Y-126214683D01*
X125114090Y-125998559D01*
X124901890Y-125853569D01*
X124650000Y-125802560D01*
X122950000Y-125802560D01*
X122714683Y-125846838D01*
X122498559Y-125985910D01*
X122353569Y-126198110D01*
X122339914Y-126265541D01*
X122310054Y-126220853D01*
X121828285Y-125898946D01*
X121260000Y-125785907D01*
X120691715Y-125898946D01*
X120209946Y-126220853D01*
X119990000Y-126550026D01*
X119770054Y-126220853D01*
X119555000Y-126077159D01*
X119555000Y-117320000D01*
X119491439Y-117000459D01*
X119310434Y-116729566D01*
X117635041Y-115054173D01*
X117635197Y-114875225D01*
X117586445Y-114757237D01*
X117773244Y-114834803D01*
X118224775Y-114835197D01*
X118642086Y-114662767D01*
X118770076Y-114535000D01*
X121044292Y-114535000D01*
X123692765Y-117183473D01*
X123655444Y-117273352D01*
X123654876Y-117923795D01*
X123903266Y-118524943D01*
X124362797Y-118985278D01*
X124963512Y-119234716D01*
X125613955Y-119235284D01*
X126215103Y-118986894D01*
X126675438Y-118527363D01*
X126865000Y-118070846D01*
X126865000Y-126099995D01*
X126864999Y-126100000D01*
X126943785Y-126496077D01*
X127168144Y-126831856D01*
X127602560Y-127266272D01*
X127602560Y-128150000D01*
X127646838Y-128385317D01*
X127785910Y-128601441D01*
X127998110Y-128746431D01*
X128250000Y-128797440D01*
X129950000Y-128797440D01*
X130185317Y-128753162D01*
X130401441Y-128614090D01*
X130546431Y-128401890D01*
X130560086Y-128334459D01*
X130589946Y-128379147D01*
X131071715Y-128701054D01*
X131640000Y-128814093D01*
X132208285Y-128701054D01*
X132690054Y-128379147D01*
X133011961Y-127897378D01*
X133125000Y-127329093D01*
X133125000Y-127270907D01*
X133011961Y-126702622D01*
X132690054Y-126220853D01*
X132208285Y-125898946D01*
X131640000Y-125785907D01*
X131071715Y-125898946D01*
X130589946Y-126220853D01*
X130562150Y-126262452D01*
X130553162Y-126214683D01*
X130414090Y-125998559D01*
X130201890Y-125853569D01*
X129950000Y-125802560D01*
X129066272Y-125802560D01*
X128935000Y-125671288D01*
X128935000Y-118556893D01*
X129362637Y-118985278D01*
X129963352Y-119234716D01*
X130613795Y-119235284D01*
X131214943Y-118986894D01*
X131590171Y-118612321D01*
X131962477Y-118985278D01*
X132563192Y-119234716D01*
X133213635Y-119235284D01*
X133814783Y-118986894D01*
X134275118Y-118527363D01*
X134524556Y-117926648D01*
X134525124Y-117276205D01*
X134276734Y-116675057D01*
X133817203Y-116214722D01*
X133216488Y-115965284D01*
X132566045Y-115964716D01*
X131964897Y-116213106D01*
X131589669Y-116587679D01*
X131217363Y-116214722D01*
X130616648Y-115965284D01*
X129966205Y-115964716D01*
X129365057Y-116213106D01*
X128935000Y-116642412D01*
X128935000Y-115200005D01*
X128935001Y-115200000D01*
X128856215Y-114803923D01*
X128752434Y-114648603D01*
X128631856Y-114468144D01*
X128631853Y-114468142D01*
X124862150Y-110698438D01*
X124762767Y-110457914D01*
X124443765Y-110138355D01*
X124026756Y-109965197D01*
X123575225Y-109964803D01*
X123157914Y-110137233D01*
X122838355Y-110456235D01*
X122737735Y-110698553D01*
X122571288Y-110865000D01*
X116000005Y-110865000D01*
X116000000Y-110864999D01*
X115603923Y-110943785D01*
X115268144Y-111168144D01*
X115268142Y-111168147D01*
X113971288Y-112465000D01*
X102421192Y-112465000D01*
X102314090Y-112298559D01*
X102101890Y-112153569D01*
X102035000Y-112140023D01*
X102035000Y-110824775D01*
X103064803Y-110824775D01*
X103237233Y-111242086D01*
X103556235Y-111561645D01*
X103973244Y-111734803D01*
X104424775Y-111735197D01*
X104842086Y-111562767D01*
X105161645Y-111243765D01*
X105334803Y-110826756D01*
X105334927Y-110685000D01*
X107979898Y-110685000D01*
X108156235Y-110861645D01*
X108573244Y-111034803D01*
X109024775Y-111035197D01*
X109442086Y-110862767D01*
X109761645Y-110543765D01*
X109934803Y-110126756D01*
X109935197Y-109675225D01*
X109762767Y-109257914D01*
X109443765Y-108938355D01*
X109026756Y-108765197D01*
X108575225Y-108764803D01*
X108157914Y-108937233D01*
X107979837Y-109115000D01*
X104900000Y-109115000D01*
X104599594Y-109174755D01*
X104344921Y-109344921D01*
X104344919Y-109344924D01*
X104224822Y-109465021D01*
X103975225Y-109464803D01*
X103557914Y-109637233D01*
X103238355Y-109956235D01*
X103065197Y-110373244D01*
X103064803Y-110824775D01*
X102035000Y-110824775D01*
X102035000Y-109828712D01*
X103371853Y-108491858D01*
X103371856Y-108491856D01*
X103506349Y-108290571D01*
X103596215Y-108156078D01*
X103640824Y-107931815D01*
X103736431Y-107791890D01*
X103787440Y-107540000D01*
X103787440Y-106540000D01*
X103743162Y-106304683D01*
X103694414Y-106228927D01*
X103710839Y-106204346D01*
X103797236Y-105770000D01*
X103710839Y-105335654D01*
X103576766Y-105135000D01*
X103710839Y-104934346D01*
X103797236Y-104500000D01*
X103710839Y-104065654D01*
X103576766Y-103865000D01*
X103710839Y-103664346D01*
X103797236Y-103230000D01*
X103710839Y-102795654D01*
X103576766Y-102595000D01*
X103710839Y-102394346D01*
X103797236Y-101960000D01*
X103710839Y-101525654D01*
X103464802Y-101157434D01*
X103096582Y-100911397D01*
X102662236Y-100825000D01*
X102617764Y-100825000D01*
X102183418Y-100911397D01*
X102005000Y-101030612D01*
X101826582Y-100911397D01*
X101392236Y-100825000D01*
X101347764Y-100825000D01*
X100913418Y-100911397D01*
X100545198Y-101157434D01*
X100299161Y-101525654D01*
X100212764Y-101960000D01*
X100299161Y-102394346D01*
X100433234Y-102595000D01*
X100299161Y-102795654D01*
X100212764Y-103230000D01*
X100299161Y-103664346D01*
X100433234Y-103865000D01*
X100299161Y-104065654D01*
X100212764Y-104500000D01*
X100299161Y-104934346D01*
X100433234Y-105135000D01*
X100299161Y-105335654D01*
X100212764Y-105770000D01*
X100299161Y-106204346D01*
X100433234Y-106405000D01*
X100299161Y-106605654D01*
X100212764Y-107040000D01*
X100299161Y-107474346D01*
X100545198Y-107842566D01*
X100874014Y-108062274D01*
X100268144Y-108668144D01*
X100043785Y-109003923D01*
X99964999Y-109400000D01*
X99965000Y-109400005D01*
X99965000Y-112137370D01*
X99914683Y-112146838D01*
X99698559Y-112285910D01*
X99553569Y-112498110D01*
X99502560Y-112750000D01*
X99502560Y-114450000D01*
X99546838Y-114685317D01*
X99685910Y-114901441D01*
X99898110Y-115046431D01*
X99965541Y-115060086D01*
X99920853Y-115089946D01*
X99598946Y-115571715D01*
X99485907Y-116140000D01*
X98810000Y-116140000D01*
X98810000Y-88122815D01*
X100464630Y-88122815D01*
X100788980Y-88907800D01*
X101389041Y-89508909D01*
X102173459Y-89834628D01*
X103022815Y-89835370D01*
X103807800Y-89511020D01*
X104408909Y-88910959D01*
X104734628Y-88126541D01*
X104734631Y-88122815D01*
X105464630Y-88122815D01*
X105788980Y-88907800D01*
X106389041Y-89508909D01*
X107173459Y-89834628D01*
X108022815Y-89835370D01*
X108807800Y-89511020D01*
X109408909Y-88910959D01*
X109734628Y-88126541D01*
X109734631Y-88122815D01*
X110464630Y-88122815D01*
X110788980Y-88907800D01*
X111389041Y-89508909D01*
X112173459Y-89834628D01*
X113022815Y-89835370D01*
X113807800Y-89511020D01*
X114408909Y-88910959D01*
X114734628Y-88126541D01*
X114735370Y-87277185D01*
X114411020Y-86492200D01*
X113810959Y-85891091D01*
X113026541Y-85565372D01*
X112177185Y-85564630D01*
X111392200Y-85888980D01*
X110791091Y-86489041D01*
X110465372Y-87273459D01*
X110464630Y-88122815D01*
X109734631Y-88122815D01*
X109735370Y-87277185D01*
X109411020Y-86492200D01*
X108810959Y-85891091D01*
X108026541Y-85565372D01*
X107177185Y-85564630D01*
X106392200Y-85888980D01*
X105791091Y-86489041D01*
X105465372Y-87273459D01*
X105464630Y-88122815D01*
X104734631Y-88122815D01*
X104735370Y-87277185D01*
X104411020Y-86492200D01*
X103810959Y-85891091D01*
X103026541Y-85565372D01*
X102177185Y-85564630D01*
X101392200Y-85888980D01*
X100791091Y-86489041D01*
X100465372Y-87273459D01*
X100464630Y-88122815D01*
X98810000Y-88122815D01*
X98810000Y-49710000D01*
X101268924Y-49710000D01*
X100226485Y-50140727D01*
X100226485Y-50140727D01*
G37*
X100226485Y-50140727D02*
X99343826Y-51021847D01*
X98865546Y-52173674D01*
X98864457Y-53420854D01*
X99340727Y-54573515D01*
X100221847Y-55456174D01*
X101373674Y-55934454D01*
X102620854Y-55935543D01*
X103773515Y-55459273D01*
X104656174Y-54578153D01*
X105134454Y-53426326D01*
X105134545Y-53321834D01*
X106884543Y-53321834D01*
X107284853Y-54290658D01*
X108025443Y-55032542D01*
X108065000Y-55048967D01*
X108065000Y-71400000D01*
X108110754Y-71636672D01*
X108249257Y-71847276D01*
X120965000Y-84661591D01*
X120965000Y-90300000D01*
X121011672Y-90538946D01*
X121150987Y-90749013D01*
X123515000Y-93113026D01*
X123515000Y-95295703D01*
X123772668Y-96591086D01*
X124506444Y-97689259D01*
X125604617Y-98423035D01*
X126900000Y-98680703D01*
X128195383Y-98423035D01*
X129293556Y-97689259D01*
X130027332Y-96591086D01*
X130285000Y-95295703D01*
X130285000Y-92104297D01*
X130027332Y-90808914D01*
X129293556Y-89710741D01*
X128535000Y-89203890D01*
X128535000Y-75800005D01*
X128535001Y-75800000D01*
X128410543Y-75174312D01*
X128233332Y-74909097D01*
X128056120Y-74643880D01*
X128056117Y-74643878D01*
X116235000Y-62822760D01*
X116235000Y-54891057D01*
X116832542Y-54294557D01*
X117234542Y-53326433D01*
X117234546Y-53321834D01*
X121284543Y-53321834D01*
X121684853Y-54290658D01*
X122365000Y-54971993D01*
X122365000Y-68500000D01*
X122411672Y-68738946D01*
X122550987Y-68949013D01*
X128765000Y-75163026D01*
X128765000Y-86300000D01*
X128811672Y-86538946D01*
X128950987Y-86749013D01*
X131915000Y-89713026D01*
X131915000Y-91795703D01*
X132172668Y-93091086D01*
X132906444Y-94189259D01*
X134004617Y-94923035D01*
X135300000Y-95180703D01*
X136595383Y-94923035D01*
X137693556Y-94189259D01*
X138427332Y-93091086D01*
X138685000Y-91795703D01*
X138685000Y-88604297D01*
X138499852Y-87673494D01*
X138584971Y-87547051D01*
X138635000Y-87300000D01*
X138635000Y-69200000D01*
X138588328Y-68961054D01*
X138449013Y-68750987D01*
X130635000Y-60936974D01*
X130635000Y-54891057D01*
X131232542Y-54294557D01*
X131634542Y-53326433D01*
X131635457Y-52278166D01*
X131235147Y-51309342D01*
X130494557Y-50567458D01*
X129526433Y-50165458D01*
X128478166Y-50164543D01*
X127509342Y-50564853D01*
X126767458Y-51305443D01*
X126493586Y-51965000D01*
X126426059Y-51965000D01*
X126155147Y-51309342D01*
X125414557Y-50567458D01*
X124446433Y-50165458D01*
X123398166Y-50164543D01*
X122429342Y-50564853D01*
X121687458Y-51305443D01*
X121285458Y-52273567D01*
X121284543Y-53321834D01*
X117234546Y-53321834D01*
X117235457Y-52278166D01*
X116835147Y-51309342D01*
X116094557Y-50567458D01*
X115126433Y-50165458D01*
X114078166Y-50164543D01*
X113109342Y-50564853D01*
X112367458Y-51305443D01*
X112059739Y-52046512D01*
X111755147Y-51309342D01*
X111014557Y-50567458D01*
X110046433Y-50165458D01*
X108998166Y-50164543D01*
X108029342Y-50564853D01*
X107287458Y-51305443D01*
X106885458Y-52273567D01*
X106884543Y-53321834D01*
X105134545Y-53321834D01*
X105135543Y-52179146D01*
X104659273Y-51026485D01*
X103778153Y-50143826D01*
X102733383Y-49710000D01*
X136668924Y-49710000D01*
X135626485Y-50140727D01*
X134743826Y-51021847D01*
X134265546Y-52173674D01*
X134264457Y-53420854D01*
X134740727Y-54573515D01*
X135621847Y-55456174D01*
X136773674Y-55934454D01*
X138020854Y-55935543D01*
X139173515Y-55459273D01*
X140056174Y-54578153D01*
X140490000Y-53533383D01*
X140490000Y-99584116D01*
X139794557Y-98887458D01*
X138826433Y-98485458D01*
X137778166Y-98484543D01*
X136809342Y-98884853D01*
X136067458Y-99625443D01*
X135665458Y-100593567D01*
X135664543Y-101641834D01*
X136064853Y-102610658D01*
X136715000Y-103261941D01*
X136715000Y-104059030D01*
X136067458Y-104705443D01*
X135665458Y-105673567D01*
X135664543Y-106721834D01*
X136064853Y-107690658D01*
X136805443Y-108432542D01*
X137773567Y-108834542D01*
X138821834Y-108835457D01*
X139790658Y-108435147D01*
X140490000Y-107737025D01*
X140490000Y-113684116D01*
X139794557Y-112987458D01*
X138826433Y-112585458D01*
X137778166Y-112584543D01*
X136809342Y-112984853D01*
X136067458Y-113725443D01*
X135665458Y-114693567D01*
X135664543Y-115741834D01*
X136064853Y-116710658D01*
X136805443Y-117452542D01*
X137546512Y-117760261D01*
X136809342Y-118064853D01*
X136067458Y-118805443D01*
X135665458Y-119773567D01*
X135664543Y-120821834D01*
X136064853Y-121790658D01*
X136805443Y-122532542D01*
X137773567Y-122934542D01*
X138821834Y-122935457D01*
X139790658Y-122535147D01*
X140490000Y-121837025D01*
X140490000Y-125868924D01*
X140059273Y-124826485D01*
X139178153Y-123943826D01*
X138026326Y-123465546D01*
X136779146Y-123464457D01*
X135626485Y-123940727D01*
X134743826Y-124821847D01*
X134265546Y-125973674D01*
X134264457Y-127220854D01*
X134740727Y-128373515D01*
X135621847Y-129256174D01*
X136666617Y-129690000D01*
X116310000Y-129690000D01*
X116310000Y-126900000D01*
X116255954Y-126628295D01*
X116102046Y-126397954D01*
X115871705Y-126244046D01*
X115600000Y-126190000D01*
X114117027Y-126190000D01*
X114203277Y-126132370D01*
X114470991Y-125731707D01*
X114565000Y-125259093D01*
X114565000Y-124700907D01*
X114470991Y-124228293D01*
X114203277Y-123827630D01*
X113802614Y-123559916D01*
X113330000Y-123465907D01*
X112857386Y-123559916D01*
X112456723Y-123827630D01*
X112189009Y-124228293D01*
X112095000Y-124700907D01*
X112095000Y-125259093D01*
X112189009Y-125731707D01*
X112456723Y-126132370D01*
X112542973Y-126190000D01*
X108657027Y-126190000D01*
X108743277Y-126132370D01*
X109010991Y-125731707D01*
X109105000Y-125259093D01*
X109105000Y-124700907D01*
X109010991Y-124228293D01*
X108743277Y-123827630D01*
X108342614Y-123559916D01*
X107870000Y-123465907D01*
X107397386Y-123559916D01*
X106996723Y-123827630D01*
X106729009Y-124228293D01*
X106635000Y-124700907D01*
X106635000Y-125259093D01*
X106729009Y-125731707D01*
X106996723Y-126132370D01*
X107082973Y-126190000D01*
X105600000Y-126190000D01*
X105328295Y-126244046D01*
X105135199Y-126373068D01*
X105135543Y-125979146D01*
X104659273Y-124826485D01*
X103778153Y-123943826D01*
X102626326Y-123465546D01*
X101379146Y-123464457D01*
X100226485Y-123940727D01*
X99343826Y-124821847D01*
X98865546Y-125973674D01*
X98864457Y-127220854D01*
X99340727Y-128373515D01*
X100221847Y-129256174D01*
X101266617Y-129690000D01*
X98810000Y-129690000D01*
X98810000Y-116140000D01*
X99485907Y-116140000D01*
X99598946Y-116708285D01*
X99920853Y-117190054D01*
X100250026Y-117410000D01*
X99920853Y-117629946D01*
X99598946Y-118111715D01*
X99485907Y-118680000D01*
X99598946Y-119248285D01*
X99920853Y-119730054D01*
X100250026Y-119950000D01*
X99920853Y-120169946D01*
X99598946Y-120651715D01*
X99485907Y-121220000D01*
X99598946Y-121788285D01*
X99920853Y-122270054D01*
X100402622Y-122591961D01*
X100970907Y-122705000D01*
X101029093Y-122705000D01*
X101597378Y-122591961D01*
X102079147Y-122270054D01*
X102401054Y-121788285D01*
X102408099Y-121752866D01*
X106995000Y-121752866D01*
X106995000Y-122207134D01*
X107085203Y-122660614D01*
X107342078Y-123045056D01*
X107726520Y-123301931D01*
X108180000Y-123392134D01*
X108633480Y-123301931D01*
X109017922Y-123045056D01*
X109274797Y-122660614D01*
X109365000Y-122207134D01*
X109365000Y-121752866D01*
X111835000Y-121752866D01*
X111835000Y-122207134D01*
X111925203Y-122660614D01*
X112182078Y-123045056D01*
X112566520Y-123301931D01*
X113020000Y-123392134D01*
X113473480Y-123301931D01*
X113857922Y-123045056D01*
X114114797Y-122660614D01*
X114205000Y-122207134D01*
X114205000Y-121752866D01*
X114114797Y-121299386D01*
X113857922Y-120914944D01*
X113473480Y-120658069D01*
X113020000Y-120567866D01*
X112566520Y-120658069D01*
X112182078Y-120914944D01*
X111925203Y-121299386D01*
X111835000Y-121752866D01*
X109365000Y-121752866D01*
X109274797Y-121299386D01*
X109017922Y-120914944D01*
X108633480Y-120658069D01*
X108180000Y-120567866D01*
X107726520Y-120658069D01*
X107342078Y-120914944D01*
X107085203Y-121299386D01*
X106995000Y-121752866D01*
X102408099Y-121752866D01*
X102514093Y-121220000D01*
X102401054Y-120651715D01*
X102079147Y-120169946D01*
X101749974Y-119950000D01*
X102079147Y-119730054D01*
X102401054Y-119248285D01*
X102514093Y-118680000D01*
X102401054Y-118111715D01*
X102079147Y-117629946D01*
X101749974Y-117410000D01*
X102079147Y-117190054D01*
X102401054Y-116708285D01*
X102514093Y-116140000D01*
X102401054Y-115571715D01*
X102079147Y-115089946D01*
X102037548Y-115062150D01*
X102085317Y-115053162D01*
X102301441Y-114914090D01*
X102423808Y-114735000D01*
X113165000Y-114735000D01*
X113165000Y-116000000D01*
X113251397Y-116434346D01*
X113436023Y-116710658D01*
X113497434Y-116802566D01*
X113697020Y-117002152D01*
X113856235Y-117161645D01*
X114273244Y-117334803D01*
X114724775Y-117335197D01*
X115142086Y-117162767D01*
X115461645Y-116843765D01*
X115634803Y-116426756D01*
X115635197Y-115975225D01*
X115540019Y-115744876D01*
X115856235Y-116061645D01*
X116273244Y-116234803D01*
X116454093Y-116234961D01*
X117885000Y-117665868D01*
X117885000Y-126077159D01*
X117669946Y-126220853D01*
X117348039Y-126702622D01*
X117235000Y-127270907D01*
X117235000Y-127329093D01*
X117348039Y-127897378D01*
X117669946Y-128379147D01*
X118151715Y-128701054D01*
X118720000Y-128814093D01*
X119288285Y-128701054D01*
X119770054Y-128379147D01*
X119990000Y-128049974D01*
X120209946Y-128379147D01*
X120691715Y-128701054D01*
X121260000Y-128814093D01*
X121828285Y-128701054D01*
X122310054Y-128379147D01*
X122337850Y-128337548D01*
X122346838Y-128385317D01*
X122485910Y-128601441D01*
X122698110Y-128746431D01*
X122950000Y-128797440D01*
X124650000Y-128797440D01*
X124885317Y-128753162D01*
X125101441Y-128614090D01*
X125246431Y-128401890D01*
X125297440Y-128150000D01*
X125297440Y-126450000D01*
X125253162Y-126214683D01*
X125114090Y-125998559D01*
X124901890Y-125853569D01*
X124650000Y-125802560D01*
X122950000Y-125802560D01*
X122714683Y-125846838D01*
X122498559Y-125985910D01*
X122353569Y-126198110D01*
X122339914Y-126265541D01*
X122310054Y-126220853D01*
X121828285Y-125898946D01*
X121260000Y-125785907D01*
X120691715Y-125898946D01*
X120209946Y-126220853D01*
X119990000Y-126550026D01*
X119770054Y-126220853D01*
X119555000Y-126077159D01*
X119555000Y-117320000D01*
X119491439Y-117000459D01*
X119310434Y-116729566D01*
X117635041Y-115054173D01*
X117635197Y-114875225D01*
X117586445Y-114757237D01*
X117773244Y-114834803D01*
X118224775Y-114835197D01*
X118642086Y-114662767D01*
X118770076Y-114535000D01*
X121044292Y-114535000D01*
X123692765Y-117183473D01*
X123655444Y-117273352D01*
X123654876Y-117923795D01*
X123903266Y-118524943D01*
X124362797Y-118985278D01*
X124963512Y-119234716D01*
X125613955Y-119235284D01*
X126215103Y-118986894D01*
X126675438Y-118527363D01*
X126865000Y-118070846D01*
X126865000Y-126099995D01*
X126864999Y-126100000D01*
X126943785Y-126496077D01*
X127168144Y-126831856D01*
X127602560Y-127266272D01*
X127602560Y-128150000D01*
X127646838Y-128385317D01*
X127785910Y-128601441D01*
X127998110Y-128746431D01*
X128250000Y-128797440D01*
X129950000Y-128797440D01*
X130185317Y-128753162D01*
X130401441Y-128614090D01*
X130546431Y-128401890D01*
X130560086Y-128334459D01*
X130589946Y-128379147D01*
X131071715Y-128701054D01*
X131640000Y-128814093D01*
X132208285Y-128701054D01*
X132690054Y-128379147D01*
X133011961Y-127897378D01*
X133125000Y-127329093D01*
X133125000Y-127270907D01*
X133011961Y-126702622D01*
X132690054Y-126220853D01*
X132208285Y-125898946D01*
X131640000Y-125785907D01*
X131071715Y-125898946D01*
X130589946Y-126220853D01*
X130562150Y-126262452D01*
X130553162Y-126214683D01*
X130414090Y-125998559D01*
X130201890Y-125853569D01*
X129950000Y-125802560D01*
X129066272Y-125802560D01*
X128935000Y-125671288D01*
X128935000Y-118556893D01*
X129362637Y-118985278D01*
X129963352Y-119234716D01*
X130613795Y-119235284D01*
X131214943Y-118986894D01*
X131590171Y-118612321D01*
X131962477Y-118985278D01*
X132563192Y-119234716D01*
X133213635Y-119235284D01*
X133814783Y-118986894D01*
X134275118Y-118527363D01*
X134524556Y-117926648D01*
X134525124Y-117276205D01*
X134276734Y-116675057D01*
X133817203Y-116214722D01*
X133216488Y-115965284D01*
X132566045Y-115964716D01*
X131964897Y-116213106D01*
X131589669Y-116587679D01*
X131217363Y-116214722D01*
X130616648Y-115965284D01*
X129966205Y-115964716D01*
X129365057Y-116213106D01*
X128935000Y-116642412D01*
X128935000Y-115200005D01*
X128935001Y-115200000D01*
X128856215Y-114803923D01*
X128752434Y-114648603D01*
X128631856Y-114468144D01*
X128631853Y-114468142D01*
X124862150Y-110698438D01*
X124762767Y-110457914D01*
X124443765Y-110138355D01*
X124026756Y-109965197D01*
X123575225Y-109964803D01*
X123157914Y-110137233D01*
X122838355Y-110456235D01*
X122737735Y-110698553D01*
X122571288Y-110865000D01*
X116000005Y-110865000D01*
X116000000Y-110864999D01*
X115603923Y-110943785D01*
X115268144Y-111168144D01*
X115268142Y-111168147D01*
X113971288Y-112465000D01*
X102421192Y-112465000D01*
X102314090Y-112298559D01*
X102101890Y-112153569D01*
X102035000Y-112140023D01*
X102035000Y-110824775D01*
X103064803Y-110824775D01*
X103237233Y-111242086D01*
X103556235Y-111561645D01*
X103973244Y-111734803D01*
X104424775Y-111735197D01*
X104842086Y-111562767D01*
X105161645Y-111243765D01*
X105334803Y-110826756D01*
X105334927Y-110685000D01*
X107979898Y-110685000D01*
X108156235Y-110861645D01*
X108573244Y-111034803D01*
X109024775Y-111035197D01*
X109442086Y-110862767D01*
X109761645Y-110543765D01*
X109934803Y-110126756D01*
X109935197Y-109675225D01*
X109762767Y-109257914D01*
X109443765Y-108938355D01*
X109026756Y-108765197D01*
X108575225Y-108764803D01*
X108157914Y-108937233D01*
X107979837Y-109115000D01*
X104900000Y-109115000D01*
X104599594Y-109174755D01*
X104344921Y-109344921D01*
X104344919Y-109344924D01*
X104224822Y-109465021D01*
X103975225Y-109464803D01*
X103557914Y-109637233D01*
X103238355Y-109956235D01*
X103065197Y-110373244D01*
X103064803Y-110824775D01*
X102035000Y-110824775D01*
X102035000Y-109828712D01*
X103371853Y-108491858D01*
X103371856Y-108491856D01*
X103506349Y-108290571D01*
X103596215Y-108156078D01*
X103640824Y-107931815D01*
X103736431Y-107791890D01*
X103787440Y-107540000D01*
X103787440Y-106540000D01*
X103743162Y-106304683D01*
X103694414Y-106228927D01*
X103710839Y-106204346D01*
X103797236Y-105770000D01*
X103710839Y-105335654D01*
X103576766Y-105135000D01*
X103710839Y-104934346D01*
X103797236Y-104500000D01*
X103710839Y-104065654D01*
X103576766Y-103865000D01*
X103710839Y-103664346D01*
X103797236Y-103230000D01*
X103710839Y-102795654D01*
X103576766Y-102595000D01*
X103710839Y-102394346D01*
X103797236Y-101960000D01*
X103710839Y-101525654D01*
X103464802Y-101157434D01*
X103096582Y-100911397D01*
X102662236Y-100825000D01*
X102617764Y-100825000D01*
X102183418Y-100911397D01*
X102005000Y-101030612D01*
X101826582Y-100911397D01*
X101392236Y-100825000D01*
X101347764Y-100825000D01*
X100913418Y-100911397D01*
X100545198Y-101157434D01*
X100299161Y-101525654D01*
X100212764Y-101960000D01*
X100299161Y-102394346D01*
X100433234Y-102595000D01*
X100299161Y-102795654D01*
X100212764Y-103230000D01*
X100299161Y-103664346D01*
X100433234Y-103865000D01*
X100299161Y-104065654D01*
X100212764Y-104500000D01*
X100299161Y-104934346D01*
X100433234Y-105135000D01*
X100299161Y-105335654D01*
X100212764Y-105770000D01*
X100299161Y-106204346D01*
X100433234Y-106405000D01*
X100299161Y-106605654D01*
X100212764Y-107040000D01*
X100299161Y-107474346D01*
X100545198Y-107842566D01*
X100874014Y-108062274D01*
X100268144Y-108668144D01*
X100043785Y-109003923D01*
X99964999Y-109400000D01*
X99965000Y-109400005D01*
X99965000Y-112137370D01*
X99914683Y-112146838D01*
X99698559Y-112285910D01*
X99553569Y-112498110D01*
X99502560Y-112750000D01*
X99502560Y-114450000D01*
X99546838Y-114685317D01*
X99685910Y-114901441D01*
X99898110Y-115046431D01*
X99965541Y-115060086D01*
X99920853Y-115089946D01*
X99598946Y-115571715D01*
X99485907Y-116140000D01*
X98810000Y-116140000D01*
X98810000Y-88122815D01*
X100464630Y-88122815D01*
X100788980Y-88907800D01*
X101389041Y-89508909D01*
X102173459Y-89834628D01*
X103022815Y-89835370D01*
X103807800Y-89511020D01*
X104408909Y-88910959D01*
X104734628Y-88126541D01*
X104734631Y-88122815D01*
X105464630Y-88122815D01*
X105788980Y-88907800D01*
X106389041Y-89508909D01*
X107173459Y-89834628D01*
X108022815Y-89835370D01*
X108807800Y-89511020D01*
X109408909Y-88910959D01*
X109734628Y-88126541D01*
X109734631Y-88122815D01*
X110464630Y-88122815D01*
X110788980Y-88907800D01*
X111389041Y-89508909D01*
X112173459Y-89834628D01*
X113022815Y-89835370D01*
X113807800Y-89511020D01*
X114408909Y-88910959D01*
X114734628Y-88126541D01*
X114735370Y-87277185D01*
X114411020Y-86492200D01*
X113810959Y-85891091D01*
X113026541Y-85565372D01*
X112177185Y-85564630D01*
X111392200Y-85888980D01*
X110791091Y-86489041D01*
X110465372Y-87273459D01*
X110464630Y-88122815D01*
X109734631Y-88122815D01*
X109735370Y-87277185D01*
X109411020Y-86492200D01*
X108810959Y-85891091D01*
X108026541Y-85565372D01*
X107177185Y-85564630D01*
X106392200Y-85888980D01*
X105791091Y-86489041D01*
X105465372Y-87273459D01*
X105464630Y-88122815D01*
X104734631Y-88122815D01*
X104735370Y-87277185D01*
X104411020Y-86492200D01*
X103810959Y-85891091D01*
X103026541Y-85565372D01*
X102177185Y-85564630D01*
X101392200Y-85888980D01*
X100791091Y-86489041D01*
X100465372Y-87273459D01*
X100464630Y-88122815D01*
X98810000Y-88122815D01*
X98810000Y-49710000D01*
X101268924Y-49710000D01*
X100226485Y-50140727D01*
G36*
X126865000Y-115628711D02*
X126865000Y-117129920D01*
X126677054Y-116675057D01*
X126217523Y-116214722D01*
X125616808Y-115965284D01*
X124966365Y-115964716D01*
X124873935Y-116002907D01*
X121980594Y-113109566D01*
X121903291Y-113057914D01*
X121719338Y-112935000D01*
X122999995Y-112935000D01*
X123000000Y-112935001D01*
X123396077Y-112856215D01*
X123731856Y-112631856D01*
X123800000Y-112563712D01*
X126865000Y-115628711D01*
X126865000Y-115628711D01*
G37*
X126865000Y-115628711D02*
X126865000Y-117129920D01*
X126677054Y-116675057D01*
X126217523Y-116214722D01*
X125616808Y-115965284D01*
X124966365Y-115964716D01*
X124873935Y-116002907D01*
X121980594Y-113109566D01*
X121903291Y-113057914D01*
X121719338Y-112935000D01*
X122999995Y-112935000D01*
X123000000Y-112935001D01*
X123396077Y-112856215D01*
X123731856Y-112631856D01*
X123800000Y-112563712D01*
X126865000Y-115628711D01*
G36*
X117038355Y-113056235D02*
X116865197Y-113473244D01*
X116864803Y-113924775D01*
X116913555Y-114042763D01*
X116726756Y-113965197D01*
X116275225Y-113964803D01*
X115857914Y-114137233D01*
X115538355Y-114456235D01*
X115435000Y-114705140D01*
X115435000Y-113928712D01*
X116428711Y-112935000D01*
X117159802Y-112935000D01*
X117038355Y-113056235D01*
X117038355Y-113056235D01*
G37*
X117038355Y-113056235D02*
X116865197Y-113473244D01*
X116864803Y-113924775D01*
X116913555Y-114042763D01*
X116726756Y-113965197D01*
X116275225Y-113964803D01*
X115857914Y-114137233D01*
X115538355Y-114456235D01*
X115435000Y-114705140D01*
X115435000Y-113928712D01*
X116428711Y-112935000D01*
X117159802Y-112935000D01*
X117038355Y-113056235D01*
M02*
