M48
;DRILL file {KiCad 4.0.5-e0-6337~49~ubuntu16.04.1} date Sun Mar 26 23:32:19 2017
;FORMAT={-:-/ absolute / metric / decimal}
FMAT,2
METRIC,TZ
T1C0.600
T2C0.650
T3C0.700
T4C1.000
T5C1.300
T6C2.000
T7C3.200
%
G90
G05
M71
T1
X104.2Y-110.6
X104.9Y-95.4
X106.7Y-107.4
X108.8Y-109.9
X112.7Y-116.
X113.4Y-95.8
X114.5Y-116.2
X116.5Y-115.1
X118.Y-113.7
X123.8Y-111.1
X130.1Y-104.4
T2
X101.37Y-101.96
X101.37Y-103.23
X101.37Y-104.5
X101.37Y-105.77
X101.37Y-107.04
X102.64Y-101.96
X102.64Y-103.23
X102.64Y-104.5
X102.64Y-105.77
X102.64Y-107.04
T4
X101.Y-113.6
X101.Y-116.14
X101.Y-118.68
X101.Y-121.22
X102.6Y-87.7
X107.6Y-87.7
X112.6Y-87.7
X118.72Y-127.3
X121.26Y-127.3
X123.8Y-127.3
X125.29Y-117.6
X129.1Y-127.3
X130.29Y-117.6
X131.64Y-127.3
X132.89Y-117.6
T5
X109.52Y-52.8
X114.6Y-52.8
X123.92Y-52.8
X129.Y-52.8
X138.3Y-101.12
X138.3Y-106.2
X138.3Y-115.22
X138.3Y-120.3
T7
X102.Y-52.8
X102.Y-126.6
X137.4Y-52.8
X137.4Y-126.6
T2
X108.18Y-122.18G85X108.18Y-121.78
G05
X113.02Y-122.18G85X113.02Y-121.78
G05
T3
X107.87Y-125.23G85X107.87Y-124.73
G05
X113.33Y-125.23G85X113.33Y-124.73
G05
T6
X126.9Y-92.05G85X126.9Y-95.35
G05
X135.3Y-88.55G85X135.3Y-91.85
G05
T0
M30
