G04 #@! TF.FileFunction,Legend,Bot*
%FSLAX46Y46*%
G04 Gerber Fmt 4.6, Leading zero omitted, Abs format (unit mm)*
G04 Created by KiCad (PCBNEW 4.0.7-e2-6376~58~ubuntu16.04.1) date Mon Jan 29 21:07:09 2018*
%MOMM*%
%LPD*%
G01*
G04 APERTURE LIST*
%ADD10C,0.100000*%
%ADD11C,0.200000*%
%ADD12C,0.300000*%
%ADD13C,0.150000*%
%ADD14C,0.120000*%
%ADD15C,0.304800*%
G04 APERTURE END LIST*
D10*
D11*
X61330000Y-152270000D02*
X61930000Y-152270000D01*
X61330000Y-155080000D02*
X61930000Y-155080000D01*
X69589048Y-162561429D02*
X68827143Y-162561429D01*
X69208095Y-162942381D02*
X69208095Y-162180476D01*
X67827143Y-162942381D02*
X68398572Y-162942381D01*
X68112858Y-162942381D02*
X68112858Y-161942381D01*
X68208096Y-162085238D01*
X68303334Y-162180476D01*
X68398572Y-162228095D01*
X67446191Y-162037619D02*
X67398572Y-161990000D01*
X67303334Y-161942381D01*
X67065238Y-161942381D01*
X66970000Y-161990000D01*
X66922381Y-162037619D01*
X66874762Y-162132857D01*
X66874762Y-162228095D01*
X66922381Y-162370952D01*
X67493810Y-162942381D01*
X66874762Y-162942381D01*
X66589048Y-161942381D02*
X66255715Y-162942381D01*
X65922381Y-161942381D01*
X65589048Y-162275714D02*
X65589048Y-163275714D01*
X65589048Y-162323333D02*
X65493810Y-162275714D01*
X65303333Y-162275714D01*
X65208095Y-162323333D01*
X65160476Y-162370952D01*
X65112857Y-162466190D01*
X65112857Y-162751905D01*
X65160476Y-162847143D01*
X65208095Y-162894762D01*
X65303333Y-162942381D01*
X65493810Y-162942381D01*
X65589048Y-162894762D01*
X64303333Y-162894762D02*
X64398571Y-162942381D01*
X64589048Y-162942381D01*
X64684286Y-162894762D01*
X64731905Y-162799524D01*
X64731905Y-162418571D01*
X64684286Y-162323333D01*
X64589048Y-162275714D01*
X64398571Y-162275714D01*
X64303333Y-162323333D01*
X64255714Y-162418571D01*
X64255714Y-162513810D01*
X64731905Y-162609048D01*
X63827143Y-162942381D02*
X63827143Y-162275714D01*
X63827143Y-162466190D02*
X63779524Y-162370952D01*
X63731905Y-162323333D01*
X63636667Y-162275714D01*
X63541428Y-162275714D01*
X63208095Y-162942381D02*
X63208095Y-162275714D01*
X63208095Y-162370952D02*
X63160476Y-162323333D01*
X63065238Y-162275714D01*
X62922380Y-162275714D01*
X62827142Y-162323333D01*
X62779523Y-162418571D01*
X62779523Y-162942381D01*
X62779523Y-162418571D02*
X62731904Y-162323333D01*
X62636666Y-162275714D01*
X62493809Y-162275714D01*
X62398571Y-162323333D01*
X62350952Y-162418571D01*
X62350952Y-162942381D01*
X61620000Y-162880000D02*
X61640000Y-162880000D01*
X61620000Y-161510000D02*
X61620000Y-162880000D01*
X61360000Y-162830000D02*
X61960000Y-162830000D01*
X65991905Y-161201429D02*
X65230000Y-161201429D01*
X65610952Y-161582381D02*
X65610952Y-160820476D01*
X64230000Y-161582381D02*
X64801429Y-161582381D01*
X64515715Y-161582381D02*
X64515715Y-160582381D01*
X64610953Y-160725238D01*
X64706191Y-160820476D01*
X64801429Y-160868095D01*
X63849048Y-160677619D02*
X63801429Y-160630000D01*
X63706191Y-160582381D01*
X63468095Y-160582381D01*
X63372857Y-160630000D01*
X63325238Y-160677619D01*
X63277619Y-160772857D01*
X63277619Y-160868095D01*
X63325238Y-161010952D01*
X63896667Y-161582381D01*
X63277619Y-161582381D01*
X62991905Y-160582381D02*
X62658572Y-161582381D01*
X62325238Y-160582381D01*
X61390000Y-149720000D02*
X61890000Y-149720000D01*
X61620000Y-149160000D02*
X61620000Y-161470000D01*
X61380000Y-147300000D02*
X61880000Y-147300000D01*
X61310000Y-161100000D02*
X61910000Y-161100000D01*
X64122857Y-158582381D02*
X64599048Y-158582381D01*
X64599048Y-157582381D01*
X63789524Y-158058571D02*
X63456190Y-158058571D01*
X63313333Y-158582381D02*
X63789524Y-158582381D01*
X63789524Y-157582381D01*
X63313333Y-157582381D01*
X62884762Y-158582381D02*
X62884762Y-157582381D01*
X62646667Y-157582381D01*
X62503809Y-157630000D01*
X62408571Y-157725238D01*
X62360952Y-157820476D01*
X62313333Y-158010952D01*
X62313333Y-158153810D01*
X62360952Y-158344286D01*
X62408571Y-158439524D01*
X62503809Y-158534762D01*
X62646667Y-158582381D01*
X62884762Y-158582381D01*
X61620000Y-145790000D02*
X61620000Y-149170000D01*
X61320000Y-144700000D02*
X61820000Y-144700000D01*
X61320000Y-142300000D02*
X61920000Y-142300000D01*
X61320000Y-139600000D02*
X61920000Y-139600000D01*
X61330000Y-156560000D02*
X61930000Y-156560000D01*
X61330000Y-158060000D02*
X61930000Y-158060000D01*
X61330000Y-159560000D02*
X61930000Y-159560000D01*
X61620000Y-145800000D02*
X61620000Y-139400000D01*
X64381904Y-159120000D02*
X64477142Y-159072381D01*
X64619999Y-159072381D01*
X64762857Y-159120000D01*
X64858095Y-159215238D01*
X64905714Y-159310476D01*
X64953333Y-159500952D01*
X64953333Y-159643810D01*
X64905714Y-159834286D01*
X64858095Y-159929524D01*
X64762857Y-160024762D01*
X64619999Y-160072381D01*
X64524761Y-160072381D01*
X64381904Y-160024762D01*
X64334285Y-159977143D01*
X64334285Y-159643810D01*
X64524761Y-159643810D01*
X63905714Y-160072381D02*
X63905714Y-159072381D01*
X63334285Y-160072381D01*
X63334285Y-159072381D01*
X62858095Y-160072381D02*
X62858095Y-159072381D01*
X62620000Y-159072381D01*
X62477142Y-159120000D01*
X62381904Y-159215238D01*
X62334285Y-159310476D01*
X62286666Y-159500952D01*
X62286666Y-159643810D01*
X62334285Y-159834286D01*
X62381904Y-159929524D01*
X62477142Y-160024762D01*
X62620000Y-160072381D01*
X62858095Y-160072381D01*
X67873333Y-156102381D02*
X67635238Y-157102381D01*
X67444761Y-156388095D01*
X67254285Y-157102381D01*
X67016190Y-156102381D01*
X66682857Y-156816667D02*
X66206666Y-156816667D01*
X66778095Y-157102381D02*
X66444762Y-156102381D01*
X66111428Y-157102381D01*
X65778095Y-157102381D02*
X65778095Y-156102381D01*
X65206666Y-157102381D02*
X65635238Y-156530952D01*
X65206666Y-156102381D02*
X65778095Y-156673810D01*
X64778095Y-156578571D02*
X64444761Y-156578571D01*
X64301904Y-157102381D02*
X64778095Y-157102381D01*
X64778095Y-156102381D01*
X64301904Y-156102381D01*
X63873333Y-156102381D02*
X63873333Y-156911905D01*
X63825714Y-157007143D01*
X63778095Y-157054762D01*
X63682857Y-157102381D01*
X63492380Y-157102381D01*
X63397142Y-157054762D01*
X63349523Y-157007143D01*
X63301904Y-156911905D01*
X63301904Y-156102381D01*
X62825714Y-157102381D02*
X62825714Y-156102381D01*
X62444761Y-156102381D01*
X62349523Y-156150000D01*
X62301904Y-156197619D01*
X62254285Y-156292857D01*
X62254285Y-156435714D01*
X62301904Y-156530952D01*
X62349523Y-156578571D01*
X62444761Y-156626190D01*
X62825714Y-156626190D01*
D12*
X129419999Y-109807143D02*
X128277142Y-109807143D01*
X128848571Y-110378571D02*
X128848571Y-109235714D01*
X126777142Y-110378571D02*
X127634285Y-110378571D01*
X127205713Y-110378571D02*
X127205713Y-108878571D01*
X127348570Y-109092857D01*
X127491428Y-109235714D01*
X127634285Y-109307143D01*
X126205714Y-109021429D02*
X126134285Y-108950000D01*
X125991428Y-108878571D01*
X125634285Y-108878571D01*
X125491428Y-108950000D01*
X125419999Y-109021429D01*
X125348571Y-109164286D01*
X125348571Y-109307143D01*
X125419999Y-109521429D01*
X126277142Y-110378571D01*
X125348571Y-110378571D01*
X124920000Y-108878571D02*
X124420000Y-110378571D01*
X123920000Y-108878571D01*
X122277143Y-109378571D02*
X122277143Y-110878571D01*
X122277143Y-109450000D02*
X122134286Y-109378571D01*
X121848572Y-109378571D01*
X121705715Y-109450000D01*
X121634286Y-109521429D01*
X121562857Y-109664286D01*
X121562857Y-110092857D01*
X121634286Y-110235714D01*
X121705715Y-110307143D01*
X121848572Y-110378571D01*
X122134286Y-110378571D01*
X122277143Y-110307143D01*
X120348572Y-110307143D02*
X120491429Y-110378571D01*
X120777143Y-110378571D01*
X120920000Y-110307143D01*
X120991429Y-110164286D01*
X120991429Y-109592857D01*
X120920000Y-109450000D01*
X120777143Y-109378571D01*
X120491429Y-109378571D01*
X120348572Y-109450000D01*
X120277143Y-109592857D01*
X120277143Y-109735714D01*
X120991429Y-109878571D01*
X119634286Y-110378571D02*
X119634286Y-109378571D01*
X119634286Y-109664286D02*
X119562858Y-109521429D01*
X119491429Y-109450000D01*
X119348572Y-109378571D01*
X119205715Y-109378571D01*
X118705715Y-110378571D02*
X118705715Y-109378571D01*
X118705715Y-109521429D02*
X118634287Y-109450000D01*
X118491429Y-109378571D01*
X118277144Y-109378571D01*
X118134287Y-109450000D01*
X118062858Y-109592857D01*
X118062858Y-110378571D01*
X118062858Y-109592857D02*
X117991429Y-109450000D01*
X117848572Y-109378571D01*
X117634287Y-109378571D01*
X117491429Y-109450000D01*
X117420001Y-109592857D01*
X117420001Y-110378571D01*
X128932856Y-118737143D02*
X127789999Y-118737143D01*
X128361428Y-119308571D02*
X128361428Y-118165714D01*
X126289999Y-119308571D02*
X127147142Y-119308571D01*
X126718570Y-119308571D02*
X126718570Y-117808571D01*
X126861427Y-118022857D01*
X127004285Y-118165714D01*
X127147142Y-118237143D01*
X125718571Y-117951429D02*
X125647142Y-117880000D01*
X125504285Y-117808571D01*
X125147142Y-117808571D01*
X125004285Y-117880000D01*
X124932856Y-117951429D01*
X124861428Y-118094286D01*
X124861428Y-118237143D01*
X124932856Y-118451429D01*
X125789999Y-119308571D01*
X124861428Y-119308571D01*
X124432857Y-117808571D02*
X123932857Y-119308571D01*
X123432857Y-117808571D01*
X127782857Y-127000000D02*
X127925714Y-126928571D01*
X128140000Y-126928571D01*
X128354285Y-127000000D01*
X128497143Y-127142857D01*
X128568571Y-127285714D01*
X128640000Y-127571429D01*
X128640000Y-127785714D01*
X128568571Y-128071429D01*
X128497143Y-128214286D01*
X128354285Y-128357143D01*
X128140000Y-128428571D01*
X127997143Y-128428571D01*
X127782857Y-128357143D01*
X127711428Y-128285714D01*
X127711428Y-127785714D01*
X127997143Y-127785714D01*
X127068571Y-128428571D02*
X127068571Y-126928571D01*
X126211428Y-128428571D01*
X126211428Y-126928571D01*
X125497142Y-128428571D02*
X125497142Y-126928571D01*
X125139999Y-126928571D01*
X124925714Y-127000000D01*
X124782856Y-127142857D01*
X124711428Y-127285714D01*
X124639999Y-127571429D01*
X124639999Y-127785714D01*
X124711428Y-128071429D01*
X124782856Y-128214286D01*
X124925714Y-128357143D01*
X125139999Y-128428571D01*
X125497142Y-128428571D01*
X128042857Y-136350000D02*
X128185714Y-136278571D01*
X128400000Y-136278571D01*
X128614285Y-136350000D01*
X128757143Y-136492857D01*
X128828571Y-136635714D01*
X128900000Y-136921429D01*
X128900000Y-137135714D01*
X128828571Y-137421429D01*
X128757143Y-137564286D01*
X128614285Y-137707143D01*
X128400000Y-137778571D01*
X128257143Y-137778571D01*
X128042857Y-137707143D01*
X127971428Y-137635714D01*
X127971428Y-137135714D01*
X128257143Y-137135714D01*
X127328571Y-137778571D02*
X127328571Y-136278571D01*
X126471428Y-137778571D01*
X126471428Y-136278571D01*
X125757142Y-137778571D02*
X125757142Y-136278571D01*
X125399999Y-136278571D01*
X125185714Y-136350000D01*
X125042856Y-136492857D01*
X124971428Y-136635714D01*
X124899999Y-136921429D01*
X124899999Y-137135714D01*
X124971428Y-137421429D01*
X125042856Y-137564286D01*
X125185714Y-137707143D01*
X125399999Y-137778571D01*
X125757142Y-137778571D01*
X129038572Y-146597143D02*
X128824286Y-146668571D01*
X128467143Y-146668571D01*
X128324286Y-146597143D01*
X128252857Y-146525714D01*
X128181429Y-146382857D01*
X128181429Y-146240000D01*
X128252857Y-146097143D01*
X128324286Y-146025714D01*
X128467143Y-145954286D01*
X128752857Y-145882857D01*
X128895715Y-145811429D01*
X128967143Y-145740000D01*
X129038572Y-145597143D01*
X129038572Y-145454286D01*
X128967143Y-145311429D01*
X128895715Y-145240000D01*
X128752857Y-145168571D01*
X128395715Y-145168571D01*
X128181429Y-145240000D01*
X127252858Y-145168571D02*
X126967144Y-145168571D01*
X126824286Y-145240000D01*
X126681429Y-145382857D01*
X126610001Y-145668571D01*
X126610001Y-146168571D01*
X126681429Y-146454286D01*
X126824286Y-146597143D01*
X126967144Y-146668571D01*
X127252858Y-146668571D01*
X127395715Y-146597143D01*
X127538572Y-146454286D01*
X127610001Y-146168571D01*
X127610001Y-145668571D01*
X127538572Y-145382857D01*
X127395715Y-145240000D01*
X127252858Y-145168571D01*
X125967143Y-145168571D02*
X125967143Y-146382857D01*
X125895715Y-146525714D01*
X125824286Y-146597143D01*
X125681429Y-146668571D01*
X125395715Y-146668571D01*
X125252857Y-146597143D01*
X125181429Y-146525714D01*
X125110000Y-146382857D01*
X125110000Y-145168571D01*
X123538571Y-146668571D02*
X124038571Y-145954286D01*
X124395714Y-146668571D02*
X124395714Y-145168571D01*
X123824286Y-145168571D01*
X123681428Y-145240000D01*
X123610000Y-145311429D01*
X123538571Y-145454286D01*
X123538571Y-145668571D01*
X123610000Y-145811429D01*
X123681428Y-145882857D01*
X123824286Y-145954286D01*
X124395714Y-145954286D01*
X122038571Y-146525714D02*
X122110000Y-146597143D01*
X122324286Y-146668571D01*
X122467143Y-146668571D01*
X122681428Y-146597143D01*
X122824286Y-146454286D01*
X122895714Y-146311429D01*
X122967143Y-146025714D01*
X122967143Y-145811429D01*
X122895714Y-145525714D01*
X122824286Y-145382857D01*
X122681428Y-145240000D01*
X122467143Y-145168571D01*
X122324286Y-145168571D01*
X122110000Y-145240000D01*
X122038571Y-145311429D01*
X121395714Y-145882857D02*
X120895714Y-145882857D01*
X120681428Y-146668571D02*
X121395714Y-146668571D01*
X121395714Y-145168571D01*
X120681428Y-145168571D01*
X126148571Y-155578571D02*
X126148571Y-154078571D01*
X125791428Y-154078571D01*
X125577143Y-154150000D01*
X125434285Y-154292857D01*
X125362857Y-154435714D01*
X125291428Y-154721429D01*
X125291428Y-154935714D01*
X125362857Y-155221429D01*
X125434285Y-155364286D01*
X125577143Y-155507143D01*
X125791428Y-155578571D01*
X126148571Y-155578571D01*
X123791428Y-155578571D02*
X124291428Y-154864286D01*
X124648571Y-155578571D02*
X124648571Y-154078571D01*
X124077143Y-154078571D01*
X123934285Y-154150000D01*
X123862857Y-154221429D01*
X123791428Y-154364286D01*
X123791428Y-154578571D01*
X123862857Y-154721429D01*
X123934285Y-154792857D01*
X124077143Y-154864286D01*
X124648571Y-154864286D01*
X123220000Y-155150000D02*
X122505714Y-155150000D01*
X123362857Y-155578571D02*
X122862857Y-154078571D01*
X122362857Y-155578571D01*
X121862857Y-155578571D02*
X121862857Y-154078571D01*
X121148571Y-155578571D02*
X121148571Y-154078571D01*
X120291428Y-155578571D01*
X120291428Y-154078571D01*
D11*
X69073334Y-155572381D02*
X69073334Y-154905714D01*
X69073334Y-155000952D02*
X69025715Y-154953333D01*
X68930477Y-154905714D01*
X68787619Y-154905714D01*
X68692381Y-154953333D01*
X68644762Y-155048571D01*
X68644762Y-155572381D01*
X68644762Y-155048571D02*
X68597143Y-154953333D01*
X68501905Y-154905714D01*
X68359048Y-154905714D01*
X68263810Y-154953333D01*
X68216191Y-155048571D01*
X68216191Y-155572381D01*
X67597144Y-155572381D02*
X67692382Y-155524762D01*
X67740001Y-155477143D01*
X67787620Y-155381905D01*
X67787620Y-155096190D01*
X67740001Y-155000952D01*
X67692382Y-154953333D01*
X67597144Y-154905714D01*
X67454286Y-154905714D01*
X67359048Y-154953333D01*
X67311429Y-155000952D01*
X67263810Y-155096190D01*
X67263810Y-155381905D01*
X67311429Y-155477143D01*
X67359048Y-155524762D01*
X67454286Y-155572381D01*
X67597144Y-155572381D01*
X66882858Y-155524762D02*
X66787620Y-155572381D01*
X66597144Y-155572381D01*
X66501905Y-155524762D01*
X66454286Y-155429524D01*
X66454286Y-155381905D01*
X66501905Y-155286667D01*
X66597144Y-155239048D01*
X66740001Y-155239048D01*
X66835239Y-155191429D01*
X66882858Y-155096190D01*
X66882858Y-155048571D01*
X66835239Y-154953333D01*
X66740001Y-154905714D01*
X66597144Y-154905714D01*
X66501905Y-154953333D01*
X66168572Y-154905714D02*
X65787620Y-154905714D01*
X66025715Y-155572381D02*
X66025715Y-154715238D01*
X65978096Y-154620000D01*
X65882858Y-154572381D01*
X65787620Y-154572381D01*
X65073333Y-155524762D02*
X65168571Y-155572381D01*
X65359048Y-155572381D01*
X65454286Y-155524762D01*
X65501905Y-155429524D01*
X65501905Y-155048571D01*
X65454286Y-154953333D01*
X65359048Y-154905714D01*
X65168571Y-154905714D01*
X65073333Y-154953333D01*
X65025714Y-155048571D01*
X65025714Y-155143810D01*
X65501905Y-155239048D01*
X64740000Y-154905714D02*
X64359048Y-154905714D01*
X64597143Y-154572381D02*
X64597143Y-155429524D01*
X64549524Y-155524762D01*
X64454286Y-155572381D01*
X64359048Y-155572381D01*
X63835238Y-154572381D02*
X63644761Y-154572381D01*
X63549523Y-154620000D01*
X63454285Y-154715238D01*
X63406666Y-154905714D01*
X63406666Y-155239048D01*
X63454285Y-155429524D01*
X63549523Y-155524762D01*
X63644761Y-155572381D01*
X63835238Y-155572381D01*
X63930476Y-155524762D01*
X64025714Y-155429524D01*
X64073333Y-155239048D01*
X64073333Y-154905714D01*
X64025714Y-154715238D01*
X63930476Y-154620000D01*
X63835238Y-154572381D01*
X62978095Y-155572381D02*
X62978095Y-154572381D01*
X62406666Y-155572381D01*
X62406666Y-154572381D01*
X63841905Y-117071429D02*
X63080000Y-117071429D01*
X63460952Y-117452381D02*
X63460952Y-116690476D01*
X62699048Y-116452381D02*
X62080000Y-116452381D01*
X62413334Y-116833333D01*
X62270476Y-116833333D01*
X62175238Y-116880952D01*
X62127619Y-116928571D01*
X62080000Y-117023810D01*
X62080000Y-117261905D01*
X62127619Y-117357143D01*
X62175238Y-117404762D01*
X62270476Y-117452381D01*
X62556191Y-117452381D01*
X62651429Y-117404762D01*
X62699048Y-117357143D01*
X61794286Y-116452381D02*
X61460953Y-117452381D01*
X61127619Y-116452381D01*
X60889524Y-116452381D02*
X60270476Y-116452381D01*
X60603810Y-116833333D01*
X60460952Y-116833333D01*
X60365714Y-116880952D01*
X60318095Y-116928571D01*
X60270476Y-117023810D01*
X60270476Y-117261905D01*
X60318095Y-117357143D01*
X60365714Y-117404762D01*
X60460952Y-117452381D01*
X60746667Y-117452381D01*
X60841905Y-117404762D01*
X60889524Y-117357143D01*
X62515238Y-115422381D02*
X62848572Y-114946190D01*
X63086667Y-115422381D02*
X63086667Y-114422381D01*
X62705714Y-114422381D01*
X62610476Y-114470000D01*
X62562857Y-114517619D01*
X62515238Y-114612857D01*
X62515238Y-114755714D01*
X62562857Y-114850952D01*
X62610476Y-114898571D01*
X62705714Y-114946190D01*
X63086667Y-114946190D01*
X62181905Y-115422381D02*
X61658095Y-114755714D01*
X62181905Y-114755714D02*
X61658095Y-115422381D01*
X61277143Y-115422381D02*
X61277143Y-114422381D01*
X61039048Y-114422381D01*
X60896190Y-114470000D01*
X60800952Y-114565238D01*
X60753333Y-114660476D01*
X60705714Y-114850952D01*
X60705714Y-114993810D01*
X60753333Y-115184286D01*
X60800952Y-115279524D01*
X60896190Y-115374762D01*
X61039048Y-115422381D01*
X61277143Y-115422381D01*
X63060476Y-111862381D02*
X62489047Y-111862381D01*
X62774762Y-112862381D02*
X62774762Y-111862381D01*
X62250952Y-112862381D02*
X61727142Y-112195714D01*
X62250952Y-112195714D02*
X61727142Y-112862381D01*
X61346190Y-112862381D02*
X61346190Y-111862381D01*
X61108095Y-111862381D01*
X60965237Y-111910000D01*
X60869999Y-112005238D01*
X60822380Y-112100476D01*
X60774761Y-112290952D01*
X60774761Y-112433810D01*
X60822380Y-112624286D01*
X60869999Y-112719524D01*
X60965237Y-112814762D01*
X61108095Y-112862381D01*
X61346190Y-112862381D01*
X62761904Y-109440000D02*
X62857142Y-109392381D01*
X62999999Y-109392381D01*
X63142857Y-109440000D01*
X63238095Y-109535238D01*
X63285714Y-109630476D01*
X63333333Y-109820952D01*
X63333333Y-109963810D01*
X63285714Y-110154286D01*
X63238095Y-110249524D01*
X63142857Y-110344762D01*
X62999999Y-110392381D01*
X62904761Y-110392381D01*
X62761904Y-110344762D01*
X62714285Y-110297143D01*
X62714285Y-109963810D01*
X62904761Y-109963810D01*
X62285714Y-110392381D02*
X62285714Y-109392381D01*
X61714285Y-110392381D01*
X61714285Y-109392381D01*
X61238095Y-110392381D02*
X61238095Y-109392381D01*
X61000000Y-109392381D01*
X60857142Y-109440000D01*
X60761904Y-109535238D01*
X60714285Y-109630476D01*
X60666666Y-109820952D01*
X60666666Y-109963810D01*
X60714285Y-110154286D01*
X60761904Y-110249524D01*
X60857142Y-110344762D01*
X61000000Y-110392381D01*
X61238095Y-110392381D01*
D12*
X114963333Y-68000000D02*
X114963333Y-67333333D01*
X113563333Y-67333333D01*
X114896667Y-69000000D02*
X114963333Y-68866666D01*
X114963333Y-68600000D01*
X114896667Y-68466666D01*
X114763333Y-68400000D01*
X114230000Y-68400000D01*
X114096667Y-68466666D01*
X114030000Y-68600000D01*
X114030000Y-68866666D01*
X114096667Y-69000000D01*
X114230000Y-69066666D01*
X114363333Y-69066666D01*
X114496667Y-68400000D01*
X114963333Y-69866666D02*
X114896667Y-69733333D01*
X114830000Y-69666666D01*
X114696667Y-69600000D01*
X114296667Y-69600000D01*
X114163333Y-69666666D01*
X114096667Y-69733333D01*
X114030000Y-69866666D01*
X114030000Y-70066666D01*
X114096667Y-70200000D01*
X114163333Y-70266666D01*
X114296667Y-70333333D01*
X114696667Y-70333333D01*
X114830000Y-70266666D01*
X114896667Y-70200000D01*
X114963333Y-70066666D01*
X114963333Y-69866666D01*
X114030000Y-70933333D02*
X114963333Y-70933333D01*
X114163333Y-70933333D02*
X114096667Y-71000000D01*
X114030000Y-71133333D01*
X114030000Y-71333333D01*
X114096667Y-71466667D01*
X114230000Y-71533333D01*
X114963333Y-71533333D01*
X114963333Y-72200000D02*
X113563333Y-72200000D01*
X114230000Y-72200000D02*
X114230000Y-73000000D01*
X114963333Y-73000000D02*
X113563333Y-73000000D01*
X115430000Y-75066668D02*
X113430000Y-75066668D01*
X114030000Y-77000001D02*
X114963333Y-77333334D01*
X114030000Y-77666668D01*
X113696667Y-78133335D02*
X113630000Y-78200001D01*
X113563333Y-78333335D01*
X113563333Y-78666668D01*
X113630000Y-78800001D01*
X113696667Y-78866668D01*
X113830000Y-78933335D01*
X113963333Y-78933335D01*
X114163333Y-78866668D01*
X114963333Y-78066668D01*
X114963333Y-78933335D01*
X114830000Y-79533334D02*
X114896667Y-79600001D01*
X114963333Y-79533334D01*
X114896667Y-79466668D01*
X114830000Y-79533334D01*
X114963333Y-79533334D01*
X113696667Y-80133335D02*
X113630000Y-80200001D01*
X113563333Y-80333335D01*
X113563333Y-80666668D01*
X113630000Y-80800001D01*
X113696667Y-80866668D01*
X113830000Y-80933335D01*
X113963333Y-80933335D01*
X114163333Y-80866668D01*
X114963333Y-80066668D01*
X114963333Y-80933335D01*
X116963333Y-63263332D02*
X115563333Y-63263332D01*
X116963333Y-64063332D02*
X116163333Y-63463332D01*
X115563333Y-64063332D02*
X116363333Y-63263332D01*
X116963333Y-65263332D02*
X116230000Y-65263332D01*
X116096667Y-65196666D01*
X116030000Y-65063332D01*
X116030000Y-64796666D01*
X116096667Y-64663332D01*
X116896667Y-65263332D02*
X116963333Y-65129999D01*
X116963333Y-64796666D01*
X116896667Y-64663332D01*
X116763333Y-64596666D01*
X116630000Y-64596666D01*
X116496667Y-64663332D01*
X116430000Y-64796666D01*
X116430000Y-65129999D01*
X116363333Y-65263332D01*
X116963333Y-65929999D02*
X116030000Y-65929999D01*
X116163333Y-65929999D02*
X116096667Y-65996666D01*
X116030000Y-66129999D01*
X116030000Y-66329999D01*
X116096667Y-66463333D01*
X116230000Y-66529999D01*
X116963333Y-66529999D01*
X116230000Y-66529999D02*
X116096667Y-66596666D01*
X116030000Y-66729999D01*
X116030000Y-66929999D01*
X116096667Y-67063333D01*
X116230000Y-67129999D01*
X116963333Y-67129999D01*
X116030000Y-67663333D02*
X116963333Y-67930000D01*
X116296667Y-68196666D01*
X116963333Y-68463333D01*
X116030000Y-68730000D01*
X116963333Y-69463333D02*
X116896667Y-69330000D01*
X116830000Y-69263333D01*
X116696667Y-69196667D01*
X116296667Y-69196667D01*
X116163333Y-69263333D01*
X116096667Y-69330000D01*
X116030000Y-69463333D01*
X116030000Y-69663333D01*
X116096667Y-69796667D01*
X116163333Y-69863333D01*
X116296667Y-69930000D01*
X116696667Y-69930000D01*
X116830000Y-69863333D01*
X116896667Y-69796667D01*
X116963333Y-69663333D01*
X116963333Y-69463333D01*
X116963333Y-70530000D02*
X116030000Y-70530000D01*
X116296667Y-70530000D02*
X116163333Y-70596667D01*
X116096667Y-70663334D01*
X116030000Y-70796667D01*
X116030000Y-70930000D01*
X116963333Y-71396667D02*
X115563333Y-71396667D01*
X116430000Y-71530001D02*
X116963333Y-71930001D01*
X116030000Y-71930001D02*
X116563333Y-71396667D01*
X116896667Y-72463334D02*
X116963333Y-72596667D01*
X116963333Y-72863334D01*
X116896667Y-72996667D01*
X116763333Y-73063334D01*
X116696667Y-73063334D01*
X116563333Y-72996667D01*
X116496667Y-72863334D01*
X116496667Y-72663334D01*
X116430000Y-72530000D01*
X116296667Y-72463334D01*
X116230000Y-72463334D01*
X116096667Y-72530000D01*
X116030000Y-72663334D01*
X116030000Y-72863334D01*
X116096667Y-72996667D01*
X117430000Y-75063334D02*
X115430000Y-75063334D01*
X116030000Y-77130000D02*
X117430000Y-77130000D01*
X116096667Y-77130000D02*
X116030000Y-77263334D01*
X116030000Y-77530000D01*
X116096667Y-77663334D01*
X116163333Y-77730000D01*
X116296667Y-77796667D01*
X116696667Y-77796667D01*
X116830000Y-77730000D01*
X116896667Y-77663334D01*
X116963333Y-77530000D01*
X116963333Y-77263334D01*
X116896667Y-77130000D01*
X116963333Y-78996667D02*
X116230000Y-78996667D01*
X116096667Y-78930001D01*
X116030000Y-78796667D01*
X116030000Y-78530001D01*
X116096667Y-78396667D01*
X116896667Y-78996667D02*
X116963333Y-78863334D01*
X116963333Y-78530001D01*
X116896667Y-78396667D01*
X116763333Y-78330001D01*
X116630000Y-78330001D01*
X116496667Y-78396667D01*
X116430000Y-78530001D01*
X116430000Y-78863334D01*
X116363333Y-78996667D01*
X116030000Y-79530001D02*
X116963333Y-79863334D01*
X116030000Y-80196668D02*
X116963333Y-79863334D01*
X117296667Y-79730001D01*
X117363333Y-79663334D01*
X117430000Y-79530001D01*
X116030000Y-81330001D02*
X117163333Y-81330001D01*
X117296667Y-81263335D01*
X117363333Y-81196668D01*
X117430000Y-81063335D01*
X117430000Y-80863335D01*
X117363333Y-80730001D01*
X116896667Y-81330001D02*
X116963333Y-81196668D01*
X116963333Y-80930001D01*
X116896667Y-80796668D01*
X116830000Y-80730001D01*
X116696667Y-80663335D01*
X116296667Y-80663335D01*
X116163333Y-80730001D01*
X116096667Y-80796668D01*
X116030000Y-80930001D01*
X116030000Y-81196668D01*
X116096667Y-81330001D01*
X116963333Y-82196668D02*
X116896667Y-82063335D01*
X116830000Y-81996668D01*
X116696667Y-81930002D01*
X116296667Y-81930002D01*
X116163333Y-81996668D01*
X116096667Y-82063335D01*
X116030000Y-82196668D01*
X116030000Y-82396668D01*
X116096667Y-82530002D01*
X116163333Y-82596668D01*
X116296667Y-82663335D01*
X116696667Y-82663335D01*
X116830000Y-82596668D01*
X116896667Y-82530002D01*
X116963333Y-82396668D01*
X116963333Y-82196668D01*
D13*
X72991380Y-74670000D02*
G75*
G03X72991380Y-74670000I-2501380J0D01*
G01*
X64610520Y-73679240D02*
X64610520Y-75680760D01*
X65608740Y-74680000D02*
X63609760Y-74680000D01*
X77510240Y-74680000D02*
G75*
G03X77510240Y-74680000I-7000240J0D01*
G01*
D14*
X90480000Y-121510000D02*
X90480000Y-117210000D01*
X90480000Y-117210000D02*
X97780000Y-117210000D01*
X90480000Y-121510000D02*
X97780000Y-121510000D01*
X106230000Y-138130000D02*
X106230000Y-139060000D01*
X106230000Y-141290000D02*
X106230000Y-140360000D01*
X106230000Y-141290000D02*
X104070000Y-141290000D01*
X106230000Y-138130000D02*
X104770000Y-138130000D01*
X112450000Y-144570000D02*
X111520000Y-144570000D01*
X109290000Y-144570000D02*
X110220000Y-144570000D01*
X109290000Y-144570000D02*
X109290000Y-142410000D01*
X112450000Y-144570000D02*
X112450000Y-143110000D01*
X70350000Y-119790000D02*
X70350000Y-121690000D01*
X68030000Y-121190000D02*
X68030000Y-119790000D01*
D15*
X122920000Y-121200000D02*
X123920000Y-121200000D01*
X122920000Y-123100000D02*
X123920000Y-123100000D01*
X122920000Y-130200000D02*
X123920000Y-130200000D01*
X122920000Y-132100000D02*
X123920000Y-132100000D01*
X122920000Y-157200000D02*
X123920000Y-157200000D01*
X122920000Y-159100000D02*
X123920000Y-159100000D01*
D14*
X106300000Y-121200000D02*
X102840000Y-121200000D01*
X106300000Y-117440000D02*
X102840000Y-117440000D01*
X69460000Y-114165000D02*
X69460000Y-115365000D01*
X71020000Y-115365000D02*
X71020000Y-114165000D01*
X67460000Y-114165000D02*
X67460000Y-115365000D01*
X69020000Y-115365000D02*
X69020000Y-114165000D01*
X97195000Y-102080000D02*
X98395000Y-102080000D01*
X98395000Y-100520000D02*
X97195000Y-100520000D01*
X79095000Y-115240000D02*
X77895000Y-115240000D01*
X77895000Y-116800000D02*
X79095000Y-116800000D01*
X94000000Y-98325000D02*
X94000000Y-97125000D01*
X92440000Y-97125000D02*
X92440000Y-98325000D01*
X81090000Y-126155000D02*
X81090000Y-127355000D01*
X82650000Y-127355000D02*
X82650000Y-126155000D01*
X74760000Y-126155000D02*
X74760000Y-127355000D01*
X76320000Y-127355000D02*
X76320000Y-126155000D01*
X115370000Y-139605000D02*
X115370000Y-140805000D01*
X116930000Y-140805000D02*
X116930000Y-139605000D01*
X69960000Y-127895000D02*
X69960000Y-126695000D01*
X68400000Y-126695000D02*
X68400000Y-127895000D01*
X96675000Y-160110000D02*
X97875000Y-160110000D01*
X97875000Y-158550000D02*
X96675000Y-158550000D01*
X101480000Y-145755000D02*
X101480000Y-144555000D01*
X99920000Y-144555000D02*
X99920000Y-145755000D01*
D12*
X67445000Y-127785000D02*
X67445000Y-132985000D01*
X67445000Y-119985000D02*
X67445000Y-125185000D01*
X62445000Y-119985000D02*
X62445000Y-132985000D01*
X62445000Y-132985000D02*
X67445000Y-132985000D01*
X67445000Y-119985000D02*
X62445000Y-119985000D01*
D14*
X66770000Y-124585000D02*
X66770000Y-129785000D01*
X66770000Y-129785000D02*
X63120000Y-129785000D01*
X63120000Y-129785000D02*
X63120000Y-123195000D01*
X63120000Y-123195000D02*
X64945000Y-123195000D01*
X64945000Y-123195000D02*
X64945000Y-124585000D01*
X64945000Y-124585000D02*
X66770000Y-124585000D01*
X66770000Y-123950000D02*
X66770000Y-123195000D01*
X66770000Y-123195000D02*
X65580000Y-123195000D01*
D13*
X76910000Y-130925000D02*
X80530000Y-130925000D01*
X76710000Y-125095000D02*
X76710000Y-128815000D01*
X76910000Y-122905000D02*
X80690000Y-122905000D01*
X80690000Y-122905000D02*
X80690000Y-123325000D01*
X80690000Y-123325000D02*
X81190000Y-123325000D01*
X80650000Y-128845000D02*
X80650000Y-125035000D01*
X80650000Y-125035000D02*
X81160000Y-125035000D01*
X81160000Y-125035000D02*
X81190000Y-125035000D01*
D14*
X91580000Y-157755000D02*
X91580000Y-156555000D01*
X90020000Y-156555000D02*
X90020000Y-157755000D01*
X73420000Y-113445000D02*
X73420000Y-112245000D01*
X71860000Y-112245000D02*
X71860000Y-113445000D01*
X111250000Y-140835000D02*
X111250000Y-139635000D01*
X109690000Y-139635000D02*
X109690000Y-140835000D01*
X107590000Y-139585000D02*
X107590000Y-140785000D01*
X109150000Y-140785000D02*
X109150000Y-139585000D01*
X107050000Y-144070000D02*
X106120000Y-144070000D01*
X103890000Y-144070000D02*
X104820000Y-144070000D01*
X103890000Y-144070000D02*
X103890000Y-141910000D01*
X107050000Y-144070000D02*
X107050000Y-142610000D01*
X111790000Y-139450000D02*
X112720000Y-139450000D01*
X114950000Y-139450000D02*
X114020000Y-139450000D01*
X114950000Y-139450000D02*
X114950000Y-141610000D01*
X111790000Y-139450000D02*
X111790000Y-140910000D01*
X97850000Y-146410000D02*
X97850000Y-147340000D01*
X97850000Y-149570000D02*
X97850000Y-148640000D01*
X97850000Y-149570000D02*
X95690000Y-149570000D01*
X97850000Y-146410000D02*
X96390000Y-146410000D01*
X111595000Y-145730000D02*
X110395000Y-145730000D01*
X110395000Y-147290000D02*
X111595000Y-147290000D01*
X107995000Y-145730000D02*
X106795000Y-145730000D01*
X106795000Y-147290000D02*
X107995000Y-147290000D01*
X99920000Y-148005000D02*
X99920000Y-149205000D01*
X101480000Y-149205000D02*
X101480000Y-148005000D01*
X94395000Y-158540000D02*
X93195000Y-158540000D01*
X93195000Y-160100000D02*
X94395000Y-160100000D01*
X114460000Y-144515000D02*
X114460000Y-143315000D01*
X112900000Y-143315000D02*
X112900000Y-144515000D01*
X91580000Y-154255000D02*
X91580000Y-153055000D01*
X90020000Y-153055000D02*
X90020000Y-154255000D01*
X115350000Y-136125000D02*
X115350000Y-137325000D01*
X116910000Y-137325000D02*
X116910000Y-136125000D01*
X94205000Y-146230000D02*
X93005000Y-146230000D01*
X93005000Y-147790000D02*
X94205000Y-147790000D01*
X92975000Y-149690000D02*
X94175000Y-149690000D01*
X94175000Y-148130000D02*
X92975000Y-148130000D01*
D13*
X73690000Y-117540000D02*
X73690000Y-118065000D01*
X77990000Y-121840000D02*
X77990000Y-121315000D01*
X73690000Y-121840000D02*
X73690000Y-121315000D01*
X77990000Y-117540000D02*
X77465000Y-117540000D01*
X77990000Y-121840000D02*
X77465000Y-121840000D01*
X73690000Y-121840000D02*
X74215000Y-121840000D01*
X73690000Y-117540000D02*
X74215000Y-117540000D01*
X90445000Y-66615000D02*
X90470000Y-66615000D01*
X90445000Y-70765000D02*
X90550000Y-70765000D01*
X100595000Y-70765000D02*
X100490000Y-70765000D01*
X100595000Y-66615000D02*
X100490000Y-66615000D01*
X90445000Y-66615000D02*
X90445000Y-70765000D01*
X100595000Y-66615000D02*
X100595000Y-70765000D01*
X90470000Y-66615000D02*
X90470000Y-65240000D01*
X100595000Y-82045000D02*
X100570000Y-82045000D01*
X100595000Y-77895000D02*
X100490000Y-77895000D01*
X90445000Y-77895000D02*
X90550000Y-77895000D01*
X90445000Y-82045000D02*
X90550000Y-82045000D01*
X100595000Y-82045000D02*
X100595000Y-77895000D01*
X90445000Y-82045000D02*
X90445000Y-77895000D01*
X100570000Y-82045000D02*
X100570000Y-83420000D01*
X92025000Y-152255000D02*
X92075000Y-152255000D01*
X92025000Y-156405000D02*
X92170000Y-156405000D01*
X97175000Y-156405000D02*
X97030000Y-156405000D01*
X97175000Y-152255000D02*
X97030000Y-152255000D01*
X92025000Y-152255000D02*
X92025000Y-156405000D01*
X97175000Y-152255000D02*
X97175000Y-156405000D01*
X92075000Y-152255000D02*
X92075000Y-150855000D01*
D14*
X89990000Y-70945000D02*
X89990000Y-69745000D01*
X88430000Y-69745000D02*
X88430000Y-70945000D01*
X100980000Y-77855000D02*
X100980000Y-79055000D01*
X102540000Y-79055000D02*
X102540000Y-77855000D01*
D15*
X122920000Y-139200000D02*
X123920000Y-139200000D01*
X122920000Y-141100000D02*
X123920000Y-141100000D01*
D14*
X78370000Y-99620000D02*
X78310000Y-99620000D01*
X78310000Y-99620000D02*
X78310000Y-96960000D01*
X78310000Y-96960000D02*
X78370000Y-96960000D01*
X78370000Y-96960000D02*
X78370000Y-99620000D01*
X79640000Y-99620000D02*
X80970000Y-99620000D01*
X80970000Y-99620000D02*
X80970000Y-98290000D01*
X73290000Y-99620000D02*
X73230000Y-99620000D01*
X73230000Y-99620000D02*
X73230000Y-96960000D01*
X73230000Y-96960000D02*
X73290000Y-96960000D01*
X73290000Y-96960000D02*
X73290000Y-99620000D01*
X74560000Y-99620000D02*
X75890000Y-99620000D01*
X75890000Y-99620000D02*
X75890000Y-98290000D01*
X86370000Y-158770000D02*
X86370000Y-158710000D01*
X86370000Y-158710000D02*
X89030000Y-158710000D01*
X89030000Y-158710000D02*
X89030000Y-158770000D01*
X89030000Y-158770000D02*
X86370000Y-158770000D01*
X86370000Y-160040000D02*
X86370000Y-161370000D01*
X86370000Y-161370000D02*
X87700000Y-161370000D01*
X115180000Y-150360000D02*
X115180000Y-150300000D01*
X115180000Y-150300000D02*
X117840000Y-150300000D01*
X117840000Y-150300000D02*
X117840000Y-150360000D01*
X117840000Y-150360000D02*
X115180000Y-150360000D01*
X115180000Y-151630000D02*
X115180000Y-152960000D01*
X115180000Y-152960000D02*
X116510000Y-152960000D01*
X115760000Y-142670000D02*
X115760000Y-142610000D01*
X115760000Y-142610000D02*
X118420000Y-142610000D01*
X118420000Y-142610000D02*
X118420000Y-142670000D01*
X118420000Y-142670000D02*
X115760000Y-142670000D01*
X115760000Y-143940000D02*
X115760000Y-145270000D01*
X115760000Y-145270000D02*
X117090000Y-145270000D01*
X94395000Y-160410000D02*
X93195000Y-160410000D01*
X93195000Y-161970000D02*
X94395000Y-161970000D01*
X80910000Y-99620000D02*
X80850000Y-99620000D01*
X80850000Y-99620000D02*
X80850000Y-96960000D01*
X80850000Y-96960000D02*
X80910000Y-96960000D01*
X80910000Y-96960000D02*
X80910000Y-99620000D01*
X82180000Y-99620000D02*
X83510000Y-99620000D01*
X83510000Y-99620000D02*
X83510000Y-98290000D01*
X108840000Y-151390000D02*
X109240000Y-151390000D01*
X108840000Y-157990000D02*
X108840000Y-151390000D01*
X114440000Y-157590000D02*
X114440000Y-152390000D01*
X70305000Y-129390000D02*
X69105000Y-129390000D01*
X69105000Y-130950000D02*
X70305000Y-130950000D01*
D15*
X122920000Y-148200000D02*
X123920000Y-148200000D01*
X122920000Y-150100000D02*
X123920000Y-150100000D01*
D14*
X71565000Y-138860000D02*
X70365000Y-138860000D01*
X70365000Y-140420000D02*
X71565000Y-140420000D01*
X65510000Y-83440000D02*
X66440000Y-83440000D01*
X68670000Y-83440000D02*
X67740000Y-83440000D01*
X68670000Y-83440000D02*
X68670000Y-85600000D01*
X65510000Y-83440000D02*
X65510000Y-84900000D01*
X63720000Y-108420000D02*
X66380000Y-108420000D01*
X63720000Y-116100000D02*
X63720000Y-108420000D01*
X66380000Y-116100000D02*
X66380000Y-108420000D01*
X63720000Y-116100000D02*
X66380000Y-116100000D01*
X63720000Y-117370000D02*
X63720000Y-118700000D01*
X63720000Y-118700000D02*
X65050000Y-118700000D01*
X97295000Y-109480000D02*
X98495000Y-109480000D01*
X98495000Y-107920000D02*
X97295000Y-107920000D01*
X93940000Y-105805000D02*
X93940000Y-104605000D01*
X92380000Y-104605000D02*
X92380000Y-105805000D01*
X79145000Y-113220000D02*
X77945000Y-113220000D01*
X77945000Y-114780000D02*
X79145000Y-114780000D01*
D13*
X84030000Y-112500000D02*
X84490000Y-112500000D01*
X83030000Y-112500000D02*
X82520000Y-112500000D01*
X83020000Y-112530000D02*
X84020000Y-111730000D01*
X84020000Y-111730000D02*
X84020000Y-113280000D01*
X84020000Y-113280000D02*
X83020000Y-112480000D01*
X83020000Y-111730000D02*
X83020000Y-113280000D01*
D15*
X122920000Y-112200000D02*
X123920000Y-112200000D01*
X122920000Y-114100000D02*
X123920000Y-114100000D01*
D14*
X70680000Y-142850000D02*
X70680000Y-143780000D01*
X70680000Y-146010000D02*
X70680000Y-145080000D01*
X70680000Y-146010000D02*
X68520000Y-146010000D01*
X70680000Y-142850000D02*
X69220000Y-142850000D01*
X77040000Y-103040000D02*
X77970000Y-103040000D01*
X80200000Y-103040000D02*
X79270000Y-103040000D01*
X80200000Y-103040000D02*
X80200000Y-105200000D01*
X77040000Y-103040000D02*
X77040000Y-104500000D01*
X80200000Y-111960000D02*
X79270000Y-111960000D01*
X77040000Y-111960000D02*
X77970000Y-111960000D01*
X77040000Y-111960000D02*
X77040000Y-109800000D01*
X80200000Y-111960000D02*
X80200000Y-110500000D01*
X67920000Y-145075000D02*
X67920000Y-143875000D01*
X66360000Y-143875000D02*
X66360000Y-145075000D01*
X71535000Y-140820000D02*
X70335000Y-140820000D01*
X70335000Y-142380000D02*
X71535000Y-142380000D01*
X103800000Y-106725000D02*
X103800000Y-105525000D01*
X102240000Y-105525000D02*
X102240000Y-106725000D01*
X85595000Y-95080000D02*
X86795000Y-95080000D01*
X86795000Y-93520000D02*
X85595000Y-93520000D01*
X82540000Y-105075000D02*
X82540000Y-106275000D01*
X84100000Y-106275000D02*
X84100000Y-105075000D01*
X86845000Y-97320000D02*
X85645000Y-97320000D01*
X85645000Y-98880000D02*
X86845000Y-98880000D01*
X81695000Y-103580000D02*
X82895000Y-103580000D01*
X82895000Y-102020000D02*
X81695000Y-102020000D01*
X99520000Y-103970000D02*
X99520000Y-102770000D01*
X99520000Y-102770000D02*
X96820000Y-102770000D01*
X95520000Y-107570000D02*
X99520000Y-107570000D01*
X99520000Y-107570000D02*
X99520000Y-106370000D01*
X84440000Y-101340000D02*
X85370000Y-101340000D01*
X87600000Y-101340000D02*
X86670000Y-101340000D01*
X87600000Y-101340000D02*
X87600000Y-103500000D01*
X84440000Y-101340000D02*
X84440000Y-102800000D01*
X86780000Y-104120000D02*
X86780000Y-105050000D01*
X86780000Y-107280000D02*
X86780000Y-106350000D01*
X86780000Y-107280000D02*
X84620000Y-107280000D01*
X86780000Y-104120000D02*
X85320000Y-104120000D01*
X85595000Y-96980000D02*
X86795000Y-96980000D01*
X86795000Y-95420000D02*
X85595000Y-95420000D01*
X91600000Y-102725000D02*
X91600000Y-101525000D01*
X90040000Y-101525000D02*
X90040000Y-102725000D01*
X88040000Y-101475000D02*
X88040000Y-102675000D01*
X89600000Y-102675000D02*
X89600000Y-101475000D01*
X82200000Y-106325000D02*
X82200000Y-105125000D01*
X80640000Y-105125000D02*
X80640000Y-106325000D01*
X79245000Y-107720000D02*
X78045000Y-107720000D01*
X78045000Y-109280000D02*
X79245000Y-109280000D01*
X77995000Y-107380000D02*
X79195000Y-107380000D01*
X79195000Y-105820000D02*
X77995000Y-105820000D01*
X99500000Y-96500000D02*
X99500000Y-95300000D01*
X99500000Y-95300000D02*
X96800000Y-95300000D01*
X95500000Y-100100000D02*
X99500000Y-100100000D01*
X99500000Y-100100000D02*
X99500000Y-98900000D01*
D13*
X89030000Y-112500000D02*
X89490000Y-112500000D01*
X88030000Y-112500000D02*
X87520000Y-112500000D01*
X88020000Y-112530000D02*
X89020000Y-111730000D01*
X89020000Y-111730000D02*
X89020000Y-113280000D01*
X89020000Y-113280000D02*
X88020000Y-112480000D01*
X88020000Y-111730000D02*
X88020000Y-113280000D01*
D14*
X67655000Y-86610000D02*
X66455000Y-86610000D01*
X66455000Y-88170000D02*
X67655000Y-88170000D01*
X70125000Y-84070000D02*
X71325000Y-84070000D01*
X71325000Y-82510000D02*
X70125000Y-82510000D01*
X70380000Y-126655000D02*
X70380000Y-127855000D01*
X71940000Y-127855000D02*
X71940000Y-126655000D01*
X68350000Y-149950000D02*
X69280000Y-149950000D01*
X71510000Y-149950000D02*
X70580000Y-149950000D01*
X71510000Y-149950000D02*
X71510000Y-152110000D01*
X68350000Y-149950000D02*
X68350000Y-151410000D01*
X73495000Y-136520000D02*
X72295000Y-136520000D01*
X72295000Y-138080000D02*
X73495000Y-138080000D01*
X70565000Y-152670000D02*
X69365000Y-152670000D01*
X69365000Y-154230000D02*
X70565000Y-154230000D01*
X69285000Y-148690000D02*
X70485000Y-148690000D01*
X70485000Y-147130000D02*
X69285000Y-147130000D01*
D13*
X64072381Y-69637143D02*
X64072381Y-69160952D01*
X63072381Y-69160952D01*
X64024762Y-69922857D02*
X64072381Y-70065714D01*
X64072381Y-70303810D01*
X64024762Y-70399048D01*
X63977143Y-70446667D01*
X63881905Y-70494286D01*
X63786667Y-70494286D01*
X63691429Y-70446667D01*
X63643810Y-70399048D01*
X63596190Y-70303810D01*
X63548571Y-70113333D01*
X63500952Y-70018095D01*
X63453333Y-69970476D01*
X63358095Y-69922857D01*
X63262857Y-69922857D01*
X63167619Y-69970476D01*
X63120000Y-70018095D01*
X63072381Y-70113333D01*
X63072381Y-70351429D01*
X63120000Y-70494286D01*
X64072381Y-71446667D02*
X64072381Y-70875238D01*
X64072381Y-71160952D02*
X63072381Y-71160952D01*
X63215238Y-71065714D01*
X63310476Y-70970476D01*
X63358095Y-70875238D01*
X90132381Y-119921905D02*
X89132381Y-119921905D01*
X89132381Y-120160000D01*
X89180000Y-120302858D01*
X89275238Y-120398096D01*
X89370476Y-120445715D01*
X89560952Y-120493334D01*
X89703810Y-120493334D01*
X89894286Y-120445715D01*
X89989524Y-120398096D01*
X90084762Y-120302858D01*
X90132381Y-120160000D01*
X90132381Y-119921905D01*
X89227619Y-120874286D02*
X89180000Y-120921905D01*
X89132381Y-121017143D01*
X89132381Y-121255239D01*
X89180000Y-121350477D01*
X89227619Y-121398096D01*
X89322857Y-121445715D01*
X89418095Y-121445715D01*
X89560952Y-121398096D01*
X90132381Y-120826667D01*
X90132381Y-121445715D01*
X104165238Y-137957619D02*
X104260476Y-137910000D01*
X104355714Y-137814762D01*
X104498571Y-137671905D01*
X104593810Y-137624286D01*
X104689048Y-137624286D01*
X104641429Y-137862381D02*
X104736667Y-137814762D01*
X104831905Y-137719524D01*
X104879524Y-137529048D01*
X104879524Y-137195714D01*
X104831905Y-137005238D01*
X104736667Y-136910000D01*
X104641429Y-136862381D01*
X104450952Y-136862381D01*
X104355714Y-136910000D01*
X104260476Y-137005238D01*
X104212857Y-137195714D01*
X104212857Y-137529048D01*
X104260476Y-137719524D01*
X104355714Y-137814762D01*
X104450952Y-137862381D01*
X104641429Y-137862381D01*
X103260476Y-137862381D02*
X103831905Y-137862381D01*
X103546191Y-137862381D02*
X103546191Y-136862381D01*
X103641429Y-137005238D01*
X103736667Y-137100476D01*
X103831905Y-137148095D01*
X109017619Y-143014762D02*
X108970000Y-142919524D01*
X108874762Y-142824286D01*
X108731905Y-142681429D01*
X108684286Y-142586190D01*
X108684286Y-142490952D01*
X108922381Y-142538571D02*
X108874762Y-142443333D01*
X108779524Y-142348095D01*
X108589048Y-142300476D01*
X108255714Y-142300476D01*
X108065238Y-142348095D01*
X107970000Y-142443333D01*
X107922381Y-142538571D01*
X107922381Y-142729048D01*
X107970000Y-142824286D01*
X108065238Y-142919524D01*
X108255714Y-142967143D01*
X108589048Y-142967143D01*
X108779524Y-142919524D01*
X108874762Y-142824286D01*
X108922381Y-142729048D01*
X108922381Y-142538571D01*
X108017619Y-143348095D02*
X107970000Y-143395714D01*
X107922381Y-143490952D01*
X107922381Y-143729048D01*
X107970000Y-143824286D01*
X108017619Y-143871905D01*
X108112857Y-143919524D01*
X108208095Y-143919524D01*
X108350952Y-143871905D01*
X108922381Y-143300476D01*
X108922381Y-143919524D01*
X70292381Y-117280476D02*
X70292381Y-117947143D01*
X71292381Y-117280476D01*
X71292381Y-117947143D01*
X71292381Y-118328095D02*
X70292381Y-118328095D01*
X70292381Y-118566190D01*
X70340000Y-118709048D01*
X70435238Y-118804286D01*
X70530476Y-118851905D01*
X70720952Y-118899524D01*
X70863810Y-118899524D01*
X71054286Y-118851905D01*
X71149524Y-118804286D01*
X71244762Y-118709048D01*
X71292381Y-118566190D01*
X71292381Y-118328095D01*
X71292381Y-119851905D02*
X71292381Y-119280476D01*
X71292381Y-119566190D02*
X70292381Y-119566190D01*
X70435238Y-119470952D01*
X70530476Y-119375714D01*
X70578095Y-119280476D01*
X118448095Y-122782381D02*
X118448095Y-121782381D01*
X118067142Y-121782381D01*
X117971904Y-121830000D01*
X117924285Y-121877619D01*
X117876666Y-121972857D01*
X117876666Y-122115714D01*
X117924285Y-122210952D01*
X117971904Y-122258571D01*
X118067142Y-122306190D01*
X118448095Y-122306190D01*
X117019523Y-121782381D02*
X117210000Y-121782381D01*
X117305238Y-121830000D01*
X117352857Y-121877619D01*
X117448095Y-122020476D01*
X117495714Y-122210952D01*
X117495714Y-122591905D01*
X117448095Y-122687143D01*
X117400476Y-122734762D01*
X117305238Y-122782381D01*
X117114761Y-122782381D01*
X117019523Y-122734762D01*
X116971904Y-122687143D01*
X116924285Y-122591905D01*
X116924285Y-122353810D01*
X116971904Y-122258571D01*
X117019523Y-122210952D01*
X117114761Y-122163333D01*
X117305238Y-122163333D01*
X117400476Y-122210952D01*
X117448095Y-122258571D01*
X117495714Y-122353810D01*
X118558095Y-131842381D02*
X118558095Y-130842381D01*
X118177142Y-130842381D01*
X118081904Y-130890000D01*
X118034285Y-130937619D01*
X117986666Y-131032857D01*
X117986666Y-131175714D01*
X118034285Y-131270952D01*
X118081904Y-131318571D01*
X118177142Y-131366190D01*
X118558095Y-131366190D01*
X117653333Y-130842381D02*
X116986666Y-130842381D01*
X117415238Y-131842381D01*
X118338095Y-158682381D02*
X118338095Y-157682381D01*
X117957142Y-157682381D01*
X117861904Y-157730000D01*
X117814285Y-157777619D01*
X117766666Y-157872857D01*
X117766666Y-158015714D01*
X117814285Y-158110952D01*
X117861904Y-158158571D01*
X117957142Y-158206190D01*
X118338095Y-158206190D01*
X117290476Y-158682381D02*
X117100000Y-158682381D01*
X117004761Y-158634762D01*
X116957142Y-158587143D01*
X116861904Y-158444286D01*
X116814285Y-158253810D01*
X116814285Y-157872857D01*
X116861904Y-157777619D01*
X116909523Y-157730000D01*
X117004761Y-157682381D01*
X117195238Y-157682381D01*
X117290476Y-157730000D01*
X117338095Y-157777619D01*
X117385714Y-157872857D01*
X117385714Y-158110952D01*
X117338095Y-158206190D01*
X117290476Y-158253810D01*
X117195238Y-158301429D01*
X117004761Y-158301429D01*
X116909523Y-158253810D01*
X116861904Y-158206190D01*
X116814285Y-158110952D01*
X108748571Y-118986667D02*
X108748571Y-118653333D01*
X109272381Y-118653333D02*
X108272381Y-118653333D01*
X108272381Y-119129524D01*
X108367619Y-119462857D02*
X108320000Y-119510476D01*
X108272381Y-119605714D01*
X108272381Y-119843810D01*
X108320000Y-119939048D01*
X108367619Y-119986667D01*
X108462857Y-120034286D01*
X108558095Y-120034286D01*
X108700952Y-119986667D01*
X109272381Y-119415238D01*
X109272381Y-120034286D01*
X70806666Y-112942381D02*
X71140000Y-112466190D01*
X71378095Y-112942381D02*
X71378095Y-111942381D01*
X70997142Y-111942381D01*
X70901904Y-111990000D01*
X70854285Y-112037619D01*
X70806666Y-112132857D01*
X70806666Y-112275714D01*
X70854285Y-112370952D01*
X70901904Y-112418571D01*
X70997142Y-112466190D01*
X71378095Y-112466190D01*
X69854285Y-112942381D02*
X70425714Y-112942381D01*
X70140000Y-112942381D02*
X70140000Y-111942381D01*
X70235238Y-112085238D01*
X70330476Y-112180476D01*
X70425714Y-112228095D01*
X68706666Y-112842381D02*
X69040000Y-112366190D01*
X69278095Y-112842381D02*
X69278095Y-111842381D01*
X68897142Y-111842381D01*
X68801904Y-111890000D01*
X68754285Y-111937619D01*
X68706666Y-112032857D01*
X68706666Y-112175714D01*
X68754285Y-112270952D01*
X68801904Y-112318571D01*
X68897142Y-112366190D01*
X69278095Y-112366190D01*
X68325714Y-111937619D02*
X68278095Y-111890000D01*
X68182857Y-111842381D01*
X67944761Y-111842381D01*
X67849523Y-111890000D01*
X67801904Y-111937619D01*
X67754285Y-112032857D01*
X67754285Y-112128095D01*
X67801904Y-112270952D01*
X68373333Y-112842381D01*
X67754285Y-112842381D01*
X100636666Y-101607143D02*
X100684285Y-101654762D01*
X100827142Y-101702381D01*
X100922380Y-101702381D01*
X101065238Y-101654762D01*
X101160476Y-101559524D01*
X101208095Y-101464286D01*
X101255714Y-101273810D01*
X101255714Y-101130952D01*
X101208095Y-100940476D01*
X101160476Y-100845238D01*
X101065238Y-100750000D01*
X100922380Y-100702381D01*
X100827142Y-100702381D01*
X100684285Y-100750000D01*
X100636666Y-100797619D01*
X99684285Y-101702381D02*
X100255714Y-101702381D01*
X99970000Y-101702381D02*
X99970000Y-100702381D01*
X100065238Y-100845238D01*
X100160476Y-100940476D01*
X100255714Y-100988095D01*
X81256666Y-117247143D02*
X81304285Y-117294762D01*
X81447142Y-117342381D01*
X81542380Y-117342381D01*
X81685238Y-117294762D01*
X81780476Y-117199524D01*
X81828095Y-117104286D01*
X81875714Y-116913810D01*
X81875714Y-116770952D01*
X81828095Y-116580476D01*
X81780476Y-116485238D01*
X81685238Y-116390000D01*
X81542380Y-116342381D01*
X81447142Y-116342381D01*
X81304285Y-116390000D01*
X81256666Y-116437619D01*
X80875714Y-116437619D02*
X80828095Y-116390000D01*
X80732857Y-116342381D01*
X80494761Y-116342381D01*
X80399523Y-116390000D01*
X80351904Y-116437619D01*
X80304285Y-116532857D01*
X80304285Y-116628095D01*
X80351904Y-116770952D01*
X80923333Y-117342381D01*
X80304285Y-117342381D01*
X93677143Y-94733334D02*
X93724762Y-94685715D01*
X93772381Y-94542858D01*
X93772381Y-94447620D01*
X93724762Y-94304762D01*
X93629524Y-94209524D01*
X93534286Y-94161905D01*
X93343810Y-94114286D01*
X93200952Y-94114286D01*
X93010476Y-94161905D01*
X92915238Y-94209524D01*
X92820000Y-94304762D01*
X92772381Y-94447620D01*
X92772381Y-94542858D01*
X92820000Y-94685715D01*
X92867619Y-94733334D01*
X92772381Y-95066667D02*
X92772381Y-95685715D01*
X93153333Y-95352381D01*
X93153333Y-95495239D01*
X93200952Y-95590477D01*
X93248571Y-95638096D01*
X93343810Y-95685715D01*
X93581905Y-95685715D01*
X93677143Y-95638096D01*
X93724762Y-95590477D01*
X93772381Y-95495239D01*
X93772381Y-95209524D01*
X93724762Y-95114286D01*
X93677143Y-95066667D01*
X82777143Y-129253334D02*
X82824762Y-129205715D01*
X82872381Y-129062858D01*
X82872381Y-128967620D01*
X82824762Y-128824762D01*
X82729524Y-128729524D01*
X82634286Y-128681905D01*
X82443810Y-128634286D01*
X82300952Y-128634286D01*
X82110476Y-128681905D01*
X82015238Y-128729524D01*
X81920000Y-128824762D01*
X81872381Y-128967620D01*
X81872381Y-129062858D01*
X81920000Y-129205715D01*
X81967619Y-129253334D01*
X82205714Y-130110477D02*
X82872381Y-130110477D01*
X81824762Y-129872381D02*
X82539048Y-129634286D01*
X82539048Y-130253334D01*
X75697143Y-129213334D02*
X75744762Y-129165715D01*
X75792381Y-129022858D01*
X75792381Y-128927620D01*
X75744762Y-128784762D01*
X75649524Y-128689524D01*
X75554286Y-128641905D01*
X75363810Y-128594286D01*
X75220952Y-128594286D01*
X75030476Y-128641905D01*
X74935238Y-128689524D01*
X74840000Y-128784762D01*
X74792381Y-128927620D01*
X74792381Y-129022858D01*
X74840000Y-129165715D01*
X74887619Y-129213334D01*
X74792381Y-130118096D02*
X74792381Y-129641905D01*
X75268571Y-129594286D01*
X75220952Y-129641905D01*
X75173333Y-129737143D01*
X75173333Y-129975239D01*
X75220952Y-130070477D01*
X75268571Y-130118096D01*
X75363810Y-130165715D01*
X75601905Y-130165715D01*
X75697143Y-130118096D01*
X75744762Y-130070477D01*
X75792381Y-129975239D01*
X75792381Y-129737143D01*
X75744762Y-129641905D01*
X75697143Y-129594286D01*
X118087143Y-139143334D02*
X118134762Y-139095715D01*
X118182381Y-138952858D01*
X118182381Y-138857620D01*
X118134762Y-138714762D01*
X118039524Y-138619524D01*
X117944286Y-138571905D01*
X117753810Y-138524286D01*
X117610952Y-138524286D01*
X117420476Y-138571905D01*
X117325238Y-138619524D01*
X117230000Y-138714762D01*
X117182381Y-138857620D01*
X117182381Y-138952858D01*
X117230000Y-139095715D01*
X117277619Y-139143334D01*
X117182381Y-140000477D02*
X117182381Y-139810000D01*
X117230000Y-139714762D01*
X117277619Y-139667143D01*
X117420476Y-139571905D01*
X117610952Y-139524286D01*
X117991905Y-139524286D01*
X118087143Y-139571905D01*
X118134762Y-139619524D01*
X118182381Y-139714762D01*
X118182381Y-139905239D01*
X118134762Y-140000477D01*
X118087143Y-140048096D01*
X117991905Y-140095715D01*
X117753810Y-140095715D01*
X117658571Y-140048096D01*
X117610952Y-140000477D01*
X117563333Y-139905239D01*
X117563333Y-139714762D01*
X117610952Y-139619524D01*
X117658571Y-139571905D01*
X117753810Y-139524286D01*
X69886666Y-125422381D02*
X70220000Y-124946190D01*
X70458095Y-125422381D02*
X70458095Y-124422381D01*
X70077142Y-124422381D01*
X69981904Y-124470000D01*
X69934285Y-124517619D01*
X69886666Y-124612857D01*
X69886666Y-124755714D01*
X69934285Y-124850952D01*
X69981904Y-124898571D01*
X70077142Y-124946190D01*
X70458095Y-124946190D01*
X69553333Y-124422381D02*
X68934285Y-124422381D01*
X69267619Y-124803333D01*
X69124761Y-124803333D01*
X69029523Y-124850952D01*
X68981904Y-124898571D01*
X68934285Y-124993810D01*
X68934285Y-125231905D01*
X68981904Y-125327143D01*
X69029523Y-125374762D01*
X69124761Y-125422381D01*
X69410476Y-125422381D01*
X69505714Y-125374762D01*
X69553333Y-125327143D01*
X96766666Y-161282381D02*
X97100000Y-160806190D01*
X97338095Y-161282381D02*
X97338095Y-160282381D01*
X96957142Y-160282381D01*
X96861904Y-160330000D01*
X96814285Y-160377619D01*
X96766666Y-160472857D01*
X96766666Y-160615714D01*
X96814285Y-160710952D01*
X96861904Y-160758571D01*
X96957142Y-160806190D01*
X97338095Y-160806190D01*
X95861904Y-160282381D02*
X96338095Y-160282381D01*
X96385714Y-160758571D01*
X96338095Y-160710952D01*
X96242857Y-160663333D01*
X96004761Y-160663333D01*
X95909523Y-160710952D01*
X95861904Y-160758571D01*
X95814285Y-160853810D01*
X95814285Y-161091905D01*
X95861904Y-161187143D01*
X95909523Y-161234762D01*
X96004761Y-161282381D01*
X96242857Y-161282381D01*
X96338095Y-161234762D01*
X96385714Y-161187143D01*
X100852381Y-142363334D02*
X100376190Y-142030000D01*
X100852381Y-141791905D02*
X99852381Y-141791905D01*
X99852381Y-142172858D01*
X99900000Y-142268096D01*
X99947619Y-142315715D01*
X100042857Y-142363334D01*
X100185714Y-142363334D01*
X100280952Y-142315715D01*
X100328571Y-142268096D01*
X100376190Y-142172858D01*
X100376190Y-141791905D01*
X99852381Y-143220477D02*
X99852381Y-143030000D01*
X99900000Y-142934762D01*
X99947619Y-142887143D01*
X100090476Y-142791905D01*
X100280952Y-142744286D01*
X100661905Y-142744286D01*
X100757143Y-142791905D01*
X100804762Y-142839524D01*
X100852381Y-142934762D01*
X100852381Y-143125239D01*
X100804762Y-143220477D01*
X100757143Y-143268096D01*
X100661905Y-143315715D01*
X100423810Y-143315715D01*
X100328571Y-143268096D01*
X100280952Y-143220477D01*
X100233333Y-143125239D01*
X100233333Y-142934762D01*
X100280952Y-142839524D01*
X100328571Y-142791905D01*
X100423810Y-142744286D01*
X68802381Y-122951905D02*
X67802381Y-122951905D01*
X67802381Y-123332858D01*
X67850000Y-123428096D01*
X67897619Y-123475715D01*
X67992857Y-123523334D01*
X68135714Y-123523334D01*
X68230952Y-123475715D01*
X68278571Y-123428096D01*
X68326190Y-123332858D01*
X68326190Y-122951905D01*
X67802381Y-123856667D02*
X67802381Y-124475715D01*
X68183333Y-124142381D01*
X68183333Y-124285239D01*
X68230952Y-124380477D01*
X68278571Y-124428096D01*
X68373810Y-124475715D01*
X68611905Y-124475715D01*
X68707143Y-124428096D01*
X68754762Y-124380477D01*
X68802381Y-124285239D01*
X68802381Y-123999524D01*
X68754762Y-123904286D01*
X68707143Y-123856667D01*
X82036191Y-122566190D02*
X82036191Y-123042381D01*
X82369524Y-122042381D02*
X82036191Y-122566190D01*
X81702857Y-122042381D01*
X80845714Y-123042381D02*
X81417143Y-123042381D01*
X81131429Y-123042381D02*
X81131429Y-122042381D01*
X81226667Y-122185238D01*
X81321905Y-122280476D01*
X81417143Y-122328095D01*
X89657143Y-156763334D02*
X89704762Y-156715715D01*
X89752381Y-156572858D01*
X89752381Y-156477620D01*
X89704762Y-156334762D01*
X89609524Y-156239524D01*
X89514286Y-156191905D01*
X89323810Y-156144286D01*
X89180952Y-156144286D01*
X88990476Y-156191905D01*
X88895238Y-156239524D01*
X88800000Y-156334762D01*
X88752381Y-156477620D01*
X88752381Y-156572858D01*
X88800000Y-156715715D01*
X88847619Y-156763334D01*
X88752381Y-157096667D02*
X88752381Y-157763334D01*
X89752381Y-157334762D01*
X72706666Y-111072381D02*
X73040000Y-110596190D01*
X73278095Y-111072381D02*
X73278095Y-110072381D01*
X72897142Y-110072381D01*
X72801904Y-110120000D01*
X72754285Y-110167619D01*
X72706666Y-110262857D01*
X72706666Y-110405714D01*
X72754285Y-110500952D01*
X72801904Y-110548571D01*
X72897142Y-110596190D01*
X73278095Y-110596190D01*
X72373333Y-110072381D02*
X71706666Y-110072381D01*
X72135238Y-111072381D01*
X110736666Y-138262381D02*
X111070000Y-137786190D01*
X111308095Y-138262381D02*
X111308095Y-137262381D01*
X110927142Y-137262381D01*
X110831904Y-137310000D01*
X110784285Y-137357619D01*
X110736666Y-137452857D01*
X110736666Y-137595714D01*
X110784285Y-137690952D01*
X110831904Y-137738571D01*
X110927142Y-137786190D01*
X111308095Y-137786190D01*
X110165238Y-137690952D02*
X110260476Y-137643333D01*
X110308095Y-137595714D01*
X110355714Y-137500476D01*
X110355714Y-137452857D01*
X110308095Y-137357619D01*
X110260476Y-137310000D01*
X110165238Y-137262381D01*
X109974761Y-137262381D01*
X109879523Y-137310000D01*
X109831904Y-137357619D01*
X109784285Y-137452857D01*
X109784285Y-137500476D01*
X109831904Y-137595714D01*
X109879523Y-137643333D01*
X109974761Y-137690952D01*
X110165238Y-137690952D01*
X110260476Y-137738571D01*
X110308095Y-137786190D01*
X110355714Y-137881429D01*
X110355714Y-138071905D01*
X110308095Y-138167143D01*
X110260476Y-138214762D01*
X110165238Y-138262381D01*
X109974761Y-138262381D01*
X109879523Y-138214762D01*
X109831904Y-138167143D01*
X109784285Y-138071905D01*
X109784285Y-137881429D01*
X109831904Y-137786190D01*
X109879523Y-137738571D01*
X109974761Y-137690952D01*
X108536666Y-138262381D02*
X108870000Y-137786190D01*
X109108095Y-138262381D02*
X109108095Y-137262381D01*
X108727142Y-137262381D01*
X108631904Y-137310000D01*
X108584285Y-137357619D01*
X108536666Y-137452857D01*
X108536666Y-137595714D01*
X108584285Y-137690952D01*
X108631904Y-137738571D01*
X108727142Y-137786190D01*
X109108095Y-137786190D01*
X108060476Y-138262381D02*
X107870000Y-138262381D01*
X107774761Y-138214762D01*
X107727142Y-138167143D01*
X107631904Y-138024286D01*
X107584285Y-137833810D01*
X107584285Y-137452857D01*
X107631904Y-137357619D01*
X107679523Y-137310000D01*
X107774761Y-137262381D01*
X107965238Y-137262381D01*
X108060476Y-137310000D01*
X108108095Y-137357619D01*
X108155714Y-137452857D01*
X108155714Y-137690952D01*
X108108095Y-137786190D01*
X108060476Y-137833810D01*
X107965238Y-137881429D01*
X107774761Y-137881429D01*
X107679523Y-137833810D01*
X107631904Y-137786190D01*
X107584285Y-137690952D01*
X104565238Y-146257619D02*
X104660476Y-146210000D01*
X104755714Y-146114762D01*
X104898571Y-145971905D01*
X104993810Y-145924286D01*
X105089048Y-145924286D01*
X105041429Y-146162381D02*
X105136667Y-146114762D01*
X105231905Y-146019524D01*
X105279524Y-145829048D01*
X105279524Y-145495714D01*
X105231905Y-145305238D01*
X105136667Y-145210000D01*
X105041429Y-145162381D01*
X104850952Y-145162381D01*
X104755714Y-145210000D01*
X104660476Y-145305238D01*
X104612857Y-145495714D01*
X104612857Y-145829048D01*
X104660476Y-146019524D01*
X104755714Y-146114762D01*
X104850952Y-146162381D01*
X105041429Y-146162381D01*
X104279524Y-145162381D02*
X103660476Y-145162381D01*
X103993810Y-145543333D01*
X103850952Y-145543333D01*
X103755714Y-145590952D01*
X103708095Y-145638571D01*
X103660476Y-145733810D01*
X103660476Y-145971905D01*
X103708095Y-146067143D01*
X103755714Y-146114762D01*
X103850952Y-146162381D01*
X104136667Y-146162381D01*
X104231905Y-146114762D01*
X104279524Y-146067143D01*
X112865238Y-138557619D02*
X112960476Y-138510000D01*
X113055714Y-138414762D01*
X113198571Y-138271905D01*
X113293810Y-138224286D01*
X113389048Y-138224286D01*
X113341429Y-138462381D02*
X113436667Y-138414762D01*
X113531905Y-138319524D01*
X113579524Y-138129048D01*
X113579524Y-137795714D01*
X113531905Y-137605238D01*
X113436667Y-137510000D01*
X113341429Y-137462381D01*
X113150952Y-137462381D01*
X113055714Y-137510000D01*
X112960476Y-137605238D01*
X112912857Y-137795714D01*
X112912857Y-138129048D01*
X112960476Y-138319524D01*
X113055714Y-138414762D01*
X113150952Y-138462381D01*
X113341429Y-138462381D01*
X112008095Y-137462381D02*
X112484286Y-137462381D01*
X112531905Y-137938571D01*
X112484286Y-137890952D01*
X112389048Y-137843333D01*
X112150952Y-137843333D01*
X112055714Y-137890952D01*
X112008095Y-137938571D01*
X111960476Y-138033810D01*
X111960476Y-138271905D01*
X112008095Y-138367143D01*
X112055714Y-138414762D01*
X112150952Y-138462381D01*
X112389048Y-138462381D01*
X112484286Y-138414762D01*
X112531905Y-138367143D01*
X97125238Y-146177619D02*
X97220476Y-146130000D01*
X97315714Y-146034762D01*
X97458571Y-145891905D01*
X97553810Y-145844286D01*
X97649048Y-145844286D01*
X97601429Y-146082381D02*
X97696667Y-146034762D01*
X97791905Y-145939524D01*
X97839524Y-145749048D01*
X97839524Y-145415714D01*
X97791905Y-145225238D01*
X97696667Y-145130000D01*
X97601429Y-145082381D01*
X97410952Y-145082381D01*
X97315714Y-145130000D01*
X97220476Y-145225238D01*
X97172857Y-145415714D01*
X97172857Y-145749048D01*
X97220476Y-145939524D01*
X97315714Y-146034762D01*
X97410952Y-146082381D01*
X97601429Y-146082381D01*
X96315714Y-145082381D02*
X96506191Y-145082381D01*
X96601429Y-145130000D01*
X96649048Y-145177619D01*
X96744286Y-145320476D01*
X96791905Y-145510952D01*
X96791905Y-145891905D01*
X96744286Y-145987143D01*
X96696667Y-146034762D01*
X96601429Y-146082381D01*
X96410952Y-146082381D01*
X96315714Y-146034762D01*
X96268095Y-145987143D01*
X96220476Y-145891905D01*
X96220476Y-145653810D01*
X96268095Y-145558571D01*
X96315714Y-145510952D01*
X96410952Y-145463333D01*
X96601429Y-145463333D01*
X96696667Y-145510952D01*
X96744286Y-145558571D01*
X96791905Y-145653810D01*
X111602857Y-148522381D02*
X111936191Y-148046190D01*
X112174286Y-148522381D02*
X112174286Y-147522381D01*
X111793333Y-147522381D01*
X111698095Y-147570000D01*
X111650476Y-147617619D01*
X111602857Y-147712857D01*
X111602857Y-147855714D01*
X111650476Y-147950952D01*
X111698095Y-147998571D01*
X111793333Y-148046190D01*
X112174286Y-148046190D01*
X110650476Y-148522381D02*
X111221905Y-148522381D01*
X110936191Y-148522381D02*
X110936191Y-147522381D01*
X111031429Y-147665238D01*
X111126667Y-147760476D01*
X111221905Y-147808095D01*
X110031429Y-147522381D02*
X109936190Y-147522381D01*
X109840952Y-147570000D01*
X109793333Y-147617619D01*
X109745714Y-147712857D01*
X109698095Y-147903333D01*
X109698095Y-148141429D01*
X109745714Y-148331905D01*
X109793333Y-148427143D01*
X109840952Y-148474762D01*
X109936190Y-148522381D01*
X110031429Y-148522381D01*
X110126667Y-148474762D01*
X110174286Y-148427143D01*
X110221905Y-148331905D01*
X110269524Y-148141429D01*
X110269524Y-147903333D01*
X110221905Y-147712857D01*
X110174286Y-147617619D01*
X110126667Y-147570000D01*
X110031429Y-147522381D01*
X107992857Y-148532381D02*
X108326191Y-148056190D01*
X108564286Y-148532381D02*
X108564286Y-147532381D01*
X108183333Y-147532381D01*
X108088095Y-147580000D01*
X108040476Y-147627619D01*
X107992857Y-147722857D01*
X107992857Y-147865714D01*
X108040476Y-147960952D01*
X108088095Y-148008571D01*
X108183333Y-148056190D01*
X108564286Y-148056190D01*
X107040476Y-148532381D02*
X107611905Y-148532381D01*
X107326191Y-148532381D02*
X107326191Y-147532381D01*
X107421429Y-147675238D01*
X107516667Y-147770476D01*
X107611905Y-147818095D01*
X106088095Y-148532381D02*
X106659524Y-148532381D01*
X106373810Y-148532381D02*
X106373810Y-147532381D01*
X106469048Y-147675238D01*
X106564286Y-147770476D01*
X106659524Y-147818095D01*
X101202381Y-151167143D02*
X100726190Y-150833809D01*
X101202381Y-150595714D02*
X100202381Y-150595714D01*
X100202381Y-150976667D01*
X100250000Y-151071905D01*
X100297619Y-151119524D01*
X100392857Y-151167143D01*
X100535714Y-151167143D01*
X100630952Y-151119524D01*
X100678571Y-151071905D01*
X100726190Y-150976667D01*
X100726190Y-150595714D01*
X101202381Y-152119524D02*
X101202381Y-151548095D01*
X101202381Y-151833809D02*
X100202381Y-151833809D01*
X100345238Y-151738571D01*
X100440476Y-151643333D01*
X100488095Y-151548095D01*
X100297619Y-152500476D02*
X100250000Y-152548095D01*
X100202381Y-152643333D01*
X100202381Y-152881429D01*
X100250000Y-152976667D01*
X100297619Y-153024286D01*
X100392857Y-153071905D01*
X100488095Y-153071905D01*
X100630952Y-153024286D01*
X101202381Y-152452857D01*
X101202381Y-153071905D01*
X91302857Y-159912381D02*
X91636191Y-159436190D01*
X91874286Y-159912381D02*
X91874286Y-158912381D01*
X91493333Y-158912381D01*
X91398095Y-158960000D01*
X91350476Y-159007619D01*
X91302857Y-159102857D01*
X91302857Y-159245714D01*
X91350476Y-159340952D01*
X91398095Y-159388571D01*
X91493333Y-159436190D01*
X91874286Y-159436190D01*
X90350476Y-159912381D02*
X90921905Y-159912381D01*
X90636191Y-159912381D02*
X90636191Y-158912381D01*
X90731429Y-159055238D01*
X90826667Y-159150476D01*
X90921905Y-159198095D01*
X90017143Y-158912381D02*
X89398095Y-158912381D01*
X89731429Y-159293333D01*
X89588571Y-159293333D01*
X89493333Y-159340952D01*
X89445714Y-159388571D01*
X89398095Y-159483810D01*
X89398095Y-159721905D01*
X89445714Y-159817143D01*
X89493333Y-159864762D01*
X89588571Y-159912381D01*
X89874286Y-159912381D01*
X89969524Y-159864762D01*
X90017143Y-159817143D01*
X114602381Y-146267143D02*
X114126190Y-145933809D01*
X114602381Y-145695714D02*
X113602381Y-145695714D01*
X113602381Y-146076667D01*
X113650000Y-146171905D01*
X113697619Y-146219524D01*
X113792857Y-146267143D01*
X113935714Y-146267143D01*
X114030952Y-146219524D01*
X114078571Y-146171905D01*
X114126190Y-146076667D01*
X114126190Y-145695714D01*
X114602381Y-147219524D02*
X114602381Y-146648095D01*
X114602381Y-146933809D02*
X113602381Y-146933809D01*
X113745238Y-146838571D01*
X113840476Y-146743333D01*
X113888095Y-146648095D01*
X113935714Y-148076667D02*
X114602381Y-148076667D01*
X113554762Y-147838571D02*
X114269048Y-147600476D01*
X114269048Y-148219524D01*
X89602381Y-152987143D02*
X89126190Y-152653809D01*
X89602381Y-152415714D02*
X88602381Y-152415714D01*
X88602381Y-152796667D01*
X88650000Y-152891905D01*
X88697619Y-152939524D01*
X88792857Y-152987143D01*
X88935714Y-152987143D01*
X89030952Y-152939524D01*
X89078571Y-152891905D01*
X89126190Y-152796667D01*
X89126190Y-152415714D01*
X89602381Y-153939524D02*
X89602381Y-153368095D01*
X89602381Y-153653809D02*
X88602381Y-153653809D01*
X88745238Y-153558571D01*
X88840476Y-153463333D01*
X88888095Y-153368095D01*
X88602381Y-154844286D02*
X88602381Y-154368095D01*
X89078571Y-154320476D01*
X89030952Y-154368095D01*
X88983333Y-154463333D01*
X88983333Y-154701429D01*
X89030952Y-154796667D01*
X89078571Y-154844286D01*
X89173810Y-154891905D01*
X89411905Y-154891905D01*
X89507143Y-154844286D01*
X89554762Y-154796667D01*
X89602381Y-154701429D01*
X89602381Y-154463333D01*
X89554762Y-154368095D01*
X89507143Y-154320476D01*
X116582381Y-133007143D02*
X116106190Y-132673809D01*
X116582381Y-132435714D02*
X115582381Y-132435714D01*
X115582381Y-132816667D01*
X115630000Y-132911905D01*
X115677619Y-132959524D01*
X115772857Y-133007143D01*
X115915714Y-133007143D01*
X116010952Y-132959524D01*
X116058571Y-132911905D01*
X116106190Y-132816667D01*
X116106190Y-132435714D01*
X116582381Y-133959524D02*
X116582381Y-133388095D01*
X116582381Y-133673809D02*
X115582381Y-133673809D01*
X115725238Y-133578571D01*
X115820476Y-133483333D01*
X115868095Y-133388095D01*
X115582381Y-134816667D02*
X115582381Y-134626190D01*
X115630000Y-134530952D01*
X115677619Y-134483333D01*
X115820476Y-134388095D01*
X116010952Y-134340476D01*
X116391905Y-134340476D01*
X116487143Y-134388095D01*
X116534762Y-134435714D01*
X116582381Y-134530952D01*
X116582381Y-134721429D01*
X116534762Y-134816667D01*
X116487143Y-134864286D01*
X116391905Y-134911905D01*
X116153810Y-134911905D01*
X116058571Y-134864286D01*
X116010952Y-134816667D01*
X115963333Y-134721429D01*
X115963333Y-134530952D01*
X116010952Y-134435714D01*
X116058571Y-134388095D01*
X116153810Y-134340476D01*
X91122857Y-147162381D02*
X91456191Y-146686190D01*
X91694286Y-147162381D02*
X91694286Y-146162381D01*
X91313333Y-146162381D01*
X91218095Y-146210000D01*
X91170476Y-146257619D01*
X91122857Y-146352857D01*
X91122857Y-146495714D01*
X91170476Y-146590952D01*
X91218095Y-146638571D01*
X91313333Y-146686190D01*
X91694286Y-146686190D01*
X90170476Y-147162381D02*
X90741905Y-147162381D01*
X90456191Y-147162381D02*
X90456191Y-146162381D01*
X90551429Y-146305238D01*
X90646667Y-146400476D01*
X90741905Y-146448095D01*
X89837143Y-146162381D02*
X89170476Y-146162381D01*
X89599048Y-147162381D01*
X91152857Y-149862381D02*
X91486191Y-149386190D01*
X91724286Y-149862381D02*
X91724286Y-148862381D01*
X91343333Y-148862381D01*
X91248095Y-148910000D01*
X91200476Y-148957619D01*
X91152857Y-149052857D01*
X91152857Y-149195714D01*
X91200476Y-149290952D01*
X91248095Y-149338571D01*
X91343333Y-149386190D01*
X91724286Y-149386190D01*
X90200476Y-149862381D02*
X90771905Y-149862381D01*
X90486191Y-149862381D02*
X90486191Y-148862381D01*
X90581429Y-149005238D01*
X90676667Y-149100476D01*
X90771905Y-149148095D01*
X89629048Y-149290952D02*
X89724286Y-149243333D01*
X89771905Y-149195714D01*
X89819524Y-149100476D01*
X89819524Y-149052857D01*
X89771905Y-148957619D01*
X89724286Y-148910000D01*
X89629048Y-148862381D01*
X89438571Y-148862381D01*
X89343333Y-148910000D01*
X89295714Y-148957619D01*
X89248095Y-149052857D01*
X89248095Y-149100476D01*
X89295714Y-149195714D01*
X89343333Y-149243333D01*
X89438571Y-149290952D01*
X89629048Y-149290952D01*
X89724286Y-149338571D01*
X89771905Y-149386190D01*
X89819524Y-149481429D01*
X89819524Y-149671905D01*
X89771905Y-149767143D01*
X89724286Y-149814762D01*
X89629048Y-149862381D01*
X89438571Y-149862381D01*
X89343333Y-149814762D01*
X89295714Y-149767143D01*
X89248095Y-149671905D01*
X89248095Y-149481429D01*
X89295714Y-149386190D01*
X89343333Y-149338571D01*
X89438571Y-149290952D01*
X80201905Y-118142381D02*
X80201905Y-118951905D01*
X80154286Y-119047143D01*
X80106667Y-119094762D01*
X80011429Y-119142381D01*
X79820952Y-119142381D01*
X79725714Y-119094762D01*
X79678095Y-119047143D01*
X79630476Y-118951905D01*
X79630476Y-118142381D01*
X79249524Y-118142381D02*
X78630476Y-118142381D01*
X78963810Y-118523333D01*
X78820952Y-118523333D01*
X78725714Y-118570952D01*
X78678095Y-118618571D01*
X78630476Y-118713810D01*
X78630476Y-118951905D01*
X78678095Y-119047143D01*
X78725714Y-119094762D01*
X78820952Y-119142381D01*
X79106667Y-119142381D01*
X79201905Y-119094762D01*
X79249524Y-119047143D01*
X88872381Y-65428095D02*
X89681905Y-65428095D01*
X89777143Y-65475714D01*
X89824762Y-65523333D01*
X89872381Y-65618571D01*
X89872381Y-65809048D01*
X89824762Y-65904286D01*
X89777143Y-65951905D01*
X89681905Y-65999524D01*
X88872381Y-65999524D01*
X89205714Y-66904286D02*
X89872381Y-66904286D01*
X88824762Y-66666190D02*
X89539048Y-66428095D01*
X89539048Y-67047143D01*
X100872381Y-81808095D02*
X101681905Y-81808095D01*
X101777143Y-81855714D01*
X101824762Y-81903333D01*
X101872381Y-81998571D01*
X101872381Y-82189048D01*
X101824762Y-82284286D01*
X101777143Y-82331905D01*
X101681905Y-82379524D01*
X100872381Y-82379524D01*
X100872381Y-83331905D02*
X100872381Y-82855714D01*
X101348571Y-82808095D01*
X101300952Y-82855714D01*
X101253333Y-82950952D01*
X101253333Y-83189048D01*
X101300952Y-83284286D01*
X101348571Y-83331905D01*
X101443810Y-83379524D01*
X101681905Y-83379524D01*
X101777143Y-83331905D01*
X101824762Y-83284286D01*
X101872381Y-83189048D01*
X101872381Y-82950952D01*
X101824762Y-82855714D01*
X101777143Y-82808095D01*
X90652381Y-150168095D02*
X91461905Y-150168095D01*
X91557143Y-150215714D01*
X91604762Y-150263333D01*
X91652381Y-150358571D01*
X91652381Y-150549048D01*
X91604762Y-150644286D01*
X91557143Y-150691905D01*
X91461905Y-150739524D01*
X90652381Y-150739524D01*
X90747619Y-151168095D02*
X90700000Y-151215714D01*
X90652381Y-151310952D01*
X90652381Y-151549048D01*
X90700000Y-151644286D01*
X90747619Y-151691905D01*
X90842857Y-151739524D01*
X90938095Y-151739524D01*
X91080952Y-151691905D01*
X91652381Y-151120476D01*
X91652381Y-151739524D01*
X87917143Y-70153334D02*
X87964762Y-70105715D01*
X88012381Y-69962858D01*
X88012381Y-69867620D01*
X87964762Y-69724762D01*
X87869524Y-69629524D01*
X87774286Y-69581905D01*
X87583810Y-69534286D01*
X87440952Y-69534286D01*
X87250476Y-69581905D01*
X87155238Y-69629524D01*
X87060000Y-69724762D01*
X87012381Y-69867620D01*
X87012381Y-69962858D01*
X87060000Y-70105715D01*
X87107619Y-70153334D01*
X87440952Y-70724762D02*
X87393333Y-70629524D01*
X87345714Y-70581905D01*
X87250476Y-70534286D01*
X87202857Y-70534286D01*
X87107619Y-70581905D01*
X87060000Y-70629524D01*
X87012381Y-70724762D01*
X87012381Y-70915239D01*
X87060000Y-71010477D01*
X87107619Y-71058096D01*
X87202857Y-71105715D01*
X87250476Y-71105715D01*
X87345714Y-71058096D01*
X87393333Y-71010477D01*
X87440952Y-70915239D01*
X87440952Y-70724762D01*
X87488571Y-70629524D01*
X87536190Y-70581905D01*
X87631429Y-70534286D01*
X87821905Y-70534286D01*
X87917143Y-70581905D01*
X87964762Y-70629524D01*
X88012381Y-70724762D01*
X88012381Y-70915239D01*
X87964762Y-71010477D01*
X87917143Y-71058096D01*
X87821905Y-71105715D01*
X87631429Y-71105715D01*
X87536190Y-71058096D01*
X87488571Y-71010477D01*
X87440952Y-70915239D01*
X103767143Y-78313334D02*
X103814762Y-78265715D01*
X103862381Y-78122858D01*
X103862381Y-78027620D01*
X103814762Y-77884762D01*
X103719524Y-77789524D01*
X103624286Y-77741905D01*
X103433810Y-77694286D01*
X103290952Y-77694286D01*
X103100476Y-77741905D01*
X103005238Y-77789524D01*
X102910000Y-77884762D01*
X102862381Y-78027620D01*
X102862381Y-78122858D01*
X102910000Y-78265715D01*
X102957619Y-78313334D01*
X103862381Y-78789524D02*
X103862381Y-78980000D01*
X103814762Y-79075239D01*
X103767143Y-79122858D01*
X103624286Y-79218096D01*
X103433810Y-79265715D01*
X103052857Y-79265715D01*
X102957619Y-79218096D01*
X102910000Y-79170477D01*
X102862381Y-79075239D01*
X102862381Y-78884762D01*
X102910000Y-78789524D01*
X102957619Y-78741905D01*
X103052857Y-78694286D01*
X103290952Y-78694286D01*
X103386190Y-78741905D01*
X103433810Y-78789524D01*
X103481429Y-78884762D01*
X103481429Y-79075239D01*
X103433810Y-79170477D01*
X103386190Y-79218096D01*
X103290952Y-79265715D01*
X124158095Y-142852381D02*
X124158095Y-141852381D01*
X123777142Y-141852381D01*
X123681904Y-141900000D01*
X123634285Y-141947619D01*
X123586666Y-142042857D01*
X123586666Y-142185714D01*
X123634285Y-142280952D01*
X123681904Y-142328571D01*
X123777142Y-142376190D01*
X124158095Y-142376190D01*
X122729523Y-142185714D02*
X122729523Y-142852381D01*
X122967619Y-141804762D02*
X123205714Y-142519048D01*
X122586666Y-142519048D01*
X79272381Y-94458095D02*
X79272381Y-95029524D01*
X80272381Y-94743809D02*
X79272381Y-94743809D01*
X80272381Y-95362857D02*
X79272381Y-95362857D01*
X79272381Y-95743810D01*
X79320000Y-95839048D01*
X79367619Y-95886667D01*
X79462857Y-95934286D01*
X79605714Y-95934286D01*
X79700952Y-95886667D01*
X79748571Y-95839048D01*
X79796190Y-95743810D01*
X79796190Y-95362857D01*
X80272381Y-96886667D02*
X80272381Y-96315238D01*
X80272381Y-96600952D02*
X79272381Y-96600952D01*
X79415238Y-96505714D01*
X79510476Y-96410476D01*
X79558095Y-96315238D01*
X74062381Y-94428095D02*
X74062381Y-94999524D01*
X75062381Y-94713809D02*
X74062381Y-94713809D01*
X75062381Y-95332857D02*
X74062381Y-95332857D01*
X74062381Y-95713810D01*
X74110000Y-95809048D01*
X74157619Y-95856667D01*
X74252857Y-95904286D01*
X74395714Y-95904286D01*
X74490952Y-95856667D01*
X74538571Y-95809048D01*
X74586190Y-95713810D01*
X74586190Y-95332857D01*
X74062381Y-96237619D02*
X74062381Y-96856667D01*
X74443333Y-96523333D01*
X74443333Y-96666191D01*
X74490952Y-96761429D01*
X74538571Y-96809048D01*
X74633810Y-96856667D01*
X74871905Y-96856667D01*
X74967143Y-96809048D01*
X75014762Y-96761429D01*
X75062381Y-96666191D01*
X75062381Y-96380476D01*
X75014762Y-96285238D01*
X74967143Y-96237619D01*
X88951905Y-161622381D02*
X88380476Y-161622381D01*
X88666191Y-162622381D02*
X88666191Y-161622381D01*
X88047143Y-162622381D02*
X88047143Y-161622381D01*
X87666190Y-161622381D01*
X87570952Y-161670000D01*
X87523333Y-161717619D01*
X87475714Y-161812857D01*
X87475714Y-161955714D01*
X87523333Y-162050952D01*
X87570952Y-162098571D01*
X87666190Y-162146190D01*
X88047143Y-162146190D01*
X86618571Y-161622381D02*
X86809048Y-161622381D01*
X86904286Y-161670000D01*
X86951905Y-161717619D01*
X87047143Y-161860476D01*
X87094762Y-162050952D01*
X87094762Y-162431905D01*
X87047143Y-162527143D01*
X86999524Y-162574762D01*
X86904286Y-162622381D01*
X86713809Y-162622381D01*
X86618571Y-162574762D01*
X86570952Y-162527143D01*
X86523333Y-162431905D01*
X86523333Y-162193810D01*
X86570952Y-162098571D01*
X86618571Y-162050952D01*
X86713809Y-162003333D01*
X86904286Y-162003333D01*
X86999524Y-162050952D01*
X87047143Y-162098571D01*
X87094762Y-162193810D01*
X117921905Y-153172381D02*
X117350476Y-153172381D01*
X117636191Y-154172381D02*
X117636191Y-153172381D01*
X117017143Y-154172381D02*
X117017143Y-153172381D01*
X116636190Y-153172381D01*
X116540952Y-153220000D01*
X116493333Y-153267619D01*
X116445714Y-153362857D01*
X116445714Y-153505714D01*
X116493333Y-153600952D01*
X116540952Y-153648571D01*
X116636190Y-153696190D01*
X117017143Y-153696190D01*
X116112381Y-153172381D02*
X115445714Y-153172381D01*
X115874286Y-154172381D01*
X120731905Y-143252381D02*
X120160476Y-143252381D01*
X120446191Y-144252381D02*
X120446191Y-143252381D01*
X119827143Y-144252381D02*
X119827143Y-143252381D01*
X119446190Y-143252381D01*
X119350952Y-143300000D01*
X119303333Y-143347619D01*
X119255714Y-143442857D01*
X119255714Y-143585714D01*
X119303333Y-143680952D01*
X119350952Y-143728571D01*
X119446190Y-143776190D01*
X119827143Y-143776190D01*
X118684286Y-143680952D02*
X118779524Y-143633333D01*
X118827143Y-143585714D01*
X118874762Y-143490476D01*
X118874762Y-143442857D01*
X118827143Y-143347619D01*
X118779524Y-143300000D01*
X118684286Y-143252381D01*
X118493809Y-143252381D01*
X118398571Y-143300000D01*
X118350952Y-143347619D01*
X118303333Y-143442857D01*
X118303333Y-143490476D01*
X118350952Y-143585714D01*
X118398571Y-143633333D01*
X118493809Y-143680952D01*
X118684286Y-143680952D01*
X118779524Y-143728571D01*
X118827143Y-143776190D01*
X118874762Y-143871429D01*
X118874762Y-144061905D01*
X118827143Y-144157143D01*
X118779524Y-144204762D01*
X118684286Y-144252381D01*
X118493809Y-144252381D01*
X118398571Y-144204762D01*
X118350952Y-144157143D01*
X118303333Y-144061905D01*
X118303333Y-143871429D01*
X118350952Y-143776190D01*
X118398571Y-143728571D01*
X118493809Y-143680952D01*
X93916666Y-163182381D02*
X94250000Y-162706190D01*
X94488095Y-163182381D02*
X94488095Y-162182381D01*
X94107142Y-162182381D01*
X94011904Y-162230000D01*
X93964285Y-162277619D01*
X93916666Y-162372857D01*
X93916666Y-162515714D01*
X93964285Y-162610952D01*
X94011904Y-162658571D01*
X94107142Y-162706190D01*
X94488095Y-162706190D01*
X93059523Y-162515714D02*
X93059523Y-163182381D01*
X93297619Y-162134762D02*
X93535714Y-162849048D01*
X92916666Y-162849048D01*
X82062381Y-94368095D02*
X82062381Y-94939524D01*
X83062381Y-94653809D02*
X82062381Y-94653809D01*
X83062381Y-95272857D02*
X82062381Y-95272857D01*
X82062381Y-95653810D01*
X82110000Y-95749048D01*
X82157619Y-95796667D01*
X82252857Y-95844286D01*
X82395714Y-95844286D01*
X82490952Y-95796667D01*
X82538571Y-95749048D01*
X82586190Y-95653810D01*
X82586190Y-95272857D01*
X83062381Y-96320476D02*
X83062381Y-96510952D01*
X83014762Y-96606191D01*
X82967143Y-96653810D01*
X82824286Y-96749048D01*
X82633810Y-96796667D01*
X82252857Y-96796667D01*
X82157619Y-96749048D01*
X82110000Y-96701429D01*
X82062381Y-96606191D01*
X82062381Y-96415714D01*
X82110000Y-96320476D01*
X82157619Y-96272857D01*
X82252857Y-96225238D01*
X82490952Y-96225238D01*
X82586190Y-96272857D01*
X82633810Y-96320476D01*
X82681429Y-96415714D01*
X82681429Y-96606191D01*
X82633810Y-96701429D01*
X82586190Y-96749048D01*
X82490952Y-96796667D01*
X108687619Y-151994762D02*
X108640000Y-151899524D01*
X108544762Y-151804286D01*
X108401905Y-151661429D01*
X108354286Y-151566190D01*
X108354286Y-151470952D01*
X108592381Y-151518571D02*
X108544762Y-151423333D01*
X108449524Y-151328095D01*
X108259048Y-151280476D01*
X107925714Y-151280476D01*
X107735238Y-151328095D01*
X107640000Y-151423333D01*
X107592381Y-151518571D01*
X107592381Y-151709048D01*
X107640000Y-151804286D01*
X107735238Y-151899524D01*
X107925714Y-151947143D01*
X108259048Y-151947143D01*
X108449524Y-151899524D01*
X108544762Y-151804286D01*
X108592381Y-151709048D01*
X108592381Y-151518571D01*
X107592381Y-152280476D02*
X107592381Y-152947143D01*
X108592381Y-152518571D01*
X70432857Y-132147143D02*
X70480476Y-132194762D01*
X70623333Y-132242381D01*
X70718571Y-132242381D01*
X70861429Y-132194762D01*
X70956667Y-132099524D01*
X71004286Y-132004286D01*
X71051905Y-131813810D01*
X71051905Y-131670952D01*
X71004286Y-131480476D01*
X70956667Y-131385238D01*
X70861429Y-131290000D01*
X70718571Y-131242381D01*
X70623333Y-131242381D01*
X70480476Y-131290000D01*
X70432857Y-131337619D01*
X69480476Y-132242381D02*
X70051905Y-132242381D01*
X69766191Y-132242381D02*
X69766191Y-131242381D01*
X69861429Y-131385238D01*
X69956667Y-131480476D01*
X70051905Y-131528095D01*
X68861429Y-131242381D02*
X68766190Y-131242381D01*
X68670952Y-131290000D01*
X68623333Y-131337619D01*
X68575714Y-131432857D01*
X68528095Y-131623333D01*
X68528095Y-131861429D01*
X68575714Y-132051905D01*
X68623333Y-132147143D01*
X68670952Y-132194762D01*
X68766190Y-132242381D01*
X68861429Y-132242381D01*
X68956667Y-132194762D01*
X69004286Y-132147143D01*
X69051905Y-132051905D01*
X69099524Y-131861429D01*
X69099524Y-131623333D01*
X69051905Y-131432857D01*
X69004286Y-131337619D01*
X68956667Y-131290000D01*
X68861429Y-131242381D01*
X118448095Y-149562381D02*
X118448095Y-148562381D01*
X118067142Y-148562381D01*
X117971904Y-148610000D01*
X117924285Y-148657619D01*
X117876666Y-148752857D01*
X117876666Y-148895714D01*
X117924285Y-148990952D01*
X117971904Y-149038571D01*
X118067142Y-149086190D01*
X118448095Y-149086190D01*
X117495714Y-148657619D02*
X117448095Y-148610000D01*
X117352857Y-148562381D01*
X117114761Y-148562381D01*
X117019523Y-148610000D01*
X116971904Y-148657619D01*
X116924285Y-148752857D01*
X116924285Y-148848095D01*
X116971904Y-148990952D01*
X117543333Y-149562381D01*
X116924285Y-149562381D01*
X68492857Y-140122381D02*
X68826191Y-139646190D01*
X69064286Y-140122381D02*
X69064286Y-139122381D01*
X68683333Y-139122381D01*
X68588095Y-139170000D01*
X68540476Y-139217619D01*
X68492857Y-139312857D01*
X68492857Y-139455714D01*
X68540476Y-139550952D01*
X68588095Y-139598571D01*
X68683333Y-139646190D01*
X69064286Y-139646190D01*
X67540476Y-140122381D02*
X68111905Y-140122381D01*
X67826191Y-140122381D02*
X67826191Y-139122381D01*
X67921429Y-139265238D01*
X68016667Y-139360476D01*
X68111905Y-139408095D01*
X67064286Y-140122381D02*
X66873810Y-140122381D01*
X66778571Y-140074762D01*
X66730952Y-140027143D01*
X66635714Y-139884286D01*
X66588095Y-139693810D01*
X66588095Y-139312857D01*
X66635714Y-139217619D01*
X66683333Y-139170000D01*
X66778571Y-139122381D01*
X66969048Y-139122381D01*
X67064286Y-139170000D01*
X67111905Y-139217619D01*
X67159524Y-139312857D01*
X67159524Y-139550952D01*
X67111905Y-139646190D01*
X67064286Y-139693810D01*
X66969048Y-139741429D01*
X66778571Y-139741429D01*
X66683333Y-139693810D01*
X66635714Y-139646190D01*
X66588095Y-139550952D01*
X65625238Y-83277619D02*
X65720476Y-83230000D01*
X65815714Y-83134762D01*
X65958571Y-82991905D01*
X66053810Y-82944286D01*
X66149048Y-82944286D01*
X66101429Y-83182381D02*
X66196667Y-83134762D01*
X66291905Y-83039524D01*
X66339524Y-82849048D01*
X66339524Y-82515714D01*
X66291905Y-82325238D01*
X66196667Y-82230000D01*
X66101429Y-82182381D01*
X65910952Y-82182381D01*
X65815714Y-82230000D01*
X65720476Y-82325238D01*
X65672857Y-82515714D01*
X65672857Y-82849048D01*
X65720476Y-83039524D01*
X65815714Y-83134762D01*
X65910952Y-83182381D01*
X66101429Y-83182381D01*
X65101429Y-82610952D02*
X65196667Y-82563333D01*
X65244286Y-82515714D01*
X65291905Y-82420476D01*
X65291905Y-82372857D01*
X65244286Y-82277619D01*
X65196667Y-82230000D01*
X65101429Y-82182381D01*
X64910952Y-82182381D01*
X64815714Y-82230000D01*
X64768095Y-82277619D01*
X64720476Y-82372857D01*
X64720476Y-82420476D01*
X64768095Y-82515714D01*
X64815714Y-82563333D01*
X64910952Y-82610952D01*
X65101429Y-82610952D01*
X65196667Y-82658571D01*
X65244286Y-82706190D01*
X65291905Y-82801429D01*
X65291905Y-82991905D01*
X65244286Y-83087143D01*
X65196667Y-83134762D01*
X65101429Y-83182381D01*
X64910952Y-83182381D01*
X64815714Y-83134762D01*
X64768095Y-83087143D01*
X64720476Y-82991905D01*
X64720476Y-82801429D01*
X64768095Y-82706190D01*
X64815714Y-82658571D01*
X64910952Y-82610952D01*
X63418095Y-119332381D02*
X63418095Y-118332381D01*
X63037142Y-118332381D01*
X62941904Y-118380000D01*
X62894285Y-118427619D01*
X62846666Y-118522857D01*
X62846666Y-118665714D01*
X62894285Y-118760952D01*
X62941904Y-118808571D01*
X63037142Y-118856190D01*
X63418095Y-118856190D01*
X61894285Y-119332381D02*
X62465714Y-119332381D01*
X62180000Y-119332381D02*
X62180000Y-118332381D01*
X62275238Y-118475238D01*
X62370476Y-118570476D01*
X62465714Y-118618095D01*
X101692857Y-108867143D02*
X101740476Y-108914762D01*
X101883333Y-108962381D01*
X101978571Y-108962381D01*
X102121429Y-108914762D01*
X102216667Y-108819524D01*
X102264286Y-108724286D01*
X102311905Y-108533810D01*
X102311905Y-108390952D01*
X102264286Y-108200476D01*
X102216667Y-108105238D01*
X102121429Y-108010000D01*
X101978571Y-107962381D01*
X101883333Y-107962381D01*
X101740476Y-108010000D01*
X101692857Y-108057619D01*
X100740476Y-108962381D02*
X101311905Y-108962381D01*
X101026191Y-108962381D02*
X101026191Y-107962381D01*
X101121429Y-108105238D01*
X101216667Y-108200476D01*
X101311905Y-108248095D01*
X99788095Y-108962381D02*
X100359524Y-108962381D01*
X100073810Y-108962381D02*
X100073810Y-107962381D01*
X100169048Y-108105238D01*
X100264286Y-108200476D01*
X100359524Y-108248095D01*
X93377143Y-107557143D02*
X93424762Y-107509524D01*
X93472381Y-107366667D01*
X93472381Y-107271429D01*
X93424762Y-107128571D01*
X93329524Y-107033333D01*
X93234286Y-106985714D01*
X93043810Y-106938095D01*
X92900952Y-106938095D01*
X92710476Y-106985714D01*
X92615238Y-107033333D01*
X92520000Y-107128571D01*
X92472381Y-107271429D01*
X92472381Y-107366667D01*
X92520000Y-107509524D01*
X92567619Y-107557143D01*
X93472381Y-108509524D02*
X93472381Y-107938095D01*
X93472381Y-108223809D02*
X92472381Y-108223809D01*
X92615238Y-108128571D01*
X92710476Y-108033333D01*
X92758095Y-107938095D01*
X92567619Y-108890476D02*
X92520000Y-108938095D01*
X92472381Y-109033333D01*
X92472381Y-109271429D01*
X92520000Y-109366667D01*
X92567619Y-109414286D01*
X92662857Y-109461905D01*
X92758095Y-109461905D01*
X92900952Y-109414286D01*
X93472381Y-108842857D01*
X93472381Y-109461905D01*
X76112857Y-114337143D02*
X76160476Y-114384762D01*
X76303333Y-114432381D01*
X76398571Y-114432381D01*
X76541429Y-114384762D01*
X76636667Y-114289524D01*
X76684286Y-114194286D01*
X76731905Y-114003810D01*
X76731905Y-113860952D01*
X76684286Y-113670476D01*
X76636667Y-113575238D01*
X76541429Y-113480000D01*
X76398571Y-113432381D01*
X76303333Y-113432381D01*
X76160476Y-113480000D01*
X76112857Y-113527619D01*
X75160476Y-114432381D02*
X75731905Y-114432381D01*
X75446191Y-114432381D02*
X75446191Y-113432381D01*
X75541429Y-113575238D01*
X75636667Y-113670476D01*
X75731905Y-113718095D01*
X74827143Y-113432381D02*
X74208095Y-113432381D01*
X74541429Y-113813333D01*
X74398571Y-113813333D01*
X74303333Y-113860952D01*
X74255714Y-113908571D01*
X74208095Y-114003810D01*
X74208095Y-114241905D01*
X74255714Y-114337143D01*
X74303333Y-114384762D01*
X74398571Y-114432381D01*
X74684286Y-114432381D01*
X74779524Y-114384762D01*
X74827143Y-114337143D01*
X84258095Y-111252381D02*
X84258095Y-110252381D01*
X84020000Y-110252381D01*
X83877142Y-110300000D01*
X83781904Y-110395238D01*
X83734285Y-110490476D01*
X83686666Y-110680952D01*
X83686666Y-110823810D01*
X83734285Y-111014286D01*
X83781904Y-111109524D01*
X83877142Y-111204762D01*
X84020000Y-111252381D01*
X84258095Y-111252381D01*
X83353333Y-110252381D02*
X82734285Y-110252381D01*
X83067619Y-110633333D01*
X82924761Y-110633333D01*
X82829523Y-110680952D01*
X82781904Y-110728571D01*
X82734285Y-110823810D01*
X82734285Y-111061905D01*
X82781904Y-111157143D01*
X82829523Y-111204762D01*
X82924761Y-111252381D01*
X83210476Y-111252381D01*
X83305714Y-111204762D01*
X83353333Y-111157143D01*
X118378095Y-113802381D02*
X118378095Y-112802381D01*
X117997142Y-112802381D01*
X117901904Y-112850000D01*
X117854285Y-112897619D01*
X117806666Y-112992857D01*
X117806666Y-113135714D01*
X117854285Y-113230952D01*
X117901904Y-113278571D01*
X117997142Y-113326190D01*
X118378095Y-113326190D01*
X116901904Y-112802381D02*
X117378095Y-112802381D01*
X117425714Y-113278571D01*
X117378095Y-113230952D01*
X117282857Y-113183333D01*
X117044761Y-113183333D01*
X116949523Y-113230952D01*
X116901904Y-113278571D01*
X116854285Y-113373810D01*
X116854285Y-113611905D01*
X116901904Y-113707143D01*
X116949523Y-113754762D01*
X117044761Y-113802381D01*
X117282857Y-113802381D01*
X117378095Y-113754762D01*
X117425714Y-113707143D01*
X71905238Y-146367619D02*
X72000476Y-146320000D01*
X72095714Y-146224762D01*
X72238571Y-146081905D01*
X72333810Y-146034286D01*
X72429048Y-146034286D01*
X72381429Y-146272381D02*
X72476667Y-146224762D01*
X72571905Y-146129524D01*
X72619524Y-145939048D01*
X72619524Y-145605714D01*
X72571905Y-145415238D01*
X72476667Y-145320000D01*
X72381429Y-145272381D01*
X72190952Y-145272381D01*
X72095714Y-145320000D01*
X72000476Y-145415238D01*
X71952857Y-145605714D01*
X71952857Y-145939048D01*
X72000476Y-146129524D01*
X72095714Y-146224762D01*
X72190952Y-146272381D01*
X72381429Y-146272381D01*
X71095714Y-145605714D02*
X71095714Y-146272381D01*
X71333810Y-145224762D02*
X71571905Y-145939048D01*
X70952857Y-145939048D01*
X78415238Y-101947619D02*
X78510476Y-101900000D01*
X78605714Y-101804762D01*
X78748571Y-101661905D01*
X78843810Y-101614286D01*
X78939048Y-101614286D01*
X78891429Y-101852381D02*
X78986667Y-101804762D01*
X79081905Y-101709524D01*
X79129524Y-101519048D01*
X79129524Y-101185714D01*
X79081905Y-100995238D01*
X78986667Y-100900000D01*
X78891429Y-100852381D01*
X78700952Y-100852381D01*
X78605714Y-100900000D01*
X78510476Y-100995238D01*
X78462857Y-101185714D01*
X78462857Y-101519048D01*
X78510476Y-101709524D01*
X78605714Y-101804762D01*
X78700952Y-101852381D01*
X78891429Y-101852381D01*
X77986667Y-101852381D02*
X77796191Y-101852381D01*
X77700952Y-101804762D01*
X77653333Y-101757143D01*
X77558095Y-101614286D01*
X77510476Y-101423810D01*
X77510476Y-101042857D01*
X77558095Y-100947619D01*
X77605714Y-100900000D01*
X77700952Y-100852381D01*
X77891429Y-100852381D01*
X77986667Y-100900000D01*
X78034286Y-100947619D01*
X78081905Y-101042857D01*
X78081905Y-101280952D01*
X78034286Y-101376190D01*
X77986667Y-101423810D01*
X77891429Y-101471429D01*
X77700952Y-101471429D01*
X77605714Y-101423810D01*
X77558095Y-101376190D01*
X77510476Y-101280952D01*
X76667619Y-110528572D02*
X76620000Y-110433334D01*
X76524762Y-110338096D01*
X76381905Y-110195239D01*
X76334286Y-110100000D01*
X76334286Y-110004762D01*
X76572381Y-110052381D02*
X76524762Y-109957143D01*
X76429524Y-109861905D01*
X76239048Y-109814286D01*
X75905714Y-109814286D01*
X75715238Y-109861905D01*
X75620000Y-109957143D01*
X75572381Y-110052381D01*
X75572381Y-110242858D01*
X75620000Y-110338096D01*
X75715238Y-110433334D01*
X75905714Y-110480953D01*
X76239048Y-110480953D01*
X76429524Y-110433334D01*
X76524762Y-110338096D01*
X76572381Y-110242858D01*
X76572381Y-110052381D01*
X76572381Y-111433334D02*
X76572381Y-110861905D01*
X76572381Y-111147619D02*
X75572381Y-111147619D01*
X75715238Y-111052381D01*
X75810476Y-110957143D01*
X75858095Y-110861905D01*
X75572381Y-112052381D02*
X75572381Y-112147620D01*
X75620000Y-112242858D01*
X75667619Y-112290477D01*
X75762857Y-112338096D01*
X75953333Y-112385715D01*
X76191429Y-112385715D01*
X76381905Y-112338096D01*
X76477143Y-112290477D01*
X76524762Y-112242858D01*
X76572381Y-112147620D01*
X76572381Y-112052381D01*
X76524762Y-111957143D01*
X76477143Y-111909524D01*
X76381905Y-111861905D01*
X76191429Y-111814286D01*
X75953333Y-111814286D01*
X75762857Y-111861905D01*
X75667619Y-111909524D01*
X75620000Y-111957143D01*
X75572381Y-112052381D01*
X67592381Y-146907143D02*
X67116190Y-146573809D01*
X67592381Y-146335714D02*
X66592381Y-146335714D01*
X66592381Y-146716667D01*
X66640000Y-146811905D01*
X66687619Y-146859524D01*
X66782857Y-146907143D01*
X66925714Y-146907143D01*
X67020952Y-146859524D01*
X67068571Y-146811905D01*
X67116190Y-146716667D01*
X67116190Y-146335714D01*
X66687619Y-147288095D02*
X66640000Y-147335714D01*
X66592381Y-147430952D01*
X66592381Y-147669048D01*
X66640000Y-147764286D01*
X66687619Y-147811905D01*
X66782857Y-147859524D01*
X66878095Y-147859524D01*
X67020952Y-147811905D01*
X67592381Y-147240476D01*
X67592381Y-147859524D01*
X66592381Y-148192857D02*
X66592381Y-148811905D01*
X66973333Y-148478571D01*
X66973333Y-148621429D01*
X67020952Y-148716667D01*
X67068571Y-148764286D01*
X67163810Y-148811905D01*
X67401905Y-148811905D01*
X67497143Y-148764286D01*
X67544762Y-148716667D01*
X67592381Y-148621429D01*
X67592381Y-148335714D01*
X67544762Y-148240476D01*
X67497143Y-148192857D01*
X68442857Y-142012381D02*
X68776191Y-141536190D01*
X69014286Y-142012381D02*
X69014286Y-141012381D01*
X68633333Y-141012381D01*
X68538095Y-141060000D01*
X68490476Y-141107619D01*
X68442857Y-141202857D01*
X68442857Y-141345714D01*
X68490476Y-141440952D01*
X68538095Y-141488571D01*
X68633333Y-141536190D01*
X69014286Y-141536190D01*
X68061905Y-141107619D02*
X68014286Y-141060000D01*
X67919048Y-141012381D01*
X67680952Y-141012381D01*
X67585714Y-141060000D01*
X67538095Y-141107619D01*
X67490476Y-141202857D01*
X67490476Y-141298095D01*
X67538095Y-141440952D01*
X68109524Y-142012381D01*
X67490476Y-142012381D01*
X66633333Y-141345714D02*
X66633333Y-142012381D01*
X66871429Y-140964762D02*
X67109524Y-141679048D01*
X66490476Y-141679048D01*
X103652381Y-102327143D02*
X103176190Y-101993809D01*
X103652381Y-101755714D02*
X102652381Y-101755714D01*
X102652381Y-102136667D01*
X102700000Y-102231905D01*
X102747619Y-102279524D01*
X102842857Y-102327143D01*
X102985714Y-102327143D01*
X103080952Y-102279524D01*
X103128571Y-102231905D01*
X103176190Y-102136667D01*
X103176190Y-101755714D01*
X102747619Y-102708095D02*
X102700000Y-102755714D01*
X102652381Y-102850952D01*
X102652381Y-103089048D01*
X102700000Y-103184286D01*
X102747619Y-103231905D01*
X102842857Y-103279524D01*
X102938095Y-103279524D01*
X103080952Y-103231905D01*
X103652381Y-102660476D01*
X103652381Y-103279524D01*
X102652381Y-104184286D02*
X102652381Y-103708095D01*
X103128571Y-103660476D01*
X103080952Y-103708095D01*
X103033333Y-103803333D01*
X103033333Y-104041429D01*
X103080952Y-104136667D01*
X103128571Y-104184286D01*
X103223810Y-104231905D01*
X103461905Y-104231905D01*
X103557143Y-104184286D01*
X103604762Y-104136667D01*
X103652381Y-104041429D01*
X103652381Y-103803333D01*
X103604762Y-103708095D01*
X103557143Y-103660476D01*
X90062857Y-94852381D02*
X90396191Y-94376190D01*
X90634286Y-94852381D02*
X90634286Y-93852381D01*
X90253333Y-93852381D01*
X90158095Y-93900000D01*
X90110476Y-93947619D01*
X90062857Y-94042857D01*
X90062857Y-94185714D01*
X90110476Y-94280952D01*
X90158095Y-94328571D01*
X90253333Y-94376190D01*
X90634286Y-94376190D01*
X89681905Y-93947619D02*
X89634286Y-93900000D01*
X89539048Y-93852381D01*
X89300952Y-93852381D01*
X89205714Y-93900000D01*
X89158095Y-93947619D01*
X89110476Y-94042857D01*
X89110476Y-94138095D01*
X89158095Y-94280952D01*
X89729524Y-94852381D01*
X89110476Y-94852381D01*
X88253333Y-93852381D02*
X88443810Y-93852381D01*
X88539048Y-93900000D01*
X88586667Y-93947619D01*
X88681905Y-94090476D01*
X88729524Y-94280952D01*
X88729524Y-94661905D01*
X88681905Y-94757143D01*
X88634286Y-94804762D01*
X88539048Y-94852381D01*
X88348571Y-94852381D01*
X88253333Y-94804762D01*
X88205714Y-94757143D01*
X88158095Y-94661905D01*
X88158095Y-94423810D01*
X88205714Y-94328571D01*
X88253333Y-94280952D01*
X88348571Y-94233333D01*
X88539048Y-94233333D01*
X88634286Y-94280952D01*
X88681905Y-94328571D01*
X88729524Y-94423810D01*
X83772381Y-107957143D02*
X83296190Y-107623809D01*
X83772381Y-107385714D02*
X82772381Y-107385714D01*
X82772381Y-107766667D01*
X82820000Y-107861905D01*
X82867619Y-107909524D01*
X82962857Y-107957143D01*
X83105714Y-107957143D01*
X83200952Y-107909524D01*
X83248571Y-107861905D01*
X83296190Y-107766667D01*
X83296190Y-107385714D01*
X82867619Y-108338095D02*
X82820000Y-108385714D01*
X82772381Y-108480952D01*
X82772381Y-108719048D01*
X82820000Y-108814286D01*
X82867619Y-108861905D01*
X82962857Y-108909524D01*
X83058095Y-108909524D01*
X83200952Y-108861905D01*
X83772381Y-108290476D01*
X83772381Y-108909524D01*
X82772381Y-109242857D02*
X82772381Y-109909524D01*
X83772381Y-109480952D01*
X90062857Y-98652381D02*
X90396191Y-98176190D01*
X90634286Y-98652381D02*
X90634286Y-97652381D01*
X90253333Y-97652381D01*
X90158095Y-97700000D01*
X90110476Y-97747619D01*
X90062857Y-97842857D01*
X90062857Y-97985714D01*
X90110476Y-98080952D01*
X90158095Y-98128571D01*
X90253333Y-98176190D01*
X90634286Y-98176190D01*
X89681905Y-97747619D02*
X89634286Y-97700000D01*
X89539048Y-97652381D01*
X89300952Y-97652381D01*
X89205714Y-97700000D01*
X89158095Y-97747619D01*
X89110476Y-97842857D01*
X89110476Y-97938095D01*
X89158095Y-98080952D01*
X89729524Y-98652381D01*
X89110476Y-98652381D01*
X88539048Y-98080952D02*
X88634286Y-98033333D01*
X88681905Y-97985714D01*
X88729524Y-97890476D01*
X88729524Y-97842857D01*
X88681905Y-97747619D01*
X88634286Y-97700000D01*
X88539048Y-97652381D01*
X88348571Y-97652381D01*
X88253333Y-97700000D01*
X88205714Y-97747619D01*
X88158095Y-97842857D01*
X88158095Y-97890476D01*
X88205714Y-97985714D01*
X88253333Y-98033333D01*
X88348571Y-98080952D01*
X88539048Y-98080952D01*
X88634286Y-98128571D01*
X88681905Y-98176190D01*
X88729524Y-98271429D01*
X88729524Y-98461905D01*
X88681905Y-98557143D01*
X88634286Y-98604762D01*
X88539048Y-98652381D01*
X88348571Y-98652381D01*
X88253333Y-98604762D01*
X88205714Y-98557143D01*
X88158095Y-98461905D01*
X88158095Y-98271429D01*
X88205714Y-98176190D01*
X88253333Y-98128571D01*
X88348571Y-98080952D01*
X82962857Y-101752381D02*
X83296191Y-101276190D01*
X83534286Y-101752381D02*
X83534286Y-100752381D01*
X83153333Y-100752381D01*
X83058095Y-100800000D01*
X83010476Y-100847619D01*
X82962857Y-100942857D01*
X82962857Y-101085714D01*
X83010476Y-101180952D01*
X83058095Y-101228571D01*
X83153333Y-101276190D01*
X83534286Y-101276190D01*
X82581905Y-100847619D02*
X82534286Y-100800000D01*
X82439048Y-100752381D01*
X82200952Y-100752381D01*
X82105714Y-100800000D01*
X82058095Y-100847619D01*
X82010476Y-100942857D01*
X82010476Y-101038095D01*
X82058095Y-101180952D01*
X82629524Y-101752381D01*
X82010476Y-101752381D01*
X81534286Y-101752381D02*
X81343810Y-101752381D01*
X81248571Y-101704762D01*
X81200952Y-101657143D01*
X81105714Y-101514286D01*
X81058095Y-101323810D01*
X81058095Y-100942857D01*
X81105714Y-100847619D01*
X81153333Y-100800000D01*
X81248571Y-100752381D01*
X81439048Y-100752381D01*
X81534286Y-100800000D01*
X81581905Y-100847619D01*
X81629524Y-100942857D01*
X81629524Y-101180952D01*
X81581905Y-101276190D01*
X81534286Y-101323810D01*
X81439048Y-101371429D01*
X81248571Y-101371429D01*
X81153333Y-101323810D01*
X81105714Y-101276190D01*
X81058095Y-101180952D01*
X95901905Y-107932381D02*
X95901905Y-108741905D01*
X95854286Y-108837143D01*
X95806667Y-108884762D01*
X95711429Y-108932381D01*
X95520952Y-108932381D01*
X95425714Y-108884762D01*
X95378095Y-108837143D01*
X95330476Y-108741905D01*
X95330476Y-107932381D01*
X94425714Y-107932381D02*
X94616191Y-107932381D01*
X94711429Y-107980000D01*
X94759048Y-108027619D01*
X94854286Y-108170476D01*
X94901905Y-108360952D01*
X94901905Y-108741905D01*
X94854286Y-108837143D01*
X94806667Y-108884762D01*
X94711429Y-108932381D01*
X94520952Y-108932381D01*
X94425714Y-108884762D01*
X94378095Y-108837143D01*
X94330476Y-108741905D01*
X94330476Y-108503810D01*
X94378095Y-108408571D01*
X94425714Y-108360952D01*
X94520952Y-108313333D01*
X94711429Y-108313333D01*
X94806667Y-108360952D01*
X94854286Y-108408571D01*
X94901905Y-108503810D01*
X87191428Y-100247619D02*
X87286666Y-100200000D01*
X87381904Y-100104762D01*
X87524761Y-99961905D01*
X87620000Y-99914286D01*
X87715238Y-99914286D01*
X87667619Y-100152381D02*
X87762857Y-100104762D01*
X87858095Y-100009524D01*
X87905714Y-99819048D01*
X87905714Y-99485714D01*
X87858095Y-99295238D01*
X87762857Y-99200000D01*
X87667619Y-99152381D01*
X87477142Y-99152381D01*
X87381904Y-99200000D01*
X87286666Y-99295238D01*
X87239047Y-99485714D01*
X87239047Y-99819048D01*
X87286666Y-100009524D01*
X87381904Y-100104762D01*
X87477142Y-100152381D01*
X87667619Y-100152381D01*
X86286666Y-100152381D02*
X86858095Y-100152381D01*
X86572381Y-100152381D02*
X86572381Y-99152381D01*
X86667619Y-99295238D01*
X86762857Y-99390476D01*
X86858095Y-99438095D01*
X85334285Y-100152381D02*
X85905714Y-100152381D01*
X85620000Y-100152381D02*
X85620000Y-99152381D01*
X85715238Y-99295238D01*
X85810476Y-99390476D01*
X85905714Y-99438095D01*
X86391428Y-108747619D02*
X86486666Y-108700000D01*
X86581904Y-108604762D01*
X86724761Y-108461905D01*
X86820000Y-108414286D01*
X86915238Y-108414286D01*
X86867619Y-108652381D02*
X86962857Y-108604762D01*
X87058095Y-108509524D01*
X87105714Y-108319048D01*
X87105714Y-107985714D01*
X87058095Y-107795238D01*
X86962857Y-107700000D01*
X86867619Y-107652381D01*
X86677142Y-107652381D01*
X86581904Y-107700000D01*
X86486666Y-107795238D01*
X86439047Y-107985714D01*
X86439047Y-108319048D01*
X86486666Y-108509524D01*
X86581904Y-108604762D01*
X86677142Y-108652381D01*
X86867619Y-108652381D01*
X85486666Y-108652381D02*
X86058095Y-108652381D01*
X85772381Y-108652381D02*
X85772381Y-107652381D01*
X85867619Y-107795238D01*
X85962857Y-107890476D01*
X86058095Y-107938095D01*
X85105714Y-107747619D02*
X85058095Y-107700000D01*
X84962857Y-107652381D01*
X84724761Y-107652381D01*
X84629523Y-107700000D01*
X84581904Y-107747619D01*
X84534285Y-107842857D01*
X84534285Y-107938095D01*
X84581904Y-108080952D01*
X85153333Y-108652381D01*
X84534285Y-108652381D01*
X89962857Y-96752381D02*
X90296191Y-96276190D01*
X90534286Y-96752381D02*
X90534286Y-95752381D01*
X90153333Y-95752381D01*
X90058095Y-95800000D01*
X90010476Y-95847619D01*
X89962857Y-95942857D01*
X89962857Y-96085714D01*
X90010476Y-96180952D01*
X90058095Y-96228571D01*
X90153333Y-96276190D01*
X90534286Y-96276190D01*
X89629524Y-95752381D02*
X89010476Y-95752381D01*
X89343810Y-96133333D01*
X89200952Y-96133333D01*
X89105714Y-96180952D01*
X89058095Y-96228571D01*
X89010476Y-96323810D01*
X89010476Y-96561905D01*
X89058095Y-96657143D01*
X89105714Y-96704762D01*
X89200952Y-96752381D01*
X89486667Y-96752381D01*
X89581905Y-96704762D01*
X89629524Y-96657143D01*
X88391429Y-95752381D02*
X88296190Y-95752381D01*
X88200952Y-95800000D01*
X88153333Y-95847619D01*
X88105714Y-95942857D01*
X88058095Y-96133333D01*
X88058095Y-96371429D01*
X88105714Y-96561905D01*
X88153333Y-96657143D01*
X88200952Y-96704762D01*
X88296190Y-96752381D01*
X88391429Y-96752381D01*
X88486667Y-96704762D01*
X88534286Y-96657143D01*
X88581905Y-96561905D01*
X88629524Y-96371429D01*
X88629524Y-96133333D01*
X88581905Y-95942857D01*
X88534286Y-95847619D01*
X88486667Y-95800000D01*
X88391429Y-95752381D01*
X91272381Y-104557143D02*
X90796190Y-104223809D01*
X91272381Y-103985714D02*
X90272381Y-103985714D01*
X90272381Y-104366667D01*
X90320000Y-104461905D01*
X90367619Y-104509524D01*
X90462857Y-104557143D01*
X90605714Y-104557143D01*
X90700952Y-104509524D01*
X90748571Y-104461905D01*
X90796190Y-104366667D01*
X90796190Y-103985714D01*
X90272381Y-104890476D02*
X90272381Y-105509524D01*
X90653333Y-105176190D01*
X90653333Y-105319048D01*
X90700952Y-105414286D01*
X90748571Y-105461905D01*
X90843810Y-105509524D01*
X91081905Y-105509524D01*
X91177143Y-105461905D01*
X91224762Y-105414286D01*
X91272381Y-105319048D01*
X91272381Y-105033333D01*
X91224762Y-104938095D01*
X91177143Y-104890476D01*
X91272381Y-106461905D02*
X91272381Y-105890476D01*
X91272381Y-106176190D02*
X90272381Y-106176190D01*
X90415238Y-106080952D01*
X90510476Y-105985714D01*
X90558095Y-105890476D01*
X89472381Y-104457143D02*
X88996190Y-104123809D01*
X89472381Y-103885714D02*
X88472381Y-103885714D01*
X88472381Y-104266667D01*
X88520000Y-104361905D01*
X88567619Y-104409524D01*
X88662857Y-104457143D01*
X88805714Y-104457143D01*
X88900952Y-104409524D01*
X88948571Y-104361905D01*
X88996190Y-104266667D01*
X88996190Y-103885714D01*
X88472381Y-104790476D02*
X88472381Y-105409524D01*
X88853333Y-105076190D01*
X88853333Y-105219048D01*
X88900952Y-105314286D01*
X88948571Y-105361905D01*
X89043810Y-105409524D01*
X89281905Y-105409524D01*
X89377143Y-105361905D01*
X89424762Y-105314286D01*
X89472381Y-105219048D01*
X89472381Y-104933333D01*
X89424762Y-104838095D01*
X89377143Y-104790476D01*
X88567619Y-105790476D02*
X88520000Y-105838095D01*
X88472381Y-105933333D01*
X88472381Y-106171429D01*
X88520000Y-106266667D01*
X88567619Y-106314286D01*
X88662857Y-106361905D01*
X88758095Y-106361905D01*
X88900952Y-106314286D01*
X89472381Y-105742857D01*
X89472381Y-106361905D01*
X82072381Y-108057143D02*
X81596190Y-107723809D01*
X82072381Y-107485714D02*
X81072381Y-107485714D01*
X81072381Y-107866667D01*
X81120000Y-107961905D01*
X81167619Y-108009524D01*
X81262857Y-108057143D01*
X81405714Y-108057143D01*
X81500952Y-108009524D01*
X81548571Y-107961905D01*
X81596190Y-107866667D01*
X81596190Y-107485714D01*
X81072381Y-108390476D02*
X81072381Y-109009524D01*
X81453333Y-108676190D01*
X81453333Y-108819048D01*
X81500952Y-108914286D01*
X81548571Y-108961905D01*
X81643810Y-109009524D01*
X81881905Y-109009524D01*
X81977143Y-108961905D01*
X82024762Y-108914286D01*
X82072381Y-108819048D01*
X82072381Y-108533333D01*
X82024762Y-108438095D01*
X81977143Y-108390476D01*
X81072381Y-109342857D02*
X81072381Y-109961905D01*
X81453333Y-109628571D01*
X81453333Y-109771429D01*
X81500952Y-109866667D01*
X81548571Y-109914286D01*
X81643810Y-109961905D01*
X81881905Y-109961905D01*
X81977143Y-109914286D01*
X82024762Y-109866667D01*
X82072381Y-109771429D01*
X82072381Y-109485714D01*
X82024762Y-109390476D01*
X81977143Y-109342857D01*
X76162857Y-109052381D02*
X76496191Y-108576190D01*
X76734286Y-109052381D02*
X76734286Y-108052381D01*
X76353333Y-108052381D01*
X76258095Y-108100000D01*
X76210476Y-108147619D01*
X76162857Y-108242857D01*
X76162857Y-108385714D01*
X76210476Y-108480952D01*
X76258095Y-108528571D01*
X76353333Y-108576190D01*
X76734286Y-108576190D01*
X75829524Y-108052381D02*
X75210476Y-108052381D01*
X75543810Y-108433333D01*
X75400952Y-108433333D01*
X75305714Y-108480952D01*
X75258095Y-108528571D01*
X75210476Y-108623810D01*
X75210476Y-108861905D01*
X75258095Y-108957143D01*
X75305714Y-109004762D01*
X75400952Y-109052381D01*
X75686667Y-109052381D01*
X75781905Y-109004762D01*
X75829524Y-108957143D01*
X74353333Y-108385714D02*
X74353333Y-109052381D01*
X74591429Y-108004762D02*
X74829524Y-108719048D01*
X74210476Y-108719048D01*
X76162857Y-107152381D02*
X76496191Y-106676190D01*
X76734286Y-107152381D02*
X76734286Y-106152381D01*
X76353333Y-106152381D01*
X76258095Y-106200000D01*
X76210476Y-106247619D01*
X76162857Y-106342857D01*
X76162857Y-106485714D01*
X76210476Y-106580952D01*
X76258095Y-106628571D01*
X76353333Y-106676190D01*
X76734286Y-106676190D01*
X75829524Y-106152381D02*
X75210476Y-106152381D01*
X75543810Y-106533333D01*
X75400952Y-106533333D01*
X75305714Y-106580952D01*
X75258095Y-106628571D01*
X75210476Y-106723810D01*
X75210476Y-106961905D01*
X75258095Y-107057143D01*
X75305714Y-107104762D01*
X75400952Y-107152381D01*
X75686667Y-107152381D01*
X75781905Y-107104762D01*
X75829524Y-107057143D01*
X74305714Y-106152381D02*
X74781905Y-106152381D01*
X74829524Y-106628571D01*
X74781905Y-106580952D01*
X74686667Y-106533333D01*
X74448571Y-106533333D01*
X74353333Y-106580952D01*
X74305714Y-106628571D01*
X74258095Y-106723810D01*
X74258095Y-106961905D01*
X74305714Y-107057143D01*
X74353333Y-107104762D01*
X74448571Y-107152381D01*
X74686667Y-107152381D01*
X74781905Y-107104762D01*
X74829524Y-107057143D01*
X95711905Y-100392381D02*
X95711905Y-101201905D01*
X95664286Y-101297143D01*
X95616667Y-101344762D01*
X95521429Y-101392381D01*
X95330952Y-101392381D01*
X95235714Y-101344762D01*
X95188095Y-101297143D01*
X95140476Y-101201905D01*
X95140476Y-100392381D01*
X94140476Y-101392381D02*
X94711905Y-101392381D01*
X94426191Y-101392381D02*
X94426191Y-100392381D01*
X94521429Y-100535238D01*
X94616667Y-100630476D01*
X94711905Y-100678095D01*
X89258095Y-111252381D02*
X89258095Y-110252381D01*
X89020000Y-110252381D01*
X88877142Y-110300000D01*
X88781904Y-110395238D01*
X88734285Y-110490476D01*
X88686666Y-110680952D01*
X88686666Y-110823810D01*
X88734285Y-111014286D01*
X88781904Y-111109524D01*
X88877142Y-111204762D01*
X89020000Y-111252381D01*
X89258095Y-111252381D01*
X87734285Y-111252381D02*
X88305714Y-111252381D01*
X88020000Y-111252381D02*
X88020000Y-110252381D01*
X88115238Y-110395238D01*
X88210476Y-110490476D01*
X88305714Y-110538095D01*
X67672857Y-89492381D02*
X68006191Y-89016190D01*
X68244286Y-89492381D02*
X68244286Y-88492381D01*
X67863333Y-88492381D01*
X67768095Y-88540000D01*
X67720476Y-88587619D01*
X67672857Y-88682857D01*
X67672857Y-88825714D01*
X67720476Y-88920952D01*
X67768095Y-88968571D01*
X67863333Y-89016190D01*
X68244286Y-89016190D01*
X67291905Y-88587619D02*
X67244286Y-88540000D01*
X67149048Y-88492381D01*
X66910952Y-88492381D01*
X66815714Y-88540000D01*
X66768095Y-88587619D01*
X66720476Y-88682857D01*
X66720476Y-88778095D01*
X66768095Y-88920952D01*
X67339524Y-89492381D01*
X66720476Y-89492381D01*
X66101429Y-88492381D02*
X66006190Y-88492381D01*
X65910952Y-88540000D01*
X65863333Y-88587619D01*
X65815714Y-88682857D01*
X65768095Y-88873333D01*
X65768095Y-89111429D01*
X65815714Y-89301905D01*
X65863333Y-89397143D01*
X65910952Y-89444762D01*
X66006190Y-89492381D01*
X66101429Y-89492381D01*
X66196667Y-89444762D01*
X66244286Y-89397143D01*
X66291905Y-89301905D01*
X66339524Y-89111429D01*
X66339524Y-88873333D01*
X66291905Y-88682857D01*
X66244286Y-88587619D01*
X66196667Y-88540000D01*
X66101429Y-88492381D01*
X74522857Y-83672381D02*
X74856191Y-83196190D01*
X75094286Y-83672381D02*
X75094286Y-82672381D01*
X74713333Y-82672381D01*
X74618095Y-82720000D01*
X74570476Y-82767619D01*
X74522857Y-82862857D01*
X74522857Y-83005714D01*
X74570476Y-83100952D01*
X74618095Y-83148571D01*
X74713333Y-83196190D01*
X75094286Y-83196190D01*
X74141905Y-82767619D02*
X74094286Y-82720000D01*
X73999048Y-82672381D01*
X73760952Y-82672381D01*
X73665714Y-82720000D01*
X73618095Y-82767619D01*
X73570476Y-82862857D01*
X73570476Y-82958095D01*
X73618095Y-83100952D01*
X74189524Y-83672381D01*
X73570476Y-83672381D01*
X72618095Y-83672381D02*
X73189524Y-83672381D01*
X72903810Y-83672381D02*
X72903810Y-82672381D01*
X72999048Y-82815238D01*
X73094286Y-82910476D01*
X73189524Y-82958095D01*
X73222381Y-126747143D02*
X72746190Y-126413809D01*
X73222381Y-126175714D02*
X72222381Y-126175714D01*
X72222381Y-126556667D01*
X72270000Y-126651905D01*
X72317619Y-126699524D01*
X72412857Y-126747143D01*
X72555714Y-126747143D01*
X72650952Y-126699524D01*
X72698571Y-126651905D01*
X72746190Y-126556667D01*
X72746190Y-126175714D01*
X72317619Y-127128095D02*
X72270000Y-127175714D01*
X72222381Y-127270952D01*
X72222381Y-127509048D01*
X72270000Y-127604286D01*
X72317619Y-127651905D01*
X72412857Y-127699524D01*
X72508095Y-127699524D01*
X72650952Y-127651905D01*
X73222381Y-127080476D01*
X73222381Y-127699524D01*
X72317619Y-128080476D02*
X72270000Y-128128095D01*
X72222381Y-128223333D01*
X72222381Y-128461429D01*
X72270000Y-128556667D01*
X72317619Y-128604286D01*
X72412857Y-128651905D01*
X72508095Y-128651905D01*
X72650952Y-128604286D01*
X73222381Y-128032857D01*
X73222381Y-128651905D01*
X68057619Y-150898572D02*
X68010000Y-150803334D01*
X67914762Y-150708096D01*
X67771905Y-150565239D01*
X67724286Y-150470000D01*
X67724286Y-150374762D01*
X67962381Y-150422381D02*
X67914762Y-150327143D01*
X67819524Y-150231905D01*
X67629048Y-150184286D01*
X67295714Y-150184286D01*
X67105238Y-150231905D01*
X67010000Y-150327143D01*
X66962381Y-150422381D01*
X66962381Y-150612858D01*
X67010000Y-150708096D01*
X67105238Y-150803334D01*
X67295714Y-150850953D01*
X67629048Y-150850953D01*
X67819524Y-150803334D01*
X67914762Y-150708096D01*
X67962381Y-150612858D01*
X67962381Y-150422381D01*
X67962381Y-151803334D02*
X67962381Y-151231905D01*
X67962381Y-151517619D02*
X66962381Y-151517619D01*
X67105238Y-151422381D01*
X67200476Y-151327143D01*
X67248095Y-151231905D01*
X66962381Y-152136667D02*
X66962381Y-152755715D01*
X67343333Y-152422381D01*
X67343333Y-152565239D01*
X67390952Y-152660477D01*
X67438571Y-152708096D01*
X67533810Y-152755715D01*
X67771905Y-152755715D01*
X67867143Y-152708096D01*
X67914762Y-152660477D01*
X67962381Y-152565239D01*
X67962381Y-152279524D01*
X67914762Y-152184286D01*
X67867143Y-152136667D01*
X73492857Y-136182381D02*
X73826191Y-135706190D01*
X74064286Y-136182381D02*
X74064286Y-135182381D01*
X73683333Y-135182381D01*
X73588095Y-135230000D01*
X73540476Y-135277619D01*
X73492857Y-135372857D01*
X73492857Y-135515714D01*
X73540476Y-135610952D01*
X73588095Y-135658571D01*
X73683333Y-135706190D01*
X74064286Y-135706190D01*
X73159524Y-135182381D02*
X72540476Y-135182381D01*
X72873810Y-135563333D01*
X72730952Y-135563333D01*
X72635714Y-135610952D01*
X72588095Y-135658571D01*
X72540476Y-135753810D01*
X72540476Y-135991905D01*
X72588095Y-136087143D01*
X72635714Y-136134762D01*
X72730952Y-136182381D01*
X73016667Y-136182381D01*
X73111905Y-136134762D01*
X73159524Y-136087143D01*
X71683333Y-135182381D02*
X71873810Y-135182381D01*
X71969048Y-135230000D01*
X72016667Y-135277619D01*
X72111905Y-135420476D01*
X72159524Y-135610952D01*
X72159524Y-135991905D01*
X72111905Y-136087143D01*
X72064286Y-136134762D01*
X71969048Y-136182381D01*
X71778571Y-136182381D01*
X71683333Y-136134762D01*
X71635714Y-136087143D01*
X71588095Y-135991905D01*
X71588095Y-135753810D01*
X71635714Y-135658571D01*
X71683333Y-135610952D01*
X71778571Y-135563333D01*
X71969048Y-135563333D01*
X72064286Y-135610952D01*
X72111905Y-135658571D01*
X72159524Y-135753810D01*
X73792857Y-154092381D02*
X74126191Y-153616190D01*
X74364286Y-154092381D02*
X74364286Y-153092381D01*
X73983333Y-153092381D01*
X73888095Y-153140000D01*
X73840476Y-153187619D01*
X73792857Y-153282857D01*
X73792857Y-153425714D01*
X73840476Y-153520952D01*
X73888095Y-153568571D01*
X73983333Y-153616190D01*
X74364286Y-153616190D01*
X73459524Y-153092381D02*
X72840476Y-153092381D01*
X73173810Y-153473333D01*
X73030952Y-153473333D01*
X72935714Y-153520952D01*
X72888095Y-153568571D01*
X72840476Y-153663810D01*
X72840476Y-153901905D01*
X72888095Y-153997143D01*
X72935714Y-154044762D01*
X73030952Y-154092381D01*
X73316667Y-154092381D01*
X73411905Y-154044762D01*
X73459524Y-153997143D01*
X72507143Y-153092381D02*
X71840476Y-153092381D01*
X72269048Y-154092381D01*
X73712857Y-148452381D02*
X74046191Y-147976190D01*
X74284286Y-148452381D02*
X74284286Y-147452381D01*
X73903333Y-147452381D01*
X73808095Y-147500000D01*
X73760476Y-147547619D01*
X73712857Y-147642857D01*
X73712857Y-147785714D01*
X73760476Y-147880952D01*
X73808095Y-147928571D01*
X73903333Y-147976190D01*
X74284286Y-147976190D01*
X73379524Y-147452381D02*
X72760476Y-147452381D01*
X73093810Y-147833333D01*
X72950952Y-147833333D01*
X72855714Y-147880952D01*
X72808095Y-147928571D01*
X72760476Y-148023810D01*
X72760476Y-148261905D01*
X72808095Y-148357143D01*
X72855714Y-148404762D01*
X72950952Y-148452381D01*
X73236667Y-148452381D01*
X73331905Y-148404762D01*
X73379524Y-148357143D01*
X72189048Y-147880952D02*
X72284286Y-147833333D01*
X72331905Y-147785714D01*
X72379524Y-147690476D01*
X72379524Y-147642857D01*
X72331905Y-147547619D01*
X72284286Y-147500000D01*
X72189048Y-147452381D01*
X71998571Y-147452381D01*
X71903333Y-147500000D01*
X71855714Y-147547619D01*
X71808095Y-147642857D01*
X71808095Y-147690476D01*
X71855714Y-147785714D01*
X71903333Y-147833333D01*
X71998571Y-147880952D01*
X72189048Y-147880952D01*
X72284286Y-147928571D01*
X72331905Y-147976190D01*
X72379524Y-148071429D01*
X72379524Y-148261905D01*
X72331905Y-148357143D01*
X72284286Y-148404762D01*
X72189048Y-148452381D01*
X71998571Y-148452381D01*
X71903333Y-148404762D01*
X71855714Y-148357143D01*
X71808095Y-148261905D01*
X71808095Y-148071429D01*
X71855714Y-147976190D01*
X71903333Y-147928571D01*
X71998571Y-147880952D01*
M02*
