%FSLAX45Y45*%
G04 Gerber Fmt 4.5, Leading zero omitted, Abs format (unit mm)*
G04 Created by KiCad (PCBNEW 4.0.7-e2-6376~58~ubuntu16.04.1) date Mon Jan 29 21:07:15 2018*
%MOMM*%
%LPD*%
G01*
G04 APERTURE LIST*
%ADD10C,0.127000*%
%ADD11C,0.150000*%
%ADD12C,0.200000*%
%ADD13C,0.300000*%
G04 APERTURE END LIST*
D10*
D11*
X6002000Y-4812000D02*
X6004000Y-4812000D01*
X6002000Y-17322000D02*
X6002000Y-4812000D01*
X13002000Y-17322000D02*
X6002000Y-17322000D01*
X13002000Y-4812000D02*
X13002000Y-17322000D01*
X6002000Y-4812000D02*
X13002000Y-4812000D01*
D12*
X6912000Y-8731000D02*
X6952000Y-8771000D01*
X6952000Y-8731000D02*
X6912000Y-8771000D01*
X7154000Y-11900000D02*
X7194000Y-11940000D01*
X7194000Y-11900000D02*
X7154000Y-11940000D01*
X7159000Y-11985000D02*
X7199000Y-12025000D01*
X7199000Y-11985000D02*
X7159000Y-12025000D01*
X7159000Y-12076000D02*
X7199000Y-12116000D01*
X7199000Y-12076000D02*
X7159000Y-12116000D01*
X7161000Y-12162000D02*
X7201000Y-12202000D01*
X7201000Y-12162000D02*
X7161000Y-12202000D01*
X7294000Y-12219000D02*
X7334000Y-12259000D01*
X7334000Y-12219000D02*
X7294000Y-12259000D01*
X7429000Y-11223000D02*
X7469000Y-11263000D01*
X7469000Y-11223000D02*
X7429000Y-11263000D01*
X7599000Y-11561000D02*
X7639000Y-11601000D01*
X7639000Y-11561000D02*
X7599000Y-11601000D01*
X8564000Y-11431000D02*
X8604000Y-11471000D01*
X8604000Y-11431000D02*
X8564000Y-11471000D01*
X8864000Y-14069000D02*
X8904000Y-14109000D01*
X8904000Y-14069000D02*
X8864000Y-14109000D01*
X8870000Y-11440000D02*
X8910000Y-11480000D01*
X8910000Y-11440000D02*
X8870000Y-11480000D01*
X8874000Y-13859000D02*
X8914000Y-13899000D01*
X8914000Y-13859000D02*
X8874000Y-13899000D01*
X8914000Y-12579000D02*
X8954000Y-12619000D01*
X8954000Y-12579000D02*
X8914000Y-12619000D01*
X8924000Y-12339000D02*
X8964000Y-12379000D01*
X8964000Y-12339000D02*
X8924000Y-12379000D01*
X10104000Y-12389000D02*
X10144000Y-12429000D01*
X10144000Y-12389000D02*
X10104000Y-12429000D01*
X10104000Y-12579000D02*
X10144000Y-12619000D01*
X10144000Y-12579000D02*
X10104000Y-12619000D01*
X10104000Y-14069000D02*
X10144000Y-14109000D01*
X10144000Y-14069000D02*
X10104000Y-14109000D01*
X10105000Y-13873000D02*
X10145000Y-13913000D01*
X10145000Y-13873000D02*
X10105000Y-13913000D01*
X10122000Y-11536000D02*
X10162000Y-11576000D01*
X10162000Y-11536000D02*
X10122000Y-11576000D01*
X10183000Y-11373000D02*
X10223000Y-11413000D01*
X10223000Y-11373000D02*
X10183000Y-11413000D01*
X10204000Y-12389000D02*
X10244000Y-12429000D01*
X10244000Y-12389000D02*
X10204000Y-12429000D01*
X10204000Y-12579000D02*
X10244000Y-12619000D01*
X10244000Y-12579000D02*
X10204000Y-12619000D01*
X10212000Y-11498000D02*
X10252000Y-11538000D01*
X10252000Y-11498000D02*
X10212000Y-11538000D01*
X10214000Y-14069000D02*
X10254000Y-14109000D01*
X10254000Y-14069000D02*
X10214000Y-14109000D01*
X10216000Y-13866000D02*
X10256000Y-13906000D01*
X10256000Y-13866000D02*
X10216000Y-13906000D01*
X10298000Y-12388000D02*
X10338000Y-12428000D01*
X10338000Y-12388000D02*
X10298000Y-12428000D01*
X10301000Y-12575000D02*
X10341000Y-12615000D01*
X10341000Y-12575000D02*
X10301000Y-12615000D01*
X10317000Y-11497000D02*
X10357000Y-11537000D01*
X10357000Y-11497000D02*
X10317000Y-11537000D01*
X6492000Y-9468000D02*
G75*
G03X6492000Y-9468000I-30000J0D01*
G01*
X6783000Y-12578000D02*
G75*
G03X6783000Y-12578000I-30000J0D01*
G01*
X6804000Y-11749000D02*
G75*
G03X6804000Y-11749000I-30000J0D01*
G01*
X6902000Y-6516000D02*
G75*
G03X6902000Y-6516000I-30000J0D01*
G01*
X6911000Y-11012000D02*
G75*
G03X6911000Y-11012000I-30000J0D01*
G01*
X6994000Y-12359000D02*
G75*
G03X6994000Y-12359000I-30000J0D01*
G01*
X7311000Y-13265000D02*
G75*
G03X7311000Y-13265000I-30000J0D01*
G01*
X7456000Y-13268000D02*
G75*
G03X7456000Y-13268000I-30000J0D01*
G01*
X7619000Y-11964000D02*
G75*
G03X7619000Y-11964000I-30000J0D01*
G01*
X7934000Y-11759000D02*
G75*
G03X7934000Y-11759000I-30000J0D01*
G01*
X7947000Y-14653000D02*
G75*
G03X7947000Y-14653000I-30000J0D01*
G01*
X7965000Y-13333000D02*
G75*
G03X7965000Y-13333000I-30000J0D01*
G01*
X8007000Y-12199000D02*
G75*
G03X8007000Y-12199000I-30000J0D01*
G01*
X8114000Y-11579000D02*
G75*
G03X8114000Y-11579000I-30000J0D01*
G01*
X8138000Y-5307000D02*
G75*
G03X8138000Y-5307000I-30000J0D01*
G01*
X8244000Y-11429000D02*
G75*
G03X8244000Y-11429000I-30000J0D01*
G01*
X8677000Y-14655000D02*
G75*
G03X8677000Y-14655000I-30000J0D01*
G01*
X8725000Y-13752000D02*
G75*
G03X8725000Y-13752000I-30000J0D01*
G01*
X8845000Y-13629000D02*
G75*
G03X8845000Y-13629000I-30000J0D01*
G01*
X8944000Y-7269000D02*
G75*
G03X8944000Y-7269000I-30000J0D01*
G01*
X8954000Y-6799000D02*
G75*
G03X8954000Y-6799000I-30000J0D01*
G01*
X8995000Y-15082000D02*
G75*
G03X8995000Y-15082000I-30000J0D01*
G01*
X9130000Y-14838000D02*
G75*
G03X9130000Y-14838000I-30000J0D01*
G01*
X9137500Y-8085500D02*
G75*
G03X9137500Y-8085500I-30000J0D01*
G01*
X9175000Y-10790000D02*
G75*
G03X9175000Y-10790000I-30000J0D01*
G01*
X9183000Y-7323000D02*
G75*
G03X9183000Y-7323000I-30000J0D01*
G01*
X9294000Y-7579000D02*
G75*
G03X9294000Y-7579000I-30000J0D01*
G01*
X9407000Y-10209000D02*
G75*
G03X9407000Y-10209000I-30000J0D01*
G01*
X9503000Y-7321000D02*
G75*
G03X9503000Y-7321000I-30000J0D01*
G01*
X9515000Y-7492000D02*
G75*
G03X9515000Y-7492000I-30000J0D01*
G01*
X9658000Y-12727000D02*
G75*
G03X9658000Y-12727000I-30000J0D01*
G01*
X9665000Y-15315000D02*
G75*
G03X9665000Y-15315000I-30000J0D01*
G01*
X9936000Y-14999000D02*
G75*
G03X9936000Y-14999000I-30000J0D01*
G01*
X9989000Y-6764000D02*
G75*
G03X9989000Y-6764000I-30000J0D01*
G01*
X10194000Y-7619000D02*
G75*
G03X10194000Y-7619000I-30000J0D01*
G01*
X10204000Y-8069000D02*
G75*
G03X10204000Y-8069000I-30000J0D01*
G01*
X10245000Y-11215000D02*
G75*
G03X10245000Y-11215000I-30000J0D01*
G01*
X10332000Y-9357000D02*
G75*
G03X10332000Y-9357000I-30000J0D01*
G01*
X10397000Y-9731000D02*
G75*
G03X10397000Y-9731000I-30000J0D01*
G01*
X10404000Y-14981000D02*
G75*
G03X10404000Y-14981000I-30000J0D01*
G01*
X10492000Y-10710000D02*
G75*
G03X10492000Y-10710000I-30000J0D01*
G01*
X10538000Y-13365000D02*
G75*
G03X10538000Y-13365000I-30000J0D01*
G01*
X10650000Y-15152000D02*
G75*
G03X10650000Y-15152000I-30000J0D01*
G01*
X11000000Y-5316000D02*
G75*
G03X11000000Y-5316000I-30000J0D01*
G01*
X11106000Y-12150000D02*
G75*
G03X11106000Y-12150000I-30000J0D01*
G01*
X11319000Y-13198000D02*
G75*
G03X11319000Y-13198000I-30000J0D01*
G01*
X12298000Y-8650000D02*
G75*
G03X12298000Y-8650000I-30000J0D01*
G01*
X12307000Y-6748000D02*
G75*
G03X12307000Y-6748000I-30000J0D01*
G01*
X6431000Y-12362500D02*
X6431000Y-12427500D01*
X6398500Y-12395000D02*
X6463500Y-12395000D01*
X6431000Y-12489500D02*
X6431000Y-12554500D01*
X6398500Y-12522000D02*
X6463500Y-12522000D01*
X6431000Y-12616500D02*
X6431000Y-12681500D01*
X6398500Y-12649000D02*
X6463500Y-12649000D01*
X6431000Y-12743500D02*
X6431000Y-12808500D01*
X6398500Y-12776000D02*
X6463500Y-12776000D01*
X6431000Y-12870500D02*
X6431000Y-12935500D01*
X6398500Y-12903000D02*
X6463500Y-12903000D01*
X6558000Y-12362500D02*
X6558000Y-12427500D01*
X6525500Y-12395000D02*
X6590500Y-12395000D01*
X6558000Y-12489500D02*
X6558000Y-12554500D01*
X6525500Y-12522000D02*
X6590500Y-12522000D01*
X6558000Y-12616500D02*
X6558000Y-12681500D01*
X6525500Y-12649000D02*
X6590500Y-12649000D01*
X6558000Y-12743500D02*
X6558000Y-12808500D01*
X6525500Y-12776000D02*
X6590500Y-12776000D01*
X6558000Y-12870500D02*
X6558000Y-12935500D01*
X6525500Y-12903000D02*
X6590500Y-12903000D01*
X6430356Y-13993356D02*
X6430356Y-13922644D01*
X6359644Y-13922644D01*
X6359644Y-13993356D01*
X6430356Y-13993356D01*
X6430356Y-14247356D02*
X6430356Y-14176644D01*
X6359644Y-14176644D01*
X6359644Y-14247356D01*
X6430356Y-14247356D01*
X6430356Y-14501356D02*
X6430356Y-14430644D01*
X6359644Y-14430644D01*
X6359644Y-14501356D01*
X6430356Y-14501356D01*
X6430356Y-14755356D02*
X6430356Y-14684644D01*
X6359644Y-14684644D01*
X6359644Y-14755356D01*
X6430356Y-14755356D01*
X6430356Y-15009356D02*
X6430356Y-14938644D01*
X6359644Y-14938644D01*
X6359644Y-15009356D01*
X6430356Y-15009356D01*
X6430356Y-15263356D02*
X6430356Y-15192644D01*
X6359644Y-15192644D01*
X6359644Y-15263356D01*
X6430356Y-15263356D01*
X6540356Y-11010356D02*
X6540356Y-10939644D01*
X6469644Y-10939644D01*
X6469644Y-11010356D01*
X6540356Y-11010356D01*
X6540356Y-11264356D02*
X6540356Y-11193644D01*
X6469644Y-11193644D01*
X6469644Y-11264356D01*
X6540356Y-11264356D01*
X6540356Y-11518356D02*
X6540356Y-11447644D01*
X6469644Y-11447644D01*
X6469644Y-11518356D01*
X6540356Y-11518356D01*
X6540356Y-11772356D02*
X6540356Y-11701644D01*
X6469644Y-11701644D01*
X6469644Y-11772356D01*
X6540356Y-11772356D01*
X6706372Y-7503356D02*
X6706372Y-7432644D01*
X6635660Y-7432644D01*
X6635660Y-7503356D01*
X6706372Y-7503356D01*
X6778356Y-13558356D02*
X6778356Y-13487644D01*
X6707644Y-13487644D01*
X6707644Y-13558356D01*
X6778356Y-13558356D01*
X7206356Y-7503356D02*
X7206356Y-7432644D01*
X7135644Y-7432644D01*
X7135644Y-7503356D01*
X7206356Y-7503356D01*
X7466340Y-7503356D02*
X7466340Y-7432644D01*
X7395628Y-7432644D01*
X7395628Y-7503356D01*
X7466340Y-7503356D01*
X7491356Y-9864356D02*
X7491356Y-9793644D01*
X7420644Y-9793644D01*
X7420644Y-9864356D01*
X7491356Y-9864356D01*
X7999356Y-9864356D02*
X7999356Y-9793644D01*
X7928644Y-9793644D01*
X7928644Y-9864356D01*
X7999356Y-9864356D01*
X8253356Y-9864356D02*
X8253356Y-9793644D01*
X8182644Y-9793644D01*
X8182644Y-9864356D01*
X8253356Y-9864356D01*
X8656356Y-6059356D02*
X8656356Y-5988644D01*
X8585644Y-5988644D01*
X8585644Y-6059356D01*
X8656356Y-6059356D01*
X8656356Y-8926356D02*
X8656356Y-8855644D01*
X8585644Y-8855644D01*
X8585644Y-8926356D01*
X8656356Y-8926356D01*
X8805356Y-16039356D02*
X8805356Y-15968644D01*
X8734644Y-15968644D01*
X8734644Y-16039356D01*
X8805356Y-16039356D01*
X8910356Y-6059356D02*
X8910356Y-5988644D01*
X8839644Y-5988644D01*
X8839644Y-6059356D01*
X8910356Y-6059356D01*
X8910356Y-8926356D02*
X8910356Y-8855644D01*
X8839644Y-8855644D01*
X8839644Y-8926356D01*
X8910356Y-8926356D01*
X9164356Y-6059356D02*
X9164356Y-5988644D01*
X9093644Y-5988644D01*
X9093644Y-6059356D01*
X9164356Y-6059356D01*
X9164356Y-8926356D02*
X9164356Y-8855644D01*
X9093644Y-8855644D01*
X9093644Y-8926356D01*
X9164356Y-8926356D01*
X9418356Y-6059356D02*
X9418356Y-5988644D01*
X9347644Y-5988644D01*
X9347644Y-6059356D01*
X9418356Y-6059356D01*
X9418356Y-8926356D02*
X9418356Y-8855644D01*
X9347644Y-8855644D01*
X9347644Y-8926356D01*
X9418356Y-8926356D01*
X9672356Y-6059356D02*
X9672356Y-5988644D01*
X9601644Y-5988644D01*
X9601644Y-6059356D01*
X9672356Y-6059356D01*
X9672356Y-8926356D02*
X9672356Y-8855644D01*
X9601644Y-8855644D01*
X9601644Y-8926356D01*
X9672356Y-8926356D01*
X9926356Y-6059356D02*
X9926356Y-5988644D01*
X9855644Y-5988644D01*
X9855644Y-6059356D01*
X9926356Y-6059356D01*
X9926356Y-8926356D02*
X9926356Y-8855644D01*
X9855644Y-8855644D01*
X9855644Y-8926356D01*
X9926356Y-8926356D01*
X10180356Y-6059356D02*
X10180356Y-5988644D01*
X10109644Y-5988644D01*
X10109644Y-6059356D01*
X10180356Y-6059356D01*
X10180356Y-8926356D02*
X10180356Y-8855644D01*
X10109644Y-8855644D01*
X10109644Y-8926356D01*
X10180356Y-8926356D01*
X10434356Y-6059356D02*
X10434356Y-5988644D01*
X10363644Y-5988644D01*
X10363644Y-6059356D01*
X10434356Y-6059356D01*
X10434356Y-8926356D02*
X10434356Y-8855644D01*
X10363644Y-8855644D01*
X10363644Y-8926356D01*
X10434356Y-8926356D01*
X11686356Y-15198356D02*
X11686356Y-15127644D01*
X11615644Y-15127644D01*
X11615644Y-15198356D01*
X11686356Y-15198356D01*
X11744356Y-14429356D02*
X11744356Y-14358644D01*
X11673644Y-14358644D01*
X11673644Y-14429356D01*
X11744356Y-14429356D01*
X12092000Y-11375000D02*
X12157000Y-11310000D01*
X12092000Y-11245000D01*
X12027000Y-11310000D01*
X12092000Y-11375000D01*
X12092000Y-12275000D02*
X12157000Y-12210000D01*
X12092000Y-12145000D01*
X12027000Y-12210000D01*
X12092000Y-12275000D01*
X12092000Y-13175000D02*
X12157000Y-13110000D01*
X12092000Y-13045000D01*
X12027000Y-13110000D01*
X12092000Y-13175000D01*
X12092000Y-14075000D02*
X12157000Y-14010000D01*
X12092000Y-13945000D01*
X12027000Y-14010000D01*
X12092000Y-14075000D01*
X12092000Y-14975000D02*
X12157000Y-14910000D01*
X12092000Y-14845000D01*
X12027000Y-14910000D01*
X12092000Y-14975000D01*
X12092000Y-15875000D02*
X12157000Y-15810000D01*
X12092000Y-15745000D01*
X12027000Y-15810000D01*
X12092000Y-15875000D01*
X12600000Y-11375000D02*
X12665000Y-11310000D01*
X12600000Y-11245000D01*
X12535000Y-11310000D01*
X12600000Y-11375000D01*
X12600000Y-12275000D02*
X12665000Y-12210000D01*
X12600000Y-12145000D01*
X12535000Y-12210000D01*
X12600000Y-12275000D01*
X12600000Y-13175000D02*
X12665000Y-13110000D01*
X12600000Y-13045000D01*
X12535000Y-13110000D01*
X12600000Y-13175000D01*
X12600000Y-14075000D02*
X12665000Y-14010000D01*
X12600000Y-13945000D01*
X12535000Y-14010000D01*
X12600000Y-14075000D01*
X12600000Y-14975000D02*
X12665000Y-14910000D01*
X12600000Y-14845000D01*
X12535000Y-14910000D01*
X12600000Y-14975000D01*
X12600000Y-15875000D02*
X12665000Y-15810000D01*
X12600000Y-15745000D01*
X12535000Y-15810000D01*
X12600000Y-15875000D01*
X6442000Y-5244000D02*
X6762000Y-5564000D01*
X6762000Y-5244000D02*
X6442000Y-5564000D01*
X6762000Y-5404000D02*
G75*
G03X6762000Y-5404000I-160000J0D01*
G01*
X6442000Y-10062000D02*
X6762000Y-10382000D01*
X6762000Y-10062000D02*
X6442000Y-10382000D01*
X6762000Y-10222000D02*
G75*
G03X6762000Y-10222000I-160000J0D01*
G01*
X6442000Y-16561000D02*
X6762000Y-16881000D01*
X6762000Y-16561000D02*
X6442000Y-16881000D01*
X6762000Y-16721000D02*
G75*
G03X6762000Y-16721000I-160000J0D01*
G01*
X9341000Y-13312000D02*
X9661000Y-13632000D01*
X9661000Y-13312000D02*
X9341000Y-13632000D01*
X9661000Y-13472000D02*
G75*
G03X9661000Y-13472000I-160000J0D01*
G01*
X12242000Y-10061000D02*
X12562000Y-10381000D01*
X12562000Y-10061000D02*
X12242000Y-10381000D01*
X12562000Y-10221000D02*
G75*
G03X12562000Y-10221000I-160000J0D01*
G01*
X12242000Y-16562000D02*
X12562000Y-16882000D01*
X12562000Y-16562000D02*
X12242000Y-16882000D01*
X12562000Y-16722000D02*
G75*
G03X12562000Y-16722000I-160000J0D01*
G01*
X12243000Y-5250000D02*
X12563000Y-5570000D01*
X12563000Y-5250000D02*
X12243000Y-5570000D01*
X12563000Y-5410000D02*
G75*
G03X12563000Y-5410000I-160000J0D01*
G01*
X11581000Y-9475000D02*
X12251000Y-10145000D01*
X12251000Y-9475000D02*
X11581000Y-10145000D01*
X11916000Y-9475000D02*
X11916000Y-10145000D01*
X11581000Y-9810000D02*
X12251000Y-9810000D01*
D13*
X6265928Y-17795214D02*
X6265928Y-17495214D01*
X6337357Y-17495214D01*
X6380214Y-17509500D01*
X6408786Y-17538072D01*
X6423071Y-17566643D01*
X6437357Y-17623786D01*
X6437357Y-17666643D01*
X6423071Y-17723786D01*
X6408786Y-17752357D01*
X6380214Y-17780929D01*
X6337357Y-17795214D01*
X6265928Y-17795214D01*
X6565928Y-17795214D02*
X6565928Y-17595214D01*
X6565928Y-17652357D02*
X6580214Y-17623786D01*
X6594500Y-17609500D01*
X6623071Y-17595214D01*
X6651643Y-17595214D01*
X6751643Y-17795214D02*
X6751643Y-17595214D01*
X6751643Y-17495214D02*
X6737357Y-17509500D01*
X6751643Y-17523786D01*
X6765928Y-17509500D01*
X6751643Y-17495214D01*
X6751643Y-17523786D01*
X6937357Y-17795214D02*
X6908786Y-17780929D01*
X6894500Y-17752357D01*
X6894500Y-17495214D01*
X7094500Y-17795214D02*
X7065928Y-17780929D01*
X7051643Y-17752357D01*
X7051643Y-17495214D01*
X7437357Y-17795214D02*
X7437357Y-17495214D01*
X7537357Y-17709500D01*
X7637357Y-17495214D01*
X7637357Y-17795214D01*
X7908786Y-17795214D02*
X7908786Y-17638072D01*
X7894500Y-17609500D01*
X7865928Y-17595214D01*
X7808786Y-17595214D01*
X7780214Y-17609500D01*
X7908786Y-17780929D02*
X7880214Y-17795214D01*
X7808786Y-17795214D01*
X7780214Y-17780929D01*
X7765928Y-17752357D01*
X7765928Y-17723786D01*
X7780214Y-17695214D01*
X7808786Y-17680929D01*
X7880214Y-17680929D01*
X7908786Y-17666643D01*
X8051643Y-17595214D02*
X8051643Y-17895214D01*
X8051643Y-17609500D02*
X8080214Y-17595214D01*
X8137357Y-17595214D01*
X8165928Y-17609500D01*
X8180214Y-17623786D01*
X8194500Y-17652357D01*
X8194500Y-17738072D01*
X8180214Y-17766643D01*
X8165928Y-17780929D01*
X8137357Y-17795214D01*
X8080214Y-17795214D01*
X8051643Y-17780929D01*
X8323071Y-17766643D02*
X8337357Y-17780929D01*
X8323071Y-17795214D01*
X8308786Y-17780929D01*
X8323071Y-17766643D01*
X8323071Y-17795214D01*
X8323071Y-17609500D02*
X8337357Y-17623786D01*
X8323071Y-17638072D01*
X8308786Y-17623786D01*
X8323071Y-17609500D01*
X8323071Y-17638072D01*
X5954500Y-18269500D02*
X5994500Y-18309500D01*
X5994500Y-18269500D02*
X5954500Y-18309500D01*
X6323071Y-18125214D02*
X6351643Y-18125214D01*
X6380214Y-18139500D01*
X6394500Y-18153786D01*
X6408786Y-18182357D01*
X6423071Y-18239500D01*
X6423071Y-18310929D01*
X6408786Y-18368072D01*
X6394500Y-18396643D01*
X6380214Y-18410929D01*
X6351643Y-18425214D01*
X6323071Y-18425214D01*
X6294500Y-18410929D01*
X6280214Y-18396643D01*
X6265928Y-18368072D01*
X6251643Y-18310929D01*
X6251643Y-18239500D01*
X6265928Y-18182357D01*
X6280214Y-18153786D01*
X6294500Y-18139500D01*
X6323071Y-18125214D01*
X6551643Y-18396643D02*
X6565928Y-18410929D01*
X6551643Y-18425214D01*
X6537357Y-18410929D01*
X6551643Y-18396643D01*
X6551643Y-18425214D01*
X6823071Y-18225214D02*
X6823071Y-18425214D01*
X6751643Y-18110929D02*
X6680214Y-18325214D01*
X6865928Y-18325214D01*
X7037357Y-18125214D02*
X7065928Y-18125214D01*
X7094500Y-18139500D01*
X7108786Y-18153786D01*
X7123071Y-18182357D01*
X7137357Y-18239500D01*
X7137357Y-18310929D01*
X7123071Y-18368072D01*
X7108786Y-18396643D01*
X7094500Y-18410929D01*
X7065928Y-18425214D01*
X7037357Y-18425214D01*
X7008786Y-18410929D01*
X6994500Y-18396643D01*
X6980214Y-18368072D01*
X6965928Y-18310929D01*
X6965928Y-18239500D01*
X6980214Y-18182357D01*
X6994500Y-18153786D01*
X7008786Y-18139500D01*
X7037357Y-18125214D01*
X7265928Y-18425214D02*
X7265928Y-18225214D01*
X7265928Y-18253786D02*
X7280214Y-18239500D01*
X7308786Y-18225214D01*
X7351643Y-18225214D01*
X7380214Y-18239500D01*
X7394500Y-18268072D01*
X7394500Y-18425214D01*
X7394500Y-18268072D02*
X7408786Y-18239500D01*
X7437357Y-18225214D01*
X7480214Y-18225214D01*
X7508786Y-18239500D01*
X7523071Y-18268072D01*
X7523071Y-18425214D01*
X7665928Y-18425214D02*
X7665928Y-18225214D01*
X7665928Y-18253786D02*
X7680214Y-18239500D01*
X7708786Y-18225214D01*
X7751643Y-18225214D01*
X7780214Y-18239500D01*
X7794500Y-18268072D01*
X7794500Y-18425214D01*
X7794500Y-18268072D02*
X7808786Y-18239500D01*
X7837357Y-18225214D01*
X7880214Y-18225214D01*
X7908786Y-18239500D01*
X7923071Y-18268072D01*
X7923071Y-18425214D01*
X8508786Y-18110929D02*
X8251643Y-18496643D01*
X8894500Y-18125214D02*
X8923071Y-18125214D01*
X8951643Y-18139500D01*
X8965928Y-18153786D01*
X8980214Y-18182357D01*
X8994500Y-18239500D01*
X8994500Y-18310929D01*
X8980214Y-18368072D01*
X8965928Y-18396643D01*
X8951643Y-18410929D01*
X8923071Y-18425214D01*
X8894500Y-18425214D01*
X8865928Y-18410929D01*
X8851643Y-18396643D01*
X8837357Y-18368072D01*
X8823071Y-18310929D01*
X8823071Y-18239500D01*
X8837357Y-18182357D01*
X8851643Y-18153786D01*
X8865928Y-18139500D01*
X8894500Y-18125214D01*
X9123071Y-18396643D02*
X9137357Y-18410929D01*
X9123071Y-18425214D01*
X9108786Y-18410929D01*
X9123071Y-18396643D01*
X9123071Y-18425214D01*
X9323071Y-18125214D02*
X9351643Y-18125214D01*
X9380214Y-18139500D01*
X9394500Y-18153786D01*
X9408786Y-18182357D01*
X9423071Y-18239500D01*
X9423071Y-18310929D01*
X9408786Y-18368072D01*
X9394500Y-18396643D01*
X9380214Y-18410929D01*
X9351643Y-18425214D01*
X9323071Y-18425214D01*
X9294500Y-18410929D01*
X9280214Y-18396643D01*
X9265928Y-18368072D01*
X9251643Y-18310929D01*
X9251643Y-18239500D01*
X9265928Y-18182357D01*
X9280214Y-18153786D01*
X9294500Y-18139500D01*
X9323071Y-18125214D01*
X9708786Y-18425214D02*
X9537357Y-18425214D01*
X9623071Y-18425214D02*
X9623071Y-18125214D01*
X9594500Y-18168072D01*
X9565928Y-18196643D01*
X9537357Y-18210929D01*
X9965928Y-18125214D02*
X9908786Y-18125214D01*
X9880214Y-18139500D01*
X9865928Y-18153786D01*
X9837357Y-18196643D01*
X9823071Y-18253786D01*
X9823071Y-18368072D01*
X9837357Y-18396643D01*
X9851643Y-18410929D01*
X9880214Y-18425214D01*
X9937357Y-18425214D01*
X9965928Y-18410929D01*
X9980214Y-18396643D01*
X9994500Y-18368072D01*
X9994500Y-18296643D01*
X9980214Y-18268072D01*
X9965928Y-18253786D01*
X9937357Y-18239500D01*
X9880214Y-18239500D01*
X9851643Y-18253786D01*
X9837357Y-18268072D01*
X9823071Y-18296643D01*
X10108786Y-18125214D02*
X10108786Y-18182357D01*
X10223071Y-18125214D02*
X10223071Y-18182357D01*
X10665928Y-18539500D02*
X10651643Y-18525214D01*
X10623071Y-18482357D01*
X10608786Y-18453786D01*
X10594500Y-18410929D01*
X10580214Y-18339500D01*
X10580214Y-18282357D01*
X10594500Y-18210929D01*
X10608786Y-18168072D01*
X10623071Y-18139500D01*
X10651643Y-18096643D01*
X10665928Y-18082357D01*
X10765928Y-18153786D02*
X10780214Y-18139500D01*
X10808786Y-18125214D01*
X10880214Y-18125214D01*
X10908786Y-18139500D01*
X10923071Y-18153786D01*
X10937357Y-18182357D01*
X10937357Y-18210929D01*
X10923071Y-18253786D01*
X10751643Y-18425214D01*
X10937357Y-18425214D01*
X11108786Y-18253786D02*
X11080214Y-18239500D01*
X11065928Y-18225214D01*
X11051643Y-18196643D01*
X11051643Y-18182357D01*
X11065928Y-18153786D01*
X11080214Y-18139500D01*
X11108786Y-18125214D01*
X11165928Y-18125214D01*
X11194500Y-18139500D01*
X11208785Y-18153786D01*
X11223071Y-18182357D01*
X11223071Y-18196643D01*
X11208785Y-18225214D01*
X11194500Y-18239500D01*
X11165928Y-18253786D01*
X11108786Y-18253786D01*
X11080214Y-18268072D01*
X11065928Y-18282357D01*
X11051643Y-18310929D01*
X11051643Y-18368072D01*
X11065928Y-18396643D01*
X11080214Y-18410929D01*
X11108786Y-18425214D01*
X11165928Y-18425214D01*
X11194500Y-18410929D01*
X11208785Y-18396643D01*
X11223071Y-18368072D01*
X11223071Y-18310929D01*
X11208785Y-18282357D01*
X11194500Y-18268072D01*
X11165928Y-18253786D01*
X11580214Y-18425214D02*
X11580214Y-18125214D01*
X11708785Y-18425214D02*
X11708785Y-18268072D01*
X11694500Y-18239500D01*
X11665928Y-18225214D01*
X11623071Y-18225214D01*
X11594500Y-18239500D01*
X11580214Y-18253786D01*
X11894500Y-18425214D02*
X11865928Y-18410929D01*
X11851643Y-18396643D01*
X11837357Y-18368072D01*
X11837357Y-18282357D01*
X11851643Y-18253786D01*
X11865928Y-18239500D01*
X11894500Y-18225214D01*
X11937357Y-18225214D01*
X11965928Y-18239500D01*
X11980214Y-18253786D01*
X11994500Y-18282357D01*
X11994500Y-18368072D01*
X11980214Y-18396643D01*
X11965928Y-18410929D01*
X11937357Y-18425214D01*
X11894500Y-18425214D01*
X12165928Y-18425214D02*
X12137357Y-18410929D01*
X12123071Y-18382357D01*
X12123071Y-18125214D01*
X12394500Y-18410929D02*
X12365928Y-18425214D01*
X12308786Y-18425214D01*
X12280214Y-18410929D01*
X12265928Y-18382357D01*
X12265928Y-18268072D01*
X12280214Y-18239500D01*
X12308786Y-18225214D01*
X12365928Y-18225214D01*
X12394500Y-18239500D01*
X12408786Y-18268072D01*
X12408786Y-18296643D01*
X12265928Y-18325214D01*
X12523071Y-18410929D02*
X12551643Y-18425214D01*
X12608786Y-18425214D01*
X12637357Y-18410929D01*
X12651643Y-18382357D01*
X12651643Y-18368072D01*
X12637357Y-18339500D01*
X12608786Y-18325214D01*
X12565928Y-18325214D01*
X12537357Y-18310929D01*
X12523071Y-18282357D01*
X12523071Y-18268072D01*
X12537357Y-18239500D01*
X12565928Y-18225214D01*
X12608786Y-18225214D01*
X12637357Y-18239500D01*
X12751643Y-18539500D02*
X12765928Y-18525214D01*
X12794500Y-18482357D01*
X12808786Y-18453786D01*
X12823071Y-18410929D01*
X12837357Y-18339500D01*
X12837357Y-18282357D01*
X12823071Y-18210929D01*
X12808786Y-18168072D01*
X12794500Y-18139500D01*
X12765928Y-18096643D01*
X12751643Y-18082357D01*
X5994500Y-18685500D02*
G75*
G03X5994500Y-18685500I-30000J0D01*
G01*
X6323071Y-18521214D02*
X6351643Y-18521214D01*
X6380214Y-18535500D01*
X6394500Y-18549786D01*
X6408786Y-18578357D01*
X6423071Y-18635500D01*
X6423071Y-18706929D01*
X6408786Y-18764072D01*
X6394500Y-18792643D01*
X6380214Y-18806929D01*
X6351643Y-18821214D01*
X6323071Y-18821214D01*
X6294500Y-18806929D01*
X6280214Y-18792643D01*
X6265928Y-18764072D01*
X6251643Y-18706929D01*
X6251643Y-18635500D01*
X6265928Y-18578357D01*
X6280214Y-18549786D01*
X6294500Y-18535500D01*
X6323071Y-18521214D01*
X6551643Y-18792643D02*
X6565928Y-18806929D01*
X6551643Y-18821214D01*
X6537357Y-18806929D01*
X6551643Y-18792643D01*
X6551643Y-18821214D01*
X6823071Y-18521214D02*
X6765928Y-18521214D01*
X6737357Y-18535500D01*
X6723071Y-18549786D01*
X6694500Y-18592643D01*
X6680214Y-18649786D01*
X6680214Y-18764072D01*
X6694500Y-18792643D01*
X6708786Y-18806929D01*
X6737357Y-18821214D01*
X6794500Y-18821214D01*
X6823071Y-18806929D01*
X6837357Y-18792643D01*
X6851643Y-18764072D01*
X6851643Y-18692643D01*
X6837357Y-18664072D01*
X6823071Y-18649786D01*
X6794500Y-18635500D01*
X6737357Y-18635500D01*
X6708786Y-18649786D01*
X6694500Y-18664072D01*
X6680214Y-18692643D01*
X7037357Y-18521214D02*
X7065928Y-18521214D01*
X7094500Y-18535500D01*
X7108786Y-18549786D01*
X7123071Y-18578357D01*
X7137357Y-18635500D01*
X7137357Y-18706929D01*
X7123071Y-18764072D01*
X7108786Y-18792643D01*
X7094500Y-18806929D01*
X7065928Y-18821214D01*
X7037357Y-18821214D01*
X7008786Y-18806929D01*
X6994500Y-18792643D01*
X6980214Y-18764072D01*
X6965928Y-18706929D01*
X6965928Y-18635500D01*
X6980214Y-18578357D01*
X6994500Y-18549786D01*
X7008786Y-18535500D01*
X7037357Y-18521214D01*
X7265928Y-18821214D02*
X7265928Y-18621214D01*
X7265928Y-18649786D02*
X7280214Y-18635500D01*
X7308786Y-18621214D01*
X7351643Y-18621214D01*
X7380214Y-18635500D01*
X7394500Y-18664072D01*
X7394500Y-18821214D01*
X7394500Y-18664072D02*
X7408786Y-18635500D01*
X7437357Y-18621214D01*
X7480214Y-18621214D01*
X7508786Y-18635500D01*
X7523071Y-18664072D01*
X7523071Y-18821214D01*
X7665928Y-18821214D02*
X7665928Y-18621214D01*
X7665928Y-18649786D02*
X7680214Y-18635500D01*
X7708786Y-18621214D01*
X7751643Y-18621214D01*
X7780214Y-18635500D01*
X7794500Y-18664072D01*
X7794500Y-18821214D01*
X7794500Y-18664072D02*
X7808786Y-18635500D01*
X7837357Y-18621214D01*
X7880214Y-18621214D01*
X7908786Y-18635500D01*
X7923071Y-18664072D01*
X7923071Y-18821214D01*
X8508786Y-18506929D02*
X8251643Y-18892643D01*
X8894500Y-18521214D02*
X8923071Y-18521214D01*
X8951643Y-18535500D01*
X8965928Y-18549786D01*
X8980214Y-18578357D01*
X8994500Y-18635500D01*
X8994500Y-18706929D01*
X8980214Y-18764072D01*
X8965928Y-18792643D01*
X8951643Y-18806929D01*
X8923071Y-18821214D01*
X8894500Y-18821214D01*
X8865928Y-18806929D01*
X8851643Y-18792643D01*
X8837357Y-18764072D01*
X8823071Y-18706929D01*
X8823071Y-18635500D01*
X8837357Y-18578357D01*
X8851643Y-18549786D01*
X8865928Y-18535500D01*
X8894500Y-18521214D01*
X9123071Y-18792643D02*
X9137357Y-18806929D01*
X9123071Y-18821214D01*
X9108786Y-18806929D01*
X9123071Y-18792643D01*
X9123071Y-18821214D01*
X9323071Y-18521214D02*
X9351643Y-18521214D01*
X9380214Y-18535500D01*
X9394500Y-18549786D01*
X9408786Y-18578357D01*
X9423071Y-18635500D01*
X9423071Y-18706929D01*
X9408786Y-18764072D01*
X9394500Y-18792643D01*
X9380214Y-18806929D01*
X9351643Y-18821214D01*
X9323071Y-18821214D01*
X9294500Y-18806929D01*
X9280214Y-18792643D01*
X9265928Y-18764072D01*
X9251643Y-18706929D01*
X9251643Y-18635500D01*
X9265928Y-18578357D01*
X9280214Y-18549786D01*
X9294500Y-18535500D01*
X9323071Y-18521214D01*
X9537357Y-18549786D02*
X9551643Y-18535500D01*
X9580214Y-18521214D01*
X9651643Y-18521214D01*
X9680214Y-18535500D01*
X9694500Y-18549786D01*
X9708786Y-18578357D01*
X9708786Y-18606929D01*
X9694500Y-18649786D01*
X9523071Y-18821214D01*
X9708786Y-18821214D01*
X9965928Y-18621214D02*
X9965928Y-18821214D01*
X9894500Y-18506929D02*
X9823071Y-18721214D01*
X10008786Y-18721214D01*
X10108786Y-18521214D02*
X10108786Y-18578357D01*
X10223071Y-18521214D02*
X10223071Y-18578357D01*
X10665928Y-18935500D02*
X10651643Y-18921214D01*
X10623071Y-18878357D01*
X10608786Y-18849786D01*
X10594500Y-18806929D01*
X10580214Y-18735500D01*
X10580214Y-18678357D01*
X10594500Y-18606929D01*
X10608786Y-18564072D01*
X10623071Y-18535500D01*
X10651643Y-18492643D01*
X10665928Y-18478357D01*
X10908786Y-18621214D02*
X10908786Y-18821214D01*
X10837357Y-18506929D02*
X10765928Y-18721214D01*
X10951643Y-18721214D01*
X11108786Y-18649786D02*
X11080214Y-18635500D01*
X11065928Y-18621214D01*
X11051643Y-18592643D01*
X11051643Y-18578357D01*
X11065928Y-18549786D01*
X11080214Y-18535500D01*
X11108786Y-18521214D01*
X11165928Y-18521214D01*
X11194500Y-18535500D01*
X11208785Y-18549786D01*
X11223071Y-18578357D01*
X11223071Y-18592643D01*
X11208785Y-18621214D01*
X11194500Y-18635500D01*
X11165928Y-18649786D01*
X11108786Y-18649786D01*
X11080214Y-18664072D01*
X11065928Y-18678357D01*
X11051643Y-18706929D01*
X11051643Y-18764072D01*
X11065928Y-18792643D01*
X11080214Y-18806929D01*
X11108786Y-18821214D01*
X11165928Y-18821214D01*
X11194500Y-18806929D01*
X11208785Y-18792643D01*
X11223071Y-18764072D01*
X11223071Y-18706929D01*
X11208785Y-18678357D01*
X11194500Y-18664072D01*
X11165928Y-18649786D01*
X11580214Y-18821214D02*
X11580214Y-18521214D01*
X11708785Y-18821214D02*
X11708785Y-18664072D01*
X11694500Y-18635500D01*
X11665928Y-18621214D01*
X11623071Y-18621214D01*
X11594500Y-18635500D01*
X11580214Y-18649786D01*
X11894500Y-18821214D02*
X11865928Y-18806929D01*
X11851643Y-18792643D01*
X11837357Y-18764072D01*
X11837357Y-18678357D01*
X11851643Y-18649786D01*
X11865928Y-18635500D01*
X11894500Y-18621214D01*
X11937357Y-18621214D01*
X11965928Y-18635500D01*
X11980214Y-18649786D01*
X11994500Y-18678357D01*
X11994500Y-18764072D01*
X11980214Y-18792643D01*
X11965928Y-18806929D01*
X11937357Y-18821214D01*
X11894500Y-18821214D01*
X12165928Y-18821214D02*
X12137357Y-18806929D01*
X12123071Y-18778357D01*
X12123071Y-18521214D01*
X12394500Y-18806929D02*
X12365928Y-18821214D01*
X12308786Y-18821214D01*
X12280214Y-18806929D01*
X12265928Y-18778357D01*
X12265928Y-18664072D01*
X12280214Y-18635500D01*
X12308786Y-18621214D01*
X12365928Y-18621214D01*
X12394500Y-18635500D01*
X12408786Y-18664072D01*
X12408786Y-18692643D01*
X12265928Y-18721214D01*
X12523071Y-18806929D02*
X12551643Y-18821214D01*
X12608786Y-18821214D01*
X12637357Y-18806929D01*
X12651643Y-18778357D01*
X12651643Y-18764072D01*
X12637357Y-18735500D01*
X12608786Y-18721214D01*
X12565928Y-18721214D01*
X12537357Y-18706929D01*
X12523071Y-18678357D01*
X12523071Y-18664072D01*
X12537357Y-18635500D01*
X12565928Y-18621214D01*
X12608786Y-18621214D01*
X12637357Y-18635500D01*
X12751643Y-18935500D02*
X12765928Y-18921214D01*
X12794500Y-18878357D01*
X12808786Y-18849786D01*
X12823071Y-18806929D01*
X12837357Y-18735500D01*
X12837357Y-18678357D01*
X12823071Y-18606929D01*
X12808786Y-18564072D01*
X12794500Y-18535500D01*
X12765928Y-18492643D01*
X12751643Y-18478357D01*
X5962000Y-19049000D02*
X5962000Y-19114000D01*
X5929500Y-19081500D02*
X5994500Y-19081500D01*
X6323071Y-18917214D02*
X6351643Y-18917214D01*
X6380214Y-18931500D01*
X6394500Y-18945786D01*
X6408786Y-18974357D01*
X6423071Y-19031500D01*
X6423071Y-19102929D01*
X6408786Y-19160072D01*
X6394500Y-19188643D01*
X6380214Y-19202929D01*
X6351643Y-19217214D01*
X6323071Y-19217214D01*
X6294500Y-19202929D01*
X6280214Y-19188643D01*
X6265928Y-19160072D01*
X6251643Y-19102929D01*
X6251643Y-19031500D01*
X6265928Y-18974357D01*
X6280214Y-18945786D01*
X6294500Y-18931500D01*
X6323071Y-18917214D01*
X6551643Y-19188643D02*
X6565928Y-19202929D01*
X6551643Y-19217214D01*
X6537357Y-19202929D01*
X6551643Y-19188643D01*
X6551643Y-19217214D01*
X6823071Y-18917214D02*
X6765928Y-18917214D01*
X6737357Y-18931500D01*
X6723071Y-18945786D01*
X6694500Y-18988643D01*
X6680214Y-19045786D01*
X6680214Y-19160072D01*
X6694500Y-19188643D01*
X6708786Y-19202929D01*
X6737357Y-19217214D01*
X6794500Y-19217214D01*
X6823071Y-19202929D01*
X6837357Y-19188643D01*
X6851643Y-19160072D01*
X6851643Y-19088643D01*
X6837357Y-19060072D01*
X6823071Y-19045786D01*
X6794500Y-19031500D01*
X6737357Y-19031500D01*
X6708786Y-19045786D01*
X6694500Y-19060072D01*
X6680214Y-19088643D01*
X7123071Y-18917214D02*
X6980214Y-18917214D01*
X6965928Y-19060072D01*
X6980214Y-19045786D01*
X7008786Y-19031500D01*
X7080214Y-19031500D01*
X7108786Y-19045786D01*
X7123071Y-19060072D01*
X7137357Y-19088643D01*
X7137357Y-19160072D01*
X7123071Y-19188643D01*
X7108786Y-19202929D01*
X7080214Y-19217214D01*
X7008786Y-19217214D01*
X6980214Y-19202929D01*
X6965928Y-19188643D01*
X7265928Y-19217214D02*
X7265928Y-19017214D01*
X7265928Y-19045786D02*
X7280214Y-19031500D01*
X7308786Y-19017214D01*
X7351643Y-19017214D01*
X7380214Y-19031500D01*
X7394500Y-19060072D01*
X7394500Y-19217214D01*
X7394500Y-19060072D02*
X7408786Y-19031500D01*
X7437357Y-19017214D01*
X7480214Y-19017214D01*
X7508786Y-19031500D01*
X7523071Y-19060072D01*
X7523071Y-19217214D01*
X7665928Y-19217214D02*
X7665928Y-19017214D01*
X7665928Y-19045786D02*
X7680214Y-19031500D01*
X7708786Y-19017214D01*
X7751643Y-19017214D01*
X7780214Y-19031500D01*
X7794500Y-19060072D01*
X7794500Y-19217214D01*
X7794500Y-19060072D02*
X7808786Y-19031500D01*
X7837357Y-19017214D01*
X7880214Y-19017214D01*
X7908786Y-19031500D01*
X7923071Y-19060072D01*
X7923071Y-19217214D01*
X8508786Y-18902929D02*
X8251643Y-19288643D01*
X8894500Y-18917214D02*
X8923071Y-18917214D01*
X8951643Y-18931500D01*
X8965928Y-18945786D01*
X8980214Y-18974357D01*
X8994500Y-19031500D01*
X8994500Y-19102929D01*
X8980214Y-19160072D01*
X8965928Y-19188643D01*
X8951643Y-19202929D01*
X8923071Y-19217214D01*
X8894500Y-19217214D01*
X8865928Y-19202929D01*
X8851643Y-19188643D01*
X8837357Y-19160072D01*
X8823071Y-19102929D01*
X8823071Y-19031500D01*
X8837357Y-18974357D01*
X8851643Y-18945786D01*
X8865928Y-18931500D01*
X8894500Y-18917214D01*
X9123071Y-19188643D02*
X9137357Y-19202929D01*
X9123071Y-19217214D01*
X9108786Y-19202929D01*
X9123071Y-19188643D01*
X9123071Y-19217214D01*
X9323071Y-18917214D02*
X9351643Y-18917214D01*
X9380214Y-18931500D01*
X9394500Y-18945786D01*
X9408786Y-18974357D01*
X9423071Y-19031500D01*
X9423071Y-19102929D01*
X9408786Y-19160072D01*
X9394500Y-19188643D01*
X9380214Y-19202929D01*
X9351643Y-19217214D01*
X9323071Y-19217214D01*
X9294500Y-19202929D01*
X9280214Y-19188643D01*
X9265928Y-19160072D01*
X9251643Y-19102929D01*
X9251643Y-19031500D01*
X9265928Y-18974357D01*
X9280214Y-18945786D01*
X9294500Y-18931500D01*
X9323071Y-18917214D01*
X9537357Y-18945786D02*
X9551643Y-18931500D01*
X9580214Y-18917214D01*
X9651643Y-18917214D01*
X9680214Y-18931500D01*
X9694500Y-18945786D01*
X9708786Y-18974357D01*
X9708786Y-19002929D01*
X9694500Y-19045786D01*
X9523071Y-19217214D01*
X9708786Y-19217214D01*
X9965928Y-18917214D02*
X9908786Y-18917214D01*
X9880214Y-18931500D01*
X9865928Y-18945786D01*
X9837357Y-18988643D01*
X9823071Y-19045786D01*
X9823071Y-19160072D01*
X9837357Y-19188643D01*
X9851643Y-19202929D01*
X9880214Y-19217214D01*
X9937357Y-19217214D01*
X9965928Y-19202929D01*
X9980214Y-19188643D01*
X9994500Y-19160072D01*
X9994500Y-19088643D01*
X9980214Y-19060072D01*
X9965928Y-19045786D01*
X9937357Y-19031500D01*
X9880214Y-19031500D01*
X9851643Y-19045786D01*
X9837357Y-19060072D01*
X9823071Y-19088643D01*
X10108786Y-18917214D02*
X10108786Y-18974357D01*
X10223071Y-18917214D02*
X10223071Y-18974357D01*
X10665928Y-19331500D02*
X10651643Y-19317214D01*
X10623071Y-19274357D01*
X10608786Y-19245786D01*
X10594500Y-19202929D01*
X10580214Y-19131500D01*
X10580214Y-19074357D01*
X10594500Y-19002929D01*
X10608786Y-18960072D01*
X10623071Y-18931500D01*
X10651643Y-18888643D01*
X10665928Y-18874357D01*
X10937357Y-19217214D02*
X10765928Y-19217214D01*
X10851643Y-19217214D02*
X10851643Y-18917214D01*
X10823071Y-18960072D01*
X10794500Y-18988643D01*
X10765928Y-19002929D01*
X11123071Y-18917214D02*
X11151643Y-18917214D01*
X11180214Y-18931500D01*
X11194500Y-18945786D01*
X11208785Y-18974357D01*
X11223071Y-19031500D01*
X11223071Y-19102929D01*
X11208785Y-19160072D01*
X11194500Y-19188643D01*
X11180214Y-19202929D01*
X11151643Y-19217214D01*
X11123071Y-19217214D01*
X11094500Y-19202929D01*
X11080214Y-19188643D01*
X11065928Y-19160072D01*
X11051643Y-19102929D01*
X11051643Y-19031500D01*
X11065928Y-18974357D01*
X11080214Y-18945786D01*
X11094500Y-18931500D01*
X11123071Y-18917214D01*
X11580214Y-19217214D02*
X11580214Y-18917214D01*
X11708785Y-19217214D02*
X11708785Y-19060072D01*
X11694500Y-19031500D01*
X11665928Y-19017214D01*
X11623071Y-19017214D01*
X11594500Y-19031500D01*
X11580214Y-19045786D01*
X11894500Y-19217214D02*
X11865928Y-19202929D01*
X11851643Y-19188643D01*
X11837357Y-19160072D01*
X11837357Y-19074357D01*
X11851643Y-19045786D01*
X11865928Y-19031500D01*
X11894500Y-19017214D01*
X11937357Y-19017214D01*
X11965928Y-19031500D01*
X11980214Y-19045786D01*
X11994500Y-19074357D01*
X11994500Y-19160072D01*
X11980214Y-19188643D01*
X11965928Y-19202929D01*
X11937357Y-19217214D01*
X11894500Y-19217214D01*
X12165928Y-19217214D02*
X12137357Y-19202929D01*
X12123071Y-19174357D01*
X12123071Y-18917214D01*
X12394500Y-19202929D02*
X12365928Y-19217214D01*
X12308786Y-19217214D01*
X12280214Y-19202929D01*
X12265928Y-19174357D01*
X12265928Y-19060072D01*
X12280214Y-19031500D01*
X12308786Y-19017214D01*
X12365928Y-19017214D01*
X12394500Y-19031500D01*
X12408786Y-19060072D01*
X12408786Y-19088643D01*
X12265928Y-19117214D01*
X12523071Y-19202929D02*
X12551643Y-19217214D01*
X12608786Y-19217214D01*
X12637357Y-19202929D01*
X12651643Y-19174357D01*
X12651643Y-19160072D01*
X12637357Y-19131500D01*
X12608786Y-19117214D01*
X12565928Y-19117214D01*
X12537357Y-19102929D01*
X12523071Y-19074357D01*
X12523071Y-19060072D01*
X12537357Y-19031500D01*
X12565928Y-19017214D01*
X12608786Y-19017214D01*
X12637357Y-19031500D01*
X12751643Y-19331500D02*
X12765928Y-19317214D01*
X12794500Y-19274357D01*
X12808786Y-19245786D01*
X12823071Y-19202929D01*
X12837357Y-19131500D01*
X12837357Y-19074357D01*
X12823071Y-19002929D01*
X12808786Y-18960072D01*
X12794500Y-18931500D01*
X12765928Y-18888643D01*
X12751643Y-18874357D01*
X5979856Y-19512856D02*
X5979856Y-19442144D01*
X5909144Y-19442144D01*
X5909144Y-19512856D01*
X5979856Y-19512856D01*
X6423071Y-19613214D02*
X6251643Y-19613214D01*
X6337357Y-19613214D02*
X6337357Y-19313214D01*
X6308786Y-19356072D01*
X6280214Y-19384643D01*
X6251643Y-19398929D01*
X6551643Y-19584643D02*
X6565928Y-19598929D01*
X6551643Y-19613214D01*
X6537357Y-19598929D01*
X6551643Y-19584643D01*
X6551643Y-19613214D01*
X6751643Y-19313214D02*
X6780214Y-19313214D01*
X6808786Y-19327500D01*
X6823071Y-19341786D01*
X6837357Y-19370357D01*
X6851643Y-19427500D01*
X6851643Y-19498929D01*
X6837357Y-19556072D01*
X6823071Y-19584643D01*
X6808786Y-19598929D01*
X6780214Y-19613214D01*
X6751643Y-19613214D01*
X6723071Y-19598929D01*
X6708786Y-19584643D01*
X6694500Y-19556072D01*
X6680214Y-19498929D01*
X6680214Y-19427500D01*
X6694500Y-19370357D01*
X6708786Y-19341786D01*
X6723071Y-19327500D01*
X6751643Y-19313214D01*
X7037357Y-19313214D02*
X7065928Y-19313214D01*
X7094500Y-19327500D01*
X7108786Y-19341786D01*
X7123071Y-19370357D01*
X7137357Y-19427500D01*
X7137357Y-19498929D01*
X7123071Y-19556072D01*
X7108786Y-19584643D01*
X7094500Y-19598929D01*
X7065928Y-19613214D01*
X7037357Y-19613214D01*
X7008786Y-19598929D01*
X6994500Y-19584643D01*
X6980214Y-19556072D01*
X6965928Y-19498929D01*
X6965928Y-19427500D01*
X6980214Y-19370357D01*
X6994500Y-19341786D01*
X7008786Y-19327500D01*
X7037357Y-19313214D01*
X7265928Y-19613214D02*
X7265928Y-19413214D01*
X7265928Y-19441786D02*
X7280214Y-19427500D01*
X7308786Y-19413214D01*
X7351643Y-19413214D01*
X7380214Y-19427500D01*
X7394500Y-19456072D01*
X7394500Y-19613214D01*
X7394500Y-19456072D02*
X7408786Y-19427500D01*
X7437357Y-19413214D01*
X7480214Y-19413214D01*
X7508786Y-19427500D01*
X7523071Y-19456072D01*
X7523071Y-19613214D01*
X7665928Y-19613214D02*
X7665928Y-19413214D01*
X7665928Y-19441786D02*
X7680214Y-19427500D01*
X7708786Y-19413214D01*
X7751643Y-19413214D01*
X7780214Y-19427500D01*
X7794500Y-19456072D01*
X7794500Y-19613214D01*
X7794500Y-19456072D02*
X7808786Y-19427500D01*
X7837357Y-19413214D01*
X7880214Y-19413214D01*
X7908786Y-19427500D01*
X7923071Y-19456072D01*
X7923071Y-19613214D01*
X8508786Y-19298929D02*
X8251643Y-19684643D01*
X8894500Y-19313214D02*
X8923071Y-19313214D01*
X8951643Y-19327500D01*
X8965928Y-19341786D01*
X8980214Y-19370357D01*
X8994500Y-19427500D01*
X8994500Y-19498929D01*
X8980214Y-19556072D01*
X8965928Y-19584643D01*
X8951643Y-19598929D01*
X8923071Y-19613214D01*
X8894500Y-19613214D01*
X8865928Y-19598929D01*
X8851643Y-19584643D01*
X8837357Y-19556072D01*
X8823071Y-19498929D01*
X8823071Y-19427500D01*
X8837357Y-19370357D01*
X8851643Y-19341786D01*
X8865928Y-19327500D01*
X8894500Y-19313214D01*
X9123071Y-19584643D02*
X9137357Y-19598929D01*
X9123071Y-19613214D01*
X9108786Y-19598929D01*
X9123071Y-19584643D01*
X9123071Y-19613214D01*
X9323071Y-19313214D02*
X9351643Y-19313214D01*
X9380214Y-19327500D01*
X9394500Y-19341786D01*
X9408786Y-19370357D01*
X9423071Y-19427500D01*
X9423071Y-19498929D01*
X9408786Y-19556072D01*
X9394500Y-19584643D01*
X9380214Y-19598929D01*
X9351643Y-19613214D01*
X9323071Y-19613214D01*
X9294500Y-19598929D01*
X9280214Y-19584643D01*
X9265928Y-19556072D01*
X9251643Y-19498929D01*
X9251643Y-19427500D01*
X9265928Y-19370357D01*
X9280214Y-19341786D01*
X9294500Y-19327500D01*
X9323071Y-19313214D01*
X9523071Y-19313214D02*
X9708786Y-19313214D01*
X9608786Y-19427500D01*
X9651643Y-19427500D01*
X9680214Y-19441786D01*
X9694500Y-19456072D01*
X9708786Y-19484643D01*
X9708786Y-19556072D01*
X9694500Y-19584643D01*
X9680214Y-19598929D01*
X9651643Y-19613214D01*
X9565928Y-19613214D01*
X9537357Y-19598929D01*
X9523071Y-19584643D01*
X9851643Y-19613214D02*
X9908786Y-19613214D01*
X9937357Y-19598929D01*
X9951643Y-19584643D01*
X9980214Y-19541786D01*
X9994500Y-19484643D01*
X9994500Y-19370357D01*
X9980214Y-19341786D01*
X9965928Y-19327500D01*
X9937357Y-19313214D01*
X9880214Y-19313214D01*
X9851643Y-19327500D01*
X9837357Y-19341786D01*
X9823071Y-19370357D01*
X9823071Y-19441786D01*
X9837357Y-19470357D01*
X9851643Y-19484643D01*
X9880214Y-19498929D01*
X9937357Y-19498929D01*
X9965928Y-19484643D01*
X9980214Y-19470357D01*
X9994500Y-19441786D01*
X10108786Y-19313214D02*
X10108786Y-19370357D01*
X10223071Y-19313214D02*
X10223071Y-19370357D01*
X10665928Y-19727500D02*
X10651643Y-19713214D01*
X10623071Y-19670357D01*
X10608786Y-19641786D01*
X10594500Y-19598929D01*
X10580214Y-19527500D01*
X10580214Y-19470357D01*
X10594500Y-19398929D01*
X10608786Y-19356072D01*
X10623071Y-19327500D01*
X10651643Y-19284643D01*
X10665928Y-19270357D01*
X10751643Y-19313214D02*
X10937357Y-19313214D01*
X10837357Y-19427500D01*
X10880214Y-19427500D01*
X10908786Y-19441786D01*
X10923071Y-19456072D01*
X10937357Y-19484643D01*
X10937357Y-19556072D01*
X10923071Y-19584643D01*
X10908786Y-19598929D01*
X10880214Y-19613214D01*
X10794500Y-19613214D01*
X10765928Y-19598929D01*
X10751643Y-19584643D01*
X11194500Y-19313214D02*
X11137357Y-19313214D01*
X11108786Y-19327500D01*
X11094500Y-19341786D01*
X11065928Y-19384643D01*
X11051643Y-19441786D01*
X11051643Y-19556072D01*
X11065928Y-19584643D01*
X11080214Y-19598929D01*
X11108786Y-19613214D01*
X11165928Y-19613214D01*
X11194500Y-19598929D01*
X11208785Y-19584643D01*
X11223071Y-19556072D01*
X11223071Y-19484643D01*
X11208785Y-19456072D01*
X11194500Y-19441786D01*
X11165928Y-19427500D01*
X11108786Y-19427500D01*
X11080214Y-19441786D01*
X11065928Y-19456072D01*
X11051643Y-19484643D01*
X11580214Y-19613214D02*
X11580214Y-19313214D01*
X11708785Y-19613214D02*
X11708785Y-19456072D01*
X11694500Y-19427500D01*
X11665928Y-19413214D01*
X11623071Y-19413214D01*
X11594500Y-19427500D01*
X11580214Y-19441786D01*
X11894500Y-19613214D02*
X11865928Y-19598929D01*
X11851643Y-19584643D01*
X11837357Y-19556072D01*
X11837357Y-19470357D01*
X11851643Y-19441786D01*
X11865928Y-19427500D01*
X11894500Y-19413214D01*
X11937357Y-19413214D01*
X11965928Y-19427500D01*
X11980214Y-19441786D01*
X11994500Y-19470357D01*
X11994500Y-19556072D01*
X11980214Y-19584643D01*
X11965928Y-19598929D01*
X11937357Y-19613214D01*
X11894500Y-19613214D01*
X12165928Y-19613214D02*
X12137357Y-19598929D01*
X12123071Y-19570357D01*
X12123071Y-19313214D01*
X12394500Y-19598929D02*
X12365928Y-19613214D01*
X12308786Y-19613214D01*
X12280214Y-19598929D01*
X12265928Y-19570357D01*
X12265928Y-19456072D01*
X12280214Y-19427500D01*
X12308786Y-19413214D01*
X12365928Y-19413214D01*
X12394500Y-19427500D01*
X12408786Y-19456072D01*
X12408786Y-19484643D01*
X12265928Y-19513214D01*
X12523071Y-19598929D02*
X12551643Y-19613214D01*
X12608786Y-19613214D01*
X12637357Y-19598929D01*
X12651643Y-19570357D01*
X12651643Y-19556072D01*
X12637357Y-19527500D01*
X12608786Y-19513214D01*
X12565928Y-19513214D01*
X12537357Y-19498929D01*
X12523071Y-19470357D01*
X12523071Y-19456072D01*
X12537357Y-19427500D01*
X12565928Y-19413214D01*
X12608786Y-19413214D01*
X12637357Y-19427500D01*
X12751643Y-19727500D02*
X12765928Y-19713214D01*
X12794500Y-19670357D01*
X12808786Y-19641786D01*
X12823071Y-19598929D01*
X12837357Y-19527500D01*
X12837357Y-19470357D01*
X12823071Y-19398929D01*
X12808786Y-19356072D01*
X12794500Y-19327500D01*
X12765928Y-19284643D01*
X12751643Y-19270357D01*
X5929500Y-19938500D02*
X5994500Y-19873500D01*
X5929500Y-19808500D01*
X5864500Y-19873500D01*
X5929500Y-19938500D01*
X6423071Y-20009214D02*
X6251643Y-20009214D01*
X6337357Y-20009214D02*
X6337357Y-19709214D01*
X6308786Y-19752072D01*
X6280214Y-19780643D01*
X6251643Y-19794929D01*
X6551643Y-19980643D02*
X6565928Y-19994929D01*
X6551643Y-20009214D01*
X6537357Y-19994929D01*
X6551643Y-19980643D01*
X6551643Y-20009214D01*
X6665928Y-19709214D02*
X6851643Y-19709214D01*
X6751643Y-19823500D01*
X6794500Y-19823500D01*
X6823071Y-19837786D01*
X6837357Y-19852072D01*
X6851643Y-19880643D01*
X6851643Y-19952072D01*
X6837357Y-19980643D01*
X6823071Y-19994929D01*
X6794500Y-20009214D01*
X6708786Y-20009214D01*
X6680214Y-19994929D01*
X6665928Y-19980643D01*
X7037357Y-19709214D02*
X7065928Y-19709214D01*
X7094500Y-19723500D01*
X7108786Y-19737786D01*
X7123071Y-19766357D01*
X7137357Y-19823500D01*
X7137357Y-19894929D01*
X7123071Y-19952072D01*
X7108786Y-19980643D01*
X7094500Y-19994929D01*
X7065928Y-20009214D01*
X7037357Y-20009214D01*
X7008786Y-19994929D01*
X6994500Y-19980643D01*
X6980214Y-19952072D01*
X6965928Y-19894929D01*
X6965928Y-19823500D01*
X6980214Y-19766357D01*
X6994500Y-19737786D01*
X7008786Y-19723500D01*
X7037357Y-19709214D01*
X7265928Y-20009214D02*
X7265928Y-19809214D01*
X7265928Y-19837786D02*
X7280214Y-19823500D01*
X7308786Y-19809214D01*
X7351643Y-19809214D01*
X7380214Y-19823500D01*
X7394500Y-19852072D01*
X7394500Y-20009214D01*
X7394500Y-19852072D02*
X7408786Y-19823500D01*
X7437357Y-19809214D01*
X7480214Y-19809214D01*
X7508786Y-19823500D01*
X7523071Y-19852072D01*
X7523071Y-20009214D01*
X7665928Y-20009214D02*
X7665928Y-19809214D01*
X7665928Y-19837786D02*
X7680214Y-19823500D01*
X7708786Y-19809214D01*
X7751643Y-19809214D01*
X7780214Y-19823500D01*
X7794500Y-19852072D01*
X7794500Y-20009214D01*
X7794500Y-19852072D02*
X7808786Y-19823500D01*
X7837357Y-19809214D01*
X7880214Y-19809214D01*
X7908786Y-19823500D01*
X7923071Y-19852072D01*
X7923071Y-20009214D01*
X8508786Y-19694929D02*
X8251643Y-20080643D01*
X8894500Y-19709214D02*
X8923071Y-19709214D01*
X8951643Y-19723500D01*
X8965928Y-19737786D01*
X8980214Y-19766357D01*
X8994500Y-19823500D01*
X8994500Y-19894929D01*
X8980214Y-19952072D01*
X8965928Y-19980643D01*
X8951643Y-19994929D01*
X8923071Y-20009214D01*
X8894500Y-20009214D01*
X8865928Y-19994929D01*
X8851643Y-19980643D01*
X8837357Y-19952072D01*
X8823071Y-19894929D01*
X8823071Y-19823500D01*
X8837357Y-19766357D01*
X8851643Y-19737786D01*
X8865928Y-19723500D01*
X8894500Y-19709214D01*
X9123071Y-19980643D02*
X9137357Y-19994929D01*
X9123071Y-20009214D01*
X9108786Y-19994929D01*
X9123071Y-19980643D01*
X9123071Y-20009214D01*
X9323071Y-19709214D02*
X9351643Y-19709214D01*
X9380214Y-19723500D01*
X9394500Y-19737786D01*
X9408786Y-19766357D01*
X9423071Y-19823500D01*
X9423071Y-19894929D01*
X9408786Y-19952072D01*
X9394500Y-19980643D01*
X9380214Y-19994929D01*
X9351643Y-20009214D01*
X9323071Y-20009214D01*
X9294500Y-19994929D01*
X9280214Y-19980643D01*
X9265928Y-19952072D01*
X9251643Y-19894929D01*
X9251643Y-19823500D01*
X9265928Y-19766357D01*
X9280214Y-19737786D01*
X9294500Y-19723500D01*
X9323071Y-19709214D01*
X9694500Y-19709214D02*
X9551643Y-19709214D01*
X9537357Y-19852072D01*
X9551643Y-19837786D01*
X9580214Y-19823500D01*
X9651643Y-19823500D01*
X9680214Y-19837786D01*
X9694500Y-19852072D01*
X9708786Y-19880643D01*
X9708786Y-19952072D01*
X9694500Y-19980643D01*
X9680214Y-19994929D01*
X9651643Y-20009214D01*
X9580214Y-20009214D01*
X9551643Y-19994929D01*
X9537357Y-19980643D01*
X9994500Y-20009214D02*
X9823071Y-20009214D01*
X9908786Y-20009214D02*
X9908786Y-19709214D01*
X9880214Y-19752072D01*
X9851643Y-19780643D01*
X9823071Y-19794929D01*
X10108786Y-19709214D02*
X10108786Y-19766357D01*
X10223071Y-19709214D02*
X10223071Y-19766357D01*
X10665928Y-20123500D02*
X10651643Y-20109214D01*
X10623071Y-20066357D01*
X10608786Y-20037786D01*
X10594500Y-19994929D01*
X10580214Y-19923500D01*
X10580214Y-19866357D01*
X10594500Y-19794929D01*
X10608786Y-19752072D01*
X10623071Y-19723500D01*
X10651643Y-19680643D01*
X10665928Y-19666357D01*
X10937357Y-20009214D02*
X10765928Y-20009214D01*
X10851643Y-20009214D02*
X10851643Y-19709214D01*
X10823071Y-19752072D01*
X10794500Y-19780643D01*
X10765928Y-19794929D01*
X11051643Y-19737786D02*
X11065928Y-19723500D01*
X11094500Y-19709214D01*
X11165928Y-19709214D01*
X11194500Y-19723500D01*
X11208785Y-19737786D01*
X11223071Y-19766357D01*
X11223071Y-19794929D01*
X11208785Y-19837786D01*
X11037357Y-20009214D01*
X11223071Y-20009214D01*
X11580214Y-20009214D02*
X11580214Y-19709214D01*
X11708785Y-20009214D02*
X11708785Y-19852072D01*
X11694500Y-19823500D01*
X11665928Y-19809214D01*
X11623071Y-19809214D01*
X11594500Y-19823500D01*
X11580214Y-19837786D01*
X11894500Y-20009214D02*
X11865928Y-19994929D01*
X11851643Y-19980643D01*
X11837357Y-19952072D01*
X11837357Y-19866357D01*
X11851643Y-19837786D01*
X11865928Y-19823500D01*
X11894500Y-19809214D01*
X11937357Y-19809214D01*
X11965928Y-19823500D01*
X11980214Y-19837786D01*
X11994500Y-19866357D01*
X11994500Y-19952072D01*
X11980214Y-19980643D01*
X11965928Y-19994929D01*
X11937357Y-20009214D01*
X11894500Y-20009214D01*
X12165928Y-20009214D02*
X12137357Y-19994929D01*
X12123071Y-19966357D01*
X12123071Y-19709214D01*
X12394500Y-19994929D02*
X12365928Y-20009214D01*
X12308786Y-20009214D01*
X12280214Y-19994929D01*
X12265928Y-19966357D01*
X12265928Y-19852072D01*
X12280214Y-19823500D01*
X12308786Y-19809214D01*
X12365928Y-19809214D01*
X12394500Y-19823500D01*
X12408786Y-19852072D01*
X12408786Y-19880643D01*
X12265928Y-19909214D01*
X12523071Y-19994929D02*
X12551643Y-20009214D01*
X12608786Y-20009214D01*
X12637357Y-19994929D01*
X12651643Y-19966357D01*
X12651643Y-19952072D01*
X12637357Y-19923500D01*
X12608786Y-19909214D01*
X12565928Y-19909214D01*
X12537357Y-19894929D01*
X12523071Y-19866357D01*
X12523071Y-19852072D01*
X12537357Y-19823500D01*
X12565928Y-19809214D01*
X12608786Y-19809214D01*
X12637357Y-19823500D01*
X12751643Y-20123500D02*
X12765928Y-20109214D01*
X12794500Y-20066357D01*
X12808786Y-20037786D01*
X12823071Y-19994929D01*
X12837357Y-19923500D01*
X12837357Y-19866357D01*
X12823071Y-19794929D01*
X12808786Y-19752072D01*
X12794500Y-19723500D01*
X12765928Y-19680643D01*
X12751643Y-19666357D01*
X5674500Y-20109500D02*
X5994500Y-20429500D01*
X5994500Y-20109500D02*
X5674500Y-20429500D01*
X5994500Y-20269500D02*
G75*
G03X5994500Y-20269500I-160000J0D01*
G01*
X6237357Y-20105214D02*
X6423071Y-20105214D01*
X6323071Y-20219500D01*
X6365928Y-20219500D01*
X6394500Y-20233786D01*
X6408786Y-20248072D01*
X6423071Y-20276643D01*
X6423071Y-20348072D01*
X6408786Y-20376643D01*
X6394500Y-20390929D01*
X6365928Y-20405214D01*
X6280214Y-20405214D01*
X6251643Y-20390929D01*
X6237357Y-20376643D01*
X6551643Y-20376643D02*
X6565928Y-20390929D01*
X6551643Y-20405214D01*
X6537357Y-20390929D01*
X6551643Y-20376643D01*
X6551643Y-20405214D01*
X6680214Y-20133786D02*
X6694500Y-20119500D01*
X6723071Y-20105214D01*
X6794500Y-20105214D01*
X6823071Y-20119500D01*
X6837357Y-20133786D01*
X6851643Y-20162357D01*
X6851643Y-20190929D01*
X6837357Y-20233786D01*
X6665928Y-20405214D01*
X6851643Y-20405214D01*
X7037357Y-20105214D02*
X7065928Y-20105214D01*
X7094500Y-20119500D01*
X7108786Y-20133786D01*
X7123071Y-20162357D01*
X7137357Y-20219500D01*
X7137357Y-20290929D01*
X7123071Y-20348072D01*
X7108786Y-20376643D01*
X7094500Y-20390929D01*
X7065928Y-20405214D01*
X7037357Y-20405214D01*
X7008786Y-20390929D01*
X6994500Y-20376643D01*
X6980214Y-20348072D01*
X6965928Y-20290929D01*
X6965928Y-20219500D01*
X6980214Y-20162357D01*
X6994500Y-20133786D01*
X7008786Y-20119500D01*
X7037357Y-20105214D01*
X7265928Y-20405214D02*
X7265928Y-20205214D01*
X7265928Y-20233786D02*
X7280214Y-20219500D01*
X7308786Y-20205214D01*
X7351643Y-20205214D01*
X7380214Y-20219500D01*
X7394500Y-20248072D01*
X7394500Y-20405214D01*
X7394500Y-20248072D02*
X7408786Y-20219500D01*
X7437357Y-20205214D01*
X7480214Y-20205214D01*
X7508786Y-20219500D01*
X7523071Y-20248072D01*
X7523071Y-20405214D01*
X7665928Y-20405214D02*
X7665928Y-20205214D01*
X7665928Y-20233786D02*
X7680214Y-20219500D01*
X7708786Y-20205214D01*
X7751643Y-20205214D01*
X7780214Y-20219500D01*
X7794500Y-20248072D01*
X7794500Y-20405214D01*
X7794500Y-20248072D02*
X7808786Y-20219500D01*
X7837357Y-20205214D01*
X7880214Y-20205214D01*
X7908786Y-20219500D01*
X7923071Y-20248072D01*
X7923071Y-20405214D01*
X8508786Y-20090929D02*
X8251643Y-20476643D01*
X8894500Y-20105214D02*
X8923071Y-20105214D01*
X8951643Y-20119500D01*
X8965928Y-20133786D01*
X8980214Y-20162357D01*
X8994500Y-20219500D01*
X8994500Y-20290929D01*
X8980214Y-20348072D01*
X8965928Y-20376643D01*
X8951643Y-20390929D01*
X8923071Y-20405214D01*
X8894500Y-20405214D01*
X8865928Y-20390929D01*
X8851643Y-20376643D01*
X8837357Y-20348072D01*
X8823071Y-20290929D01*
X8823071Y-20219500D01*
X8837357Y-20162357D01*
X8851643Y-20133786D01*
X8865928Y-20119500D01*
X8894500Y-20105214D01*
X9123071Y-20376643D02*
X9137357Y-20390929D01*
X9123071Y-20405214D01*
X9108786Y-20390929D01*
X9123071Y-20376643D01*
X9123071Y-20405214D01*
X9423071Y-20405214D02*
X9251643Y-20405214D01*
X9337357Y-20405214D02*
X9337357Y-20105214D01*
X9308786Y-20148072D01*
X9280214Y-20176643D01*
X9251643Y-20190929D01*
X9537357Y-20133786D02*
X9551643Y-20119500D01*
X9580214Y-20105214D01*
X9651643Y-20105214D01*
X9680214Y-20119500D01*
X9694500Y-20133786D01*
X9708786Y-20162357D01*
X9708786Y-20190929D01*
X9694500Y-20233786D01*
X9523071Y-20405214D01*
X9708786Y-20405214D01*
X9965928Y-20105214D02*
X9908786Y-20105214D01*
X9880214Y-20119500D01*
X9865928Y-20133786D01*
X9837357Y-20176643D01*
X9823071Y-20233786D01*
X9823071Y-20348072D01*
X9837357Y-20376643D01*
X9851643Y-20390929D01*
X9880214Y-20405214D01*
X9937357Y-20405214D01*
X9965928Y-20390929D01*
X9980214Y-20376643D01*
X9994500Y-20348072D01*
X9994500Y-20276643D01*
X9980214Y-20248072D01*
X9965928Y-20233786D01*
X9937357Y-20219500D01*
X9880214Y-20219500D01*
X9851643Y-20233786D01*
X9837357Y-20248072D01*
X9823071Y-20276643D01*
X10108786Y-20105214D02*
X10108786Y-20162357D01*
X10223071Y-20105214D02*
X10223071Y-20162357D01*
X10665928Y-20519500D02*
X10651643Y-20505214D01*
X10623071Y-20462357D01*
X10608786Y-20433786D01*
X10594500Y-20390929D01*
X10580214Y-20319500D01*
X10580214Y-20262357D01*
X10594500Y-20190929D01*
X10608786Y-20148072D01*
X10623071Y-20119500D01*
X10651643Y-20076643D01*
X10665928Y-20062357D01*
X10751643Y-20105214D02*
X10951643Y-20105214D01*
X10823071Y-20405214D01*
X11294500Y-20405214D02*
X11294500Y-20105214D01*
X11423071Y-20405214D02*
X11423071Y-20248072D01*
X11408785Y-20219500D01*
X11380214Y-20205214D01*
X11337357Y-20205214D01*
X11308785Y-20219500D01*
X11294500Y-20233786D01*
X11608785Y-20405214D02*
X11580214Y-20390929D01*
X11565928Y-20376643D01*
X11551643Y-20348072D01*
X11551643Y-20262357D01*
X11565928Y-20233786D01*
X11580214Y-20219500D01*
X11608785Y-20205214D01*
X11651643Y-20205214D01*
X11680214Y-20219500D01*
X11694500Y-20233786D01*
X11708785Y-20262357D01*
X11708785Y-20348072D01*
X11694500Y-20376643D01*
X11680214Y-20390929D01*
X11651643Y-20405214D01*
X11608785Y-20405214D01*
X11880214Y-20405214D02*
X11851643Y-20390929D01*
X11837357Y-20362357D01*
X11837357Y-20105214D01*
X12108786Y-20390929D02*
X12080214Y-20405214D01*
X12023071Y-20405214D01*
X11994500Y-20390929D01*
X11980214Y-20362357D01*
X11980214Y-20248072D01*
X11994500Y-20219500D01*
X12023071Y-20205214D01*
X12080214Y-20205214D01*
X12108786Y-20219500D01*
X12123071Y-20248072D01*
X12123071Y-20276643D01*
X11980214Y-20305214D01*
X12237357Y-20390929D02*
X12265928Y-20405214D01*
X12323071Y-20405214D01*
X12351643Y-20390929D01*
X12365928Y-20362357D01*
X12365928Y-20348072D01*
X12351643Y-20319500D01*
X12323071Y-20305214D01*
X12280214Y-20305214D01*
X12251643Y-20290929D01*
X12237357Y-20262357D01*
X12237357Y-20248072D01*
X12251643Y-20219500D01*
X12280214Y-20205214D01*
X12323071Y-20205214D01*
X12351643Y-20219500D01*
X12465928Y-20519500D02*
X12480214Y-20505214D01*
X12508786Y-20462357D01*
X12523071Y-20433786D01*
X12537357Y-20390929D01*
X12551643Y-20319500D01*
X12551643Y-20262357D01*
X12537357Y-20190929D01*
X12523071Y-20148072D01*
X12508786Y-20119500D01*
X12480214Y-20076643D01*
X12465928Y-20062357D01*
X5324500Y-20384500D02*
X5994500Y-21054500D01*
X5994500Y-20384500D02*
X5324500Y-21054500D01*
X5659500Y-20384500D02*
X5659500Y-21054500D01*
X5324500Y-20719500D02*
X5994500Y-20719500D01*
X6394500Y-20555214D02*
X6337357Y-20555214D01*
X6308786Y-20569500D01*
X6294500Y-20583786D01*
X6265928Y-20626643D01*
X6251643Y-20683786D01*
X6251643Y-20798072D01*
X6265928Y-20826643D01*
X6280214Y-20840929D01*
X6308786Y-20855214D01*
X6365928Y-20855214D01*
X6394500Y-20840929D01*
X6408786Y-20826643D01*
X6423071Y-20798072D01*
X6423071Y-20726643D01*
X6408786Y-20698072D01*
X6394500Y-20683786D01*
X6365928Y-20669500D01*
X6308786Y-20669500D01*
X6280214Y-20683786D01*
X6265928Y-20698072D01*
X6251643Y-20726643D01*
X6551643Y-20826643D02*
X6565928Y-20840929D01*
X6551643Y-20855214D01*
X6537357Y-20840929D01*
X6551643Y-20826643D01*
X6551643Y-20855214D01*
X6665928Y-20555214D02*
X6865928Y-20555214D01*
X6737357Y-20855214D01*
X7037357Y-20555214D02*
X7065928Y-20555214D01*
X7094500Y-20569500D01*
X7108786Y-20583786D01*
X7123071Y-20612357D01*
X7137357Y-20669500D01*
X7137357Y-20740929D01*
X7123071Y-20798072D01*
X7108786Y-20826643D01*
X7094500Y-20840929D01*
X7065928Y-20855214D01*
X7037357Y-20855214D01*
X7008786Y-20840929D01*
X6994500Y-20826643D01*
X6980214Y-20798072D01*
X6965928Y-20740929D01*
X6965928Y-20669500D01*
X6980214Y-20612357D01*
X6994500Y-20583786D01*
X7008786Y-20569500D01*
X7037357Y-20555214D01*
X7265928Y-20855214D02*
X7265928Y-20655214D01*
X7265928Y-20683786D02*
X7280214Y-20669500D01*
X7308786Y-20655214D01*
X7351643Y-20655214D01*
X7380214Y-20669500D01*
X7394500Y-20698072D01*
X7394500Y-20855214D01*
X7394500Y-20698072D02*
X7408786Y-20669500D01*
X7437357Y-20655214D01*
X7480214Y-20655214D01*
X7508786Y-20669500D01*
X7523071Y-20698072D01*
X7523071Y-20855214D01*
X7665928Y-20855214D02*
X7665928Y-20655214D01*
X7665928Y-20683786D02*
X7680214Y-20669500D01*
X7708786Y-20655214D01*
X7751643Y-20655214D01*
X7780214Y-20669500D01*
X7794500Y-20698072D01*
X7794500Y-20855214D01*
X7794500Y-20698072D02*
X7808786Y-20669500D01*
X7837357Y-20655214D01*
X7880214Y-20655214D01*
X7908786Y-20669500D01*
X7923071Y-20698072D01*
X7923071Y-20855214D01*
X8508786Y-20540929D02*
X8251643Y-20926643D01*
X8894500Y-20555214D02*
X8923071Y-20555214D01*
X8951643Y-20569500D01*
X8965928Y-20583786D01*
X8980214Y-20612357D01*
X8994500Y-20669500D01*
X8994500Y-20740929D01*
X8980214Y-20798072D01*
X8965928Y-20826643D01*
X8951643Y-20840929D01*
X8923071Y-20855214D01*
X8894500Y-20855214D01*
X8865928Y-20840929D01*
X8851643Y-20826643D01*
X8837357Y-20798072D01*
X8823071Y-20740929D01*
X8823071Y-20669500D01*
X8837357Y-20612357D01*
X8851643Y-20583786D01*
X8865928Y-20569500D01*
X8894500Y-20555214D01*
X9123071Y-20826643D02*
X9137357Y-20840929D01*
X9123071Y-20855214D01*
X9108786Y-20840929D01*
X9123071Y-20826643D01*
X9123071Y-20855214D01*
X9251643Y-20583786D02*
X9265928Y-20569500D01*
X9294500Y-20555214D01*
X9365928Y-20555214D01*
X9394500Y-20569500D01*
X9408786Y-20583786D01*
X9423071Y-20612357D01*
X9423071Y-20640929D01*
X9408786Y-20683786D01*
X9237357Y-20855214D01*
X9423071Y-20855214D01*
X9680214Y-20555214D02*
X9623071Y-20555214D01*
X9594500Y-20569500D01*
X9580214Y-20583786D01*
X9551643Y-20626643D01*
X9537357Y-20683786D01*
X9537357Y-20798072D01*
X9551643Y-20826643D01*
X9565928Y-20840929D01*
X9594500Y-20855214D01*
X9651643Y-20855214D01*
X9680214Y-20840929D01*
X9694500Y-20826643D01*
X9708786Y-20798072D01*
X9708786Y-20726643D01*
X9694500Y-20698072D01*
X9680214Y-20683786D01*
X9651643Y-20669500D01*
X9594500Y-20669500D01*
X9565928Y-20683786D01*
X9551643Y-20698072D01*
X9537357Y-20726643D01*
X9965928Y-20655214D02*
X9965928Y-20855214D01*
X9894500Y-20540929D02*
X9823071Y-20755214D01*
X10008786Y-20755214D01*
X10108786Y-20555214D02*
X10108786Y-20612357D01*
X10223071Y-20555214D02*
X10223071Y-20612357D01*
X10665928Y-20969500D02*
X10651643Y-20955214D01*
X10623071Y-20912357D01*
X10608786Y-20883786D01*
X10594500Y-20840929D01*
X10580214Y-20769500D01*
X10580214Y-20712357D01*
X10594500Y-20640929D01*
X10608786Y-20598072D01*
X10623071Y-20569500D01*
X10651643Y-20526643D01*
X10665928Y-20512357D01*
X10937357Y-20855214D02*
X10765928Y-20855214D01*
X10851643Y-20855214D02*
X10851643Y-20555214D01*
X10823071Y-20598072D01*
X10794500Y-20626643D01*
X10765928Y-20640929D01*
X11294500Y-20855214D02*
X11294500Y-20555214D01*
X11423071Y-20855214D02*
X11423071Y-20698072D01*
X11408785Y-20669500D01*
X11380214Y-20655214D01*
X11337357Y-20655214D01*
X11308785Y-20669500D01*
X11294500Y-20683786D01*
X11608785Y-20855214D02*
X11580214Y-20840929D01*
X11565928Y-20826643D01*
X11551643Y-20798072D01*
X11551643Y-20712357D01*
X11565928Y-20683786D01*
X11580214Y-20669500D01*
X11608785Y-20655214D01*
X11651643Y-20655214D01*
X11680214Y-20669500D01*
X11694500Y-20683786D01*
X11708785Y-20712357D01*
X11708785Y-20798072D01*
X11694500Y-20826643D01*
X11680214Y-20840929D01*
X11651643Y-20855214D01*
X11608785Y-20855214D01*
X11880214Y-20855214D02*
X11851643Y-20840929D01*
X11837357Y-20812357D01*
X11837357Y-20555214D01*
X12108786Y-20840929D02*
X12080214Y-20855214D01*
X12023071Y-20855214D01*
X11994500Y-20840929D01*
X11980214Y-20812357D01*
X11980214Y-20698072D01*
X11994500Y-20669500D01*
X12023071Y-20655214D01*
X12080214Y-20655214D01*
X12108786Y-20669500D01*
X12123071Y-20698072D01*
X12123071Y-20726643D01*
X11980214Y-20755214D01*
X12223071Y-20969500D02*
X12237357Y-20955214D01*
X12265928Y-20912357D01*
X12280214Y-20883786D01*
X12294500Y-20840929D01*
X12308786Y-20769500D01*
X12308786Y-20712357D01*
X12294500Y-20640929D01*
X12280214Y-20598072D01*
X12265928Y-20569500D01*
X12237357Y-20526643D01*
X12223071Y-20512357D01*
M02*
