G04 #@! TF.FileFunction,Paste,Top*
%FSLAX46Y46*%
G04 Gerber Fmt 4.6, Leading zero omitted, Abs format (unit mm)*
G04 Created by KiCad (PCBNEW 4.0.7-e2-6376~58~ubuntu16.04.1) date Mon Jan 29 21:07:09 2018*
%MOMM*%
%LPD*%
G01*
G04 APERTURE LIST*
%ADD10C,0.100000*%
%ADD11R,1.650000X1.100000*%
G04 APERTURE END LIST*
D10*
D11*
X75565000Y-114510000D03*
X75565000Y-110010000D03*
X84515000Y-110010000D03*
X84515000Y-114510000D03*
X90535000Y-114520000D03*
X90535000Y-110020000D03*
X99485000Y-110020000D03*
X99485000Y-114520000D03*
X105535000Y-114520000D03*
X105535000Y-110020000D03*
X114485000Y-110020000D03*
X114485000Y-114520000D03*
X75535000Y-129530000D03*
X75535000Y-125030000D03*
X84485000Y-125030000D03*
X84485000Y-129530000D03*
X90545000Y-129520000D03*
X90545000Y-125020000D03*
X99495000Y-125020000D03*
X99495000Y-129520000D03*
X105545000Y-129520000D03*
X105545000Y-125020000D03*
X114495000Y-125020000D03*
X114495000Y-129520000D03*
X75545000Y-144520000D03*
X75545000Y-140020000D03*
X84495000Y-140020000D03*
X84495000Y-144520000D03*
X90545000Y-144520000D03*
X90545000Y-140020000D03*
X99495000Y-140020000D03*
X99495000Y-144520000D03*
X105545000Y-144520000D03*
X105545000Y-140020000D03*
X114495000Y-140020000D03*
X114495000Y-144520000D03*
X75545000Y-159520000D03*
X75545000Y-155020000D03*
X84495000Y-155020000D03*
X84495000Y-159520000D03*
X90545000Y-159520000D03*
X90545000Y-155020000D03*
X99495000Y-155020000D03*
X99495000Y-159520000D03*
X105545000Y-159520000D03*
X105545000Y-155020000D03*
X114495000Y-155020000D03*
X114495000Y-159520000D03*
M02*
