G04 #@! TF.FileFunction,Paste,Bot*
%FSLAX46Y46*%
G04 Gerber Fmt 4.6, Leading zero omitted, Abs format (unit mm)*
G04 Created by KiCad (PCBNEW 4.0.7-e2-6376~58~ubuntu16.04.1) date Mon Jan 29 21:07:09 2018*
%MOMM*%
%LPD*%
G01*
G04 APERTURE LIST*
%ADD10C,0.100000*%
%ADD11R,3.500000X2.300000*%
%ADD12R,0.900000X0.800000*%
%ADD13R,0.800000X0.900000*%
%ADD14R,0.400000X1.500000*%
%ADD15R,1.600000X3.500000*%
%ADD16R,1.300000X1.100000*%
%ADD17R,1.100000X1.300000*%
%ADD18R,0.850000X0.300000*%
%ADD19R,0.300000X0.850000*%
%ADD20R,0.780000X0.780000*%
%ADD21R,0.600000X1.500000*%
%ADD22R,0.600000X1.550000*%
%ADD23R,0.700000X1.200000*%
%ADD24R,4.500000X4.290000*%
%ADD25R,1.550000X1.600000*%
%ADD26R,1.550000X1.200000*%
%ADD27R,1.100000X1.650000*%
%ADD28R,2.500000X1.000000*%
%ADD29R,4.000000X2.000000*%
G04 APERTURE END LIST*
D10*
D11*
X92380000Y-119360000D03*
X97780000Y-119360000D03*
D12*
X104470000Y-140660000D03*
X104470000Y-138760000D03*
X106470000Y-139710000D03*
D13*
X109920000Y-142810000D03*
X111820000Y-142810000D03*
X110870000Y-144810000D03*
D14*
X69840000Y-121820000D03*
X69190000Y-121820000D03*
X68540000Y-121820000D03*
X68540000Y-119160000D03*
X69840000Y-119160000D03*
D15*
X107010000Y-119320000D03*
X102130000Y-119320000D03*
D16*
X70240000Y-115740000D03*
X70240000Y-113840000D03*
X68240000Y-115740000D03*
X68240000Y-113840000D03*
D17*
X98770000Y-101300000D03*
X96870000Y-101300000D03*
X77520000Y-116020000D03*
X79420000Y-116020000D03*
D16*
X93220000Y-96750000D03*
X93220000Y-98650000D03*
X81870000Y-127730000D03*
X81870000Y-125830000D03*
X75540000Y-127730000D03*
X75540000Y-125830000D03*
X116150000Y-141180000D03*
X116150000Y-139280000D03*
X69180000Y-126320000D03*
X69180000Y-128220000D03*
D17*
X98250000Y-159330000D03*
X96350000Y-159330000D03*
D16*
X100700000Y-144180000D03*
X100700000Y-146080000D03*
X90800000Y-156180000D03*
X90800000Y-158080000D03*
X72640000Y-111870000D03*
X72640000Y-113770000D03*
X110470000Y-139260000D03*
X110470000Y-141160000D03*
X108370000Y-141160000D03*
X108370000Y-139260000D03*
D13*
X104520000Y-142310000D03*
X106420000Y-142310000D03*
X105470000Y-144310000D03*
X114320000Y-141210000D03*
X112420000Y-141210000D03*
X113370000Y-139210000D03*
D12*
X96090000Y-148940000D03*
X96090000Y-147040000D03*
X98090000Y-147990000D03*
D17*
X110020000Y-146510000D03*
X111920000Y-146510000D03*
X106420000Y-146510000D03*
X108320000Y-146510000D03*
D16*
X100700000Y-149580000D03*
X100700000Y-147680000D03*
D17*
X92820000Y-159320000D03*
X94720000Y-159320000D03*
D16*
X113680000Y-142940000D03*
X113680000Y-144840000D03*
X90800000Y-152680000D03*
X90800000Y-154580000D03*
X116130000Y-137700000D03*
X116130000Y-135800000D03*
D17*
X92630000Y-147010000D03*
X94530000Y-147010000D03*
X94550000Y-148910000D03*
X92650000Y-148910000D03*
D18*
X77790000Y-118440000D03*
X77790000Y-118940000D03*
X77790000Y-119440000D03*
X77790000Y-119940000D03*
X77790000Y-120440000D03*
X77790000Y-120940000D03*
D19*
X77090000Y-121640000D03*
X76590000Y-121640000D03*
X76090000Y-121640000D03*
X75590000Y-121640000D03*
X75090000Y-121640000D03*
X74590000Y-121640000D03*
D18*
X73890000Y-120940000D03*
X73890000Y-120440000D03*
X73890000Y-119940000D03*
X73890000Y-119440000D03*
X73890000Y-118940000D03*
X73890000Y-118440000D03*
D19*
X74590000Y-117740000D03*
X75090000Y-117740000D03*
X75590000Y-117740000D03*
X76090000Y-117740000D03*
X76590000Y-117740000D03*
X77090000Y-117740000D03*
D20*
X75190000Y-120340000D03*
X75190000Y-119040000D03*
X76490000Y-120340000D03*
X76490000Y-119040000D03*
D21*
X91075000Y-65990000D03*
X92345000Y-65990000D03*
X93615000Y-65990000D03*
X94885000Y-65990000D03*
X96155000Y-65990000D03*
X97425000Y-65990000D03*
X98695000Y-65990000D03*
X99965000Y-65990000D03*
X99965000Y-71390000D03*
X98695000Y-71390000D03*
X97425000Y-71390000D03*
X96155000Y-71390000D03*
X94885000Y-71390000D03*
X93615000Y-71390000D03*
X92345000Y-71390000D03*
X91075000Y-71390000D03*
X99965000Y-82670000D03*
X98695000Y-82670000D03*
X97425000Y-82670000D03*
X96155000Y-82670000D03*
X94885000Y-82670000D03*
X93615000Y-82670000D03*
X92345000Y-82670000D03*
X91075000Y-82670000D03*
X91075000Y-77270000D03*
X92345000Y-77270000D03*
X93615000Y-77270000D03*
X94885000Y-77270000D03*
X96155000Y-77270000D03*
X97425000Y-77270000D03*
X98695000Y-77270000D03*
X99965000Y-77270000D03*
D22*
X92695000Y-151630000D03*
X93965000Y-151630000D03*
X95235000Y-151630000D03*
X96505000Y-151630000D03*
X96505000Y-157030000D03*
X95235000Y-157030000D03*
X93965000Y-157030000D03*
X92695000Y-157030000D03*
D16*
X89210000Y-69370000D03*
X89210000Y-71270000D03*
X101760000Y-79430000D03*
X101760000Y-77530000D03*
D17*
X92820000Y-161190000D03*
X94720000Y-161190000D03*
D23*
X109730000Y-152090000D03*
X111000000Y-152090000D03*
X112280000Y-152090000D03*
X113550000Y-152090000D03*
X113550000Y-157890000D03*
X112280000Y-157890000D03*
X111000000Y-157890000D03*
X109730000Y-157890000D03*
D24*
X111640000Y-155490000D03*
D25*
X110550000Y-156240000D03*
X112730000Y-156240000D03*
D26*
X110550000Y-154240000D03*
X112730000Y-154240000D03*
D17*
X68730000Y-130170000D03*
X70630000Y-130170000D03*
X69990000Y-139640000D03*
X71890000Y-139640000D03*
D13*
X68040000Y-85200000D03*
X66140000Y-85200000D03*
X67090000Y-83200000D03*
D17*
X98870000Y-108700000D03*
X96970000Y-108700000D03*
D16*
X93160000Y-104230000D03*
X93160000Y-106130000D03*
D17*
X77570000Y-114000000D03*
X79470000Y-114000000D03*
D27*
X85220000Y-112500000D03*
X81820000Y-112500000D03*
D12*
X68920000Y-145380000D03*
X68920000Y-143480000D03*
X70920000Y-144430000D03*
D13*
X79570000Y-104800000D03*
X77670000Y-104800000D03*
X78620000Y-102800000D03*
X77670000Y-110200000D03*
X79570000Y-110200000D03*
X78620000Y-112200000D03*
D16*
X67140000Y-143500000D03*
X67140000Y-145400000D03*
D17*
X69960000Y-141600000D03*
X71860000Y-141600000D03*
D16*
X103020000Y-105150000D03*
X103020000Y-107050000D03*
D17*
X87170000Y-94300000D03*
X85270000Y-94300000D03*
D16*
X83320000Y-106650000D03*
X83320000Y-104750000D03*
D17*
X85270000Y-98100000D03*
X87170000Y-98100000D03*
X83270000Y-102800000D03*
X81370000Y-102800000D03*
D28*
X95760000Y-106670000D03*
X95760000Y-105170000D03*
X95760000Y-103670000D03*
D29*
X99720000Y-105170000D03*
D10*
G36*
X96995000Y-104670000D02*
X97745000Y-104170000D01*
X97745000Y-106170000D01*
X96995000Y-105670000D01*
X96995000Y-104670000D01*
X96995000Y-104670000D01*
G37*
D13*
X86970000Y-103100000D03*
X85070000Y-103100000D03*
X86020000Y-101100000D03*
D12*
X85020000Y-106650000D03*
X85020000Y-104750000D03*
X87020000Y-105700000D03*
D17*
X87170000Y-96200000D03*
X85270000Y-96200000D03*
D16*
X90820000Y-101150000D03*
X90820000Y-103050000D03*
X88820000Y-103050000D03*
X88820000Y-101150000D03*
X81420000Y-104750000D03*
X81420000Y-106650000D03*
D17*
X77670000Y-108500000D03*
X79570000Y-108500000D03*
X79570000Y-106600000D03*
X77670000Y-106600000D03*
D28*
X95740000Y-99200000D03*
X95740000Y-97700000D03*
X95740000Y-96200000D03*
D29*
X99700000Y-97700000D03*
D10*
G36*
X96975000Y-97200000D02*
X97725000Y-96700000D01*
X97725000Y-98700000D01*
X96975000Y-98200000D01*
X96975000Y-97200000D01*
X96975000Y-97200000D01*
G37*
D27*
X90220000Y-112500000D03*
X86820000Y-112500000D03*
D17*
X66080000Y-87390000D03*
X67980000Y-87390000D03*
X71700000Y-83290000D03*
X69800000Y-83290000D03*
D16*
X71160000Y-128230000D03*
X71160000Y-126330000D03*
D13*
X70880000Y-151710000D03*
X68980000Y-151710000D03*
X69930000Y-149710000D03*
D17*
X71920000Y-137300000D03*
X73820000Y-137300000D03*
X68990000Y-153450000D03*
X70890000Y-153450000D03*
X70860000Y-147910000D03*
X68960000Y-147910000D03*
M02*
