G04 #@! TF.FileFunction,Soldermask,Top*
%FSLAX46Y46*%
G04 Gerber Fmt 4.6, Leading zero omitted, Abs format (unit mm)*
G04 Created by KiCad (PCBNEW 4.0.7-e2-6376~58~ubuntu16.04.1) date Mon Jan 29 21:07:09 2018*
%MOMM*%
%LPD*%
G01*
G04 APERTURE LIST*
%ADD10C,0.100000*%
%ADD11C,7.400000*%
%ADD12C,5.400000*%
%ADD13C,2.400000*%
%ADD14C,4.400000*%
%ADD15R,1.400000X1.400000*%
%ADD16O,1.400000X1.400000*%
%ADD17R,2.300000X2.300000*%
%ADD18R,2.100000X2.100000*%
%ADD19R,1.900000X2.600000*%
%ADD20O,1.900000X2.600000*%
%ADD21R,2.050000X1.500000*%
%ADD22O,2.100000X2.100000*%
G04 APERTURE END LIST*
D10*
D11*
X119160000Y-98100000D03*
D12*
X124020000Y-102210000D03*
X95010000Y-134720000D03*
X66020000Y-102220000D03*
D13*
X71710000Y-74680000D03*
X74309840Y-74680000D03*
X66710160Y-74680000D03*
D12*
X66020000Y-54040000D03*
X124030000Y-54100000D03*
X124020000Y-167220000D03*
D14*
X120920000Y-122100000D03*
X126000000Y-122100000D03*
X120920000Y-131100000D03*
X126000000Y-131100000D03*
X120920000Y-158100000D03*
X126000000Y-158100000D03*
D15*
X65580000Y-123950000D03*
D16*
X64310000Y-123950000D03*
X65580000Y-125220000D03*
X64310000Y-125220000D03*
X65580000Y-126490000D03*
X64310000Y-126490000D03*
X65580000Y-127760000D03*
X64310000Y-127760000D03*
X65580000Y-129030000D03*
X64310000Y-129030000D03*
D12*
X66020000Y-167210000D03*
D14*
X120920000Y-140100000D03*
X126000000Y-140100000D03*
D17*
X79640000Y-98290000D03*
X74560000Y-98290000D03*
D18*
X87700000Y-160040000D03*
X116510000Y-151630000D03*
X117090000Y-143940000D03*
D19*
X86210000Y-88910000D03*
D20*
X88750000Y-88910000D03*
X91290000Y-88910000D03*
X93830000Y-88910000D03*
X93830000Y-60240000D03*
X91290000Y-60240000D03*
X88750000Y-60240000D03*
X86210000Y-60240000D03*
X96370000Y-88910000D03*
X98910000Y-88910000D03*
X101450000Y-88910000D03*
X103990000Y-88910000D03*
X96370000Y-60240000D03*
X98910000Y-60240000D03*
X101450000Y-60240000D03*
X103990000Y-60240000D03*
D18*
X82180000Y-98290000D03*
D21*
X75565000Y-114510000D03*
X75565000Y-110010000D03*
X84515000Y-110010000D03*
X84515000Y-114510000D03*
X90535000Y-114520000D03*
X90535000Y-110020000D03*
X99485000Y-110020000D03*
X99485000Y-114520000D03*
X105535000Y-114520000D03*
X105535000Y-110020000D03*
X114485000Y-110020000D03*
X114485000Y-114520000D03*
X75535000Y-129530000D03*
X75535000Y-125030000D03*
X84485000Y-125030000D03*
X84485000Y-129530000D03*
X90545000Y-129520000D03*
X90545000Y-125020000D03*
X99495000Y-125020000D03*
X99495000Y-129520000D03*
X105545000Y-129520000D03*
X105545000Y-125020000D03*
X114495000Y-125020000D03*
X114495000Y-129520000D03*
X75545000Y-144520000D03*
X75545000Y-140020000D03*
X84495000Y-140020000D03*
X84495000Y-144520000D03*
X90545000Y-144520000D03*
X90545000Y-140020000D03*
X99495000Y-140020000D03*
X99495000Y-144520000D03*
X105545000Y-144520000D03*
X105545000Y-140020000D03*
X114495000Y-140020000D03*
X114495000Y-144520000D03*
X75545000Y-159520000D03*
X75545000Y-155020000D03*
X84495000Y-155020000D03*
X84495000Y-159520000D03*
X90545000Y-159520000D03*
X90545000Y-155020000D03*
X99495000Y-155020000D03*
X99495000Y-159520000D03*
X105545000Y-159520000D03*
X105545000Y-155020000D03*
X114495000Y-155020000D03*
X114495000Y-159520000D03*
D14*
X120920000Y-149100000D03*
X126000000Y-149100000D03*
D18*
X65050000Y-117370000D03*
D22*
X65050000Y-114830000D03*
X65050000Y-112290000D03*
X65050000Y-109750000D03*
D14*
X120920000Y-113100000D03*
X126000000Y-113100000D03*
D18*
X67430000Y-135230000D03*
X63950000Y-139580000D03*
D22*
X63950000Y-142120000D03*
X63950000Y-144660000D03*
X63950000Y-147200000D03*
X63950000Y-149740000D03*
X63950000Y-152280000D03*
M02*
