M48
;DRILL file {KiCad 4.0.7-e2-6376~58~ubuntu16.04.1} date Mon Jan 29 21:07:13 2018
;FORMAT={-:-/ absolute / metric / decimal}
FMAT,2
METRIC,TZ
T1C0.400
T2C0.600
T3C0.650
T4C1.000
T5C1.300
T6C3.200
T7C6.700
%
G90
G05
M71
T1
X69.32Y-87.51
X71.74Y-119.2
X71.79Y-120.05
X71.79Y-120.96
X71.81Y-121.82
X73.14Y-122.39
X74.49Y-112.43
X76.19Y-115.81
X85.84Y-114.51
X88.84Y-140.89
X88.9Y-114.6
X88.94Y-138.79
X89.34Y-125.99
X89.44Y-123.59
X101.24Y-124.09
X101.24Y-125.99
X101.24Y-140.89
X101.25Y-138.93
X101.42Y-115.56
X102.03Y-113.93
X102.24Y-124.09
X102.24Y-125.99
X102.32Y-115.18
X102.34Y-140.89
X102.36Y-138.86
X103.18Y-124.08
X103.21Y-125.95
X103.37Y-115.17
T2
X64.62Y-94.68
X67.53Y-125.78
X67.74Y-117.49
X68.72Y-65.16
X68.81Y-110.12
X69.64Y-123.59
X72.81Y-132.65
X74.26Y-132.68
X75.89Y-119.64
X79.04Y-117.59
X79.17Y-146.53
X79.35Y-133.33
X79.77Y-121.99
X80.84Y-115.79
X81.08Y-53.07
X82.14Y-114.29
X86.47Y-146.55
X86.95Y-137.52
X88.15Y-136.29
X89.14Y-72.69
X89.24Y-67.99
X89.65Y-150.82
X91.Y-148.38
X91.075Y-80.855
X91.45Y-107.9
X91.53Y-73.23
X92.64Y-75.79
X93.77Y-102.09
X94.73Y-73.21
X94.85Y-74.92
X96.28Y-127.27
X96.35Y-153.15
X99.06Y-149.99
X99.59Y-67.64
X101.64Y-76.19
X101.74Y-80.69
X102.15Y-112.15
X103.02Y-93.57
X103.67Y-97.31
X103.74Y-149.81
X104.62Y-107.1
X105.08Y-133.65
X106.2Y-151.52
X109.7Y-53.16
X110.76Y-121.5
X112.89Y-131.98
X122.68Y-86.5
X122.77Y-67.48
T3
X64.31Y-123.95
X64.31Y-125.22
X64.31Y-126.49
X64.31Y-127.76
X64.31Y-129.03
X65.58Y-123.95
X65.58Y-125.22
X65.58Y-126.49
X65.58Y-127.76
X65.58Y-129.03
T4
X63.95Y-139.58
X63.95Y-142.12
X63.95Y-144.66
X63.95Y-147.2
X63.95Y-149.74
X63.95Y-152.28
X65.05Y-109.75
X65.05Y-112.29
X65.05Y-114.83
X65.05Y-117.37
X66.71Y-74.68
X67.43Y-135.23
X71.71Y-74.68
X74.31Y-74.68
X74.56Y-98.29
X79.64Y-98.29
X82.18Y-98.29
X86.21Y-60.24
X86.21Y-88.91
X87.7Y-160.04
X88.75Y-60.24
X88.75Y-88.91
X91.29Y-60.24
X91.29Y-88.91
X93.83Y-60.24
X93.83Y-88.91
X96.37Y-60.24
X96.37Y-88.91
X98.91Y-60.24
X98.91Y-88.91
X101.45Y-60.24
X101.45Y-88.91
X103.99Y-60.24
X103.99Y-88.91
X116.51Y-151.63
X117.09Y-143.94
T5
X120.92Y-113.1
X120.92Y-122.1
X120.92Y-131.1
X120.92Y-140.1
X120.92Y-149.1
X120.92Y-158.1
X126.Y-113.1
X126.Y-122.1
X126.Y-131.1
X126.Y-140.1
X126.Y-149.1
X126.Y-158.1
T6
X66.02Y-54.04
X66.02Y-102.22
X66.02Y-167.21
X95.01Y-134.72
X124.02Y-102.21
X124.02Y-167.22
X124.03Y-54.1
T7
X119.16Y-98.1
T0
M30
